<?xml version="1.0" encoding="UTF-8" standalone="no"?><!DOCTYPE svg PUBLIC "-//W3C//DTD SVG 1.1//EN" "http://www.w3.org/Graphics/SVG/1.1/DTD/svg11.dtd"><svg width="100%" height="100%" viewBox="0 0 1233 1341" version="1.1" xmlns="http://www.w3.org/2000/svg" xmlns:xlink="http://www.w3.org/1999/xlink" xml:space="preserve" xmlns:serif="http://www.serif.com/" style="fill-rule:evenodd;clip-rule:evenodd;stroke-linejoin:round;stroke-miterlimit:2;"><rect id="Corner" x="0" y="0" width="1232.679" height="1340.616" style="fill:none;"/><clipPath id="_clip1"><rect x="0" y="0" width="1232.679" height="1340.616"/></clipPath><g clip-path="url(#_clip1)"><path d="M797.509,882.563c-107.656,4.055 -122.635,-74.754 -124.653,-109.926c-2.877,-50.136 51.161,-94.032 107.394,-100.745c81.883,-7.581 212.329,-62.585 297.611,-135.413c217.878,-210.895 5.996,-510.64 -238.408,-532.371c-456.82,-40.619 -594.306,316.752 -595.126,559.217c0,288.3 197.08,467.752 334.048,520.722c237.862,91.989 483.838,-1.923 572.304,-75.397c44.51,-35.017 121.727,-28.908 147.176,-4.702c25.45,24.206 70.675,95.785 5.521,149.937c-381.641,317.199 -1151.337,207.553 -1259.953,-443.974c-62.292,-373.657 114.765,-685.469 338.073,-816.99c254.62,-149.963 672.719,-137.272 896.569,124.33c175.217,226.31 108.343,459.454 78.255,519.241c-74.991,149.016 -332.992,337.565 -558.811,346.07Z" style="fill:#a63d40;"/></g></svg>