<?xml version="1.0" encoding="UTF-8" standalone="no"?><!DOCTYPE svg PUBLIC "-//W3C//DTD SVG 1.1//EN" "http://www.w3.org/Graphics/SVG/1.1/DTD/svg11.dtd"><svg width="100%" height="100%" viewBox="0 0 1652 510" version="1.1" xmlns="http://www.w3.org/2000/svg" xmlns:xlink="http://www.w3.org/1999/xlink" xml:space="preserve" xmlns:serif="http://www.serif.com/" style="fill-rule:evenodd;clip-rule:evenodd;stroke-linejoin:round;stroke-miterlimit:2;"><rect id="Detail01" x="0" y="0" width="1651.603" height="509.799" style="fill:none;"/><clipPath id="_clip1"><rect x="0" y="0" width="1651.603" height="509.799"/></clipPath><g clip-path="url(#_clip1)"><rect x="-33.286" y="-33.715" width="1718.175" height="577.229" style="fill:#f5f1ec;"/><g><path d="M235.868,390.946c18.149,0 34.43,-4.3 48.834,-12.913c14.395,-8.608 25.744,-20.264 34.043,-34.982c8.291,-14.712 12.443,-31.46 12.443,-50.242c0,-18.468 -4.152,-35.135 -12.443,-50.007c-8.299,-14.865 -19.648,-26.53 -34.043,-34.982c-14.403,-8.452 -30.685,-12.678 -48.834,-12.678c-17.843,0 -33.969,4.226 -48.364,12.678c-14.401,8.452 -25.67,20.117 -33.808,34.982c-8.143,14.873 -12.208,31.539 -12.208,50.007c0,18.782 4.065,35.53 12.208,50.242c8.138,14.717 19.407,26.374 33.808,34.982c14.395,8.613 30.521,12.913 48.364,12.913m0,32.869c-24.417,0 -46.412,-5.635 -65.972,-16.904c-19.568,-11.269 -35.064,-26.685 -46.486,-46.251c-11.43,-19.56 -17.3,-41.555 -17.608,-65.972l0,-190.39c0,-5.635 1.643,-10.095 4.93,-13.382c3.287,-3.287 7.748,-4.93 13.382,-4.93c5.321,0 9.626,1.643 12.913,4.93c3.287,3.287 4.93,7.748 4.93,13.382l0,106.81c10.33,-14.712 24.018,-26.53 41.086,-35.451c17.057,-8.922 36.074,-13.382 57.051,-13.382c24.1,0 45.7,5.714 64.798,17.139c19.088,11.43 34.198,26.999 45.312,46.721c11.108,19.721 16.669,41.951 16.669,66.677c0,25.05 -5.714,47.425 -17.139,67.143c-11.433,19.724 -26.999,35.298 -46.721,46.723c-19.721,11.43 -42.104,17.139 -67.146,17.139" style="fill:#666;fill-rule:nonzero;"/><path d="M471.519,423.814c-12.508,0 -23.683,-3.435 -33.53,-10.316c-9.844,-6.873 -17.51,-16.412 -22.977,-28.601c-5.472,-12.194 -8.203,-26.262 -8.203,-42.205l0,-236.082c0,-5.311 1.638,-9.61 4.921,-12.892c3.282,-3.282 7.579,-4.926 12.898,-4.926c5.311,0 9.61,1.644 12.892,4.926c3.282,3.282 4.926,7.582 4.926,12.892l0,236.082c0,13.446 2.732,24.383 8.206,32.824c5.466,8.44 12.423,12.663 20.866,12.663l26.93,0c4.686,0 8.438,1.638 11.254,4.921c2.813,3.282 4.217,7.584 4.217,12.895c0,5.319 -1.955,9.613 -5.861,12.895c-3.912,3.282 -8.988,4.924 -15.24,4.924l-21.3,0Z" style="fill-rule:nonzero;"/><path d="M497.194,360.913c-5.798,0 -10.389,-1.691 -13.771,-5.074c-3.382,-3.382 -5.074,-7.973 -5.074,-13.771l0,-156.316c0,-5.798 1.691,-10.389 5.074,-13.769c3.382,-3.385 7.973,-5.076 13.771,-5.076c5.473,0 9.903,1.691 13.285,5.076c3.385,3.38 5.074,7.97 5.074,13.769l0,156.316c0,5.798 -1.688,10.389 -5.074,13.771c-3.382,3.382 -7.813,5.074 -13.285,5.074m-0.444,-231.21c-5.886,0 -10.968,-2.138 -15.241,-6.419c-4.281,-4.273 -6.416,-9.487 -6.416,-15.642c0,-6.681 2.205,-11.962 6.619,-15.842c4.411,-3.874 9.555,-5.815 15.44,-5.815c5.613,0 10.628,1.941 15.038,5.815c4.413,3.88 6.619,9.161 6.619,15.842c0,6.155 -2.144,11.369 -6.416,15.642c-4.279,4.281 -9.496,6.419 -15.642,6.419" style="fill-rule:nonzero;"/><path d="M776.81,423.814c-5.329,0 -9.713,-1.718 -13.155,-5.168c-3.45,-3.442 -5.168,-7.67 -5.168,-12.685l0,-122.152c0,-19.415 -3.687,-35.389 -11.041,-47.921c-7.364,-12.524 -17.383,-21.917 -30.071,-28.189c-12.682,-6.261 -27.012,-9.396 -42.985,-9.396c-15.351,0 -29.21,2.98 -41.581,8.926c-12.376,5.955 -22.161,14.094 -29.363,24.43c-7.206,10.339 -10.806,22.081 -10.806,35.236l-25.84,0c0.626,-19.732 5.946,-37.35 15.976,-52.854c10.019,-15.504 23.33,-27.716 39.934,-36.646c16.596,-8.924 35.075,-13.39 55.438,-13.39c22.234,0 42.122,4.624 59.666,13.86c17.536,9.243 31.396,22.786 41.576,40.639c10.177,17.853 15.269,39.628 15.269,65.304l0,122.152c0,5.015 -1.724,9.243 -5.165,12.685c-3.45,3.45 -7.681,5.168 -12.685,5.168m-202.02,0c-5.638,0 -10.101,-1.644 -13.39,-4.933c-3.289,-3.289 -4.933,-7.591 -4.933,-12.92l0,-220.813c0,-5.635 1.644,-10.101 4.933,-13.387c3.289,-3.289 7.752,-4.936 13.39,-4.936c5.321,0 9.628,1.647 12.92,4.936c3.289,3.286 4.93,7.752 4.93,13.387l0,220.813c0,5.329 -1.642,9.631 -4.93,12.92c-3.291,3.289 -7.599,4.933 -12.92,4.933" style="fill:#666;fill-rule:nonzero;"/><path d="M945.368,390.952c18.148,0 34.344,-4.299 48.592,-12.91c14.237,-8.606 25.501,-20.26 33.801,-34.975c8.289,-14.709 12.438,-31.454 12.438,-50.232c0,-18.464 -4.149,-35.127 -12.438,-49.997c-8.3,-14.862 -19.564,-26.524 -33.801,-34.975c-14.247,-8.45 -30.444,-12.675 -48.592,-12.675c-17.837,0 -33.959,4.225 -48.354,12.675c-14.398,8.45 -25.82,20.113 -34.268,34.975c-8.45,14.87 -12.678,31.533 -12.678,49.997c0,18.778 4.228,35.523 12.678,50.232c8.448,14.714 19.87,26.369 34.268,34.975c14.395,8.611 30.517,12.91 48.354,12.91m0,32.862c-24.728,0 -46.943,-5.707 -66.663,-17.135c-19.714,-11.423 -35.291,-26.994 -46.711,-46.714c-11.428,-19.714 -17.132,-42.085 -17.132,-67.13c0,-24.72 5.552,-46.946 16.663,-66.663c11.106,-19.717 26.21,-35.283 45.305,-46.711c19.084,-11.423 40.679,-17.135 64.782,-17.135c20.967,0 39.904,4.46 56.807,13.38c16.898,8.92 30.512,20.735 40.84,35.444l0,-104.443c0,-5.631 1.717,-10.091 5.164,-13.377c3.442,-3.286 7.82,-4.932 13.145,-4.932c5.32,0 9.698,1.646 13.148,4.932c3.439,3.286 5.161,7.746 5.161,13.377l0,188.007c-0.63,24.412 -6.652,46.403 -18.074,65.959c-11.428,19.562 -26.92,34.975 -46.476,46.242c-19.562,11.267 -41.547,16.9 -65.959,16.9" style="fill:#666;fill-rule:nonzero;"/><path d="M1453.623,301.701l-23.016,-23.483l81.255,-102.857c2.187,-3.127 4.617,-5.322 7.28,-6.575c2.657,-1.248 5.401,-1.879 8.219,-1.879c5.319,0 9.391,1.644 12.211,4.931c2.818,3.288 4.145,7.206 3.992,11.742c-0.161,4.541 -1.808,8.85 -4.931,12.916l-85.01,105.205Zm76.083,122.113c-3.757,0 -6.807,-0.625 -9.156,-1.879c-2.351,-1.248 -4.779,-3.443 -7.28,-6.575l-81.252,-103.327l-14.09,-12.211l-81.722,-103.796c-3.452,-4.063 -5.093,-8.293 -4.934,-12.681c0.156,-4.38 1.647,-8.219 4.465,-11.507c2.815,-3.288 6.884,-4.931 12.211,-4.931c5.319,0 9.863,1.879 13.62,5.636l78.904,100.978l12.681,10.333l87.355,111.781c4.069,5.011 5.792,9.707 5.169,14.09c-0.634,4.388 -2.583,7.831 -5.871,10.333c-3.29,2.509 -6.657,3.757 -10.101,3.757m-185.985,0c-5.013,0 -9.006,-1.565 -11.979,-4.697c-2.979,-3.127 -4.541,-6.884 -4.694,-11.272c-0.161,-4.38 1.48,-8.607 4.931,-12.681l86.419,-108.023l20.196,26.771l-82.192,104.266c-2.821,3.757 -7.048,5.636 -12.681,5.636" style="fill:#666;fill-rule:nonzero;"/><path d="M1225.018,348.144c-18.405,0.693 -20.966,-12.78 -21.311,-18.793c-0.492,-8.571 8.747,-16.076 18.36,-17.224c13.999,-1.296 36.3,-10.7 50.88,-23.151c37.249,-36.055 1.025,-87.3 -40.759,-91.016c-78.099,-6.944 -101.604,54.153 -101.745,95.605c0,49.289 33.693,79.968 57.11,89.024c40.666,15.727 82.718,-0.329 97.843,-12.89c7.609,-5.987 20.811,-4.942 25.162,-0.804c4.351,4.138 12.083,16.376 0.944,25.634c-65.247,54.229 -196.836,35.484 -215.405,-75.903c-10.65,-63.881 19.621,-117.19 57.798,-139.675c43.531,-25.638 115.01,-23.468 153.28,21.256c29.956,38.691 18.523,78.55 13.379,88.771c-12.821,25.476 -56.929,57.711 -95.536,59.165Z" style="fill:#666;"/></g><rect x="661.674" y="0" width="989.929" height="509.799" style="fill:url(#_Linear2);"/></g><defs><linearGradient id="_Linear2" x1="0" y1="0" x2="1" y2="0" gradientUnits="userSpaceOnUse" gradientTransform="matrix(303.436092,0,0,303.436092,739.219188,254.899289)"><stop offset="0" style="stop-color:#fff;stop-opacity:0"/><stop offset="1" style="stop-color:#f5f1ec;stop-opacity:1"/></linearGradient></defs></svg>