<?xml version="1.0" encoding="UTF-8" standalone="no"?><!DOCTYPE svg PUBLIC "-//W3C//DTD SVG 1.1//EN" "http://www.w3.org/Graphics/SVG/1.1/DTD/svg11.dtd"><svg width="100%" height="100%" viewBox="0 0 735 797" version="1.1" xmlns="http://www.w3.org/2000/svg" xmlns:xlink="http://www.w3.org/1999/xlink" xml:space="preserve" xmlns:serif="http://www.serif.com/" style="fill-rule:evenodd;clip-rule:evenodd;stroke-linejoin:round;stroke-miterlimit:2;"><rect id="Mark" x="0" y="0" width="734.738" height="796.201" style="fill:none;"/><clipPath id="_clip1"><rect x="0" y="0" width="734.738" height="796.201"/></clipPath><g clip-path="url(#_clip1)"><rect x="-997.915" y="-545.113" width="2720.374" height="1896.528" style="fill:#f5f1ec;"/><g><path d="M407.883,551.487c-51.32,1.933 -58.461,-35.636 -59.423,-52.402c-1.371,-23.9 24.389,-44.826 51.195,-48.026c39.034,-3.614 101.219,-29.834 141.873,-64.552c103.864,-100.535 2.858,-243.425 -113.651,-253.785c-217.769,-19.363 -283.31,150.998 -283.701,266.582c0,137.435 93.949,222.981 159.243,248.232c113.39,43.852 230.649,-0.917 272.821,-35.942c21.218,-16.693 58.028,-13.78 70.16,-2.241c12.132,11.539 33.691,45.661 2.632,71.476c-181.931,151.211 -548.85,98.942 -600.628,-211.645c-29.695,-178.125 54.709,-326.767 161.162,-389.464c121.379,-71.488 320.69,-65.438 427.4,59.269c83.527,107.884 51.648,219.025 37.305,247.526c-35.749,71.037 -158.739,160.919 -266.389,164.974Z" style="fill:#a63d40;"/></g></g></svg>