<?xml version="1.0" encoding="UTF-8" standalone="no"?><!DOCTYPE svg PUBLIC "-//W3C//DTD SVG 1.1//EN" "http://www.w3.org/Graphics/SVG/1.1/DTD/svg11.dtd"><svg width="100%" height="100%" viewBox="0 0 1195 510" version="1.1" xmlns="http://www.w3.org/2000/svg" xmlns:xlink="http://www.w3.org/1999/xlink" xml:space="preserve" xmlns:serif="http://www.serif.com/" style="fill-rule:evenodd;clip-rule:evenodd;stroke-linecap:round;stroke-linejoin:round;stroke-miterlimit:1.5;"><rect id="Spacing" x="0" y="0" width="1194.794" height="509.799" style="fill:none;"/><g><path d="M975.817,412.303l-759.777,0l0,-314.859l759.777,0.297l0,314.562Zm-94.499,-210.203l-571.837,0l0.297,105.646l571.54,0l-0,-105.646Z" style="fill:#7a918d;fill-opacity:0.24;"/><path d="M268.585,171.932c-7.378,0.278 -8.405,-5.123 -8.543,-7.533c-0.197,-3.436 3.506,-6.444 7.36,-6.904c5.612,-0.52 14.551,-4.289 20.396,-9.28c14.932,-14.453 0.411,-34.995 -16.339,-36.485c-31.307,-2.784 -40.729,21.708 -40.786,38.325c0,19.758 13.506,32.056 22.893,35.686c16.301,6.304 33.159,-0.132 39.221,-5.167c3.05,-2.4 8.342,-1.981 10.086,-0.322c1.744,1.659 4.844,6.564 0.378,10.276c-26.155,21.738 -78.904,14.224 -86.348,-30.427c-4.269,-25.608 7.865,-46.977 23.169,-55.99c17.45,-10.277 46.103,-9.408 61.444,8.521c12.008,15.51 7.425,31.488 5.363,35.585c-5.139,10.212 -22.821,23.134 -38.297,23.717Z" style="fill:#e0e0e0;"/><path d="M216.043,150.303c-0.012,-1.437 0.026,-2.856 0.113,-4.255l2.079,0.129c-0.084,1.35 -0.121,2.72 -0.109,4.108l-2.083,0.018Zm1.255,-12.685l2.038,0.43c-0.279,1.323 -0.513,2.672 -0.698,4.043l-2.065,-0.279c0.192,-1.423 0.435,-2.821 0.724,-4.194Zm2.373,-8.169l1.951,0.731c-0.474,1.266 -0.905,2.563 -1.291,3.89l-2.001,-0.581c0.4,-1.378 0.848,-2.725 1.34,-4.04Zm3.589,-7.712l1.814,1.024c-0.663,1.175 -1.288,2.39 -1.87,3.641l-1.889,-0.879c0.605,-1.301 1.255,-2.564 1.944,-3.786Zm4.765,-7.045l1.623,1.306c-0.843,1.048 -1.652,2.144 -2.424,3.285l-1.726,-1.167c0.804,-1.19 1.648,-2.333 2.527,-3.425Zm5.89,-6.133l1.365,1.574c-1.009,0.876 -1.992,1.811 -2.943,2.803l-1.504,-1.442c0.996,-1.039 2.025,-2.018 3.082,-2.935Zm6.944,-4.901l1.017,1.818c-0.251,0.14 -0.499,0.283 -0.745,0.428c-0.901,0.531 -1.791,1.107 -2.666,1.727l-1.204,-1.7c0.923,-0.653 1.862,-1.261 2.813,-1.821c0.259,-0.153 0.521,-0.303 0.785,-0.451Zm7.786,-3.417l0.661,1.976c-1.301,0.435 -2.57,0.922 -3.799,1.46l-0.834,-1.909c1.285,-0.562 2.612,-1.071 3.973,-1.527Zm8.26,-2.026l0.334,2.056c-1.356,0.22 -2.695,0.492 -4.01,0.814l-0.495,-2.024c1.368,-0.335 2.761,-0.617 4.171,-0.846Zm8.476,-0.718l0.018,2.083c-1.371,0.012 -2.738,0.075 -4.094,0.19l-0.175,-2.076c1.408,-0.119 2.828,-0.185 4.252,-0.197Zm8.486,0.581l-0.304,2.061c-1.351,-0.199 -2.71,-0.345 -4.07,-0.437l0.142,-2.079c1.414,0.096 2.827,0.248 4.232,0.455Zm8.284,1.926l-0.642,1.982c-1.294,-0.419 -2.606,-0.781 -3.931,-1.088l0.47,-2.03c1.383,0.321 2.752,0.699 4.102,1.135Zm7.819,3.34l-0.995,1.83c-1.19,-0.647 -2.41,-1.234 -3.654,-1.765l0.817,-1.917c1.305,0.556 2.584,1.173 3.832,1.851Zm7.023,4.788l-1.345,1.591c-1.034,-0.874 -2.107,-1.688 -3.216,-2.442l1.172,-1.722c1.168,0.795 2.3,1.653 3.389,2.574Zm5.776,6.197l-1.709,1.191c-0.366,-0.526 -0.752,-1.051 -1.168,-1.589c-0.425,-0.495 -0.862,-0.977 -1.308,-1.445l1.507,-1.438c0.487,0.511 0.963,1.037 1.427,1.579c0.439,0.567 0.855,1.134 1.251,1.701Zm4.048,7.393l-1.928,0.789c-0.486,-1.188 -1.056,-2.388 -1.718,-3.595l1.826,-1.003c0.702,1.278 1.305,2.55 1.82,3.808Zm2.254,8.119l-2.059,0.315c-0.193,-1.262 -0.466,-2.56 -0.834,-3.884l2.007,-0.558c0.391,1.407 0.681,2.786 0.886,4.126Zm0.283,8.422l-2.076,-0.175c0.105,-1.247 0.148,-2.577 0.101,-3.974l2.082,-0.07c0.05,1.483 0.005,2.895 -0.107,4.219Zm-1.746,8.239l-1.956,-0.717c0.368,-1.003 0.746,-2.277 1.057,-3.77l2.04,0.424c-0.335,1.608 -0.744,2.981 -1.14,4.062Zm-4.418,7.147l-1.593,-1.343c0.896,-1.063 1.688,-2.124 2.356,-3.168l1.754,1.124c-0.715,1.116 -1.56,2.251 -2.517,3.387Zm-6.013,5.916l-1.335,-1.6c1.065,-0.888 2.072,-1.798 3.012,-2.718l1.457,1.489c-0.978,0.957 -2.027,1.904 -3.135,2.828Zm-6.847,4.932l-1.097,-1.771c1.165,-0.722 2.298,-1.48 3.39,-2.266l1.217,1.691c-1.13,0.814 -2.303,1.599 -3.51,2.346Zm-7.473,3.919l-0.827,-1.912c1.24,-0.536 2.464,-1.124 3.665,-1.755l0.969,1.844c-1.248,0.656 -2.52,1.267 -3.808,1.823Zm-8.004,2.658l-0.463,-2.031c1.29,-0.294 2.581,-0.661 3.865,-1.09l0.661,1.976c-1.35,0.452 -2.707,0.837 -4.063,1.146Zm-9.242,0.611l0.463,-2.031c0.699,0.159 1.505,0.228 2.433,0.193c0.651,-0.025 1.306,-0.072 1.963,-0.143l0.22,2.072c-0.705,0.075 -1.408,0.126 -2.106,0.153c-1.135,0.043 -2.12,-0.049 -2.974,-0.243Zm-5.248,-9.287l1.946,0.744c-0.138,0.362 -0.21,0.742 -0.187,1.133c0.044,0.759 0.185,1.9 0.733,2.975l-1.856,0.946c-0.701,-1.375 -0.901,-2.831 -0.956,-3.802c-0.039,-0.688 0.078,-1.36 0.321,-1.997Zm9.835,-5.369l0.461,2.032c-1.078,0.244 -2.097,0.413 -3.062,0.505c-0.754,0.096 -1.499,0.318 -2.19,0.636l-0.871,-1.892c0.904,-0.416 1.88,-0.701 2.866,-0.818c0.861,-0.08 1.801,-0.236 2.796,-0.462Zm10.549,-4.086l0.985,1.836c-1.77,0.949 -3.587,1.788 -5.366,2.487l-0.763,-1.939c1.705,-0.671 3.447,-1.474 5.143,-2.384Zm8.564,-6.331l1.577,1.361c-0.506,0.586 -1.052,1.164 -1.641,1.734l-0.096,0.087c-0.747,0.638 -1.541,1.257 -2.371,1.853l-1.216,-1.692c0.782,-0.562 1.53,-1.145 2.234,-1.746c0.543,-0.525 1.046,-1.058 1.512,-1.599Zm4.15,-7.679l2.015,0.528c-0.401,1.531 -1.001,3.054 -1.821,4.55l-1.827,-1.001c0.735,-1.341 1.273,-2.705 1.632,-4.077Zm0.034,-8.715l2.025,-0.49c0.385,1.591 0.588,3.216 0.586,4.853l-2.083,-0.002c0.002,-1.471 -0.182,-2.931 -0.528,-4.36Zm-3.755,-7.901l1.68,-1.232c0.953,1.3 1.782,2.672 2.466,4.096l-1.878,0.902c-0.629,-1.309 -1.392,-2.571 -2.268,-3.766Zm-6.288,-6.107l1.19,-1.71c1.301,0.905 2.526,1.914 3.656,3.009l-1.45,1.496c-1.049,-1.017 -2.187,-1.954 -3.396,-2.795Zm-7.923,-3.745l0.552,-2.009c1.53,0.421 3.024,0.981 4.462,1.663l-0.894,1.882c-1.327,-0.63 -2.707,-1.148 -4.12,-1.536Zm-8.727,-0.957l0.005,-2.083c1.47,0.004 2.992,0.07 4.567,0.203l-0.175,2.076c-1.517,-0.128 -2.982,-0.192 -4.397,-0.195Zm-8.75,0.834l-0.419,-2.041c1.459,-0.299 2.985,-0.527 4.579,-0.675l0.193,2.074c-1.516,0.141 -2.966,0.357 -4.353,0.641Zm-8.311,2.833l-0.93,-1.864c1.36,-0.678 2.8,-1.281 4.324,-1.797l0.668,1.973c-1.432,0.485 -2.785,1.051 -4.063,1.688Zm-7.211,5l-1.42,-1.524c1.13,-1.053 2.348,-2.04 3.658,-2.948l1.187,1.712c-1.227,0.85 -2.367,1.775 -3.425,2.76Zm-5.552,6.801l-1.77,-1.098c0.815,-1.314 1.715,-2.586 2.704,-3.802l1.616,1.315c-0.933,1.147 -1.781,2.346 -2.55,3.586Zm-3.748,7.948l-1.969,-0.682c0.5,-1.445 1.077,-2.877 1.737,-4.282l1.886,0.885c-0.628,1.338 -1.178,2.702 -1.654,4.078Zm-2.064,8.547l-2.062,-0.299c0.215,-1.487 0.502,-2.997 0.866,-4.511l2.026,0.487c-0.349,1.451 -0.624,2.897 -0.83,4.322Zm-0.438,8.732l-2.081,0.105c-0.037,-0.741 -0.057,-1.494 -0.057,-2.263c0.003,-0.752 0.023,-1.52 0.064,-2.301l2.081,0.108c-0.039,0.746 -0.059,1.481 -0.061,2.2c0,0.727 0.018,1.444 0.054,2.151Zm1.34,8.487l-2.01,0.547c-0.387,-1.425 -0.706,-2.902 -0.946,-4.431l2.058,-0.323c0.228,1.452 0.531,2.854 0.898,4.207Zm3.164,7.987l-1.839,0.978c-0.696,-1.308 -1.334,-2.68 -1.903,-4.116l1.937,-0.767c0.539,1.362 1.145,2.664 1.805,3.905Zm4.845,7.095l-1.582,1.355c-0.96,-1.121 -1.884,-2.319 -2.755,-3.595l1.72,-1.175c0.828,1.212 1.705,2.35 2.617,3.415Zm6.269,5.874l-1.246,1.67c-1.168,-0.871 -2.334,-1.843 -3.477,-2.915l1.425,-1.519c1.083,1.016 2.189,1.938 3.297,2.764Zm7.487,4.193l-0.737,1.949l-0.279,-0.107c-1.245,-0.481 -2.557,-1.103 -3.9,-1.865l1.028,-1.812c1.249,0.708 2.468,1.287 3.624,1.734c0.088,0.034 0.176,0.068 0.264,0.101Zm8.325,2.12l-0.289,2.063c-1.473,-0.206 -2.958,-0.494 -4.446,-0.872l0.513,-2.019c1.413,0.359 2.823,0.632 4.222,0.828Zm8.588,0.302l0.136,2.079c-1.475,0.097 -2.981,0.124 -4.509,0.072l0.071,-2.082c1.458,0.05 2.895,0.023 4.302,-0.069Zm8.487,-1.368l0.521,2.017c-1.41,0.364 -2.881,0.676 -4.4,0.922l-0.333,-2.057c1.454,-0.235 2.862,-0.534 4.211,-0.883Zm8.08,-2.931l0.906,1.876c-1.274,0.615 -2.67,1.206 -4.167,1.746l-0.707,-1.96c1.426,-0.515 2.755,-1.077 3.968,-1.663Zm7.327,-4.428l0.755,1.942c-0.468,0.182 -0.91,0.417 -1.283,0.707c-0.554,0.46 -1.189,0.93 -1.899,1.402l-1.153,-1.735c0.647,-0.43 1.226,-0.859 1.731,-1.278c0.554,-0.436 1.182,-0.779 1.849,-1.038Zm8.166,0.651l-1.381,1.56c-0.548,-0.485 -1.587,-0.702 -2.714,-0.761l0.109,-2.081c1.675,0.087 3.172,0.56 3.986,1.281Zm2.421,7.693l-1.952,-0.728c0.349,-0.935 0.199,-1.885 -0.107,-2.721l1.956,-0.716c0.468,1.279 0.636,2.734 0.102,4.165Zm-6.133,5.72l-1.141,-1.743c1.137,-0.744 2.236,-1.537 3.292,-2.379l1.298,1.629c-1.107,0.882 -2.258,1.713 -3.45,2.492Zm-7.494,4.021l-0.828,-1.912c1.255,-0.543 2.482,-1.135 3.677,-1.775l0.984,1.837c-1.246,0.667 -2.525,1.284 -3.833,1.85Zm-8.047,2.757l-0.523,-2.017c1.328,-0.344 2.638,-0.737 3.926,-1.178l0.674,1.971c-1.338,0.457 -2.698,0.865 -4.077,1.223Zm-8.369,1.53l-0.227,-2.071c1.365,-0.149 2.721,-0.347 4.065,-0.592l0.374,2.049c-1.392,0.254 -2.798,0.459 -4.212,0.614Zm-8.501,0.328l0.066,-2.082c1.371,0.044 2.743,0.039 4.11,-0.014l0.08,2.082c-1.416,0.055 -2.836,0.06 -4.256,0.015Zm-8.463,-0.872l0.362,-2.052c1.348,0.238 2.706,0.426 4.067,0.566l-0.213,2.072c-1.411,-0.145 -2.818,-0.341 -4.216,-0.587Zm-8.245,-2.093l0.664,-1.975c1.295,0.435 2.607,0.82 3.932,1.156l-0.512,2.02c-1.376,-0.349 -2.739,-0.749 -4.084,-1.201Zm-7.823,-3.339l0.971,-1.843c1.206,0.635 2.438,1.219 3.691,1.753l-0.817,1.917c-1.305,-0.556 -2.588,-1.165 -3.844,-1.826Zm-7.16,-4.589l1.273,-1.649c1.078,0.832 2.19,1.613 3.331,2.344l-1.123,1.755c-1.192,-0.763 -2.354,-1.58 -3.481,-2.449Zm-6.235,-5.781l1.55,-1.392c0.912,1.015 1.864,1.981 2.852,2.896l-1.416,1.528c-1.035,-0.959 -2.031,-1.969 -2.986,-3.032Zm-5.076,-6.821l1.778,-1.086c0.715,1.171 1.474,2.294 2.275,3.37l-1.672,1.243c-0.838,-1.126 -1.633,-2.302 -2.381,-3.527Zm-3.772,-7.622l1.94,-0.759c0.504,1.286 1.053,2.53 1.646,3.73l-1.868,0.923c-0.619,-1.253 -1.193,-2.551 -1.719,-3.894Zm-2.451,-8.145l2.035,-0.444c0.297,1.36 0.639,2.683 1.024,3.966l-1.995,0.599c-0.4,-1.334 -0.756,-2.708 -1.064,-4.121Zm-1.231,-8.419l2.077,-0.162c0.105,1.35 0.257,2.714 0.458,4.091l-2.062,0.3c-0.208,-1.424 -0.364,-2.835 -0.473,-4.23Z" style="fill:#666;"/></g><g><path d="M362.304,294.396c7.371,0 13.984,-1.746 19.834,-5.245c5.847,-3.496 10.456,-8.231 13.827,-14.208c3.367,-5.975 5.054,-12.778 5.054,-20.406c0,-7.501 -1.686,-14.27 -5.054,-20.311c-3.371,-6.037 -7.98,-10.775 -13.827,-14.208c-5.85,-3.433 -12.463,-5.149 -19.834,-5.149c-7.247,0 -13.797,1.716 -19.643,5.149c-5.849,3.433 -10.426,8.171 -13.731,14.208c-3.308,6.041 -4.959,12.81 -4.959,20.311c0,7.628 1.651,14.431 4.959,20.406c3.305,5.978 7.882,10.712 13.731,14.208c5.847,3.498 12.396,5.245 19.643,5.245m0,13.35c-9.917,0 -18.851,-2.289 -26.795,-6.866c-7.948,-4.577 -14.241,-10.838 -18.881,-18.785c-4.643,-7.945 -7.026,-16.878 -7.152,-26.795l0,-77.328c0,-2.289 0.667,-4.1 2.002,-5.435c1.335,-1.335 3.147,-2.002 5.435,-2.002c2.161,0 3.91,0.667 5.245,2.002c1.335,1.335 2.002,3.147 2.002,5.435l0,43.382c4.196,-5.975 9.755,-10.775 16.687,-14.399c6.928,-3.624 14.652,-5.435 23.172,-5.435c9.788,0 18.561,2.321 26.318,6.961c7.753,4.643 13.89,10.966 18.404,18.976c4.512,8.01 6.77,17.039 6.77,27.081c0,10.174 -2.321,19.262 -6.961,27.271c-4.644,8.011 -10.966,14.337 -18.976,18.977c-8.01,4.643 -17.101,6.961 -27.272,6.961" style="fill-rule:nonzero;"/><path d="M450.147,307.745c-5.08,0 -9.619,-1.395 -13.618,-4.19c-3.998,-2.791 -7.112,-6.666 -9.332,-11.616c-2.222,-4.953 -3.332,-10.666 -3.332,-17.142l0,-95.886c0,-2.157 0.665,-3.903 1.999,-5.236c1.333,-1.333 3.078,-2.001 5.239,-2.001c2.157,0 3.903,0.668 5.236,2.001c1.333,1.333 2.001,3.079 2.001,5.236l0,95.886c0,5.461 1.109,9.903 3.333,13.332c2.22,3.428 5.046,5.143 8.475,5.143l10.938,0c1.903,0 3.427,0.665 4.571,1.999c1.143,1.333 1.713,3.08 1.713,5.237c0,2.16 -0.794,3.904 -2.381,5.237c-1.589,1.333 -3.651,2 -6.19,2l-8.651,0Z" style="fill-rule:nonzero;"/><path d="M460.575,282.198c-2.355,0 -4.22,-0.687 -5.593,-2.061c-1.374,-1.374 -2.061,-3.238 -2.061,-5.593l0,-63.489c0,-2.355 0.687,-4.22 2.061,-5.592c1.374,-1.375 3.238,-2.062 5.593,-2.062c2.223,0 4.022,0.687 5.396,2.062c1.375,1.373 2.061,3.237 2.061,5.592l0,63.489c0,2.355 -0.686,4.22 -2.061,5.593c-1.374,1.374 -3.173,2.061 -5.396,2.061m-0.18,-93.908c-2.39,0 -4.455,-0.868 -6.19,-2.607c-1.739,-1.736 -2.606,-3.853 -2.606,-6.353c0,-2.713 0.896,-4.858 2.688,-6.434c1.791,-1.573 3.881,-2.362 6.271,-2.362c2.28,0 4.317,0.788 6.108,2.362c1.793,1.576 2.688,3.721 2.688,6.434c0,2.5 -0.871,4.618 -2.606,6.353c-1.738,1.739 -3.857,2.607 -6.353,2.607" style="fill-rule:nonzero;"/><path d="M568.986,307.745c-2.164,0 -3.945,-0.698 -5.343,-2.099c-1.401,-1.398 -2.099,-3.115 -2.099,-5.152l0,-49.613c0,-7.886 -1.498,-14.374 -4.484,-19.464c-2.991,-5.087 -7.06,-8.902 -12.214,-11.449c-5.151,-2.543 -10.971,-3.816 -17.459,-3.816c-6.235,0 -11.864,1.21 -16.889,3.626c-5.027,2.419 -9.001,5.725 -11.926,9.923c-2.927,4.199 -4.389,8.968 -4.389,14.311l-10.495,0c0.254,-8.014 2.415,-15.17 6.489,-21.467c4.069,-6.297 9.475,-11.257 16.22,-14.884c6.741,-3.624 14.246,-5.438 22.517,-5.438c9.031,0 17.108,1.878 24.234,5.629c7.122,3.754 12.752,9.255 16.886,16.506c4.134,7.251 6.202,16.095 6.202,26.524l0,49.613c0,2.037 -0.7,3.754 -2.098,5.152c-1.401,1.401 -3.12,2.099 -5.152,2.099m-82.052,0c-2.29,0 -4.103,-0.668 -5.438,-2.004c-1.336,-1.336 -2.004,-3.083 -2.004,-5.248l0,-89.685c0,-2.289 0.668,-4.103 2.004,-5.437c1.336,-1.336 3.149,-2.005 5.438,-2.005c2.161,0 3.911,0.669 5.248,2.005c1.336,1.335 2.002,3.149 2.002,5.437l0,89.685c0,2.164 -0.667,3.912 -2.002,5.248c-1.337,1.336 -3.086,2.004 -5.248,2.004" style="fill-rule:nonzero;"/><path d="M637.447,294.398c7.371,0 13.949,-1.746 19.736,-5.244c5.782,-3.495 10.357,-8.229 13.729,-14.205c3.367,-5.974 5.052,-12.775 5.052,-20.402c0,-7.499 -1.685,-14.267 -5.052,-20.307c-3.371,-6.036 -7.946,-10.773 -13.729,-14.205c-5.787,-3.432 -12.365,-5.148 -19.736,-5.148c-7.244,0 -13.793,1.716 -19.639,5.148c-5.848,3.432 -10.487,8.169 -13.918,14.205c-3.432,6.039 -5.149,12.807 -5.149,20.307c0,7.627 1.717,14.428 5.149,20.402c3.431,5.976 8.07,10.71 13.918,14.205c5.847,3.498 12.395,5.244 19.639,5.244m0,13.347c-10.044,0 -19.066,-2.318 -27.076,-6.96c-8.007,-4.639 -14.334,-10.964 -18.972,-18.973c-4.642,-8.007 -6.958,-17.093 -6.958,-27.265c0,-10.04 2.255,-19.067 6.768,-27.076c4.511,-8.008 10.646,-14.33 18.401,-18.972c7.751,-4.639 16.522,-6.96 26.312,-6.96c8.516,0 16.207,1.811 23.073,5.434c6.863,3.623 12.393,8.422 16.588,14.396l0,-42.42c0,-2.287 0.697,-4.098 2.097,-5.433c1.398,-1.335 3.176,-2.003 5.339,-2.003c2.161,0 3.939,0.668 5.34,2.003c1.397,1.335 2.096,3.146 2.096,5.433l0,76.36c-0.256,9.915 -2.702,18.847 -7.341,26.79c-4.642,7.945 -10.934,14.205 -18.877,18.781c-7.945,4.576 -16.875,6.864 -26.79,6.864" style="fill-rule:nonzero;"/><path d="M843.879,258.148l-9.348,-9.538l33.002,-41.776c0.888,-1.27 1.875,-2.162 2.957,-2.671c1.079,-0.507 2.194,-0.763 3.338,-0.763c2.16,0 3.814,0.668 4.96,2.003c1.145,1.335 1.684,2.927 1.621,4.769c-0.065,1.844 -0.734,3.594 -2.003,5.246l-34.527,42.73Zm30.902,49.597c-1.526,0 -2.765,-0.254 -3.719,-0.763c-0.955,-0.507 -1.941,-1.399 -2.957,-2.671l-33.001,-41.967l-5.723,-4.96l-33.192,-42.158c-1.402,-1.65 -2.068,-3.368 -2.004,-5.15c0.063,-1.779 0.669,-3.338 1.813,-4.674c1.143,-1.335 2.796,-2.003 4.96,-2.003c2.16,0 4.006,0.763 5.532,2.289l32.047,41.013l5.15,4.197l35.48,45.401c1.653,2.035 2.352,3.943 2.099,5.723c-0.257,1.782 -1.049,3.181 -2.384,4.197c-1.336,1.019 -2.704,1.526 -4.102,1.526m-75.539,0c-2.036,0 -3.658,-0.635 -4.865,-1.908c-1.21,-1.27 -1.844,-2.796 -1.906,-4.578c-0.065,-1.779 0.601,-3.496 2.003,-5.15l35.1,-43.874l8.203,10.873l-33.383,42.348c-1.146,1.526 -2.862,2.289 -5.15,2.289" style="fill-rule:nonzero;"/><path d="M751.029,277.011c-7.475,0.282 -8.516,-5.191 -8.656,-7.633c-0.2,-3.481 3.552,-6.529 7.457,-6.996c5.686,-0.526 14.744,-4.346 20.665,-9.403c15.129,-14.644 0.416,-35.458 -16.555,-36.967c-31.721,-2.82 -41.267,21.995 -41.324,38.831c0,20.019 13.685,32.48 23.196,36.158c16.517,6.388 33.597,-0.134 39.74,-5.235c3.091,-2.431 8.452,-2.007 10.22,-0.326c1.767,1.681 4.908,6.651 0.383,10.411c-26.5,22.026 -79.946,14.412 -87.488,-30.829c-4.325,-25.946 7.969,-47.597 23.475,-56.73c17.68,-10.413 46.712,-9.532 62.256,8.633c12.167,15.715 7.523,31.903 5.434,36.055c-5.207,10.347 -23.122,23.44 -38.803,24.03Z" style="fill:#a63d40;"/></g><g><path d="M45.366,202.266l1104.062,0" style="fill:none;stroke:#7a918d;stroke-width:1px;"/><path d="M45.366,412.303l1104.062,0" style="fill:none;stroke:#7a918d;stroke-width:1px;"/><path d="M45.366,97.496l1104.062,0" style="fill:none;stroke:#7a918d;stroke-width:1px;"/><path d="M45.366,307.745l1104.062,0" style="fill:none;stroke:#7a918d;stroke-width:1px;"/></g><g><path d="M216.04,25.17l0,459.458" style="fill:none;stroke:#7a918d;stroke-width:1px;"/><path d="M881.318,25.17l0,459.458" style="fill:none;stroke:#7a918d;stroke-width:1px;"/><path d="M309.48,25.17l0,459.458" style="fill:none;stroke:#7a918d;stroke-width:1px;"/><path d="M975.817,25.17l0,459.458" style="fill:none;stroke:#7a918d;stroke-width:1px;"/></g></svg>