<?xml version="1.0" encoding="UTF-8" standalone="no"?><!DOCTYPE svg PUBLIC "-//W3C//DTD SVG 1.1//EN" "http://www.w3.org/Graphics/SVG/1.1/DTD/svg11.dtd"><svg width="100%" height="100%" viewBox="0 0 715 611" version="1.1" xmlns="http://www.w3.org/2000/svg" xmlns:xlink="http://www.w3.org/1999/xlink" xml:space="preserve" xmlns:serif="http://www.serif.com/" style="fill-rule:evenodd;clip-rule:evenodd;stroke-linecap:round;stroke-linejoin:round;stroke-miterlimit:1.5;"><rect id="SpacingMark" x="0" y="0" width="714.621" height="610.977" style="fill:none;"/><path d="M609.019,532.364l-503.012,0l-0,-453.751l503.012,0l0,453.751Zm-63.32,-384.721l-376.47,0l0,314.663l376.47,0l-0,-314.663Z" style="fill:#7a918d;fill-opacity:0.24;"/><g><path d="M204.009,453.39c4.853,0 9.206,-1.15 13.058,-3.453c3.849,-2.302 6.884,-5.419 9.103,-9.354c2.217,-3.934 3.327,-8.412 3.327,-13.434c0,-4.938 -1.11,-9.395 -3.327,-13.372c-2.219,-3.975 -5.254,-7.094 -9.103,-9.354c-3.851,-2.26 -8.205,-3.39 -13.058,-3.39c-4.771,0 -9.083,1.13 -12.932,3.39c-3.851,2.26 -6.864,5.379 -9.04,9.354c-2.178,3.977 -3.264,8.433 -3.264,13.372c0,5.022 1.087,9.501 3.264,13.434c2.176,3.935 5.189,7.052 9.04,9.354c3.849,2.303 8.161,3.453 12.932,3.453m0,8.789c-6.529,0 -12.41,-1.507 -17.64,-4.52c-5.232,-3.013 -9.376,-7.135 -12.43,-12.367c-3.056,-5.23 -4.626,-11.112 -4.708,-17.64l0,-50.909c0,-1.507 0.439,-2.699 1.318,-3.578c0.879,-0.879 2.072,-1.318 3.578,-1.318c1.423,0 2.574,0.439 3.453,1.318c0.879,0.879 1.318,2.072 1.318,3.578l0,28.56c2.762,-3.934 6.422,-7.094 10.986,-9.479c4.561,-2.386 9.646,-3.578 15.255,-3.578c6.444,0 12.22,1.528 17.327,4.583c5.104,3.056 9.144,7.219 12.116,12.493c2.97,5.273 4.457,11.217 4.457,17.829c0,6.698 -1.528,12.681 -4.583,17.954c-3.057,5.274 -7.219,9.439 -12.493,12.493c-5.273,3.056 -11.258,4.583 -17.954,4.583" style="fill-rule:nonzero;"/><path d="M261.84,462.179c-3.345,0 -6.333,-0.919 -8.966,-2.758c-2.632,-1.838 -4.682,-4.388 -6.144,-7.648c-1.463,-3.261 -2.193,-7.022 -2.193,-11.285l0,-63.127c0,-1.42 0.438,-2.57 1.316,-3.447c0.878,-0.878 2.027,-1.317 3.449,-1.317c1.42,0 2.57,0.44 3.447,1.317c0.878,0.878 1.317,2.027 1.317,3.447l0,63.127c0,3.595 0.73,6.52 2.194,8.777c1.462,2.257 3.322,3.386 5.58,3.386l7.201,0c1.253,0 2.256,0.438 3.009,1.316c0.752,0.878 1.128,2.028 1.128,3.448c0,1.422 -0.523,2.57 -1.567,3.448c-1.046,0.878 -2.403,1.317 -4.075,1.317l-5.695,0Z" style="fill-rule:nonzero;"/><path d="M268.705,445.359c-1.55,0 -2.778,-0.452 -3.682,-1.357c-0.904,-0.904 -1.357,-2.132 -1.357,-3.682l0,-41.798c0,-1.55 0.452,-2.778 1.357,-3.682c0.904,-0.905 2.132,-1.357 3.682,-1.357c1.463,0 2.648,0.452 3.552,1.357c0.905,0.904 1.357,2.131 1.357,3.682l0,41.798c0,1.55 -0.451,2.778 -1.357,3.682c-0.904,0.904 -2.089,1.357 -3.552,1.357m-0.119,-61.824c-1.574,0 -2.933,-0.572 -4.075,-1.716c-1.145,-1.143 -1.716,-2.537 -1.716,-4.183c0,-1.786 0.59,-3.199 1.77,-4.236c1.179,-1.036 2.555,-1.555 4.129,-1.555c1.501,0 2.842,0.519 4.021,1.555c1.18,1.037 1.77,2.45 1.77,4.236c0,1.646 -0.573,3.04 -1.716,4.183c-1.144,1.145 -2.539,1.716 -4.183,1.716" style="fill-rule:nonzero;"/><path d="M340.078,462.179c-1.425,0 -2.597,-0.459 -3.517,-1.382c-0.922,-0.92 -1.382,-2.051 -1.382,-3.392l0,-32.662c0,-5.192 -0.986,-9.463 -2.952,-12.814c-1.969,-3.349 -4.648,-5.861 -8.041,-7.537c-3.391,-1.674 -7.223,-2.512 -11.494,-2.512c-4.105,0 -7.811,0.797 -11.119,2.387c-3.309,1.592 -5.926,3.769 -7.852,6.532c-1.927,2.764 -2.889,5.904 -2.889,9.422l-6.909,0c0.167,-5.276 1.59,-9.987 4.272,-14.133c2.679,-4.146 6.238,-7.411 10.678,-9.799c4.438,-2.386 9.379,-3.58 14.824,-3.58c5.945,0 11.263,1.237 15.954,3.706c4.689,2.472 8.395,6.093 11.117,10.867c2.721,4.774 4.083,10.596 4.083,17.462l0,32.662c0,1.341 -0.461,2.472 -1.381,3.392c-0.922,0.922 -2.054,1.382 -3.392,1.382m-54.019,0c-1.507,0 -2.701,-0.44 -3.58,-1.319c-0.879,-0.879 -1.319,-2.03 -1.319,-3.455l0,-59.044c0,-1.507 0.44,-2.701 1.319,-3.58c0.879,-0.879 2.073,-1.32 3.58,-1.32c1.423,0 2.575,0.44 3.455,1.32c0.879,0.879 1.318,2.073 1.318,3.58l0,59.044c0,1.425 -0.439,2.575 -1.318,3.455c-0.88,0.879 -2.032,1.319 -3.455,1.319" style="fill-rule:nonzero;"/><path d="M385.149,453.392c4.853,0 9.183,-1.149 12.993,-3.452c3.807,-2.301 6.819,-5.417 9.038,-9.352c2.216,-3.933 3.326,-8.41 3.326,-13.432c0,-4.937 -1.109,-9.393 -3.326,-13.369c-2.219,-3.974 -5.231,-7.092 -9.038,-9.352c-3.81,-2.26 -8.14,-3.389 -12.993,-3.389c-4.769,0 -9.08,1.13 -12.93,3.389c-3.85,2.26 -6.904,5.378 -9.163,9.352c-2.26,3.976 -3.39,8.432 -3.39,13.369c0,5.021 1.13,9.499 3.39,13.432c2.259,3.934 5.313,7.051 9.163,9.352c3.849,2.303 8.16,3.452 12.93,3.452m0,8.787c-6.612,0 -12.552,-1.526 -17.825,-4.582c-5.272,-3.054 -9.437,-7.218 -12.49,-12.491c-3.056,-5.272 -4.581,-11.253 -4.581,-17.95c0,-6.61 1.484,-12.553 4.456,-17.825c2.97,-5.272 7.008,-9.434 12.114,-12.49c5.103,-3.054 10.877,-4.582 17.322,-4.582c5.606,0 10.67,1.193 15.19,3.578c4.518,2.385 8.159,5.544 10.92,9.477l0,-27.927c0,-1.506 0.459,-2.698 1.381,-3.577c0.92,-0.879 2.091,-1.319 3.515,-1.319c1.422,0 2.593,0.44 3.516,1.319c0.92,0.879 1.38,2.071 1.38,3.577l0,50.272c-0.169,6.528 -1.779,12.408 -4.833,17.637c-3.056,5.231 -7.198,9.352 -12.427,12.365c-5.231,3.013 -11.109,4.519 -17.637,4.519" style="fill-rule:nonzero;"/><path d="M521.052,429.527l-6.154,-6.279l21.727,-27.503c0.585,-0.836 1.235,-1.423 1.947,-1.758c0.71,-0.334 1.444,-0.502 2.198,-0.502c1.422,0 2.511,0.44 3.265,1.319c0.754,0.879 1.108,1.927 1.067,3.14c-0.043,1.214 -0.483,2.366 -1.319,3.454l-22.731,28.131Zm20.344,32.652c-1.005,0 -1.82,-0.167 -2.448,-0.502c-0.629,-0.334 -1.278,-0.921 -1.947,-1.758l-21.726,-27.629l-3.768,-3.265l-21.852,-27.754c-0.923,-1.086 -1.362,-2.217 -1.319,-3.391c0.042,-1.171 0.44,-2.198 1.194,-3.077c0.753,-0.879 1.841,-1.319 3.265,-1.319c1.422,0 2.637,0.502 3.642,1.507l21.098,27.001l3.391,2.763l23.358,29.889c1.088,1.34 1.549,2.596 1.382,3.768c-0.169,1.173 -0.691,2.094 -1.57,2.763c-0.88,0.671 -1.78,1.005 -2.701,1.005m-49.731,0c-1.341,0 -2.408,-0.418 -3.203,-1.256c-0.797,-0.836 -1.214,-1.841 -1.255,-3.014c-0.043,-1.171 0.396,-2.301 1.319,-3.391l23.108,-28.885l5.4,7.158l-21.977,27.88c-0.754,1.005 -1.885,1.507 -3.391,1.507" style="fill-rule:nonzero;"/><path d="M459.953,462.179c-6.838,0 -12.896,-1.498 -18.172,-4.495c-5.276,-2.997 -9.413,-7.155 -12.41,-12.473c-2.997,-5.319 -4.495,-11.397 -4.495,-18.235c0,-6.923 1.414,-13.022 4.242,-18.299c2.828,-5.276 6.733,-9.434 11.714,-12.473c4.981,-3.039 10.722,-4.559 17.222,-4.559c6.416,0 12.009,1.456 16.779,4.369c4.77,2.913 8.463,6.944 11.08,12.093c2.617,5.15 3.926,11.017 3.926,17.602c0,1.351 -0.422,2.427 -1.266,3.229c-0.844,0.802 -1.942,1.203 -3.292,1.203l-53.819,0l0,-8.105l54.832,0l-5.445,3.926c0.084,-4.896 -0.802,-9.286 -2.659,-13.17c-1.857,-3.883 -4.495,-6.923 -7.915,-9.118c-3.419,-2.195 -7.492,-3.292 -12.22,-3.292c-4.812,0 -9.033,1.14 -12.663,3.419c-3.63,2.279 -6.437,5.424 -8.421,9.434c-1.984,4.01 -2.976,8.59 -2.976,13.74c0,5.15 1.119,9.709 3.356,13.676c2.237,3.968 5.298,7.091 9.181,9.371c3.883,2.279 8.358,3.419 13.423,3.419c3.039,0 6.1,-0.528 9.181,-1.583c3.081,-1.055 5.551,-2.385 7.408,-3.989c0.929,-0.76 1.984,-1.161 3.166,-1.203c1.182,-0.042 2.195,0.274 3.039,0.95c1.097,1.013 1.667,2.111 1.71,3.292c0.042,1.182 -0.443,2.195 -1.456,3.039c-2.786,2.364 -6.332,4.327 -10.637,5.888c-4.306,1.562 -8.442,2.343 -12.41,2.343Z" style="fill-rule:nonzero;"/></g><path d="M368.867,295.901c-14.639,0.551 -16.676,-10.165 -16.951,-14.948c-0.391,-6.818 6.957,-12.787 14.604,-13.7c11.135,-1.031 28.873,-8.51 40.47,-18.414c29.628,-28.678 0.815,-69.438 -32.419,-72.393c-62.12,-5.523 -80.815,43.073 -80.927,76.044c0,39.204 26.799,63.606 45.425,70.809c32.345,12.509 65.794,-0.262 77.823,-10.253c6.053,-4.762 16.553,-3.931 20.013,-0.639c3.461,3.292 9.611,13.025 0.751,20.389c-51.897,43.134 -156.562,28.224 -171.332,-60.373c-8.471,-50.811 15.606,-93.212 45.972,-111.097c34.624,-20.392 91.478,-18.667 121.918,16.907c23.826,30.774 14.733,62.478 10.641,70.608c-10.198,20.264 -45.281,45.903 -75.989,47.06Z" style="fill:#a63d40;"/><path d="M141.215,512.039c-4.944,0.186 -5.631,-3.433 -5.724,-5.048c-0.132,-2.302 2.349,-4.318 4.932,-4.626c3.76,-0.348 9.75,-2.874 13.666,-6.218c10.005,-9.684 0.275,-23.449 -10.948,-24.447c-20.977,-1.865 -27.291,14.545 -27.329,25.68c0,13.239 9.05,21.479 15.34,23.912c10.923,4.224 22.218,-0.088 26.28,-3.462c2.044,-1.608 5.59,-1.327 6.758,-0.216c1.169,1.112 3.245,4.398 0.254,6.885c-17.525,14.566 -52.87,9.531 -57.858,-20.388c-2.86,-17.159 5.27,-31.477 15.525,-37.517c11.692,-6.886 30.892,-6.304 41.171,5.709c8.046,10.392 4.975,21.098 3.594,23.844c-3.444,6.843 -15.291,15.501 -25.661,15.892Z" style="fill:#e0e0e0;"/><path d="M106.356,502.557c-0.184,-1.421 -0.293,-2.821 -0.333,-4.196l2.082,-0.059c0.037,1.307 0.141,2.637 0.316,3.988l-2.066,0.268Zm0.308,-12.578l2.048,0.38c-0.238,1.284 -0.411,2.603 -0.514,3.952l-2.077,-0.158c0.108,-1.425 0.291,-2.817 0.543,-4.174Zm2.433,-8.045l1.914,0.822c-0.515,1.199 -0.971,2.445 -1.36,3.734l-1.994,-0.602c0.412,-1.366 0.895,-2.685 1.441,-3.955Zm4.191,-7.283l1.669,1.247c-0.776,1.04 -1.503,2.144 -2.172,3.309l-1.807,-1.038c0.711,-1.238 1.484,-2.413 2.31,-3.518Zm5.849,-6.026l1.284,1.641c-1.008,0.789 -1.982,1.667 -2.91,2.626l-1.498,-1.448c0.996,-1.03 2.041,-1.972 3.124,-2.819Zm7.311,-4.117l0.751,1.943c-1.24,0.479 -2.427,1.033 -3.545,1.658l-1.017,-1.818c1.202,-0.672 2.478,-1.268 3.811,-1.783Zm8.15,-2.04l0.266,2.066c-1.325,0.17 -2.63,0.415 -3.9,0.731l-0.503,-2.022c1.347,-0.335 2.731,-0.595 4.137,-0.776Zm8.403,-0.13l-0.203,2.073c-1.322,-0.13 -2.649,-0.182 -3.969,-0.162l-0.033,-2.083c1.398,-0.022 2.805,0.034 4.205,0.171Zm8.204,1.811l-0.7,1.962c-1.239,-0.442 -2.508,-0.802 -3.793,-1.084l0.446,-2.035c1.371,0.301 2.724,0.685 4.046,1.156Zm7.441,3.885l-1.222,1.687c-1.058,-0.767 -2.169,-1.448 -3.32,-2.046l0.961,-1.849c1.242,0.646 2.44,1.38 3.582,2.207Zm6,6.191l-1.749,1.131c-0.375,-0.579 -0.784,-1.159 -1.241,-1.751c-0.41,-0.476 -0.835,-0.933 -1.274,-1.371l1.47,-1.476c0.494,0.492 0.971,1.006 1.431,1.544c0.496,0.64 0.949,1.282 1.364,1.923Zm3.535,8.682l-2.045,0.397c-0.258,-1.328 -0.655,-2.709 -1.232,-4.118l1.928,-0.789c0.632,1.543 1.067,3.056 1.349,4.511Zm-0.055,9.371l-2.04,-0.424c0.254,-1.223 0.438,-2.669 0.447,-4.27l2.083,0.012c-0.01,1.756 -0.212,3.341 -0.491,4.683Zm-4.345,8.221l-1.545,-1.397c1.038,-1.148 1.898,-2.3 2.523,-3.411l1.816,1.02c-0.693,1.233 -1.642,2.514 -2.793,3.788Zm-7.2,6.053l-1.138,-1.745c1.274,-0.831 2.482,-1.725 3.595,-2.653l1.335,1.6c-1.174,0.98 -2.448,1.923 -3.792,2.799Zm-8.444,4.146l-0.661,-1.976c1.384,-0.463 2.756,-1.038 4.09,-1.698l0.924,1.867c-1.419,0.702 -2.879,1.313 -4.352,1.806Zm-10.733,0.366l1.244,-1.671c0.549,0.408 1.354,0.606 2.489,0.563c0.7,-0.026 1.407,-0.095 2.118,-0.201l0.307,2.061c-0.788,0.117 -1.571,0.193 -2.346,0.222c-1.749,0.066 -2.965,-0.345 -3.811,-0.974Zm6.724,-9.512l0.631,1.985c-1.506,0.479 -2.923,0.786 -4.128,0.9c-0.883,0.114 -1.747,0.52 -2.364,1.1l-1.427,-1.518c0.934,-0.878 2.245,-1.496 3.582,-1.656c1.084,-0.1 2.354,-0.382 3.706,-0.812Zm11.392,-6.983l1.635,1.292c-0.478,0.605 -1.016,1.2 -1.617,1.782l-0.096,0.087c-1.007,0.86 -2.139,1.67 -3.336,2.411l-1.096,-1.772c1.104,-0.683 2.15,-1.43 3.078,-2.223c0.532,-0.515 1.008,-1.041 1.431,-1.576Zm2.735,-7.885l2.083,-0.055c0.044,1.64 -0.2,3.3 -0.78,4.936l-1.964,-0.696c0.492,-1.387 0.698,-2.795 0.661,-4.185Zm-2.866,-7.888l1.68,-1.232c0.966,1.318 1.749,2.743 2.306,4.231l-1.951,0.73c-0.491,-1.312 -1.182,-2.567 -2.034,-3.729Zm-6.467,-5.429l0.929,-1.865c1.419,0.707 2.754,1.586 3.965,2.6l-1.338,1.597c-1.085,-0.909 -2.282,-1.698 -3.555,-2.332Zm-8.247,-1.806l0.045,-2.083c0.843,0.018 1.711,0.066 2.604,0.146c0.677,0.06 1.349,0.161 2.013,0.3l-0.427,2.039c-0.584,-0.122 -1.176,-0.211 -1.771,-0.264c-0.845,-0.075 -1.667,-0.121 -2.465,-0.138Zm-8.427,1.023l-0.583,-2c1.404,-0.409 2.908,-0.716 4.516,-0.903l0.241,2.069c-1.486,0.173 -2.876,0.455 -4.174,0.834Zm-7.505,3.914l-1.32,-1.611c1.178,-0.965 2.48,-1.833 3.914,-2.577l0.959,1.849c-1.302,0.675 -2.483,1.462 -3.553,2.339Zm-5.368,6.552l-1.826,-1.003c0.737,-1.343 1.594,-2.636 2.579,-3.847l1.616,1.315c-0.905,1.113 -1.692,2.301 -2.369,3.535Zm-2.892,7.983l-2.04,-0.424c0.303,-1.457 0.709,-2.928 1.23,-4.379l1.961,0.704c-0.487,1.358 -0.867,2.735 -1.151,4.099Zm-0.569,8.746l-2.076,0.177c-0.071,-0.838 -0.109,-1.698 -0.109,-2.585c0.002,-0.738 0.031,-1.497 0.087,-2.272l2.078,0.151c-0.053,0.726 -0.079,1.437 -0.082,2.129c0,0.819 0.035,1.62 0.101,2.401Zm2.517,9.222l-1.874,0.909c-0.73,-1.505 -1.349,-3.125 -1.82,-4.858l2.01,-0.547c0.436,1.603 1.009,3.102 1.684,4.495Zm5.673,7.695l-1.425,1.519c-1.204,-1.13 -2.37,-2.421 -3.439,-3.871l1.676,-1.237c0.992,1.343 2.072,2.541 3.189,3.588Zm8.131,4.984l-0.663,1.975c-0.391,-0.131 -0.781,-0.272 -1.171,-0.423c-1.14,-0.441 -2.362,-1.052 -3.609,-1.832l1.106,-1.765c1.124,0.704 2.226,1.257 3.254,1.655c0.361,0.139 0.722,0.27 1.083,0.391Zm9.467,1.347l0.068,2.082c-1.675,0.055 -3.402,-0.023 -5.152,-0.268l0.289,-2.063c1.629,0.228 3.236,0.3 4.795,0.249Zm9.402,-1.814l0.707,1.96c-1.51,0.545 -3.172,1.016 -4.942,1.359l-0.396,-2.045c1.659,-0.321 3.216,-0.762 4.63,-1.273Zm8.214,-4.29l0.529,2.015c-0.401,0.105 -0.789,0.266 -1.104,0.51c-0.608,0.502 -1.354,1.025 -2.224,1.539l-1.061,-1.793c0.773,-0.457 1.437,-0.92 1.974,-1.366c0.546,-0.429 1.199,-0.724 1.885,-0.904Zm6.539,3.527l-2.021,0.504c-0.199,-0.798 -0.711,-1.482 -1.08,-1.833c-0.036,-0.034 -0.091,-0.05 -0.147,-0.075l0.844,-1.905c0.298,0.132 0.549,0.29 0.739,0.47c0.571,0.543 1.358,1.605 1.666,2.839Zm-4.543,6.326l-1.119,-1.758c1.02,-0.649 1.995,-1.357 2.917,-2.124c0.055,-0.046 0.108,-0.092 0.158,-0.139l1.426,1.519c-0.08,0.075 -0.164,0.149 -0.252,0.222c-0.99,0.823 -2.036,1.583 -3.131,2.279Zm-7.596,3.588l-0.66,-1.976c1.262,-0.421 2.492,-0.912 3.681,-1.471l0.887,1.885c-1.262,0.594 -2.568,1.115 -3.908,1.562Zm-8.217,1.772l-0.22,-2.072c1.328,-0.141 2.644,-0.351 3.938,-0.629l0.438,2.037c-1.367,0.294 -2.755,0.515 -4.156,0.664Zm-8.407,0.014l0.213,-2.072c1.325,0.136 2.657,0.203 3.987,0.2l0.004,2.083c-1.402,0.002 -2.806,-0.068 -4.204,-0.211Zm-8.221,-1.752l0.656,-1.977c1.258,0.418 2.541,0.764 3.839,1.039l-0.433,2.038c-1.374,-0.292 -2.731,-0.658 -4.063,-1.1Zm-7.606,-3.568l1.109,-1.764c1.118,0.703 2.277,1.332 3.469,1.89l-0.883,1.887c-1.27,-0.594 -2.505,-1.265 -3.696,-2.013Zm-6.465,-5.359l1.532,-1.412c0.896,0.972 1.85,1.872 2.851,2.701l-1.328,1.605c-1.073,-0.888 -2.095,-1.853 -3.055,-2.894Zm-4.806,-6.885l1.852,-0.954c0.612,1.188 1.29,2.311 2.027,3.367l-1.709,1.192c-0.789,-1.131 -1.515,-2.333 -2.17,-3.605Zm-2.888,-7.889l2.027,-0.48c0.313,1.323 0.693,2.59 1.134,3.8l-1.958,0.713c-0.468,-1.284 -0.871,-2.629 -1.204,-4.033Z" style="fill:#666;"/><g transform="matrix(20.833333,0,0,20.833333,41.2013,381.230797)"><path d="M0.332,0.005c-0.053,0 -0.1,-0.012 -0.141,-0.035c-0.041,-0.024 -0.073,-0.057 -0.097,-0.099c-0.023,-0.042 -0.035,-0.09 -0.035,-0.144c0,-0.055 0.011,-0.103 0.033,-0.144c0.022,-0.042 0.052,-0.075 0.091,-0.099c0.039,-0.024 0.083,-0.036 0.133,-0.036c0.049,0 0.093,0.011 0.131,0.035c0.038,0.023 0.068,0.055 0.089,0.095c0.021,0.04 0.032,0.087 0.032,0.139c0,0.009 -0.003,0.016 -0.008,0.021c-0.005,0.005 -0.012,0.008 -0.021,0.008l-0.44,0l0,-0.052l0.456,0l-0.044,0.033c0.001,-0.043 -0.006,-0.082 -0.022,-0.115c-0.016,-0.033 -0.039,-0.059 -0.069,-0.079c-0.03,-0.019 -0.065,-0.028 -0.104,-0.028c-0.038,0 -0.072,0.01 -0.102,0.028c-0.03,0.019 -0.053,0.045 -0.07,0.079c-0.017,0.033 -0.025,0.072 -0.025,0.116c0,0.043 0.009,0.082 0.027,0.115c0.018,0.033 0.043,0.06 0.075,0.079c0.032,0.019 0.069,0.028 0.11,0.028c0.026,-0 0.052,-0.004 0.079,-0.013c0.026,-0.009 0.047,-0.021 0.062,-0.036c0.005,-0.005 0.012,-0.008 0.019,-0.008c0.008,-0 0.014,0.002 0.02,0.006c0.007,0.006 0.011,0.013 0.011,0.02c0,0.007 -0.003,0.014 -0.009,0.02c-0.021,0.019 -0.049,0.035 -0.084,0.048c-0.034,0.013 -0.067,0.019 -0.098,0.019Z" style="fill:#666;fill-rule:nonzero;"/></g><g transform="matrix(20.833333,0,0,20.833333,53.8888,381.230797)"><path d="M0.07,0.081c-0.011,0 -0.019,-0.004 -0.026,-0.013c-0.006,-0.009 -0.007,-0.019 -0.002,-0.03l0.323,-0.804c0.002,-0.005 0.006,-0.01 0.011,-0.013c0.005,-0.004 0.011,-0.006 0.018,-0.006c0.013,0 0.022,0.005 0.026,0.015c0.004,0.01 0.004,0.02 0.001,0.029l-0.322,0.805c-0.003,0.007 -0.007,0.011 -0.012,0.014c-0.005,0.002 -0.011,0.004 -0.016,0.004Z" style="fill:#666;fill-rule:nonzero;"/></g><g transform="matrix(20.833333,0,0,20.833333,63.659633,381.230797)"><path d="M0.106,-0c-0.008,-0 -0.016,-0.003 -0.022,-0.009c-0.006,-0.006 -0.009,-0.013 -0.009,-0.022c0,-0.008 0.003,-0.015 0.009,-0.022l0.316,-0.376c0.014,-0.015 0.026,-0.034 0.035,-0.057c0.01,-0.023 0.015,-0.045 0.015,-0.065c0,-0.032 -0.007,-0.062 -0.022,-0.088c-0.014,-0.026 -0.034,-0.046 -0.058,-0.061c-0.024,-0.015 -0.052,-0.022 -0.083,-0.022c-0.03,0 -0.058,0.008 -0.082,0.022c-0.024,0.015 -0.044,0.036 -0.058,0.062c-0.014,0.026 -0.021,0.055 -0.021,0.088c0,0.008 -0.003,0.016 -0.009,0.021c-0.006,0.006 -0.013,0.009 -0.022,0.009c-0.008,0 -0.016,-0.003 -0.022,-0.009c-0.006,-0.006 -0.009,-0.013 -0.009,-0.021c0,-0.044 0.01,-0.084 0.029,-0.119c0.02,-0.035 0.046,-0.063 0.08,-0.083c0.034,-0.02 0.072,-0.03 0.114,-0.03c0.042,0 0.08,0.01 0.114,0.03c0.033,0.02 0.06,0.048 0.079,0.083c0.02,0.035 0.03,0.075 0.03,0.119c0,0.021 -0.003,0.042 -0.009,0.061c-0.006,0.019 -0.014,0.037 -0.025,0.054c-0.011,0.017 -0.023,0.034 -0.037,0.05l-0.275,0.323l0.336,0c0.009,0 0.016,0.003 0.021,0.009c0.006,0.006 0.009,0.013 0.009,0.022c0,0.009 -0.003,0.016 -0.009,0.022c-0.006,0.006 -0.013,0.008 -0.021,0.008l-0.395,-0Z" style="fill:#666;fill-rule:nonzero;"/></g><g transform="matrix(20.833333,0,0,20.833333,75.659633,381.230797)"></g><path d="M30.801,391.628l653.019,0" style="fill:none;stroke:#7a918d;stroke-width:1px;"/><path d="M30.801,356.527l653.019,0" style="fill:none;stroke:#7a918d;stroke-width:1px;"/><path d="M30.801,532.364l653.019,0" style="fill:none;stroke:#7a918d;stroke-width:1px;"/><path d="M30.801,78.613l653.019,0" style="fill:none;stroke:#7a918d;stroke-width:1px;"/><path d="M30.801,286.856l653.019,0" style="fill:none;stroke:#7a918d;stroke-width:1px;"/><path d="M30.801,217.023l653.019,0" style="fill:none;stroke:#7a918d;stroke-width:1px;"/><path d="M30.801,147.643l653.019,0" style="fill:none;stroke:#7a918d;stroke-width:1px;"/><path d="M30.801,462.305l653.019,0" style="fill:none;stroke:#7a918d;stroke-width:1px;"/><g><path d="M106.007,34.176l0,542.625" style="fill:none;stroke:#7a918d;stroke-width:1px;"/><path d="M169.23,34.176l0,542.625" style="fill:none;stroke:#7a918d;stroke-width:1px;"/><path d="M545.7,34.176l0,542.625" style="fill:none;stroke:#7a918d;stroke-width:1px;"/><path d="M357.465,34.176l0,542.625" style="fill:none;stroke:#7a918d;stroke-width:1px;"/><path d="M609.019,34.176l0,542.625" style="fill:none;stroke:#7a918d;stroke-width:1px;"/></g></svg>