<?xml version="1.0" encoding="UTF-8" standalone="no"?><!DOCTYPE svg PUBLIC "-//W3C//DTD SVG 1.1//EN" "http://www.w3.org/Graphics/SVG/1.1/DTD/svg11.dtd"><svg width="100%" height="100%" viewBox="0 0 498 397" version="1.1" xmlns="http://www.w3.org/2000/svg" xmlns:xlink="http://www.w3.org/1999/xlink" xml:space="preserve" xmlns:serif="http://www.serif.com/" style="fill-rule:evenodd;clip-rule:evenodd;stroke-linejoin:round;stroke-miterlimit:2;"><rect id="VariationNegative" x="0" y="0" width="497.571" height="396.471" style="fill:none;"/><g><g><path d="M95.329,346.434c4.853,0 9.206,-1.15 13.058,-3.453c3.849,-2.302 6.884,-5.419 9.103,-9.354c2.217,-3.934 3.327,-8.412 3.327,-13.434c0,-4.938 -1.11,-9.395 -3.327,-13.372c-2.219,-3.975 -5.254,-7.094 -9.103,-9.354c-3.851,-2.26 -8.205,-3.39 -13.058,-3.39c-4.771,0 -9.083,1.13 -12.932,3.39c-3.851,2.26 -6.864,5.379 -9.04,9.354c-2.178,3.977 -3.264,8.433 -3.264,13.372c0,5.022 1.087,9.501 3.264,13.434c2.176,3.935 5.189,7.052 9.04,9.354c3.849,2.303 8.161,3.453 12.932,3.453m0,8.789c-6.529,0 -12.41,-1.507 -17.64,-4.52c-5.232,-3.013 -9.376,-7.135 -12.43,-12.367c-3.056,-5.23 -4.626,-11.112 -4.708,-17.64l0,-50.909c0,-1.507 0.439,-2.699 1.318,-3.578c0.879,-0.879 2.072,-1.318 3.578,-1.318c1.423,0 2.574,0.439 3.453,1.318c0.879,0.879 1.318,2.072 1.318,3.578l0,28.56c2.762,-3.934 6.422,-7.094 10.986,-9.479c4.561,-2.386 9.646,-3.578 15.255,-3.578c6.444,0 12.22,1.528 17.327,4.583c5.104,3.056 9.144,7.219 12.116,12.493c2.97,5.273 4.457,11.217 4.457,17.829c0,6.698 -1.528,12.681 -4.583,17.954c-3.057,5.274 -7.219,9.439 -12.493,12.493c-5.273,3.056 -11.258,4.583 -17.954,4.583" style="fill:#f5f1ec;fill-rule:nonzero;"/><path d="M153.161,355.222c-3.345,0 -6.333,-0.919 -8.966,-2.758c-2.632,-1.838 -4.682,-4.388 -6.144,-7.648c-1.463,-3.261 -2.193,-7.022 -2.193,-11.285l0,-63.127c0,-1.42 0.438,-2.57 1.316,-3.447c0.878,-0.878 2.027,-1.317 3.449,-1.317c1.42,0 2.57,0.44 3.447,1.317c0.878,0.878 1.317,2.027 1.317,3.447l0,63.127c0,3.595 0.73,6.52 2.194,8.777c1.462,2.257 3.322,3.386 5.58,3.386l7.201,0c1.253,0 2.256,0.438 3.009,1.316c0.752,0.878 1.128,2.028 1.128,3.448c0,1.422 -0.523,2.57 -1.567,3.448c-1.046,0.878 -2.403,1.317 -4.075,1.317l-5.695,0Z" style="fill:#f5f1ec;fill-rule:nonzero;"/><path d="M160.026,338.403c-1.55,0 -2.778,-0.452 -3.682,-1.357c-0.904,-0.904 -1.357,-2.132 -1.357,-3.682l0,-41.798c0,-1.55 0.452,-2.778 1.357,-3.682c0.904,-0.905 2.132,-1.357 3.682,-1.357c1.463,0 2.648,0.452 3.552,1.357c0.905,0.904 1.357,2.131 1.357,3.682l0,41.798c0,1.55 -0.451,2.778 -1.357,3.682c-0.904,0.904 -2.089,1.357 -3.552,1.357m-0.119,-61.824c-1.574,0 -2.933,-0.572 -4.075,-1.716c-1.145,-1.143 -1.716,-2.537 -1.716,-4.183c0,-1.786 0.59,-3.199 1.77,-4.236c1.179,-1.036 2.555,-1.555 4.129,-1.555c1.501,0 2.842,0.519 4.021,1.555c1.18,1.037 1.77,2.45 1.77,4.236c0,1.646 -0.573,3.04 -1.716,4.183c-1.144,1.145 -2.539,1.716 -4.183,1.716" style="fill:#f5f1ec;fill-rule:nonzero;"/><path d="M231.398,355.222c-1.425,0 -2.597,-0.459 -3.517,-1.382c-0.922,-0.92 -1.382,-2.051 -1.382,-3.392l0,-32.662c0,-5.192 -0.986,-9.463 -2.952,-12.814c-1.969,-3.349 -4.648,-5.861 -8.041,-7.537c-3.391,-1.674 -7.223,-2.512 -11.494,-2.512c-4.105,0 -7.811,0.797 -11.119,2.387c-3.309,1.592 -5.926,3.769 -7.852,6.532c-1.927,2.764 -2.889,5.904 -2.889,9.422l-6.909,0c0.167,-5.276 1.59,-9.987 4.272,-14.133c2.679,-4.146 6.238,-7.411 10.678,-9.799c4.438,-2.386 9.379,-3.58 14.824,-3.58c5.945,0 11.263,1.237 15.954,3.706c4.689,2.472 8.395,6.093 11.117,10.867c2.721,4.774 4.083,10.596 4.083,17.462l0,32.662c0,1.341 -0.461,2.472 -1.381,3.392c-0.922,0.922 -2.054,1.382 -3.392,1.382m-54.019,0c-1.507,0 -2.701,-0.44 -3.58,-1.319c-0.879,-0.879 -1.319,-2.03 -1.319,-3.455l0,-59.044c0,-1.507 0.44,-2.701 1.319,-3.58c0.879,-0.879 2.073,-1.32 3.58,-1.32c1.423,0 2.575,0.44 3.455,1.32c0.879,0.879 1.318,2.073 1.318,3.58l0,59.044c0,1.425 -0.439,2.575 -1.318,3.455c-0.88,0.879 -2.032,1.319 -3.455,1.319" style="fill:#f5f1ec;fill-rule:nonzero;"/><path d="M276.469,346.435c4.853,0 9.183,-1.149 12.993,-3.452c3.807,-2.301 6.819,-5.417 9.038,-9.352c2.216,-3.933 3.326,-8.41 3.326,-13.432c0,-4.937 -1.109,-9.393 -3.326,-13.369c-2.219,-3.974 -5.231,-7.092 -9.038,-9.352c-3.81,-2.26 -8.14,-3.389 -12.993,-3.389c-4.769,0 -9.08,1.13 -12.93,3.389c-3.85,2.26 -6.904,5.378 -9.163,9.352c-2.26,3.976 -3.39,8.432 -3.39,13.369c0,5.021 1.13,9.499 3.39,13.432c2.259,3.934 5.313,7.051 9.163,9.352c3.849,2.303 8.16,3.452 12.93,3.452m0,8.787c-6.612,0 -12.552,-1.526 -17.825,-4.582c-5.272,-3.054 -9.437,-7.218 -12.49,-12.491c-3.056,-5.272 -4.581,-11.253 -4.581,-17.95c0,-6.61 1.484,-12.553 4.456,-17.825c2.97,-5.272 7.008,-9.434 12.114,-12.49c5.103,-3.054 10.877,-4.582 17.322,-4.582c5.606,0 10.67,1.193 15.19,3.578c4.518,2.385 8.159,5.544 10.92,9.477l0,-27.927c0,-1.506 0.459,-2.698 1.381,-3.577c0.92,-0.879 2.091,-1.319 3.515,-1.319c1.422,0 2.593,0.44 3.516,1.319c0.92,0.879 1.38,2.071 1.38,3.577l0,50.272c-0.169,6.528 -1.779,12.408 -4.833,17.637c-3.056,5.231 -7.198,9.352 -12.427,12.365c-5.231,3.013 -11.109,4.519 -17.637,4.519" style="fill:#f5f1ec;fill-rule:nonzero;"/><path d="M412.373,322.57l-6.154,-6.279l21.727,-27.503c0.585,-0.836 1.235,-1.423 1.947,-1.758c0.71,-0.334 1.444,-0.502 2.198,-0.502c1.422,0 2.511,0.44 3.265,1.319c0.754,0.879 1.108,1.927 1.067,3.14c-0.043,1.214 -0.483,2.366 -1.319,3.454l-22.731,28.131Zm20.344,32.652c-1.005,0 -1.82,-0.167 -2.448,-0.502c-0.629,-0.334 -1.278,-0.921 -1.947,-1.758l-21.726,-27.629l-3.768,-3.265l-21.852,-27.754c-0.923,-1.086 -1.362,-2.217 -1.319,-3.391c0.042,-1.171 0.44,-2.198 1.194,-3.077c0.753,-0.879 1.841,-1.319 3.265,-1.319c1.422,0 2.637,0.502 3.642,1.507l21.098,27.001l3.391,2.763l23.358,29.889c1.088,1.34 1.549,2.596 1.382,3.768c-0.169,1.173 -0.691,2.094 -1.57,2.763c-0.88,0.671 -1.78,1.005 -2.701,1.005m-49.731,0c-1.341,0 -2.408,-0.418 -3.203,-1.256c-0.797,-0.836 -1.214,-1.841 -1.255,-3.014c-0.043,-1.171 0.396,-2.301 1.319,-3.391l23.108,-28.885l5.4,7.158l-21.977,27.88c-0.754,1.005 -1.885,1.507 -3.391,1.507" style="fill:#f5f1ec;fill-rule:nonzero;"/><path d="M351.273,355.222c-6.838,0 -12.896,-1.498 -18.172,-4.495c-5.276,-2.997 -9.413,-7.155 -12.41,-12.473c-2.997,-5.319 -4.495,-11.397 -4.495,-18.235c0,-6.923 1.414,-13.022 4.242,-18.299c2.828,-5.276 6.733,-9.434 11.714,-12.473c4.981,-3.039 10.722,-4.559 17.222,-4.559c6.416,0 12.009,1.456 16.779,4.369c4.77,2.913 8.463,6.944 11.08,12.093c2.617,5.15 3.926,11.017 3.926,17.602c0,1.351 -0.422,2.427 -1.266,3.229c-0.844,0.802 -1.942,1.203 -3.292,1.203l-53.819,0l0,-8.105l54.832,0l-5.445,3.926c0.084,-4.896 -0.802,-9.286 -2.659,-13.17c-1.857,-3.883 -4.495,-6.923 -7.915,-9.118c-3.419,-2.195 -7.492,-3.292 -12.22,-3.292c-4.812,0 -9.033,1.14 -12.663,3.419c-3.63,2.279 -6.437,5.424 -8.421,9.434c-1.984,4.01 -2.976,8.59 -2.976,13.74c0,5.15 1.119,9.709 3.356,13.676c2.237,3.968 5.298,7.091 9.181,9.371c3.883,2.279 8.358,3.419 13.423,3.419c3.039,0 6.1,-0.528 9.181,-1.583c3.081,-1.055 5.551,-2.385 7.408,-3.989c0.929,-0.76 1.984,-1.161 3.166,-1.203c1.182,-0.042 2.195,0.274 3.039,0.95c1.097,1.013 1.667,2.111 1.71,3.292c0.042,1.182 -0.443,2.195 -1.456,3.039c-2.786,2.364 -6.332,4.327 -10.637,5.888c-4.306,1.562 -8.442,2.343 -12.41,2.343Z" style="fill:#f5f1ec;fill-rule:nonzero;"/></g><path d="M260.188,188.945c-14.639,0.551 -16.676,-10.165 -16.951,-14.948c-0.391,-6.818 6.957,-12.787 14.604,-13.7c11.135,-1.031 28.873,-8.51 40.47,-18.414c29.628,-28.678 0.815,-69.438 -32.419,-72.393c-62.12,-5.523 -80.815,43.073 -80.927,76.044c0,39.204 26.799,63.606 45.425,70.809c32.345,12.509 65.794,-0.262 77.823,-10.253c6.053,-4.762 16.553,-3.931 20.013,-0.639c3.461,3.292 9.611,13.025 0.751,20.389c-51.897,43.134 -156.562,28.224 -171.332,-60.373c-8.471,-50.811 15.606,-93.212 45.972,-111.097c34.624,-20.392 91.478,-18.667 121.918,16.907c23.826,30.774 14.733,62.478 10.641,70.608c-10.198,20.264 -45.281,45.903 -75.989,47.06Z" style="fill:#a63d40;"/></g></svg>