<?xml version="1.0" encoding="UTF-8"?>
<svg id="Layer_2" data-name="Layer 2" xmlns="http://www.w3.org/2000/svg" viewBox="0 0 955.81 410.58">
  <defs>
    <style>
      .cls-1 {
        fill: #deeaf3;
        stroke-width: 0px;
      }
    </style>
  </defs>
  <g id="Texts">
    <g>
      <path class="cls-1" d="M0,325.48L64.92,0h54.83L54.83,325.48H0Z"/>
      <path class="cls-1" d="M349.97,115.6l46.12-54.18h-32.46l-34.21,40.27c-.36-.2-.73-.38-1.1-.57-17.1-8.62-37.21-12.94-60.31-12.94-26.61,0-50.45,5.92-71.5,17.76-21.06,11.85-37.58,28.07-49.57,48.7-11.99,20.61-17.98,44.07-17.98,70.39,0,21.06,4.75,39.27,14.25,54.62,4.82,7.79,10.61,14.71,17.35,20.77l-47.39,55.77h32.02l35.52-41.73c.73.39,1.46.77,2.2,1.15,16.96,8.63,36.85,12.94,59.66,12.94,27.19,0,51.24-5.99,72.16-17.98,20.9-11.99,37.28-28.29,49.12-48.91,11.85-20.62,17.77-44.08,17.77-70.4,0-21.06-4.61-39.19-13.82-54.39-4.85-8.01-10.79-15.1-17.83-21.27ZM184.23,222.84c0-17.25,3.43-32.46,10.31-45.62,6.86-13.16,16.44-23.47,28.73-30.92,12.28-7.46,26.02-11.19,41.23-11.19,12.22,0,22.7,1.99,31.44,5.97l-100.88,118.73c-7.22-9.83-10.83-22.15-10.83-36.97ZM316.04,239.51c-6.87,13.16-16.38,23.55-28.51,31.14-12.14,7.61-25.96,11.41-41.45,11.41-12.54,0-23.28-2.18-32.22-6.55l101.34-119.06c7.43,9.83,11.15,22.31,11.15,37.44,0,17.25-3.44,32.46-10.31,45.62Z"/>
      <path class="cls-1" d="M669.37,135.99c-9.07-15.5-21.43-27.34-37.06-35.53-15.65-8.19-33.12-12.28-52.42-12.28-25.16,0-46.65,5.99-64.48,17.98-4.12,2.77-8.04,5.8-11.74,9.1l4.72-24.01h-52.2l-63.6,319.33h54.83l24.12-119.11c7.22,11.39,16.94,20.17,29.17,26.34,14.18,7.16,31.07,10.74,50.67,10.74s36.03-3.43,51.97-10.31c15.94-6.86,29.9-16.44,41.9-28.72,11.98-12.28,21.27-26.76,27.85-43.43,6.58-16.67,9.87-34.95,9.87-54.83,0-21.35-4.54-39.77-13.6-55.27ZM616.95,239.51c-6.87,13.16-16.3,23.47-28.29,30.93-11.99,7.45-25.88,11.18-41.67,11.18-19.6,0-34.81-5.27-45.62-15.79-10.82-10.53-16.23-24.85-16.23-42.99s3.51-32.46,10.53-45.62c7.02-13.16,16.59-23.47,28.73-30.92,12.13-7.46,25.95-11.19,41.45-11.19,19.88,0,35.09,5.26,45.62,15.79,10.53,10.53,15.79,24.86,15.79,42.99s-3.44,32.46-10.31,45.62Z"/>
      <path class="cls-1" d="M905.23,188.19c-.11,3.89-.51,7.98-1.18,12.28l22.37-12.28h-21.19Z"/>
      <path class="cls-1" d="M942.43,136.43c-8.93-15.21-21.5-27.05-37.72-35.54-16.24-8.47-35.32-12.71-57.25-12.71-26.03,0-49.13,5.92-69.31,17.76-20.17,11.85-36.11,28.01-47.81,48.47-11.7,20.47-17.54,44.16-17.54,71.07,0,20.76,4.75,38.82,14.25,54.17s22.88,27.34,40.14,35.96c17.25,8.63,37.72,12.94,61.41,12.94,17.55,0,34.8-2.7,51.76-8.11,16.96-5.41,31.58-13.52,43.87-24.35l-22.82-38.16c-7.89,7.61-17.83,13.6-29.82,17.99-12,4.39-24.57,6.57-37.73,6.57-23.1,0-40.13-5.18-51.1-15.57-10.63-10.05-16.11-24.17-16.43-42.33h185.97c.88-5.26,1.68-10.66,2.41-16.22.73-5.55,1.1-11.41,1.1-17.55,0-21.06-4.46-39.18-13.38-54.39ZM904.05,200.47c.67-4.3,1.07-8.39,1.18-12.28h-134.18c1.35-4.46,2.99-8.7,4.91-12.73,6.43-13.44,15.57-23.97,27.42-31.58,11.84-7.59,25.8-11.4,41.89-11.4,13.45,0,25,2.63,34.65,7.89,9.65,5.27,16.67,12.87,21.06,22.81,3.12,7.08,4.53,15.42,4.25,25.01h21.19l-22.37,12.28Z"/>
    </g>
  </g>
</svg>