<?xml version="1.0" encoding="UTF-8"?>
<svg id="Layer_2" xmlns="http://www.w3.org/2000/svg" version="1.1" viewBox="0 0 144.6 161.3">
  <!-- Generator: Adobe Illustrator 29.5.0, SVG Export Plug-In . SVG Version: 2.1.0 Build 137)  -->
  <defs>
    <style>
      .st0 {
        fill: #fff;
      }
    </style>
  </defs>
  <g id="Images">
    <g>
      <path class="st0" d="M94.1,94.3c-.3-1.4-1.1-2.7-2.4-3.5,0,0-.2-.2-.3-.2L9.8,42.3l-1.1-.7c-4.7-2.8-10.3,2.1-8.1,7.1l1.9,4.4,44.6,104.8c1.8,4.3,7.7,4.7,10.1.7l1.2-2.1,18.7-31.1-8.3-1.7-9.6,15.9-5.1,8.5-.3.5c-.5.8-1.7.7-2-.1L16,64.6l-3.9-9.3c-.4-1,.7-2,1.6-1.4l.4.2,11.7,6.9,59.6,35.2-3.4,5.6,8.3,1.7,2-3.3,1.2-2c.8-1.3,1-2.8.7-4.1Z"/>
      <path class="st0" d="M144.6,123.7l-13-118.6c-.6-5.4-7.8-7-10.6-2.2l-41.3,71.3,6.9,4.1,36.1-62.2c.6-.9,2-.6,2.1.5l11.3,103.3c0,.8-.6,1.4-1.4,1.2l-63.6-13.2c-.8-.2-1.1-1-.8-1.7l4-6.9-6.9-4.1-6.5,11.2c-2,3.3,0,7.6,3.8,8.4l73,15.2c3.8.8,7.2-2.3,6.8-6.2Z"/>
    </g>
  </g>
</svg>