<?xml version="1.0" encoding="UTF-8"?>
<svg id="Layer_2" data-name="Layer 2" xmlns="http://www.w3.org/2000/svg" viewBox="0 0 144.64 161.33">
  <defs>
    <style>
      .cls-1 {
        fill: #277c77;
      }
    </style>
  </defs>
  <g id="Images">
    <g>
      <path class="cls-1" d="M94.06,94.29c-.29-1.4-1.11-2.68-2.36-3.51-.1-.08-.21-.15-.32-.22L9.76,42.25l-1.15-.67c-4.74-2.8-10.28,2.07-8.13,7.12l1.87,4.39,44.64,104.78c1.81,4.27,7.7,4.68,10.1.71l1.25-2.07,18.72-31.06-8.33-1.73-9.58,15.88-5.11,8.48-.32.54c-.48.8-1.66.71-2.03-.14L15.96,64.57l-3.95-9.27c-.43-1.02.67-1.98,1.61-1.43l.38.22,11.68,6.92,59.58,35.25-3.39,5.64,8.33,1.73,1.98-3.28,1.18-1.96c.77-1.28.97-2.75.7-4.1Z"/>
      <path class="cls-1" d="M144.6,123.69l-13.01-118.63c-.6-5.45-7.82-6.97-10.57-2.22l-41.33,71.33,6.9,4.08,36.06-62.23c.55-.95,1.99-.65,2.11.45l11.34,103.35c.08.77-.6,1.39-1.36,1.24l-63.57-13.23c-.75-.15-1.14-1-.75-1.67l4.02-6.95-6.9-4.08-6.47,11.16c-1.95,3.35-.04,7.63,3.76,8.41l72.96,15.18c3.79.78,7.23-2.35,6.81-6.19Z"/>
    </g>
  </g>
</svg>