<?xml version="1.0" encoding="UTF-8"?>
<svg id="Layer_2" data-name="Layer 2" xmlns="http://www.w3.org/2000/svg" viewBox="0 0 297.65 82.27">
  <defs>
    <style>
      .cls-1 {
        fill: #fff;
      }
    </style>
  </defs>
  <g id="items">
    <g>
      <g>
        <path class="cls-1" d="M25.93,34.09c-.38-.38-.86-.57-1.45-.57H2.02c-.59,0-1.07.19-1.45.57-.38.38-.57.86-.57,1.45s.19,1.07.57,1.45.86.57,1.45.57h22.46c.59,0,1.07-.19,1.45-.57.38-.38.57-.86.57-1.45s-.19-1.07-.57-1.45ZM11.09,33.52v30.62c0,.62.21,1.13.63,1.55.42.42.93.63,1.55.63s1.13-.21,1.55-.63c.41-.42.63-.94.63-1.55v-30.62h-4.37Z"/>
        <path class="cls-1" d="M51.93,62.29h-16.8v-10.5h12.05c.64,0,1.16-.19,1.55-.57.39-.38.59-.86.59-1.45s-.2-1.07-.59-1.45c-.39-.38-.91-.57-1.55-.57h-12.05v-10.21h16.8c.64,0,1.16-.18,1.55-.55s.59-.84.59-1.43-.2-1.11-.59-1.49c-.39-.38-.91-.57-1.55-.57h-18.98c-.62,0-1.13.2-1.55.61-.42.41-.63.93-.63,1.58v28.43c0,.62.21,1.13.63,1.55.42.42.94.63,1.55.63h18.98c.64,0,1.16-.19,1.55-.57.39-.38.59-.88.59-1.49s-.2-1.06-.59-1.43c-.39-.36-.91-.55-1.55-.55Z"/>
        <path class="cls-1" d="M77.66,38.48c-.91-1.54-2.18-2.75-3.8-3.63-1.62-.88-3.49-1.32-5.59-1.32h-7.56c-.62,0-1.13.2-1.55.61-.42.41-.63.93-.63,1.58v28.43c0,.62.21,1.13.63,1.55.42.42.94.63,1.55.63s1.17-.21,1.57-.63c.41-.42.61-.94.61-1.55v-10.46h5.38c.26,0,.52,0,.77-.02h0c1.6-.08,3.04-.42,4.35-1.03.15-.06.31-.13.46-.21,1.62-.84,2.89-2,3.8-3.49.91-1.48,1.37-3.18,1.37-5.08,0-2.04-.46-3.84-1.37-5.38ZM73.98,46.86c-.56.88-1.33,1.57-2.31,2.06-.98.49-2.11.74-3.4.74h-5.38v-12.1h5.38c1.29,0,2.42.27,3.4.8.98.53,1.75,1.27,2.31,2.23s.84,2.04.84,3.28c0,1.12-.28,2.12-.84,3ZM79.82,62.96l-6.42-10.33-.47-.76-4.24,1.22.35.57h0l7.2,11.61c.22.36.5.63.82.8.32.17.68.25,1.07.25.9,0,1.53-.36,1.89-1.07.36-.71.29-1.48-.21-2.29Z"/>
        <path class="cls-1" d="M103.78,38.48c-.91-1.54-2.18-2.75-3.8-3.63-1.62-.88-3.49-1.32-5.59-1.32h-7.56c-.62,0-1.13.2-1.55.61s-.63.93-.63,1.58v28.43c0,.62.21,1.13.63,1.55.42.42.94.63,1.55.63s1.17-.21,1.57-.63c.41-.42.61-.94.61-1.55v-10.46h5.38c.26,0,.52,0,.77-.02h0c1.6-.08,3.04-.42,4.35-1.03.15-.06.31-.13.46-.21,1.62-.84,2.89-2,3.8-3.49.91-1.48,1.37-3.18,1.37-5.08,0-2.04-.46-3.84-1.37-5.38ZM100.1,46.86c-.56.88-1.33,1.57-2.31,2.06-.98.49-2.11.74-3.4.74h-5.38v-12.1h5.38c1.29,0,2.42.27,3.4.8.98.53,1.75,1.27,2.31,2.23s.84,2.04.84,3.28c0,1.12-.28,2.12-.84,3ZM105.94,62.96l-6.42-10.33-.47-.76-4.24,1.22.35.57h0l7.2,11.61c.22.36.5.63.82.8.32.17.68.25,1.07.25.9,0,1.53-.36,1.89-1.07.36-.71.29-1.48-.21-2.29Z"/>
        <path class="cls-1" d="M138.63,63.26l-11.84-28.27c-.36-.98-1.05-1.47-2.06-1.47-.95,0-1.64.49-2.06,1.47l-11.8,28.18c-.34.76-.29,1.47.13,2.14.42.67,1.02,1.01,1.81,1.01.39,0,.78-.11,1.16-.34s.67-.56.86-1.01l2.41-5.88,1.48-3.61,6.1-14.93,6.01,14.93,1.46,3.61,2.37,5.88c.17.42.44.75.82.99.38.24.78.36,1.2.36.81,0,1.42-.32,1.83-.94.41-.63.45-1.34.15-2.12ZM133.17,55.49h-16.46l-1.68,3.61h19.82l-1.68-3.61Z"/>
        <path class="cls-1" d="M160.52,34.42c-.32-.6-.9-.9-1.74-.9-.5,0-.9.09-1.2.27-.29.18-.55.52-.77,1.03l-10.77,25.37-10.56-25.37c-.36-.87-1.04-1.3-2.02-1.3-.87,0-1.46.31-1.76.92s-.27,1.4.13,2.35l12.31,28.14c.42.92,1.08,1.39,1.97,1.39.48,0,.87-.12,1.2-.36.32-.24.58-.58.78-1.03l12.42-28.52c.34-.73.34-1.39.02-1.99Z"/>
        <path class="cls-1" d="M168.78,34.13c-.41-.41-.93-.61-1.57-.61s-1.13.2-1.55.61c-.42.41-.63.93-.63,1.58v28.43c0,.62.21,1.13.63,1.55.42.42.94.63,1.55.63s1.17-.21,1.57-.63c.41-.42.61-.94.61-1.55v-28.43c0-.64-.2-1.17-.61-1.58Z"/>
        <path class="cls-1" d="M202.68,34.42c-.32-.6-.9-.9-1.74-.9-.5,0-.9.09-1.2.27-.29.18-.55.52-.78,1.03l-10.77,25.37-10.56-25.37c-.36-.87-1.04-1.3-2.02-1.3-.87,0-1.46.31-1.76.92s-.27,1.4.13,2.35l12.31,28.14c.42.92,1.08,1.39,1.97,1.39.48,0,.88-.12,1.2-.36.32-.24.58-.58.78-1.03l12.43-28.52c.34-.73.34-1.39.02-1.99Z"/>
        <path class="cls-1" d="M223.52,63.26l-11.84-28.27c-.36-.98-1.05-1.47-2.06-1.47-.95,0-1.64.49-2.06,1.47l-11.8,28.18c-.34.76-.29,1.47.13,2.14.42.67,1.02,1.01,1.81,1.01.39,0,.78-.11,1.16-.34s.67-.56.86-1.01l2.41-5.88,1.48-3.61,6.1-14.93,6.01,14.93,1.46,3.61,2.37,5.88c.17.42.44.75.82.99.38.24.78.36,1.2.36.81,0,1.42-.32,1.83-.94.41-.63.46-1.34.15-2.12ZM218.06,55.49h-16.46l-1.68,3.61h19.82l-1.68-3.61Z"/>
      </g>
      <g>
        <path class="cls-1" d="M271.86,48.08c-.15-.71-.57-1.37-1.2-1.79-.05-.04-.11-.08-.16-.11l-41.62-24.63-.59-.34c-2.42-1.43-5.24,1.06-4.14,3.63l.95,2.24,22.76,53.43c.92,2.18,3.93,2.39,5.15.36l.64-1.06,9.55-15.84-4.25-.88-4.89,8.1-2.6,4.33-.16.27c-.24.41-.85.36-1.04-.07l-18.22-42.79-2.02-4.73c-.22-.52.34-1.01.82-.73l.2.11,5.96,3.53,30.38,17.98-1.73,2.88,4.25.88,1.01-1.67.6-1c.39-.65.5-1.4.36-2.09Z"/>
        <path class="cls-1" d="M297.64,63.08l-6.64-60.49c-.31-2.78-3.99-3.56-5.39-1.13l-21.08,36.37,3.52,2.08,18.39-31.73c.28-.48,1.02-.33,1.08.23l5.78,52.7c.04.39-.31.71-.69.63l-32.42-6.75c-.38-.08-.58-.51-.38-.85l2.05-3.54-3.52-2.08-3.3,5.69c-.99,1.71-.02,3.89,1.92,4.29l37.2,7.74c1.93.4,3.69-1.2,3.47-3.16Z"/>
      </g>
    </g>
  </g>
</svg>