<?xml version="1.0" encoding="UTF-8"?><svg id="Layer_2" xmlns="http://www.w3.org/2000/svg" viewBox="0 0 527.9 281.59"><defs><style>.cls-1{fill:#277c77;stroke-width:0px;}</style></defs><g id="Images"><path class="cls-1" d="M61.18,205.53c-.89-.89-2.03-1.34-3.42-1.34H4.76c-1.39,0-2.53.45-3.42,1.34-.89.89-1.34,2.03-1.34,3.42s.45,2.53,1.34,3.42c.89.89,2.03,1.34,3.42,1.34h53.01c1.39,0,2.53-.45,3.42-1.34.89-.89,1.34-2.03,1.34-3.42s-.45-2.53-1.34-3.42ZM26.16,204.19v72.25c0,1.45.5,2.68,1.49,3.67.99.99,2.2,1.49,3.67,1.49s2.68-.5,3.67-1.49c.97-.99,1.49-2.21,1.49-3.67v-72.25h-10.31Z"/><path class="cls-1" d="M122.53,272.08h-39.64v-24.78h28.44c1.52,0,2.74-.45,3.67-1.34.92-.89,1.39-2.03,1.39-3.42s-.46-2.53-1.39-3.42c-.92-.89-2.15-1.34-3.67-1.34h-28.44v-24.08h39.64c1.52,0,2.74-.43,3.67-1.29.92-.86,1.39-1.98,1.39-3.37s-.46-2.63-1.39-3.52c-.92-.89-2.15-1.34-3.67-1.34h-44.8c-1.45,0-2.68.48-3.67,1.44-.99.96-1.49,2.2-1.49,3.72v67.1c0,1.45.5,2.68,1.49,3.67.99.99,2.21,1.49,3.67,1.49h44.8c1.52,0,2.74-.45,3.67-1.34.92-.89,1.39-2.06,1.39-3.52s-.46-2.51-1.39-3.37c-.92-.86-2.15-1.29-3.67-1.29Z"/><path class="cls-1" d="M183.25,215.88c-2.15-3.63-5.14-6.49-8.97-8.57-3.83-2.08-8.23-3.12-13.18-3.12h-17.84c-1.45,0-2.68.48-3.67,1.44-.99.96-1.49,2.2-1.49,3.72v67.1c0,1.45.5,2.68,1.49,3.67.99.99,2.21,1.49,3.67,1.49s2.76-.5,3.72-1.49c.96-.99,1.44-2.21,1.44-3.67v-24.68h12.69c.61,0,1.22-.02,1.82-.05h.02c3.77-.2,7.19-.99,10.27-2.43.36-.13.73-.31,1.07-.5,3.83-1.98,6.82-4.72,8.97-8.23,2.15-3.5,3.22-7.5,3.22-11.99,0-4.82-1.07-9.05-3.22-12.69ZM174.58,235.66c-1.32,2.08-3.14,3.7-5.45,4.86-2.31,1.16-4.99,1.73-8.03,1.73h-12.69v-28.54h12.69c3.04,0,5.72.63,8.03,1.88,2.31,1.26,4.13,3.01,5.45,5.25,1.32,2.25,1.98,4.82,1.98,7.73,0,2.64-.66,5-1.98,7.09ZM188.35,273.66l-15.15-24.38-1.11-1.78-10.01,2.87.83,1.34h.02l17,27.4c.53.86,1.17,1.49,1.93,1.88.76.4,1.6.59,2.53.59,2.11,0,3.6-.84,4.46-2.53.86-1.68.69-3.49-.5-5.4Z"/><path class="cls-1" d="M244.88,215.88c-2.15-3.63-5.14-6.49-8.97-8.57-3.83-2.08-8.23-3.12-13.18-3.12h-17.84c-1.45,0-2.68.48-3.67,1.44-.99.96-1.49,2.2-1.49,3.72v67.1c0,1.45.5,2.68,1.49,3.67.99.99,2.21,1.49,3.67,1.49s2.76-.5,3.72-1.49c.96-.99,1.44-2.21,1.44-3.67v-24.68h12.69c.61,0,1.22-.02,1.82-.05h.02c3.77-.2,7.19-.99,10.27-2.43.36-.13.73-.31,1.07-.5,3.83-1.98,6.82-4.72,8.97-8.23,2.15-3.5,3.22-7.5,3.22-11.99,0-4.82-1.07-9.05-3.22-12.69ZM236.21,235.66c-1.32,2.08-3.14,3.7-5.45,4.86-2.31,1.16-4.99,1.73-8.03,1.73h-12.69v-28.54h12.69c3.04,0,5.72.63,8.03,1.88,2.31,1.26,4.13,3.01,5.45,5.25,1.32,2.25,1.98,4.82,1.98,7.73,0,2.64-.66,5-1.98,7.09ZM249.98,273.66l-15.15-24.38-1.11-1.78-10.01,2.87.83,1.34h.02l17,27.4c.53.86,1.17,1.49,1.93,1.88.76.4,1.6.59,2.53.59,2.11,0,3.6-.84,4.46-2.53.86-1.68.69-3.49-.5-5.4Z"/><path class="cls-1" d="M327.14,274.36l-27.93-66.7c-.86-2.31-2.48-3.47-4.86-3.47-2.25,0-3.87,1.16-4.86,3.47l-27.85,66.5c-.79,1.78-.69,3.47.3,5.05.99,1.59,2.41,2.38,4.26,2.38.93,0,1.83-.26,2.73-.79.89-.53,1.57-1.32,2.03-2.38l5.68-13.87,3.49-8.52,14.4-35.23,14.17,35.23,3.44,8.52,5.58,13.87c.4.99,1.04,1.77,1.93,2.33.89.56,1.83.84,2.82.84,1.92,0,3.35-.74,4.31-2.23.96-1.49,1.07-3.15.35-5ZM314.25,256.02h-38.83l-3.96,8.52h46.76l-3.96-8.52Z"/><path class="cls-1" d="M378.77,206.32c-.76-1.42-2.13-2.13-4.11-2.13-1.19,0-2.13.21-2.82.64-.68.43-1.3,1.24-1.82,2.43l-25.42,59.86-24.93-59.86c-.86-2.05-2.44-3.07-4.76-3.07-2.05,0-3.44.73-4.16,2.18s-.63,3.3.3,5.55l29.04,66.4c.99,2.18,2.54,3.27,4.66,3.27,1.12,0,2.05-.28,2.82-.84.74-.56,1.37-1.37,1.83-2.43l29.32-67.29c.79-1.72.81-3.29.05-4.71Z"/><path class="cls-1" d="M398.26,205.63c-.96-.96-2.2-1.44-3.72-1.44s-2.68.48-3.67,1.44c-.99.96-1.49,2.2-1.49,3.72v67.1c0,1.45.5,2.68,1.49,3.67.99.99,2.21,1.49,3.67,1.49s2.76-.5,3.72-1.49c.96-.99,1.44-2.21,1.44-3.67v-67.1c0-1.52-.48-2.76-1.44-3.72Z"/><path class="cls-1" d="M478.27,206.32c-.76-1.42-2.13-2.13-4.11-2.13-1.19,0-2.13.21-2.82.64-.69.43-1.3,1.24-1.83,2.43l-25.42,59.86-24.93-59.86c-.86-2.05-2.44-3.07-4.76-3.07-2.05,0-3.44.73-4.16,2.18-.73,1.45-.63,3.3.3,5.55l29.04,66.4c.99,2.18,2.54,3.27,4.66,3.27,1.12,0,2.06-.28,2.82-.84.76-.56,1.37-1.37,1.83-2.43l29.34-67.29c.79-1.72.81-3.29.05-4.71Z"/><path class="cls-1" d="M527.43,274.36l-27.95-66.7c-.86-2.31-2.48-3.47-4.86-3.47-2.25,0-3.87,1.16-4.86,3.47l-27.85,66.5c-.79,1.78-.69,3.47.3,5.05.99,1.59,2.41,2.38,4.26,2.38.93,0,1.83-.26,2.73-.79.89-.53,1.57-1.32,2.03-2.38l5.68-13.87,3.49-8.52,14.4-35.23,14.19,35.23,3.44,8.52,5.58,13.87c.4.99,1.04,1.77,1.93,2.33.89.56,1.83.84,2.82.84,1.92,0,3.35-.74,4.31-2.23.96-1.49,1.07-3.15.35-5ZM514.55,256.02h-38.85l-3.96,8.52h46.78l-3.96-8.52Z"/><path class="cls-1" d="M290.11,113.46c-.35-1.68-1.34-3.22-2.84-4.23-.12-.1-.25-.18-.38-.26l-98.22-58.13-1.39-.81c-5.7-3.37-12.37,2.49-9.78,8.57l2.25,5.29,53.72,126.08c2.18,5.14,9.27,5.63,12.16.86l1.5-2.49,22.53-37.38-10.03-2.08-11.53,19.11-6.14,10.21-.38.64c-.58.96-2,.86-2.44-.17l-43-100.97-4.76-11.15c-.51-1.22.81-2.38,1.93-1.72l.46.26,14.06,8.33,71.69,42.42-4.08,6.79,10.03,2.08,2.38-3.95,1.42-2.36c.92-1.54,1.17-3.3.84-4.94Z"/><path class="cls-1" d="M350.93,148.84l-15.66-142.75c-.73-6.56-9.42-8.39-12.72-2.68l-49.74,85.83,8.31,4.91,43.39-74.88c.66-1.14,2.4-.78,2.54.55l13.64,124.36c.1.93-.73,1.67-1.64,1.49l-76.49-15.92c-.91-.18-1.37-1.21-.91-2.02l4.84-8.36-8.31-4.91-7.78,13.43c-2.35,4.03-.05,9.18,4.53,10.13l87.79,18.27c4.56.94,8.7-2.82,8.19-7.45Z"/></g></svg>