<?xml version="1.0" encoding="UTF-8"?><svg id="Layer_2" xmlns="http://www.w3.org/2000/svg" viewBox="0 0 700.44 193.6"><defs><style>.cls-1{fill:#277c77;stroke-width:0px;}</style></defs><g id="Images"><path class="cls-1" d="M61.01,80.21c-.89-.89-2.03-1.33-3.41-1.33H4.74c-1.38,0-2.52.44-3.41,1.33-.89.89-1.33,2.03-1.33,3.41s.44,2.52,1.33,3.41,2.03,1.33,3.41,1.33h52.86c1.38,0,2.52-.44,3.41-1.33.89-.89,1.33-2.03,1.33-3.41s-.44-2.52-1.33-3.41ZM26.09,78.88v72.05c0,1.45.49,2.67,1.48,3.66.99.99,2.19,1.48,3.66,1.48s2.67-.49,3.66-1.48c.97-.99,1.48-2.21,1.48-3.66v-72.05h-10.28Z"/><path class="cls-1" d="M122.19,146.58h-39.53v-24.71h28.37c1.52,0,2.73-.44,3.66-1.33.92-.89,1.38-2.03,1.38-3.41s-.46-2.52-1.38-3.41c-.92-.89-2.14-1.33-3.66-1.33h-28.37v-24.02h39.53c1.52,0,2.73-.43,3.66-1.28.92-.86,1.38-1.98,1.38-3.36s-.46-2.62-1.38-3.51c-.92-.89-2.14-1.33-3.66-1.33h-44.67c-1.45,0-2.67.48-3.66,1.43-.99.96-1.48,2.19-1.48,3.71v66.91c0,1.45.49,2.67,1.48,3.66.99.99,2.21,1.48,3.66,1.48h44.67c1.52,0,2.73-.44,3.66-1.33.92-.89,1.38-2.06,1.38-3.51s-.46-2.5-1.38-3.36c-.92-.86-2.14-1.28-3.66-1.28Z"/><path class="cls-1" d="M182.75,90.54c-2.14-3.62-5.12-6.47-8.94-8.55-3.82-2.08-8.2-3.11-13.15-3.11h-17.79c-1.45,0-2.67.48-3.66,1.43-.99.96-1.48,2.19-1.48,3.71v66.91c0,1.45.49,2.67,1.48,3.66.99.99,2.21,1.48,3.66,1.48s2.75-.49,3.71-1.48c.96-.99,1.43-2.21,1.43-3.66v-24.61h12.65c.61,0,1.22-.02,1.81-.05h.02c3.76-.2,7.17-.99,10.25-2.42.36-.13.72-.31,1.07-.49,3.82-1.98,6.8-4.71,8.94-8.2,2.14-3.49,3.21-7.48,3.21-11.96,0-4.81-1.07-9.03-3.21-12.65ZM174.1,110.26c-1.32,2.08-3.13,3.69-5.44,4.84-2.31,1.15-4.97,1.73-8.01,1.73h-12.65v-28.46h12.65c3.03,0,5.7.63,8.01,1.88,2.31,1.25,4.12,3,5.44,5.24,1.32,2.24,1.98,4.81,1.98,7.71,0,2.64-.66,4.99-1.98,7.07ZM187.84,148.16l-15.11-24.31-1.1-1.78-9.98,2.87.82,1.33h.02l16.95,27.33c.53.86,1.17,1.48,1.93,1.88.76.4,1.6.59,2.52.59,2.11,0,3.59-.84,4.45-2.52.86-1.68.69-3.48-.49-5.39Z"/><path class="cls-1" d="M244.21,90.54c-2.14-3.62-5.12-6.47-8.94-8.55-3.82-2.08-8.2-3.11-13.15-3.11h-17.79c-1.45,0-2.67.48-3.66,1.43-.99.96-1.48,2.19-1.48,3.71v66.91c0,1.45.49,2.67,1.48,3.66.99.99,2.21,1.48,3.66,1.48s2.75-.49,3.71-1.48c.96-.99,1.43-2.21,1.43-3.66v-24.61h12.65c.61,0,1.22-.02,1.81-.05h.02c3.76-.2,7.17-.99,10.25-2.42.36-.13.72-.31,1.07-.49,3.82-1.98,6.8-4.71,8.94-8.2,2.14-3.49,3.21-7.48,3.21-11.96,0-4.81-1.07-9.03-3.21-12.65ZM235.56,110.26c-1.32,2.08-3.13,3.69-5.44,4.84-2.31,1.15-4.97,1.73-8.01,1.73h-12.65v-28.46h12.65c3.03,0,5.7.63,8.01,1.88,2.31,1.25,4.12,3,5.44,5.24,1.32,2.24,1.98,4.81,1.98,7.71,0,2.64-.66,4.99-1.98,7.07ZM249.3,148.16l-15.11-24.31-1.1-1.78-9.98,2.87.82,1.33h.02l16.95,27.33c.53.86,1.17,1.48,1.93,1.88.76.4,1.6.59,2.52.59,2.11,0,3.59-.84,4.45-2.52.86-1.68.69-3.48-.49-5.39Z"/><path class="cls-1" d="M326.24,148.86l-27.85-66.52c-.86-2.31-2.47-3.46-4.84-3.46-2.24,0-3.85,1.15-4.84,3.46l-27.77,66.32c-.79,1.78-.69,3.46.3,5.04.99,1.58,2.4,2.37,4.25,2.37.92,0,1.83-.26,2.72-.79.89-.53,1.56-1.32,2.03-2.37l5.67-13.84,3.48-8.5,14.36-35.14,14.13,35.14,3.43,8.5,5.57,13.84c.4.99,1.04,1.76,1.93,2.32.89.56,1.83.84,2.82.84,1.91,0,3.34-.74,4.3-2.22.96-1.48,1.07-3.15.35-4.99ZM313.39,130.57h-38.73l-3.95,8.5h46.63l-3.95-8.5Z"/><path class="cls-1" d="M377.73,81.01c-.76-1.42-2.12-2.13-4.1-2.13-1.19,0-2.12.21-2.82.64-.68.43-1.3,1.24-1.81,2.42l-25.35,59.7-24.86-59.7c-.86-2.04-2.44-3.06-4.74-3.06-2.04,0-3.43.72-4.15,2.17s-.63,3.29.3,5.53l28.96,66.22c.99,2.17,2.54,3.26,4.65,3.26,1.12,0,2.04-.28,2.82-.84.74-.56,1.37-1.37,1.83-2.42l29.24-67.11c.79-1.71.81-3.28.05-4.69Z"/><path class="cls-1" d="M397.17,80.31c-.96-.96-2.19-1.43-3.71-1.43s-2.67.48-3.66,1.43c-.99.96-1.48,2.19-1.48,3.71v66.91c0,1.45.49,2.67,1.48,3.66.99.99,2.21,1.48,3.66,1.48s2.75-.49,3.71-1.48c.96-.99,1.43-2.21,1.43-3.66v-66.91c0-1.52-.48-2.75-1.43-3.71Z"/><path class="cls-1" d="M476.96,81.01c-.76-1.42-2.12-2.13-4.1-2.13-1.19,0-2.12.21-2.82.64-.69.43-1.3,1.24-1.83,2.42l-25.35,59.7-24.86-59.7c-.86-2.04-2.44-3.06-4.74-3.06-2.04,0-3.43.72-4.15,2.17s-.63,3.29.3,5.53l28.96,66.22c.99,2.17,2.54,3.26,4.65,3.26,1.12,0,2.06-.28,2.82-.84.76-.56,1.37-1.37,1.83-2.42l29.26-67.11c.79-1.71.81-3.28.05-4.69Z"/><path class="cls-1" d="M525.98,148.86l-27.87-66.52c-.86-2.31-2.47-3.46-4.84-3.46-2.24,0-3.85,1.15-4.84,3.46l-27.77,66.32c-.79,1.78-.69,3.46.3,5.04.99,1.58,2.4,2.37,4.25,2.37.92,0,1.83-.26,2.72-.79.89-.53,1.56-1.32,2.03-2.37l5.67-13.84,3.48-8.5,14.36-35.14,14.15,35.14,3.43,8.5,5.57,13.84c.4.99,1.04,1.76,1.93,2.32.89.56,1.83.84,2.82.84,1.91,0,3.34-.74,4.3-2.22.96-1.48,1.07-3.15.35-4.99ZM513.14,130.57h-38.74l-3.95,8.5h46.65l-3.95-8.5Z"/><path class="cls-1" d="M639.75,113.15c-.35-1.68-1.33-3.21-2.83-4.22-.12-.1-.25-.18-.38-.26l-97.95-57.97-1.38-.81c-5.68-3.36-12.34,2.49-9.75,8.55l2.24,5.27,53.57,125.73c2.17,5.12,9.24,5.62,12.12.86l1.5-2.49,22.47-37.28-10-2.08-11.5,19.06-6.13,10.18-.38.64c-.58.96-1.99.86-2.44-.16l-42.88-100.7-4.74-11.12c-.51-1.22.81-2.37,1.93-1.71l.46.26,14.02,8.3,71.49,42.3-4.07,6.77,10,2.08,2.37-3.94,1.42-2.36c.92-1.53,1.17-3.29.84-4.93Z"/><path class="cls-1" d="M700.4,148.43l-15.62-142.36c-.72-6.54-9.39-8.37-12.68-2.67l-49.6,85.59,8.29,4.89,43.27-74.67c.66-1.14,2.39-.77,2.54.54l13.61,124.02c.1.92-.72,1.66-1.63,1.48l-76.28-15.88c-.91-.18-1.37-1.2-.91-2.01l4.83-8.33-8.29-4.89-7.76,13.39c-2.34,4.02-.05,9.16,4.51,10.1l87.55,18.22c4.55.94,8.68-2.82,8.17-7.43Z"/></g></svg>