<?xml version="1.0" encoding="utf-8"?>
<!-- Generator: Adobe Illustrator 28.2.0, SVG Export Plug-In . SVG Version: 6.00 Build 0)  -->
<svg version="1.1" id="Layer_2_00000013880933860696999480000000796771256265572779_"
	 xmlns="http://www.w3.org/2000/svg" xmlns:xlink="http://www.w3.org/1999/xlink" x="0px" y="0px" viewBox="0 0 612.3 344.4"
	 style="enable-background:new 0 0 612.3 344.4;" xml:space="preserve">
<style type="text/css">
	.st0{fill:#8C9091;}
</style>
<g id="Images">
	<rect x="114.5" y="208" class="st0" width="383.4" height="3.8"/>
	<polygon class="st0" points="114.4,98.1 165.4,98.1 165.4,110.3 128.1,110.3 128.1,137 165.4,137 165.4,149.1 128.1,149.1 
		128.1,193.7 114.4,193.7 	"/>
	<path class="st0" d="M198.2,109.7h-4.1v30.2h5.2c6.9,0,11.7-0.6,14.3-1.8c2.6-1.2,4.6-3,6-5.4c1.4-2.4,2.2-5.1,2.2-8.2
		c0-3.1-0.8-5.7-2.4-8.2c-1.6-2.4-3.8-4.2-6.7-5.2C209.7,110.2,204.9,109.7,198.2,109.7 M180.4,193.7V98.1h23.9
		c9.7,0,17.3,2.4,23,7.2c5.7,4.8,8.5,11.3,8.5,19.4c0,5.6-1.4,10.4-4.2,14.4c-2.8,4.1-6.8,7.1-12,9.1c3.1,2,6,4.7,9,8.2
		c2.9,3.5,7,9.5,12.3,18.1c3.3,5.4,6,9.5,8,12.2l5.1,6.8h-16.3l-4.2-6.3c-0.1-0.2-0.4-0.6-0.8-1.2l-2.7-3.8l-4.2-7l-4.6-7.5
		c-2.8-3.9-5.4-7.1-7.8-9.4c-2.3-2.3-4.5-4-6.4-5c-1.9-1-5.1-1.5-9.6-1.5h-3.6v41.6L180.4,193.7L180.4,193.7z"/>
	<rect x="264.8" y="98.1" class="st0" width="13.7" height="95.6"/>
	<polygon class="st0" points="375.7,98.1 388.5,98.1 388.5,193.7 374.7,193.7 374.7,119.3 345.3,156.3 342.8,156.3 313.1,119.3 
		313.1,193.7 299.4,193.7 299.4,98.1 312.4,98.1 344.1,137.4 	"/>
	<polygon class="st0" points="485.1,98.1 497.9,98.1 497.9,193.7 484.1,193.7 484.1,119.3 454.7,156.3 452.2,156.3 422.5,119.3 
		422.5,193.7 408.8,193.7 408.8,98.1 421.7,98.1 453.5,137.4 	"/>
	<path class="st0" d="M140.4,234.1h8.1v10.2c-3,1.3-5.9,1.9-8.8,1.9c-4,0-7.2-1.2-9.6-3.5c-2.4-2.3-3.6-5.2-3.6-8.6
		c0-3.6,1.2-6.6,3.7-9c2.5-2.4,5.6-3.6,9.3-3.6c1.4,0,2.6,0.1,3.9,0.4c1.2,0.3,2.8,0.8,4.6,1.6v3.5c-2.9-1.7-5.7-2.5-8.6-2.5
		c-2.6,0-4.9,0.9-6.7,2.7c-1.8,1.8-2.7,4-2.7,6.6c0,2.6,0.9,5,2.7,6.7s4.1,2.6,7,2.6c1.4,0,3-0.3,5-0.9l0.3-0.1v-5h-4.6V234.1
		L140.4,234.1z"/>
	<path class="st0" d="M158.1,224.8h-1v7.6h1.3c1.8,0,2.9-0.2,3.6-0.4c0.7-0.3,1.2-0.8,1.5-1.4c0.4-0.6,0.5-1.3,0.5-2.1
		c0-0.8-0.2-1.4-0.6-2.1c-0.4-0.6-1-1-1.7-1.3C161,225,159.8,224.8,158.1,224.8 M153.6,246v-24.1h6c2.4,0,4.4,0.6,5.8,1.8
		c1.4,1.2,2.2,2.8,2.2,4.9c0,1.4-0.4,2.6-1.1,3.6c-0.7,1-1.7,1.8-3,2.3c0.8,0.5,1.5,1.2,2.3,2.1c0.7,0.9,1.8,2.4,3.1,4.6
		c0.8,1.4,1.5,2.4,2,3.1l1.3,1.7h-4.1l-1.1-1.6c0-0.1-0.1-0.2-0.2-0.3l-0.7-0.9l-1.1-1.8l-1.2-1.9c-0.7-1-1.4-1.8-2-2.4
		c-0.6-0.6-1.1-1-1.6-1.3c-0.5-0.3-1.3-0.4-2.4-0.4h-0.9V246L153.6,246L153.6,246z"/>
	<path class="st0" d="M190.6,221.9h3.5v13.7c0,1.9-0.1,3.2-0.4,4.2c-0.3,0.9-0.6,1.7-1,2.4c-0.4,0.6-0.9,1.2-1.5,1.7
		c-1.9,1.7-4.4,2.5-7.5,2.5s-5.7-0.8-7.6-2.5c-0.6-0.5-1.1-1.1-1.5-1.7c-0.4-0.6-0.7-1.4-1-2.3c-0.3-0.9-0.4-2.3-0.4-4.3v-13.7h3.5
		v13.7c0,2.3,0.3,3.8,0.8,4.7c0.5,0.9,1.3,1.6,2.4,2.1c1.1,0.5,2.3,0.8,3.7,0.8c2.1,0,3.7-0.5,5-1.6c0.7-0.6,1.2-1.3,1.5-2
		c0.3-0.8,0.5-2.1,0.5-4L190.6,221.9L190.6,221.9z"/>
	<path class="st0" d="M205.7,224.9h-3.6v7.5h3.8c1.4,0,2.5-0.3,3.3-1c0.8-0.7,1.1-1.6,1.1-2.8C210.3,226.2,208.8,224.9,205.7,224.9
		 M198.7,246v-24.2h7.7c2.3,0,4.1,0.6,5.5,1.9c1.4,1.2,2.1,2.9,2.1,5c0,1.4-0.4,2.6-1.1,3.7s-1.7,1.9-2.9,2.4
		c-1.2,0.5-3,0.7-5.3,0.7h-2.6V246H198.7L198.7,246z"/>
	<path class="st0" d="M223.8,224.9h-3.6v7.5h3.8c1.4,0,2.5-0.3,3.3-1c0.8-0.7,1.1-1.6,1.1-2.8C228.4,226.2,226.8,224.9,223.8,224.9
		 M216.7,246v-24.2h7.7c2.3,0,4.1,0.6,5.5,1.9c1.4,1.2,2.1,2.9,2.1,5c0,1.4-0.4,2.6-1.1,3.7c-0.7,1.1-1.7,1.9-2.9,2.4
		c-1.2,0.5-3,0.7-5.3,0.7h-2.6V246H216.7L216.7,246z"/>
	<path class="st0" d="M246.9,224.8c-2.8,0-5,0.9-6.8,2.6c-1.8,1.7-2.7,3.9-2.7,6.6c0,2.7,0.9,4.8,2.7,6.5c1.8,1.7,4,2.6,6.7,2.6
		s4.9-0.9,6.7-2.6c1.8-1.8,2.7-4,2.7-6.6s-0.9-4.7-2.7-6.4C251.8,225.7,249.5,224.8,246.9,224.8 M246.8,221.5c3.7,0,6.8,1.2,9.3,3.5
		c2.5,2.4,3.7,5.3,3.7,8.9s-1.3,6.5-3.8,8.8c-2.5,2.3-5.7,3.5-9.5,3.5s-6.7-1.2-9.1-3.5s-3.6-5.3-3.6-8.8c0-3.5,1.2-6.6,3.7-8.9
		C240,222.7,243,221.5,246.8,221.5"/>
	<rect x="273.9" y="221.9" class="st0" width="3.5" height="24.1"/>
	<polygon class="st0" points="301.9,221.9 305.2,221.9 305.2,246 301.7,246 301.7,227.2 294.3,236.6 293.6,236.6 286.1,227.2 
		286.1,246 282.7,246 282.7,221.9 285.9,221.9 294,231.8 	"/>
	<polygon class="st0" points="329.5,221.9 332.8,221.9 332.8,246 329.3,246 329.3,227.2 321.9,236.6 321.2,236.6 313.7,227.2 
		313.7,246 310.3,246 310.3,221.9 313.6,221.9 321.6,231.8 	"/>
	<path class="st0" d="M350,224.8c-2.8,0-5,0.9-6.8,2.6c-1.8,1.7-2.7,3.9-2.7,6.6c0,2.7,0.9,4.8,2.7,6.5s4,2.6,6.7,2.6
		s4.9-0.9,6.7-2.6c1.8-1.8,2.7-4,2.7-6.6s-0.9-4.7-2.7-6.4C354.8,225.7,352.6,224.8,350,224.8 M349.8,221.5c3.7,0,6.8,1.2,9.3,3.5
		c2.5,2.4,3.7,5.3,3.7,8.9s-1.3,6.5-3.8,8.8c-2.5,2.3-5.7,3.5-9.5,3.5s-6.7-1.2-9.1-3.5c-2.4-2.3-3.6-5.3-3.6-8.8
		c0-3.5,1.2-6.6,3.7-8.9C343,222.7,346.1,221.5,349.8,221.5"/>
	<path class="st0" d="M373.8,235.3h-3.2v7.7h3.4c1.9,0,3.2-0.2,3.8-0.4c0.7-0.3,1.2-0.8,1.6-1.4c0.4-0.6,0.6-1.3,0.6-2
		c0-0.7-0.2-1.4-0.6-2c-0.4-0.6-1-1.1-1.8-1.4C376.8,235.5,375.5,235.3,373.8,235.3 M373.5,225h-3v7.3h2.3c1.8,0,3.1-0.4,3.9-1.1
		c0.8-0.7,1.2-1.6,1.2-2.7C377.9,226.1,376.5,225,373.5,225 M375.3,246h-8.2v-24.1h6.3c2,0,3.5,0.3,4.7,0.8c1.1,0.5,2,1.3,2.6,2.2
		c0.6,0.9,0.9,2,0.9,3.3c0,2.4-1.2,4.1-3.7,5.1c1.8,0.3,3.2,1.1,4.2,2.2c1,1.1,1.6,2.5,1.6,4c0,1.2-0.3,2.3-0.9,3.3
		c-0.6,1-1.6,1.8-2.8,2.4S377.1,246,375.3,246"/>
	<rect x="387" y="221.9" class="st0" width="3.5" height="24.1"/>
	<polygon class="st0" points="395.9,221.9 399.3,221.9 399.3,242.9 410.2,242.9 410.2,246 395.9,246 	"/>
	<rect x="413.2" y="221.9" class="st0" width="3.5" height="24.1"/>
	<path class="st0" d="M434.8,235.8l-3.9-8.7l-3.6,8.7H434.8z M429.7,221.8h2.4L443,246h-3.5l-3.2-7.2h-10.3l-3,7.2h-3.6L429.7,221.8
		z"/>
	<path class="st0" d="M450.2,224.8h-1v7.6h1.3c1.8,0,2.9-0.2,3.6-0.4c0.7-0.3,1.2-0.8,1.5-1.4c0.4-0.6,0.5-1.3,0.5-2.1
		c0-0.8-0.2-1.4-0.6-2.1c-0.4-0.6-1-1-1.7-1.3C453.1,225,451.9,224.8,450.2,224.8 M445.7,246v-24.1h6c2.4,0,4.4,0.6,5.8,1.8
		c1.4,1.2,2.2,2.8,2.2,4.9c0,1.4-0.4,2.6-1.1,3.6c-0.7,1-1.7,1.8-3,2.3c0.8,0.5,1.5,1.2,2.3,2.1c0.7,0.9,1.8,2.4,3.1,4.6
		c0.8,1.4,1.5,2.4,2,3.1l1.3,1.7h-4.1l-1.1-1.6c0-0.1-0.1-0.2-0.2-0.3l-0.7-0.9l-1.1-1.8l-1.2-1.9c-0.7-1-1.4-1.8-2-2.4
		c-0.6-0.6-1.1-1-1.6-1.3c-0.5-0.3-1.3-0.4-2.4-0.4h-0.9V246L445.7,246L445.7,246z"/>
	<polygon class="st0" points="467,221.9 480.7,221.9 480.7,225 470.4,225 470.4,232.3 480.3,232.3 480.3,235.4 470.4,235.4 
		470.4,242.9 481,242.9 481,246 467,246 	"/>
</g>
</svg>
