<?xml version="1.0" encoding="utf-8"?>
<!-- Generator: Adobe Illustrator 28.2.0, SVG Export Plug-In . SVG Version: 6.00 Build 0)  -->
<svg version="1.1" id="Layer_2_00000097463218721222555290000015744188181047425695_"
	 xmlns="http://www.w3.org/2000/svg" xmlns:xlink="http://www.w3.org/1999/xlink" x="0px" y="0px" viewBox="0 0 612.3 344.4"
	 style="enable-background:new 0 0 612.3 344.4;" xml:space="preserve">
<style type="text/css">
	.st0{fill:#781432;}
	.st1{fill:#757678;}
</style>
<g id="Texts">
	<path class="st0" d="M111.4,113.8l38.9,28.4v44.3H73v-44.1L111.4,113.8 M111.4,105.2l-45.2,33.6v54.4h91.1v-54.6L111.4,105.2
		L111.4,105.2z M66.2,138.9L66.2,138.9L66.2,138.9L66.2,138.9z"/>
	<path class="st1" d="M157.2,95.6l-28.7,10.5l11.4,8.4l-48.7,58.2l-36.8-25.4l-0.6-0.4c-1.1-0.8-2.6-0.6-3.5,0.4l-10.8,12.4
		l12.4-5.7l37.6,28.1c1.8,1.4,4.4,1.1,5.9-0.7l0,0l50.7-62.3l11.1,8.1L157.2,95.6L157.2,95.6z"/>
	<polygon class="st0" points="234.4,109.1 234.4,96.2 183.5,96.2 183.5,98.5 183.5,109.1 183.5,192.9 196.3,192.9 196.3,148.3 
		232.6,148.3 232.6,135.5 196.3,135.5 196.3,109.1 	"/>
	<path class="st0" d="M297.4,158c-3.1-5-7.1-8.1-10.2-9.9c9.3-4.7,15.6-13.8,15.6-24.3c0-15.2-13.3-27.5-29.6-27.5h-0.8
		c0,0-0.1,0-0.1,0h-25.1v12.9l0,0v83.8H260v-41.5c11.5,0,14.5,0.6,22,8.1c7.5,7.5,22.3,33.6,22.3,33.6h16.5
		C317.1,190.3,303.4,167.6,297.4,158L297.4,158z M260,119.6V109h13.5v0.1c8.6,0.2,15.5,6.7,15.5,14.6s-7.1,14.7-15.9,14.7H260V119.6
		L260,119.6L260,119.6z"/>
	<rect x="325.4" y="96.5" class="st0" width="12.9" height="96.2"/>
	<polygon class="st0" points="429.8,96.5 429.8,97.1 398.2,135.4 366.1,96.6 365.9,96.8 365.9,96.5 353.1,96.5 353.1,192.7 
		365.9,192.7 365.9,116.5 395.3,152 395.3,152 396.9,154 399.4,154 400.5,152.7 429.8,117.3 429.8,192.7 442.6,192.7 442.6,96.5 	
		"/>
	<polygon class="st0" points="533.7,96.5 533.7,97.1 502.1,135.4 470,96.6 469.8,96.8 469.8,96.5 457,96.5 457,192.7 469.8,192.7 
		469.8,116.5 499.2,152 499.2,152 500.8,154 503.3,154 504.4,152.7 533.7,117.3 533.7,192.7 546.5,192.7 546.5,96.5 	"/>
	<rect x="39" y="205.3" class="st0" width="534.4" height="4.3"/>
	<polygon class="st0" points="88,226.7 88,222.2 76.4,222.2 72.5,222.2 68.5,222.2 68.5,248.4 72.5,248.4 76.4,248.4 88,248.4 
		88,243.8 76.4,243.8 76.4,236.9 87.5,236.9 87.5,232.4 76.4,232.4 76.4,226.7 	"/>
	<polygon class="st0" points="183.3,226.7 183.3,222.2 171.7,222.2 167.9,222.2 163.9,222.2 163.9,248.4 167.9,248.4 171.7,248.4 
		183.3,248.4 183.3,243.8 171.7,243.8 171.7,236.9 182.8,236.9 182.8,232.4 171.7,232.4 171.7,226.7 	"/>
	<polygon class="st0" points="319.1,226.7 319.1,222.2 307.6,222.2 303.7,222.2 299.7,222.2 299.7,248.4 303.7,248.4 307.6,248.4 
		319.1,248.4 319.1,243.8 307.6,243.8 307.6,236.9 318.6,236.9 318.6,232.4 307.6,232.4 307.6,226.7 	"/>
	<path class="st0" d="M60.6,240c-1.3-2.3-3.5-3.3-3.5-3.3s4.4-1.3,4.4-6.9s-4.6-7.7-6.7-7.7s-12.4,0.1-12.4,0.1h-3.5v26.2h7.9v-10.3
		c1.4,0.1,4.2,0.6,5.6,2.2c1.9,2.2,2.9,7.7,2.9,7.7h9.1C64.4,248,61.9,242.3,60.6,240L60.6,240z M52.5,233.7h-5.7v-6.8
		c1.5-0.1,3.7-0.1,4.8-0.1c1.8,0,2.8,1.9,2.8,3.1S54.1,233.7,52.5,233.7L52.5,233.7z"/>
	<path class="st0" d="M114.2,248.4h7.9l-11.6-26.2h-7.9l-11.6,26.2H99l2.4-5.4h10.6L114.2,248.4z M103.3,238.6l3.3-7.5l3.3,7.5
		H103.3L103.3,238.6z"/>
	<path class="st0" d="M261.2,248.4h7.9l-11.6-26.2h-7.9l-11.6,26.2h7.9l2.4-5.4h10.6L261.2,248.4z M250.3,238.6l3.3-7.5l3.3,7.5
		H250.3L250.3,238.6z"/>
	<polygon class="st0" points="147.2,242.3 134.7,242.3 134.7,222.2 126.8,222.2 126.8,248.4 134.7,248.4 134.7,248.3 147.2,248.3 	
		"/>
	<polygon class="st0" points="239.2,222.1 211.7,222.1 211.7,227.9 221.9,227.9 221.9,248.4 229,248.4 229,227.9 239.2,227.9 	"/>
	<polygon class="st0" points="295,222.1 267.5,222.1 267.5,227.9 277.7,227.9 277.7,248.4 284.8,248.4 284.8,227.9 295,227.9 	"/>
	<path class="st0" d="M206.6,223.6v6.1c0,0-4.2-2.9-7.4-2.9s-4.7,2.8-0.7,4.6s9.6,4.6,9.6,8.9s-2.7,8.5-10.1,8.5s-9.4-2.3-9.4-2.3
		v-6.2c0,0,4.7,2.6,7,2.9c2.5,0.3,4.2-0.2,4.2-1.9c0-1.1-0.7-2.3-3.5-3.4c-2.8-1.1-8.5-3.7-8.5-8.1c0-3.4,1.3-5.9,4.3-7.2
		C195.1,221.4,201,220.7,206.6,223.6L206.6,223.6z"/>
	<rect x="337.7" y="222.2" class="st0" width="7.4" height="26.2"/>
	<polygon class="st0" points="437.4,226.7 437.4,222.2 425.8,222.2 422,222.2 418,222.2 418,248.4 422,248.4 425.8,248.4 
		437.4,248.4 437.4,243.8 425.8,243.8 425.8,236.9 436.9,236.9 436.9,232.4 425.8,232.4 425.8,226.7 	"/>
	<polygon class="st0" points="493,222.1 465.4,222.1 465.4,227.9 475.6,227.9 475.6,248.4 482.8,248.4 482.8,227.9 493,227.9 	"/>
	<path class="st0" d="M460.9,223.4v6.1c0,0-4.2-2.9-7.4-2.9s-4.7,2.8-0.7,4.6s9.6,4.6,9.6,8.9s-2.7,8.5-10.1,8.5s-9.4-2.3-9.4-2.3
		v-6.2c0,0,4.7,2.6,7,2.9c2.5,0.3,4.2-0.2,4.2-1.9c0-1.1-0.7-2.3-3.5-3.4s-8.5-3.7-8.5-8.1c0-3.4,1.3-5.9,4.3-7.2
		C449.4,221.2,455.3,220.5,460.9,223.4L460.9,223.4z"/>
	<polygon class="st0" points="405.4,222.2 399.1,238.9 393.2,222.2 385.7,222.2 395.6,248.3 395.5,248.4 395.6,248.4 402.4,248.4 
		402.9,248.4 412.2,222.2 	"/>
	<polygon class="st0" points="373.4,222.2 373.4,237.3 359.8,222.4 359.8,222.2 352.4,222.2 352.4,248.4 359.8,248.4 359.8,233 
		373.4,248.3 373.4,248.4 380.8,248.4 380.8,222.2 	"/>
	<rect x="498.1" y="222.2" class="st0" width="7.4" height="26.2"/>
	<polygon class="st0" points="533.9,222.2 533.9,237.3 520.3,222.4 520.3,222.2 512.9,222.2 512.9,248.4 520.3,248.4 520.3,233 
		533.9,248.3 533.9,248.4 541.3,248.4 541.3,222.2 	"/>
	<path class="st0" d="M563.5,233.6v5.1h3.6v3.2c-0.9,0.4-2.4,0.8-4.8,0.8c-3.9,0-7.2-2.4-7.2-8.1s5.5-8,9.4-8s8.8,3.1,8.8,3.1
		c0.1-0.1-0.1-6.3-0.1-6.3c-4.4-2.4-11.8-2.9-16.9-1.5c-5.1,1.4-9.4,6.5-9.4,13.6s6.1,13.1,15,13.1s11.4-1.8,11.4-1.8v-8.4l-0.1,0v0
		h0.1v-5.1L563.5,233.6L563.5,233.6z"/>
</g>
</svg>
