<?xml version="1.0" encoding="UTF-8"?>
<svg id="Layer_2" xmlns="http://www.w3.org/2000/svg" version="1.1" viewBox="0 0 612.3 344.4">
  <!-- Generator: Adobe Illustrator 29.2.1, SVG Export Plug-In . SVG Version: 2.1.0 Build 116)  -->
  <defs>
    <style>
      .st0 {
        fill: #fff;
      }
    </style>
  </defs>
  <g id="Images">
    <rect class="st0" x="114.5" y="208" width="383.4" height="3.8"/>
    <polygon class="st0" points="114.4 98.1 165.4 98.1 165.4 110.3 128.1 110.3 128.1 137 165.4 137 165.4 149.1 128.1 149.1 128.1 193.7 114.4 193.7 114.4 98.1"/>
    <path class="st0" d="M198.2,109.7h-4.1v30.2h5.2c6.9,0,11.7-.6,14.3-1.8s4.6-3,6-5.4,2.2-5.1,2.2-8.2-.8-5.7-2.4-8.2c-1.6-2.4-3.8-4.2-6.7-5.2-3-.9-7.8-1.4-14.5-1.4M180.4,193.7v-95.6h23.9c9.7,0,17.3,2.4,23,7.2,5.7,4.8,8.5,11.3,8.5,19.4s-1.4,10.4-4.2,14.4c-2.8,4.1-6.8,7.1-12,9.1,3.1,2,6,4.7,9,8.2,2.9,3.5,7,9.5,12.3,18.1,3.3,5.4,6,9.5,8,12.2l5.1,6.8h-16.3l-4.2-6.3c-.1-.2-.4-.6-.8-1.2l-2.7-3.8-4.2-7-4.6-7.5c-2.8-3.9-5.4-7.1-7.8-9.4-2.3-2.3-4.5-4-6.4-5s-5.1-1.5-9.6-1.5h-3.6v41.6l-13.4.3h0Z"/>
    <rect class="st0" x="264.8" y="98.1" width="13.7" height="95.6"/>
    <polygon class="st0" points="375.7 98.1 388.5 98.1 388.5 193.7 374.7 193.7 374.7 119.3 345.3 156.3 342.8 156.3 313.1 119.3 313.1 193.7 299.4 193.7 299.4 98.1 312.4 98.1 344.1 137.4 375.7 98.1"/>
    <polygon class="st0" points="485.1 98.1 497.9 98.1 497.9 193.7 484.1 193.7 484.1 119.3 454.7 156.3 452.2 156.3 422.5 119.3 422.5 193.7 408.8 193.7 408.8 98.1 421.7 98.1 453.5 137.4 485.1 98.1"/>
    <path class="st0" d="M140.4,234.1h8.1v10.2c-3,1.3-5.9,1.9-8.8,1.9s-7.2-1.2-9.6-3.5c-2.4-2.3-3.6-5.2-3.6-8.6s1.2-6.6,3.7-9c2.5-2.4,5.6-3.6,9.3-3.6s2.6.1,3.9.4c1.2.3,2.8.8,4.6,1.6v3.5c-2.9-1.7-5.7-2.5-8.6-2.5s-4.9.9-6.7,2.7-2.7,4-2.7,6.6.9,5,2.7,6.7,4.1,2.6,7,2.6,3-.3,5-.9h.3v-5.1h-4.6v-3h0Z"/>
    <path class="st0" d="M158.1,224.8h-1v7.6h1.3c1.8,0,2.9-.2,3.6-.4.7-.3,1.2-.8,1.5-1.4.4-.6.5-1.3.5-2.1s-.2-1.4-.6-2.1c-.4-.6-1-1-1.7-1.3-.7-.1-1.9-.3-3.6-.3M153.6,246v-24.1h6c2.4,0,4.4.6,5.8,1.8,1.4,1.2,2.2,2.8,2.2,4.9s-.4,2.6-1.1,3.6c-.7,1-1.7,1.8-3,2.3.8.5,1.5,1.2,2.3,2.1.7.9,1.8,2.4,3.1,4.6.8,1.4,1.5,2.4,2,3.1l1.3,1.7h-4.1l-1.1-1.6c0-.1-.1-.2-.2-.3l-.7-.9-1.1-1.8-1.2-1.9c-.7-1-1.4-1.8-2-2.4-.6-.6-1.1-1-1.6-1.3s-1.3-.4-2.4-.4h-.9v10.6h-3.3Z"/>
    <path class="st0" d="M190.6,221.9h3.5v13.7c0,1.9-.1,3.2-.4,4.2-.3.9-.6,1.7-1,2.4-.4.6-.9,1.2-1.5,1.7-1.9,1.7-4.4,2.5-7.5,2.5s-5.7-.8-7.6-2.5c-.6-.5-1.1-1.1-1.5-1.7-.4-.6-.7-1.4-1-2.3-.3-.9-.4-2.3-.4-4.3v-13.7h3.5v13.7c0,2.3.3,3.8.8,4.7s1.3,1.6,2.4,2.1c1.1.5,2.3.8,3.7.8,2.1,0,3.7-.5,5-1.6.7-.6,1.2-1.3,1.5-2,.3-.8.5-2.1.5-4v-13.7h0Z"/>
    <path class="st0" d="M205.7,224.9h-3.6v7.5h3.8c1.4,0,2.5-.3,3.3-1s1.1-1.6,1.1-2.8c0-2.4-1.5-3.7-4.6-3.7M198.7,246v-24.2h7.7c2.3,0,4.1.6,5.5,1.9,1.4,1.2,2.1,2.9,2.1,5s-.4,2.6-1.1,3.7-1.7,1.9-2.9,2.4-3,.7-5.3.7h-2.6v10.5h-3.4Z"/>
    <path class="st0" d="M223.8,224.9h-3.6v7.5h3.8c1.4,0,2.5-.3,3.3-1s1.1-1.6,1.1-2.8c0-2.4-1.6-3.7-4.6-3.7M216.7,246v-24.2h7.7c2.3,0,4.1.6,5.5,1.9,1.4,1.2,2.1,2.9,2.1,5s-.4,2.6-1.1,3.7c-.7,1.1-1.7,1.9-2.9,2.4s-3,.7-5.3.7h-2.6v10.5h-3.4Z"/>
    <path class="st0" d="M246.9,224.8c-2.8,0-5,.9-6.8,2.6-1.8,1.7-2.7,3.9-2.7,6.6s.9,4.8,2.7,6.5,4,2.6,6.7,2.6,4.9-.9,6.7-2.6c1.8-1.8,2.7-4,2.7-6.6s-.9-4.7-2.7-6.4c-1.7-1.8-4-2.7-6.6-2.7M246.8,221.5c3.7,0,6.8,1.2,9.3,3.5,2.5,2.4,3.7,5.3,3.7,8.9s-1.3,6.5-3.8,8.8-5.7,3.5-9.5,3.5-6.7-1.2-9.1-3.5-3.6-5.3-3.6-8.8,1.2-6.6,3.7-8.9c2.5-2.3,5.5-3.5,9.3-3.5"/>
    <rect class="st0" x="273.9" y="221.9" width="3.5" height="24.1"/>
    <polygon class="st0" points="301.9 221.9 305.2 221.9 305.2 246 301.7 246 301.7 227.2 294.3 236.6 293.6 236.6 286.1 227.2 286.1 246 282.7 246 282.7 221.9 285.9 221.9 294 231.8 301.9 221.9"/>
    <polygon class="st0" points="329.5 221.9 332.8 221.9 332.8 246 329.3 246 329.3 227.2 321.9 236.6 321.2 236.6 313.7 227.2 313.7 246 310.3 246 310.3 221.9 313.6 221.9 321.6 231.8 329.5 221.9"/>
    <path class="st0" d="M350,224.8c-2.8,0-5,.9-6.8,2.6-1.8,1.7-2.7,3.9-2.7,6.6s.9,4.8,2.7,6.5,4,2.6,6.7,2.6,4.9-.9,6.7-2.6c1.8-1.8,2.7-4,2.7-6.6s-.9-4.7-2.7-6.4c-1.8-1.8-4-2.7-6.6-2.7M349.8,221.5c3.7,0,6.8,1.2,9.3,3.5,2.5,2.4,3.7,5.3,3.7,8.9s-1.3,6.5-3.8,8.8-5.7,3.5-9.5,3.5-6.7-1.2-9.1-3.5-3.6-5.3-3.6-8.8,1.2-6.6,3.7-8.9c2.5-2.3,5.6-3.5,9.3-3.5"/>
    <path class="st0" d="M373.8,235.3h-3.2v7.7h3.4c1.9,0,3.2-.2,3.8-.4.7-.3,1.2-.8,1.6-1.4.4-.6.6-1.3.6-2s-.2-1.4-.6-2-1-1.1-1.8-1.4c-.8-.3-2.1-.5-3.8-.5M373.5,225h-3v7.3h2.3c1.8,0,3.1-.4,3.9-1.1.8-.7,1.2-1.6,1.2-2.7,0-2.4-1.4-3.5-4.4-3.5M375.3,246h-8.2v-24.1h6.3c2,0,3.5.3,4.7.8,1.1.5,2,1.3,2.6,2.2s.9,2,.9,3.3c0,2.4-1.2,4.1-3.7,5.1,1.8.3,3.2,1.1,4.2,2.2,1,1.1,1.6,2.5,1.6,4s-.3,2.3-.9,3.3-1.6,1.8-2.8,2.4-2.9.8-4.7.8"/>
    <rect class="st0" x="387" y="221.9" width="3.5" height="24.1"/>
    <polygon class="st0" points="395.9 221.9 399.3 221.9 399.3 242.9 410.2 242.9 410.2 246 395.9 246 395.9 221.9"/>
    <rect class="st0" x="413.2" y="221.9" width="3.5" height="24.1"/>
    <path class="st0" d="M434.8,235.8l-3.9-8.7-3.6,8.7h7.5ZM429.7,221.8h2.4l10.9,24.2h-3.5l-3.2-7.2h-10.3l-3,7.2h-3.6l10.3-24.2Z"/>
    <path class="st0" d="M450.2,224.8h-1v7.6h1.3c1.8,0,2.9-.2,3.6-.4.7-.3,1.2-.8,1.5-1.4.4-.6.5-1.3.5-2.1s-.2-1.4-.6-2.1c-.4-.6-1-1-1.7-1.3-.7-.1-1.9-.3-3.6-.3M445.7,246v-24.1h6c2.4,0,4.4.6,5.8,1.8s2.2,2.8,2.2,4.9-.4,2.6-1.1,3.6-1.7,1.8-3,2.3c.8.5,1.5,1.2,2.3,2.1.7.9,1.8,2.4,3.1,4.6.8,1.4,1.5,2.4,2,3.1l1.3,1.7h-4.1l-1.1-1.6c0-.1-.1-.2-.2-.3l-.7-.9-1.1-1.8-1.2-1.9c-.7-1-1.4-1.8-2-2.4-.6-.6-1.1-1-1.6-1.3s-1.3-.4-2.4-.4h-.9v10.6h-3.3Z"/>
    <polygon class="st0" points="467 221.9 480.7 221.9 480.7 225 470.4 225 470.4 232.3 480.3 232.3 480.3 235.4 470.4 235.4 470.4 242.9 481 242.9 481 246 467 246 467 221.9"/>
  </g>
</svg>