<?xml version="1.0" encoding="UTF-8"?>
<svg id="behance" xmlns="http://www.w3.org/2000/svg" version="1.1" viewBox="0 0 11.3 11.3">
  <!-- Generator: Adobe Illustrator 29.0.0, SVG Export Plug-In . SVG Version: 2.1.0 Build 186)  -->
  <defs>
    <style>
      .st0 {
        fill: #fff;
      }
    </style>
  </defs>
  <path class="st0" d="M5.3,4.4c.1.2.2.4.2.7s0,.6-.2.7c0,0-.2.2-.4.3.3,0,.4.2.6.4.1.2.2.4.2.7s0,.6-.2.8c0,.1-.2.3-.4.4-.1.1-.4.2-.6.2H1.4V3.8h2.5c.6,0,1,.2,1.3.5h0ZM2.5,4.7v1.1h1.3c.2,0,.4,0,.5-.1.1,0,.2-.2.2-.4s0-.4-.3-.4h-1.7,0ZM2.5,6.7v1.3h1.8c.2-.1.4-.3.4-.7s0-.4-.3-.5h-1.9ZM8.9,5.2c.3.1.5.3.7.6.1.2.2.5.3.7v.7h-2.8c0,.4.1.7.4.8.1,0,.4.1.5.1s.4,0,.5-.1c0,0,.1-.1.2-.2h1c0,.2-.1.4-.4.7-.4.4-.8.5-1.4.5s-1-.1-1.3-.4c-.4-.3-.6-.8-.6-1.5s.1-1.2.5-1.5c.4-.4.8-.5,1.3-.5s.7,0,.9.1h0ZM7.3,6.1c-.1.1-.2.4-.3.6h1.7c0-.3,0-.4-.3-.6-.1-.1-.4-.2-.6-.2s-.4,0-.6.2h0ZM6.8,4.7h2.2v-.7h-2.2s0,.7,0,.7Z"/>
  <path class="st0" d="M30.8,4.1h1.5v4.7h-1.5s0-4.7,0-4.7ZM36.6,4.1h-.3c-.9,0-1.5.7-1.6.9v-.9h-1.5v4.7h1.5v-2.6s1.2-1.6,1.6-.4v3h1.5v-3.2c0-.7-.5-1.3-1.1-1.5h0Z"/>
  <circle class="st0" cx="31.6" cy="2.7" r=".8"/>
</svg>