<?xml version="1.0" encoding="UTF-8"?>
<svg id="Layer_2" data-name="Layer 2" xmlns="http://www.w3.org/2000/svg" viewBox="0 0 43.56 43.56">
  <g id="Layer_1-2" data-name="Layer 1">
    <path d="M22.06,0C10.19,0,.56,9.63.56,21.5c0,3.6.89,6.99,2.46,9.97l-2.42,9.67-.6,2.42,2.42-.6,9.67-2.42c2.98,1.57,6.37,2.46,9.97,2.46,11.87,0,21.5-9.63,21.5-21.5S33.93,0,22.06,0ZM22.06,40c-3.29,0-6.38-.86-9.05-2.36l-.52-.29-.58.14-7.79,1.95,1.95-7.79.14-.58-.29-.52c-1.5-2.67-2.36-5.76-2.36-9.05C3.56,11.28,11.84,3,22.06,3s18.5,8.28,18.5,18.5-8.28,18.5-18.5,18.5Z"/>
  </g>
</svg>