<?xml version="1.0" encoding="UTF-8"?>
<svg id="Layer_2" xmlns="http://www.w3.org/2000/svg" version="1.1" viewBox="0 0 43.6 43.6">
  <!-- Generator: Adobe Illustrator 29.1.0, SVG Export Plug-In . SVG Version: 2.1.0 Build 142)  -->
  <defs>
    <style>
      .st0 {
        fill: #fff;
      }
    </style>
  </defs>
  <g id="Layer_1-2">
    <path class="st0" d="M22.1,0C10.2,0,.6,9.6.6,21.5s.9,7,2.5,10l-2.4,9.7L0,43.6l2.4-.6,9.7-2.4c3,1.6,6.4,2.5,10,2.5,11.9,0,21.5-9.6,21.5-21.5S33.9,0,22.1,0ZM22.1,40c-3.3,0-6.4-.9-9.1-2.4l-.5-.3h-.6c0,.1-7.8,2.1-7.8,2.1l1.9-7.8v-.6c.1,0-.2-.5-.2-.5-1.5-2.7-2.4-5.8-2.4-9.1,0-10.2,8.3-18.5,18.5-18.5s18.5,8.3,18.5,18.5-8.3,18.5-18.5,18.5Z"/>
  </g>
</svg>