<?xml version="1.0" encoding="UTF-8"?>
<svg id="Layer_2" data-name="Layer 2" xmlns="http://www.w3.org/2000/svg" version="1.1" viewBox="0 0 599.9 599.9">
  <defs>
    <style>
      .cls-1 {
        fill: #eddca0;
        stroke-width: 0px;
      }
    </style>
  </defs>
  <path class="cls-1" d="M300,0C134.3,0,0,134.3,0,299.9s134.3,299.9,299.9,299.9,299.9-134.3,299.9-299.9S465.6,0,300,0ZM405.5,403.5c-9,13.4-22.5,24.1-40.3,32.3-17.9,8.2-40.4,12.3-67.7,12.3s-44.9-3.1-65.9-9.2c-21-6.1-37.9-14.1-50.7-23.9l22.5-49.9c12.3,8.7,26.8,15.9,43.6,21.5,16.8,5.6,33.8,8.4,51,8.4s23.7-1.3,31.7-3.9c8-2.6,14-6.2,17.8-10.8,3.8-4.6,5.7-10,5.7-16s-3-13.7-9-18.2c-6-4.5-13.9-8.2-23.7-11.1-9.8-2.9-20.7-5.6-32.5-8.2-11.9-2.6-23.7-5.8-35.6-9.6-11.9-3.8-22.7-8.7-32.5-14.7-9.8-6-17.8-13.9-23.9-23.7-6.1-9.8-9.2-22.4-9.2-37.7s4.4-31.3,13.3-44.8c8.9-13.5,22.2-24.3,40.1-32.3,17.9-8,40.3-12.1,67.3-12.1s35.7,2.1,53.2,6.3c17.5,4.2,32.9,10.6,46.2,19l-20.5,50.3c-13.4-7.6-26.7-13.3-40.1-17-13.4-3.7-26.5-5.5-39.3-5.5s-23.3,1.5-31.5,4.5c-8.2,3-14,6.9-17.6,11.7-3.5,4.8-5.3,10.3-5.3,16.6s3,13.3,9,17.8c6,4.5,13.9,8.1,23.7,10.8,9.8,2.7,20.7,5.5,32.5,8.2,11.9,2.7,23.7,5.9,35.6,9.4,11.9,3.5,22.7,8.3,32.5,14.3,9.8,6,17.8,13.9,23.9,23.7,6.1,9.8,9.2,22.2,9.2,37.2s-4.5,30.8-13.5,44.2Z"/>
</svg>