<?xml version="1.0" encoding="UTF-8"?>
<svg xmlns="http://www.w3.org/2000/svg" version="1.1" viewBox="0 0 288.6 106">
  <defs>
    <style>
      .cls-1 {
        fill: #fff;
      }
    </style>
  </defs>
  <!-- Generator: Adobe Illustrator 28.7.1, SVG Export Plug-In . SVG Version: 1.2.0 Build 142)  -->
  <g>
    <g id="Layer_1">
      <g>
        <polygon class="cls-1" points="61.3 57.6 61.3 80 77.2 80 77.2 76.5 65.5 76.5 65.5 57.6 61.3 57.6"/>
        <path class="cls-1" d="M101.7,73.4c.6-1.4.9-2.9.9-4.6s-.3-3.2-.9-4.6c-.6-1.4-1.4-2.6-2.5-3.6-1.1-1-2.4-1.9-3.8-2.4-1.5-.6-3.1-.9-4.8-.9s-3.3.3-4.8.9-2.8,1.4-3.8,2.4c-1.1,1-1.9,2.2-2.5,3.6-.6,1.4-.9,2.9-.9,4.6s.3,3.2.9,4.6c.6,1.4,1.4,2.6,2.5,3.6,1.1,1,2.4,1.8,3.8,2.4s3.1.9,4.8.9,3.3-.3,4.8-.9c1.5-.6,2.8-1.4,3.8-2.4,1.1-1,1.9-2.2,2.5-3.6ZM97.8,72c-.4.9-.9,1.8-1.6,2.5-.7.7-1.5,1.2-2.5,1.6-1,.4-2,.6-3.1.6s-2.2-.2-3.1-.6c-1-.4-1.8-.9-2.5-1.6-.7-.7-1.3-1.6-1.7-2.5-.4-1-.6-2-.6-3.1s.2-2.2.6-3.1c.4-1,1-1.8,1.7-2.5.7-.7,1.6-1.3,2.5-1.7,1-.4,2-.6,3.1-.6s2.2.2,3.1.6c1,.4,1.8.9,2.5,1.7.7.7,1.2,1.5,1.6,2.5.4.9.6,2,.6,3.1s-.2,2.2-.6,3.2Z"/>
        <polygon class="cls-1" points="183.7 48 188.9 48 188.9 25.6 182.7 25.6 182.7 37.5 172.8 25.6 167.6 25.6 167.6 48 173.8 48 173.8 36.1 183.7 48"/>
        <rect class="cls-1" x="193.4" y="25.6" width="6.3" height="22.4"/>
        <polygon class="cls-1" points="119.3 43.1 107.6 43.1 107.6 39 117.5 39 117.5 34.3 107.6 34.3 107.6 30.5 118.8 30.5 118.8 25.6 101.3 25.6 101.3 48 119.3 48 119.3 43.1"/>
        <polygon class="cls-1" points="85.7 48 92.1 48 92.1 30.6 98.9 30.6 98.9 25.6 78.9 25.6 78.9 30.6 85.7 30.6 85.7 48"/>
        <path class="cls-1" d="M70.6,43.3c-.5.1-1.2.2-2.1.2-1.3,0-2.6-.2-3.9-.6-1.3-.4-2.5-1-3.5-1.6l-2.1,4.7c1.1.7,2.4,1.3,4.1,1.8,1.7.4,3.5.7,5.3.7s4.1-.3,5.5-1c1.5-.7,2.6-1.5,3.3-2.6.7-1.1,1.1-2.3,1.1-3.6s-.2-2.1-.7-2.9c-.4-.8-1-1.4-1.8-1.9-.7-.5-1.6-.9-2.5-1.2-.9-.3-1.8-.5-2.7-.7-.9-.2-1.7-.4-2.5-.5-.7-.2-1.4-.4-1.8-.7-.4-.3-.7-.7-.7-1.2s.1-.7.4-1c.2-.3.6-.5,1.2-.7.5-.2,1.2-.3,2.1-.3s2,.1,3,.4c1,.3,2.1.7,3.2,1.3l2-4.7c-1.1-.6-2.4-1.1-3.8-1.4-1.4-.3-2.8-.5-4.3-.5-2.2,0-4,.3-5.5,1-1.5.7-2.6,1.5-3.3,2.6-.7,1.1-1.1,2.3-1.1,3.6s.2,2.2.7,3c.5.8,1.1,1.4,1.8,1.9.7.5,1.6.9,2.5,1.2.9.3,1.8.5,2.7.7.9.2,1.7.4,2.5.6.7.2,1.4.4,1.8.7.5.3.7.7.7,1.2s-.1.7-.4,1c-.2.3-.6.5-1.2.6Z"/>
        <polygon class="cls-1" points="140.3 30.5 140.3 25.6 122.8 25.6 122.8 48 129.1 48 129.1 40.3 139 40.3 139 35.4 129.1 35.4 129.1 30.5 140.3 30.5"/>
        <path class="cls-1" d="M242.2,60.6c-1.1-1-2.4-1.9-3.8-2.4-1.5-.6-3.1-.9-4.8-.9s-3.3.3-4.8.9-2.8,1.4-3.8,2.4c-1.1,1-1.9,2.2-2.5,3.6-.6,1.4-.9,2.9-.9,4.6s.3,3.2.9,4.6c.6,1.4,1.4,2.6,2.5,3.6,1.1,1,2.4,1.8,3.8,2.4s3.1.9,4.8.9,3.3-.3,4.8-.9c1.5-.6,2.8-1.4,3.8-2.4,1.1-1,1.9-2.2,2.5-3.6.6-1.4.9-2.9.9-4.6s-.3-3.2-.9-4.6c-.6-1.4-1.4-2.6-2.5-3.6ZM240.8,72c-.4.9-.9,1.8-1.6,2.5-.7.7-1.5,1.2-2.5,1.6-1,.4-2,.6-3.1.6s-2.2-.2-3.1-.6c-1-.4-1.8-.9-2.5-1.6-.7-.7-1.3-1.6-1.7-2.5-.4-1-.6-2-.6-3.1s.2-2.2.6-3.1c.4-1,1-1.8,1.7-2.5.7-.7,1.6-1.3,2.5-1.7,1-.4,2-.6,3.1-.6s2.2.2,3.1.6c1,.4,1.8.9,2.5,1.7.7.7,1.2,1.5,1.6,2.5.4.9.6,2,.6,3.1s-.2,2.2-.6,3.2Z"/>
        <polygon class="cls-1" points="190.2 72.8 177.8 57.6 174.4 57.6 174.4 80 178.5 80 178.5 64.8 190.9 80 194.3 80 194.3 57.6 190.2 57.6 190.2 72.8"/>
        <rect class="cls-1" x="140.2" y="57.6" width="4.2" height="22.4"/>
        <path class="cls-1" d="M205.1,63.1c.7-.7,1.6-1.2,2.5-1.6,1-.4,2.1-.6,3.2-.6s2.3.2,3.3.7c1,.4,1.9,1.1,2.7,2l2.7-2.5c-1-1.2-2.3-2.2-3.8-2.8-1.5-.6-3.2-1-5-1s-3.3.3-4.8.9c-1.5.6-2.7,1.4-3.8,2.4-1.1,1-1.9,2.2-2.5,3.6-.6,1.4-.9,2.9-.9,4.6s.3,3.2.9,4.6c.6,1.4,1.4,2.6,2.5,3.7,1.1,1,2.4,1.8,3.8,2.4,1.5.6,3.1.8,4.8.8s3.5-.3,5.1-1,2.8-1.6,3.8-2.8l-2.7-2.6c-.8.9-1.7,1.6-2.7,2-1,.4-2.1.6-3.3.6s-2.3-.2-3.2-.6c-1-.4-1.8-.9-2.5-1.6-.7-.7-1.3-1.5-1.7-2.5-.4-1-.6-2-.6-3.2s.2-2.2.6-3.2c.4-1,1-1.8,1.7-2.5Z"/>
        <path class="cls-1" d="M157.5,43.6l1.7,4.4h6.6l-9.9-22.4h-6.2l-9.9,22.4h6.5l1.7-4.4h9.5ZM149.8,39l2.9-7.2,2.9,7.2h-5.7Z"/>
        <path class="cls-1" d="M157.3,57.6l-10.1,22.4h4.3l2.2-5.2h11.2l2.2,5.2h4.4l-10.1-22.4h-4.1ZM155.2,71.6l4.2-9.8,4.2,9.8h-8.4Z"/>
        <path class="cls-1" d="M132.5,68.7c-.3-.1-.5-.2-.8-.3.9-.5,1.6-1.1,2.1-1.9.6-.9.8-1.9.8-3.1,0-1.8-.7-3.2-2.1-4.2-1.4-1.1-3.5-1.6-6.1-1.6h-10.5v22.4h11.1c2.9,0,5.1-.5,6.6-1.6,1.5-1.1,2.2-2.6,2.2-4.5s-.3-2.4-.9-3.3c-.6-.9-1.4-1.5-2.4-2ZM125.9,60.9c1.5,0,2.6.3,3.3.8.8.5,1.2,1.3,1.2,2.3s-.4,1.8-1.2,2.3c-.8.5-1.9.8-3.3.8h-5.9v-6.2h5.9ZM130.3,76c-.8.5-2,.8-3.6.8h-6.7v-6.5h6.7c1.6,0,2.8.3,3.6.8.8.5,1.2,1.3,1.2,2.4s-.4,2-1.2,2.5Z"/>
        <path class="cls-1" d="M217.7,25.6h-6.2l-9.9,22.4h6.5l1.7-4.4h9.5l1.7,4.4h6.6l-9.9-22.4ZM211.6,39l2.9-7.2,2.9,7.2h-5.7Z"/>
        <polygon class="cls-1" points="217.8 9.6 211.2 9.6 211.2 6 216.8 6 216.8 4.6 211.2 4.6 211.2 1.2 217.5 1.2 217.5 -.2 209.6 -.2 209.6 11 217.8 11 217.8 9.6"/>
        <path class="cls-1" d="M129.5,7.6h2.8c.2,0,.5,0,.7,0l2.4,3.4h1.7l-2.7-3.8c.1,0,.2,0,.3-.1.7-.3,1.2-.8,1.6-1.3.4-.6.6-1.3.6-2.1s-.2-1.5-.6-2.1c-.4-.6-.9-1-1.6-1.3-.7-.3-1.5-.5-2.5-.5h-4.4v11.2h1.6v-3.4ZM134.5,1.8c.5.4.8,1.1.8,1.9s-.3,1.4-.8,1.9c-.5.4-1.3.7-2.3.7h-2.7V1.2h2.7c1,0,1.8.2,2.3.7Z"/>
        <rect class="cls-1" x="106.4" y="-.9" width="1.4" height="15"/>
        <path class="cls-1" d="M152.8,7.6h2.8c1,0,1.8-.2,2.5-.5.7-.3,1.2-.8,1.6-1.3.4-.6.6-1.3.6-2.1s-.2-1.5-.6-2.1c-.4-.6-.9-1-1.6-1.3-.7-.3-1.5-.5-2.5-.5h-4.4v11.2h1.6v-3.4ZM157.9,1.8c.5.4.8,1.1.8,1.9s-.3,1.4-.8,1.9c-.5.4-1.3.7-2.3.7h-2.7V1.2h2.7c1,0,1.8.2,2.3.7Z"/>
        <path class="cls-1" d="M140.7,8.2h6l1.2,2.8h1.7L144.5-.2h-1.6l-5.1,11.2h1.6l1.2-2.8ZM143.7,1.4l2.4,5.5h-4.8l2.4-5.5Z"/>
        <path class="cls-1" d="M116.3,9.5c.5.5,1.2.9,1.9,1.2.7.3,1.5.4,2.4.4s1.6-.1,2.3-.4c.7-.2,1.4-.6,2-1.1v-4.4h-1.5v3.6c-.3.2-.6.4-.9.5-.5.2-1.1.3-1.7.3s-1.2-.1-1.8-.3c-.5-.2-1-.5-1.4-.9-.4-.4-.7-.9-.9-1.4-.2-.5-.3-1.1-.3-1.7s.1-1.2.3-1.7c.2-.5.5-1,.9-1.4.4-.4.9-.7,1.4-.9.6-.2,1.2-.3,1.8-.3s1.2.1,1.7.3c.5.2,1,.5,1.5,1l1-1c-.5-.6-1.1-1-1.9-1.3-.7-.3-1.5-.4-2.4-.4s-1.7.1-2.4.4c-.7.3-1.4.7-1.9,1.2-.5.5-.9,1.1-1.2,1.8s-.4,1.5-.4,2.3.1,1.6.4,2.3c.3.7.7,1.3,1.2,1.8Z"/>
        <path class="cls-1" d="M236,9.5c.5.5,1.2.9,1.9,1.2.7.3,1.5.4,2.4.4s1.6-.1,2.3-.4c.7-.2,1.4-.6,2-1.1v-4.4h-1.5v3.6c-.3.2-.6.4-.9.5-.5.2-1.1.3-1.7.3s-1.2-.1-1.8-.3c-.5-.2-1-.5-1.4-.9-.4-.4-.7-.9-.9-1.4-.2-.5-.3-1.1-.3-1.7s.1-1.2.3-1.7c.2-.5.5-1,.9-1.4.4-.4.9-.7,1.4-.9.6-.2,1.2-.3,1.8-.3s1.2.1,1.7.3c.5.2,1,.5,1.5,1l1-1c-.5-.6-1.1-1-1.9-1.3s-1.5-.4-2.4-.4-1.7.1-2.4.4c-.7.3-1.4.7-1.9,1.2-.5.5-.9,1.1-1.2,1.8s-.4,1.5-.4,2.3.1,1.6.4,2.3c.3.7.7,1.3,1.2,1.8Z"/>
        <rect class="cls-1" x="230.3" y="-.2" width="1.6" height="11.2"/>
        <path class="cls-1" d="M181.3,9.5c.5.5,1.2.9,1.9,1.2.7.3,1.5.4,2.4.4s1.7-.1,2.4-.4c.7-.3,1.4-.7,1.9-1.3l-1-1c-.4.5-.9.8-1.4,1-.5.2-1.1.3-1.7.3s-1.2-.1-1.8-.3c-.5-.2-1-.5-1.4-.9-.4-.4-.7-.8-.9-1.4-.2-.5-.3-1.1-.3-1.7s.1-1.2.3-1.7c.2-.5.5-1,.9-1.4.4-.4.9-.7,1.4-.9.5-.2,1.1-.3,1.8-.3s1.2.1,1.7.3c.5.2,1,.5,1.4,1l1-1c-.5-.6-1.1-1-1.9-1.3-.7-.3-1.5-.4-2.4-.4s-1.6.1-2.4.4c-.7.3-1.3.7-1.9,1.2-.5.5-.9,1.1-1.2,1.8s-.4,1.5-.4,2.3.1,1.6.4,2.3c.3.7.7,1.3,1.2,1.8Z"/>
        <path class="cls-1" d="M225.2,9.5c-.4.1-.9.2-1.6.2s-1.4-.1-2.1-.4c-.7-.2-1.2-.6-1.6-.9l-.6,1.2c.4.4,1.1.8,1.8,1,.8.3,1.6.4,2.4.4s1.8-.1,2.4-.4c.7-.3,1.1-.7,1.4-1.2.3-.5.5-1,.5-1.6s-.1-1.1-.4-1.4c-.2-.4-.6-.7-1-.9-.4-.2-.8-.4-1.3-.5-.5-.1-1-.3-1.4-.4-.5-.1-.9-.2-1.3-.4-.4-.1-.7-.3-1-.6-.2-.2-.4-.5-.4-.9s0-.6.3-.9c.2-.3.5-.5.9-.6.4-.2.9-.2,1.6-.2s1,0,1.6.2c.5.1,1,.4,1.5.7l.5-1.3c-.5-.3-1-.6-1.7-.7-.6-.2-1.3-.3-1.9-.3-1,0-1.8.1-2.4.4-.6.3-1.1.7-1.4,1.2-.3.5-.4,1-.4,1.6s.1,1.1.4,1.5c.2.4.6.7,1,.9.4.2.8.4,1.3.6.5.1,1,.3,1.5.4.5.1.9.2,1.3.4.4.1.7.3,1,.6.3.2.4.5.4.9s0,.6-.3.9c-.2.3-.5.5-.9.6Z"/>
        <rect class="cls-1" x="287.2" y="-.9" width="1.4" height="15"/>
        <path class="cls-1" d="M204.3,10.3c.9-.5,1.6-1.1,2.1-2,.5-.8.8-1.8.8-2.9s-.3-2.1-.8-2.9c-.5-.8-1.2-1.5-2.1-2-.9-.5-2-.7-3.2-.7h-4.7v11.2h4.7c1.2,0,2.2-.2,3.2-.7ZM198,9.6V1.2h3c.9,0,1.7.2,2.4.5.7.4,1.2.8,1.6,1.5.4.6.6,1.4.6,2.2s-.2,1.6-.6,2.2c-.4.6-.9,1.1-1.6,1.5-.7.4-1.5.5-2.4.5h-3Z"/>
        <polygon class="cls-1" points="255.6 8.1 248.9 -.2 247.6 -.2 247.6 11 249.2 11 249.2 2.7 255.9 11 257.2 11 257.2 -.2 255.6 -.2 255.6 8.1"/>
        <path class="cls-1" d="M278.2,7.1c.7-.3,1.2-.8,1.6-1.3.4-.6.6-1.3.6-2.1s-.2-1.5-.6-2.1c-.4-.6-.9-1-1.6-1.3-.7-.3-1.5-.5-2.5-.5h-4.4v11.2h1.6v-3.4h2.8c.2,0,.5,0,.7,0l2.4,3.4h1.7l-2.7-3.8c.1,0,.2,0,.3-.1ZM275.6,6.2h-2.7V1.2h2.7c1,0,1.8.2,2.3.7.5.4.8,1.1.8,1.9s-.3,1.4-.8,1.9c-.5.4-1.3.7-2.3.7Z"/>
        <rect class="cls-1" x="175.6" y="-.2" width="1.6" height="11.2"/>
        <polygon class="cls-1" points="164.2 6 170.6 6 170.6 11 172.2 11 172.2 -.2 170.6 -.2 170.6 4.6 164.2 4.6 164.2 -.2 162.6 -.2 162.6 11 164.2 11 164.2 6"/>
        <polygon class="cls-1" points="262.2 6 267.8 6 267.8 4.6 262.2 4.6 262.2 1.2 268.5 1.2 268.5 -.2 260.6 -.2 260.6 11 268.7 11 268.7 9.6 262.2 9.6 262.2 6"/>
        <path class="cls-1" d="M50.9,92.8l-5.1,11.2h1.6l1.2-2.8h6l1.2,2.8h1.7l-5.1-11.2h-1.6ZM49.3,99.9l2.4-5.5,2.4,5.5h-4.8Z"/>
        <path class="cls-1" d="M113.8,95.3c.4-.4.9-.7,1.4-.9.6-.2,1.2-.3,1.8-.3s1.2.1,1.7.3c.5.2,1,.5,1.5,1l1-1c-.5-.6-1.1-1-1.9-1.3-.7-.3-1.5-.4-2.4-.4s-1.7.1-2.4.4c-.7.3-1.4.7-1.9,1.2-.5.5-.9,1.1-1.2,1.8s-.4,1.5-.4,2.3.1,1.6.4,2.3c.3.7.7,1.3,1.2,1.8.5.5,1.2.9,1.9,1.2.7.3,1.5.4,2.4.4s1.6-.1,2.3-.4c.7-.2,1.4-.6,2-1.1v-4.4h-1.5v3.6c-.3.2-.6.4-.9.5-.5.2-1.1.3-1.7.3s-1.2-.1-1.8-.3c-.5-.2-1-.5-1.4-.9-.4-.4-.7-.9-.9-1.4-.2-.5-.3-1.1-.3-1.7s.1-1.2.3-1.7c.2-.5.5-1,.9-1.4Z"/>
        <polygon class="cls-1" points="132.3 101.1 125.6 92.8 124.2 92.8 124.2 104 125.8 104 125.8 95.7 132.6 104 133.9 104 133.9 92.8 132.3 92.8 132.3 101.1"/>
        <rect class="cls-1" x="106.9" y="92.8" width="1.6" height="11.2"/>
        <polygon class="cls-1" points="138.8 99 144.5 99 144.5 97.6 138.8 97.6 138.8 94.2 145.1 94.2 145.1 92.8 137.2 92.8 137.2 104 145.4 104 145.4 102.6 138.8 102.6 138.8 99"/>
        <rect class="cls-1" x="163.9" y="92.1" width="1.4" height="15"/>
        <path class="cls-1" d="M103.3,98.6c-.4-.2-.8-.4-1.3-.5-.5-.1-1-.3-1.4-.4-.5-.1-.9-.2-1.3-.4-.4-.1-.7-.3-1-.6-.2-.2-.4-.5-.4-.9s0-.6.3-.9c.2-.3.5-.5.9-.6.4-.2.9-.2,1.6-.2s1,0,1.6.2c.5.1,1,.4,1.5.7l.5-1.3c-.5-.3-1-.6-1.7-.7-.6-.2-1.3-.3-1.9-.3-1,0-1.8.1-2.4.4-.6.3-1.1.7-1.4,1.2-.3.5-.4,1-.4,1.6s.1,1.1.4,1.5c.2.4.6.7,1,.9.4.2.8.4,1.3.6.5.1,1,.3,1.5.4.5.1.9.2,1.3.4.4.1.7.3,1,.6.3.2.4.5.4.9s0,.6-.3.9c-.2.3-.5.5-.9.6s-.9.2-1.6.2-1.4-.1-2.1-.4c-.7-.2-1.2-.6-1.6-.9l-.6,1.2c.4.4,1.1.8,1.8,1,.8.3,1.6.4,2.4.4s1.8-.1,2.4-.4c.7-.3,1.1-.7,1.4-1.2.3-.5.5-1,.5-1.6s-.1-1.1-.4-1.4c-.2-.4-.6-.7-1-.9Z"/>
        <path class="cls-1" d="M154.8,100.1c.7-.3,1.2-.8,1.6-1.3.4-.6.6-1.3.6-2.1s-.2-1.5-.6-2.1c-.4-.6-.9-1-1.6-1.3s-1.5-.5-2.5-.5h-4.4v11.2h1.6v-3.4h2.8c.2,0,.5,0,.7,0l2.4,3.4h1.7l-2.7-3.8c.1,0,.2,0,.3-.1ZM152.3,99.2h-2.7v-5h2.7c1,0,1.8.2,2.3.7.5.4.8,1.1.8,1.9s-.3,1.4-.8,1.9c-.5.4-1.3.7-2.3.7Z"/>
        <rect class="cls-1" x="0" y="92.1" width="1.4" height="15"/>
        <polygon class="cls-1" points="87.9 99 93.5 99 93.5 97.6 87.9 97.6 87.9 94.2 94.2 94.2 94.2 92.8 86.3 92.8 86.3 104 94.4 104 94.4 102.6 87.9 102.6 87.9 99"/>
        <path class="cls-1" d="M31.4,98.6c-.4-.2-.8-.4-1.3-.5-.5-.1-1-.3-1.4-.4-.5-.1-.9-.2-1.3-.4-.4-.1-.7-.3-1-.6-.2-.2-.4-.5-.4-.9s0-.6.3-.9c.2-.3.5-.5.9-.6.4-.2.9-.2,1.6-.2s1,0,1.6.2c.5.1,1,.4,1.5.7l.5-1.3c-.5-.3-1-.6-1.7-.7-.6-.2-1.3-.3-1.9-.3-1,0-1.8.1-2.4.4-.6.3-1.1.7-1.4,1.2-.3.5-.4,1-.4,1.6s.1,1.1.4,1.5c.2.4.6.7,1,.9.4.2.8.4,1.3.6.5.1,1,.3,1.5.4.5.1.9.2,1.3.4.4.1.7.3,1,.6.3.2.4.5.4.9s0,.6-.3.9c-.2.3-.5.5-.9.6s-.9.2-1.6.2-1.4-.1-2.1-.4c-.7-.2-1.2-.6-1.6-.9l-.6,1.2c.4.4,1.1.8,1.8,1,.8.3,1.6.4,2.4.4s1.8-.1,2.4-.4c.7-.3,1.1-.7,1.4-1.2.3-.5.5-1,.5-1.6s-.1-1.1-.4-1.4c-.2-.4-.6-.7-1-.9Z"/>
        <polygon class="cls-1" points="13.1 102 9.1 92.8 7.4 92.8 12.3 104 13.9 104 18.8 92.8 17.2 92.8 13.1 102"/>
        <rect class="cls-1" x="20.2" y="92.8" width="1.6" height="11.2"/>
        <path class="cls-1" d="M80.9,93.5c-.9-.5-2-.7-3.2-.7h-4.7v11.2h4.7c1.2,0,2.2-.2,3.2-.7.9-.5,1.6-1.1,2.1-2,.5-.8.8-1.8.8-2.9s-.3-2.1-.8-2.9c-.5-.8-1.2-1.5-2.1-2ZM81.7,100.6c-.4.6-.9,1.1-1.6,1.5-.7.4-1.5.5-2.4.5h-3v-8.4h3c.9,0,1.7.2,2.4.5.7.4,1.2.8,1.6,1.5.4.6.6,1.4.6,2.2s-.2,1.6-.6,2.2Z"/>
        <path class="cls-1" d="M42.9,99.1c0,1.2-.3,2.2-.8,2.7-.5.6-1.3.9-2.3.9s-1.8-.3-2.3-.9c-.5-.6-.8-1.5-.8-2.7v-6.3h-1.6v6.4c0,1.6.4,2.9,1.3,3.7.8.8,2,1.3,3.5,1.3s2.6-.4,3.5-1.3c.8-.8,1.3-2.1,1.3-3.7v-6.4h-1.6v6.3Z"/>
        <polygon class="cls-1" points="60.9 92.8 59.3 92.8 59.3 104 66.9 104 66.9 102.6 60.9 102.6 60.9 92.8"/>
      </g>
    </g>
  </g>
</svg>