<?xml version="1.0" encoding="UTF-8"?>
<svg id="Layer_2" data-name="Layer 2" xmlns="http://www.w3.org/2000/svg" version="1.1" viewBox="0 0 463 83">
  <defs>
    <style>
      .cls-1 {
        font-family: EBGaramond-MediumItalic, 'EB Garamond';
        font-size: 24px;
        font-style: italic;
        font-weight: 500;
      }

      .cls-1, .cls-2 {
        fill: #000;
      }

      .cls-2 {
        stroke-width: 0px;
      }
    </style>
  </defs>
  <text class="cls-1" transform="translate(-850.5 952.1)"><tspan x="0" y="0">abcdefghijklmnopqrstuvwxyz</tspan><tspan x="-67.6" y="28.8">aBCDEFGHIJKLMNOPQRSTUVWXYZ</tspan><tspan x="75.5" y="57.6">0123456789!</tspan></text>
  <g>
    <path class="cls-2" d="M59.5,20.4c-.9,0-1.8-.2-2.5-.5-.7-.3-1.2-.7-1.6-1.3-.4-.6-.6-1.2-.6-1.9s.2-1.3.5-1.8.8-1,1.5-1.3c.7-.3,1.7-.5,2.9-.5h4.3v1.3h-4.3c-1.2,0-2.1.2-2.5.6-.5.4-.7,1-.7,1.6s.3,1.3.8,1.7c.6.4,1.3.6,2.4.6s1.8-.2,2.5-.7c.7-.4,1.2-1.1,1.5-1.9l.4,1.2c-.3.8-.9,1.5-1.7,2s-1.8.7-3,.7ZM63.9,20.3v-3.2c0,0,0-4.7,0-4.7,0-1.1-.3-1.9-.9-2.5-.6-.6-1.5-.9-2.7-.9s-1.6.1-2.3.4c-.7.3-1.4.6-1.9,1.1l-.8-1.3c.6-.5,1.4-1,2.3-1.3s1.8-.4,2.8-.4c1.6,0,2.9.4,3.8,1.2.9.8,1.3,2,1.3,3.7v7.8h-1.6Z"/>
    <path class="cls-2" d="M70.1,20.3V2.5h1.7v8.9l-.2,2.5.2,2.5v3.8h-1.6ZM76.6,20.4c-1.1,0-2.1-.3-3-.8-.9-.5-1.6-1.2-2.1-2.2-.5-1-.8-2.1-.8-3.5s.3-2.5.8-3.5c.5-1,1.2-1.7,2.1-2.2.9-.5,1.9-.7,3-.7s2.3.3,3.2.8c1,.5,1.7,1.3,2.2,2.2.5,1,.8,2.1.8,3.4s-.3,2.4-.8,3.3c-.5,1-1.3,1.7-2.2,2.3-1,.5-2,.8-3.2.8ZM76.5,18.9c.9,0,1.7-.2,2.4-.6.7-.4,1.3-1,1.7-1.7s.6-1.6.6-2.6-.2-1.9-.6-2.6c-.4-.7-1-1.3-1.7-1.7-.7-.4-1.5-.6-2.4-.6s-1.7.2-2.4.6c-.7.4-1.3,1-1.7,1.7-.4.7-.6,1.6-.6,2.6s.2,1.8.6,2.6,1,1.3,1.7,1.7c.7.4,1.5.6,2.4.6Z"/>
    <path class="cls-2" d="M91.6,20.4c-1.2,0-2.4-.3-3.3-.8-1-.6-1.8-1.3-2.3-2.3-.6-1-.8-2.1-.8-3.3s.3-2.4.8-3.3,1.3-1.7,2.3-2.3c1-.5,2.1-.8,3.3-.8s2,.2,2.9.6c.9.4,1.5,1,2,1.9l-1.3.9c-.4-.6-1-1.1-1.6-1.4-.6-.3-1.3-.5-2.1-.5s-1.7.2-2.4.6c-.7.4-1.3,1-1.7,1.7-.4.7-.6,1.6-.6,2.6s.2,1.9.6,2.6c.4.7,1,1.3,1.7,1.7.7.4,1.5.6,2.4.6s1.4-.2,2.1-.5c.6-.3,1.2-.8,1.6-1.4l1.3.9c-.5.8-1.2,1.4-2,1.9-.9.4-1.8.6-2.9.6Z"/>
    <path class="cls-2" d="M104.7,20.4c-1.2,0-2.3-.3-3.2-.8-1-.5-1.7-1.3-2.2-2.3s-.8-2.1-.8-3.3.3-2.4.8-3.4,1.3-1.7,2.2-2.2c1-.5,2-.8,3.2-.8s2.1.2,3,.7c.9.5,1.6,1.2,2.1,2.2.5,1,.8,2.1.8,3.5s-.3,2.5-.8,3.5c-.5,1-1.2,1.7-2.1,2.2-.9.5-1.9.8-3,.8ZM104.8,18.9c.9,0,1.7-.2,2.4-.6.7-.4,1.3-1,1.7-1.7s.6-1.6.6-2.6-.2-1.9-.6-2.6c-.4-.7-1-1.3-1.7-1.7s-1.5-.6-2.4-.6-1.7.2-2.4.6c-.7.4-1.3,1-1.7,1.7-.4.7-.6,1.6-.6,2.6s.2,1.8.6,2.6c.4.7,1,1.3,1.7,1.7.7.4,1.5.6,2.4.6ZM109.6,20.3v-3.8l.2-2.5-.2-2.5V2.5h1.7v17.8h-1.6Z"/>
    <path class="cls-2" d="M121.3,20.4c-1.3,0-2.5-.3-3.5-.8-1-.6-1.8-1.3-2.3-2.3-.6-1-.8-2.1-.8-3.3s.3-2.4.8-3.3c.5-1,1.3-1.7,2.2-2.3.9-.6,2-.8,3.2-.8s2.2.3,3.2.8c.9.5,1.6,1.3,2.2,2.3.5,1,.8,2.1.8,3.3s0,.2,0,.3c0,0,0,.2,0,.3h-11v-1.3h10.1l-.7.5c0-.9-.2-1.7-.6-2.4s-.9-1.3-1.6-1.7c-.7-.4-1.4-.6-2.3-.6s-1.6.2-2.3.6c-.7.4-1.2,1-1.6,1.7-.4.7-.6,1.5-.6,2.5v.3c0,1,.2,1.8.6,2.5.4.7,1,1.3,1.8,1.7.8.4,1.6.6,2.6.6s1.5-.1,2.1-.4c.7-.3,1.2-.7,1.7-1.2l1,1.1c-.6.7-1.3,1.2-2.1,1.5-.8.4-1.8.5-2.8.5Z"/>
    <path class="cls-2" d="M128.5,9.1v-1.4h7.8v1.4h-7.8ZM130.7,20.3V6.1c0-1.1.3-2,1-2.7.7-.7,1.6-1,2.8-1s.9,0,1.4.2c.4.1.8.3,1.1.6l-.6,1.3c-.2-.2-.5-.4-.8-.5-.3-.1-.7-.2-1-.2-.7,0-1.3.2-1.7.6-.4.4-.6,1-.6,1.8v2.7s0,11.4,0,11.4h-1.7Z"/>
    <path class="cls-2" d="M143.4,19.8c-1.2,0-2.3-.3-3.2-.8-1-.5-1.7-1.2-2.3-2.2-.6-.9-.8-2-.8-3.2s.3-2.3.8-3.2c.6-.9,1.3-1.6,2.3-2.1s2-.8,3.2-.8,2.1.2,3,.7c.9.5,1.6,1.2,2.1,2.1.5.9.8,2,.8,3.3s-.3,2.4-.8,3.3c-.5.9-1.2,1.6-2.1,2.1-.9.5-1.9.7-3,.7ZM143.8,25.1c-1.2,0-2.3-.2-3.3-.5s-1.9-.8-2.6-1.4l.9-1.3c.6.5,1.3.9,2.2,1.3.9.3,1.8.5,2.8.5,1.6,0,2.8-.4,3.5-1.1s1.1-1.9,1.1-3.5v-3.1l.2-2.2-.2-2.2v-3.8h1.6v11.1c0,2.2-.5,3.8-1.6,4.8-1.1,1-2.6,1.5-4.7,1.5ZM143.6,18.3c.9,0,1.8-.2,2.5-.6.7-.4,1.3-.9,1.7-1.6.4-.7.6-1.5.6-2.4s-.2-1.7-.6-2.4c-.4-.7-1-1.2-1.7-1.6-.7-.4-1.5-.6-2.5-.6s-1.7.2-2.5.6c-.7.4-1.3.9-1.7,1.6-.4.7-.6,1.5-.6,2.4s.2,1.7.6,2.4c.4.7,1,1.2,1.7,1.6s1.5.6,2.5.6Z"/>
    <path class="cls-2" d="M161.3,7.6c1,0,1.9.2,2.7.6.8.4,1.4,1,1.8,1.8.4.8.7,1.8.7,3v7.3h-1.7v-7.2c0-1.3-.3-2.3-1-3-.7-.7-1.6-1-2.8-1s-1.7.2-2.3.5c-.7.4-1.2.9-1.5,1.6-.4.7-.5,1.5-.5,2.5v6.6h-1.7V2.5h1.7v8.7l-.3-.6c.4-.9,1-1.6,1.9-2.1.9-.5,1.9-.8,3.1-.8Z"/>
    <path class="cls-2" d="M171.9,4.9c-.4,0-.6-.1-.9-.4-.2-.2-.4-.5-.4-.9s.1-.6.4-.9c.2-.2.5-.3.9-.3s.6.1.9.3c.2.2.4.5.4.8s-.1.6-.3.9c-.2.2-.5.4-.9.4ZM171,20.3V7.7h1.7v12.6h-1.7Z"/>
    <path class="cls-2" d="M175.6,25.1c-.5,0-1,0-1.5-.2-.5-.1-.9-.3-1.2-.6l.6-1.3c.5.4,1.2.6,2,.6s1.2-.2,1.5-.6c.4-.4.5-1,.5-1.8V7.7h1.7v13.5c0,1.2-.3,2.1-.9,2.8-.6.7-1.5,1-2.7,1ZM178.5,4.9c-.4,0-.6-.1-.9-.4-.2-.2-.4-.5-.4-.9s.1-.6.4-.9c.2-.2.5-.3.9-.3s.6.1.9.3c.2.2.4.5.4.8s-.1.6-.3.9-.5.4-.9.4Z"/>
    <path class="cls-2" d="M184.1,20.3V2.5h1.7v17.8h-1.7ZM185.4,17v-2.2s7.9-7.2,7.9-7.2h2.1l-5.5,5.3-1,.8-3.5,3.2ZM193.8,20.3l-5.3-6.6,1.1-1.3,6.2,7.9h-2.1Z"/>
    <path class="cls-2" d="M198.5,20.3V2.5h1.7v17.8h-1.7Z"/>
    <path class="cls-2" d="M220.7,7.6c1,0,1.9.2,2.7.6.8.4,1.4,1,1.8,1.8.4.8.6,1.8.6,3v7.3h-1.7v-7.2c0-1.3-.3-2.3-.9-3-.6-.7-1.5-1-2.7-1s-1.6.2-2.2.5c-.6.4-1.1.9-1.5,1.6s-.5,1.5-.5,2.5v6.6h-1.7v-7.2c0-1.3-.3-2.3-1-3-.6-.7-1.5-1-2.7-1s-1.6.2-2.2.5c-.6.4-1.1.9-1.5,1.6-.3.7-.5,1.5-.5,2.5v6.6h-1.7V7.7h1.6v3.4l-.3-.6c.4-.9,1-1.6,1.9-2.1.9-.5,1.9-.8,3-.8s2.3.3,3.1.9c.9.6,1.4,1.5,1.7,2.8l-.7-.3c.4-1,1-1.9,2-2.5.9-.6,2.1-.9,3.4-.9Z"/>
    <path class="cls-2" d="M236.9,7.6c1,0,1.9.2,2.7.6.8.4,1.4,1,1.8,1.8.4.8.7,1.8.7,3v7.3h-1.7v-7.2c0-1.3-.3-2.3-1-3s-1.6-1-2.8-1-1.7.2-2.3.5c-.7.4-1.2.9-1.5,1.6-.4.7-.5,1.5-.5,2.5v6.6h-1.7V7.7h1.6v3.5l-.3-.6c.4-.9,1-1.6,1.9-2.1.9-.5,1.9-.8,3.1-.8Z"/>
    <path class="cls-2" d="M251.8,20.4c-1.2,0-2.3-.3-3.3-.8s-1.7-1.3-2.3-2.3-.8-2.1-.8-3.3.3-2.4.8-3.3,1.3-1.7,2.3-2.3,2.1-.8,3.3-.8,2.4.3,3.3.8c1,.6,1.7,1.3,2.3,2.3.6,1,.8,2.1.8,3.3s-.3,2.4-.8,3.3c-.6,1-1.3,1.7-2.3,2.3s-2.1.8-3.3.8ZM251.8,18.9c.9,0,1.7-.2,2.4-.6.7-.4,1.3-1,1.7-1.7s.6-1.6.6-2.6-.2-1.9-.6-2.6c-.4-.7-1-1.3-1.7-1.7s-1.5-.6-2.4-.6-1.7.2-2.4.6c-.7.4-1.3,1-1.7,1.7-.4.7-.6,1.6-.6,2.6s.2,1.8.6,2.6c.4.7,1,1.3,1.7,1.7.7.4,1.5.6,2.4.6Z"/>
    <path class="cls-2" d="M261.7,25V7.7h1.6v3.8l-.2,2.5.2,2.5v8.4h-1.7ZM268.2,20.4c-1.1,0-2.1-.3-3-.8-.9-.5-1.6-1.2-2.1-2.2-.5-1-.8-2.1-.8-3.5s.3-2.5.8-3.5c.5-1,1.2-1.7,2.1-2.2.9-.5,1.9-.7,3-.7s2.3.3,3.2.8c1,.5,1.7,1.3,2.2,2.3.5,1,.8,2.1.8,3.3s-.3,2.4-.8,3.4c-.5,1-1.3,1.7-2.2,2.3-1,.5-2,.8-3.2.8ZM268.1,18.9c.9,0,1.7-.2,2.4-.6.7-.4,1.3-1,1.7-1.7s.6-1.6.6-2.6-.2-1.8-.6-2.6c-.4-.7-1-1.3-1.7-1.7-.7-.4-1.5-.6-2.4-.6s-1.7.2-2.4.6c-.7.4-1.3,1-1.7,1.7-.4.7-.6,1.6-.6,2.6s.2,1.8.6,2.6,1,1.3,1.7,1.7c.7.4,1.5.6,2.4.6Z"/>
    <path class="cls-2" d="M283,20.4c-1.2,0-2.3-.3-3.2-.8-1-.5-1.7-1.3-2.2-2.3s-.8-2.1-.8-3.4.3-2.4.8-3.3,1.3-1.7,2.2-2.3c1-.5,2-.8,3.2-.8s2.1.2,3,.7c.9.5,1.6,1.2,2.1,2.2.5,1,.8,2.1.8,3.5s-.3,2.5-.8,3.5c-.5,1-1.2,1.7-2.1,2.2-.9.5-1.9.8-3,.8ZM283.1,18.9c.9,0,1.7-.2,2.4-.6.7-.4,1.3-1,1.7-1.7s.6-1.6.6-2.6-.2-1.8-.6-2.6c-.4-.7-1-1.3-1.7-1.7s-1.5-.6-2.4-.6-1.7.2-2.4.6c-.7.4-1.3,1-1.7,1.7-.4.7-.6,1.6-.6,2.6s.2,1.8.6,2.6c.4.7,1,1.3,1.7,1.7.7.4,1.5.6,2.4.6ZM287.8,25v-8.4l.2-2.5-.2-2.5v-3.8h1.6v17.3h-1.7Z"/>
    <path class="cls-2" d="M294.2,20.3V7.7h1.6v3.4l-.2-.6c.4-1,.9-1.7,1.8-2.2.8-.5,1.9-.8,3.1-.8v1.7c0,0-.1,0-.2,0s-.1,0-.2,0c-1.3,0-2.4.4-3.1,1.2-.8.8-1.1,2-1.1,3.4v6.4h-1.7Z"/>
    <path class="cls-2" d="M307.2,20.4c-1,0-2-.1-3-.4s-1.7-.7-2.2-1.1l.8-1.3c.5.4,1.2.7,2,1s1.6.4,2.5.4,2.1-.2,2.6-.6c.5-.4.8-.9.8-1.5s-.1-.8-.4-1.1c-.3-.3-.7-.5-1.2-.6s-1-.3-1.6-.3c-.6,0-1.2-.2-1.8-.3-.6-.1-1.1-.3-1.6-.6s-.9-.6-1.2-1c-.3-.4-.4-1-.4-1.7s.2-1.3.6-1.8c.4-.5.9-1,1.7-1.3.7-.3,1.7-.5,2.7-.5s1.6.1,2.4.3,1.5.5,2,.9l-.7,1.4c-.6-.4-1.2-.7-1.8-.8-.6-.2-1.3-.3-1.9-.3-1.1,0-2,.2-2.5.6-.5.4-.8.9-.8,1.5s.1.9.4,1.1c.3.3.7.5,1.2.6.5.2,1,.3,1.6.4s1.2.2,1.8.3c.6.1,1.1.3,1.6.6.5.2.9.6,1.2,1,.3.4.4,1,.4,1.7s-.2,1.4-.6,1.9c-.4.5-1,1-1.8,1.2-.8.3-1.7.4-2.8.4Z"/>
    <path class="cls-2" d="M313.6,9.1v-1.4h7.8v1.4h-7.8ZM319.5,20.4c-1.2,0-2.1-.3-2.7-1-.6-.6-1-1.5-1-2.7V4.9h1.7v11.7c0,.7.2,1.3.6,1.7.4.4.9.6,1.6.6s1.4-.2,1.9-.6l.6,1.2c-.3.3-.7.5-1.2.7-.5.1-1,.2-1.5.2Z"/>
    <path class="cls-2" d="M330.5,20.4c-1.1,0-2-.2-2.8-.6-.8-.4-1.4-1-1.9-1.8-.4-.8-.7-1.8-.7-3v-7.3h1.7v7.1c0,1.3.3,2.4,1,3,.7.7,1.6,1,2.8,1s1.6-.2,2.3-.5c.6-.4,1.1-.9,1.5-1.6.3-.7.5-1.5.5-2.5v-6.6h1.7v12.6h-1.6v-3.5l.3.6c-.4.9-1,1.7-1.9,2.2-.8.5-1.8.8-2.9.8Z"/>
    <path class="cls-2" d="M344.6,20.3l-5.6-12.6h1.8l5.1,11.7h-.8l5.2-11.7h1.7l-5.6,12.6h-1.8Z"/>
    <path class="cls-2" d="M356.9,20.3l-4.8-12.6h1.6l4.3,11.7h-.7l4.4-11.7h1.5l4.4,11.7h-.7l4.4-11.7h1.6l-4.8,12.6h-1.6l-4.2-11h.5l-4.2,11h-1.6Z"/>
    <path class="cls-2" d="M372.7,20.3l5.3-6.9v.8s-5.1-6.5-5.1-6.5h1.9l4.2,5.4h-.7s4.2-5.4,4.2-5.4h1.9l-5.1,6.6v-.9s5.4,6.9,5.4,6.9h-1.9l-4.4-5.8h.7c0,0-4.3,5.8-4.3,5.8h-1.9Z"/>
    <path class="cls-2" d="M386.9,25.1c-.6,0-1.2,0-1.7-.3-.5-.2-1-.5-1.4-.9l.8-1.3c.3.3.7.5,1,.7.4.2.8.3,1.3.3s1-.2,1.5-.5.8-.9,1.2-1.6l.8-1.8.2-.3,5.2-11.7h1.7l-6.3,14.1c-.4.8-.7,1.5-1.2,1.9-.4.5-.9.8-1.4,1s-1,.3-1.7.3ZM390.2,20.7l-5.8-13h1.8l5.1,11.6-1.1,1.4Z"/>
    <path class="cls-2" d="M398.2,20.3v-1.1l8.4-10.6.4.6h-8.6v-1.4h10v1.1l-8.4,10.7-.4-.6h9v1.4h-10.3Z"/>
    <path class="cls-2" d="M9.1,49.1l7.7-16.8h1.8l7.7,16.8h-1.9l-7.1-15.8h.7l-7.1,15.8h-1.8ZM12.1,44.6l.5-1.4h9.8l.5,1.4h-10.8Z"/>
    <path class="cls-2" d="M29,49.1v-16.8h7.2c1.9,0,3.3.4,4.4,1.1,1,.8,1.5,1.8,1.5,3.2s-.2,1.7-.6,2.3c-.4.6-1,1.1-1.7,1.4s-1.5.5-2.4.5l.4-.6c1.1,0,2,.2,2.8.5.8.3,1.4.8,1.8,1.5.4.6.6,1.5.6,2.4,0,1.4-.5,2.5-1.6,3.3-1,.8-2.6,1.2-4.7,1.2h-7.7ZM30.7,47.6h5.9c1.5,0,2.6-.3,3.4-.8.8-.5,1.2-1.3,1.2-2.4s-.4-1.9-1.2-2.4c-.8-.5-1.9-.8-3.4-.8h-6.1v-1.5h5.5c1.3,0,2.4-.3,3.1-.8.7-.5,1.1-1.3,1.1-2.3s-.4-1.8-1.1-2.3-1.8-.8-3.1-.8h-5.4v13.9Z"/>
    <path class="cls-2" d="M54.3,49.2c-1.3,0-2.4-.2-3.5-.6-1.1-.4-2-1-2.8-1.8-.8-.8-1.4-1.7-1.8-2.7-.4-1-.7-2.2-.7-3.4s.2-2.4.7-3.4c.4-1,1.1-1.9,1.8-2.7.8-.8,1.7-1.4,2.8-1.8s2.2-.6,3.5-.6,2.4.2,3.4.6,2,1,2.7,1.8l-1.1,1.1c-.7-.7-1.4-1.2-2.3-1.5-.8-.3-1.7-.5-2.7-.5s-1.9.2-2.8.5c-.9.3-1.6.8-2.3,1.5-.6.6-1.1,1.4-1.5,2.2s-.5,1.8-.5,2.8.2,1.9.5,2.8.9,1.6,1.5,2.2c.6.6,1.4,1.1,2.3,1.5.9.3,1.8.5,2.8.5s1.9-.2,2.7-.5c.8-.3,1.6-.8,2.3-1.5l1.1,1.1c-.7.8-1.6,1.4-2.7,1.8s-2.2.6-3.5.6Z"/>
    <path class="cls-2" d="M64.3,49.1v-16.8h6.8c1.8,0,3.4.4,4.7,1.1s2.4,1.7,3.2,3c.8,1.3,1.1,2.7,1.1,4.4s-.4,3.1-1.1,4.4c-.8,1.3-1.8,2.3-3.2,3s-2.9,1.1-4.7,1.1h-6.8ZM66.1,47.6h5c1.5,0,2.8-.3,3.9-.9,1.1-.6,1.9-1.4,2.6-2.4.6-1,.9-2.2.9-3.6s-.3-2.6-.9-3.6c-.6-1-1.5-1.8-2.6-2.4-1.1-.6-2.4-.9-3.9-.9h-5v13.7Z"/>
    <path class="cls-2" d="M85.9,47.6h10.1v1.5h-11.9v-16.8h11.5v1.5h-9.7v13.7ZM85.7,39.8h8.9v1.5h-8.9v-1.5Z"/>
    <path class="cls-2" d="M102,49.1h-1.8v-16.8h11.5v1.5h-9.7v15.3ZM101.8,40.4h8.9v1.5h-8.9v-1.5Z"/>
    <path class="cls-2" d="M122.5,49.2c-1.3,0-2.5-.2-3.5-.6-1.1-.4-2-1-2.8-1.8-.8-.8-1.4-1.7-1.8-2.7-.4-1-.7-2.2-.7-3.4s.2-2.4.7-3.4c.4-1,1.1-1.9,1.9-2.7.8-.8,1.7-1.4,2.8-1.8s2.3-.6,3.5-.6,2.5.2,3.5.6c1.1.4,2,1,2.7,1.8l-1.1,1.1c-.7-.7-1.5-1.2-2.3-1.5-.8-.3-1.8-.5-2.7-.5s-2,.2-2.9.5c-.9.3-1.6.8-2.3,1.5-.6.6-1.2,1.4-1.5,2.2s-.5,1.8-.5,2.8.2,1.9.5,2.8.9,1.6,1.5,2.2c.6.6,1.4,1.1,2.3,1.5.9.3,1.8.5,2.8.5s1.9-.1,2.7-.4,1.6-.8,2.4-1.5l1,1.3c-.8.7-1.7,1.2-2.8,1.6-1.1.4-2.2.5-3.4.5ZM127,46.9v-6.2h1.7v6.4l-1.7-.2Z"/>
    <path class="cls-2" d="M135.5,49.1h-1.8v-16.8h1.8v16.8ZM146.2,41.3h-10.9v-1.6h10.9v1.6ZM146,32.3h1.8v16.8h-1.8v-16.8Z"/>
    <path class="cls-2" d="M153.2,49.1v-16.8h1.8v16.8h-1.8Z"/>
    <path class="cls-2" d="M162.3,49.2c-.9,0-1.8-.2-2.7-.6s-1.5-1-2-1.8l1-1.2c.5.7,1,1.2,1.6,1.5.6.4,1.3.5,2,.5,2.1,0,3.1-1.2,3.1-3.7v-10.2h-6.1v-1.5h7.9v11.6c0,1.8-.4,3.1-1.2,4s-2,1.3-3.7,1.3Z"/>
    <path class="cls-2" d="M172.5,49.1v-16.8h1.8v16.8h-1.8ZM174,44.9v-2.2c0,0,10.1-10.5,10.1-10.5h2l-7.4,7.8-1,1.1-3.7,3.8ZM184.6,49.1l-7.2-8.4,1.2-1.3,8.2,9.6h-2.1Z"/>
    <path class="cls-2" d="M189.6,49.1v-16.8h1.8v15.3h9.4v1.5h-11.2Z"/>
    <path class="cls-2" d="M203.7,49.1v-16.8h1.5l7.7,13.1h-.8l7.6-13.1h1.5v16.8h-1.7v-14.1h.4l-7,12h-.8l-7.1-12h.5v14.1h-1.7Z"/>
    <path class="cls-2" d="M226.6,49.1v-16.8h1.5l11.6,14.6h-.8v-14.6h1.8v16.8h-1.5l-11.6-14.6h.8v14.6h-1.8Z"/>
    <path class="cls-2" d="M253.5,49.2c-1.3,0-2.4-.2-3.5-.6-1.1-.4-2-1-2.8-1.8-.8-.8-1.4-1.7-1.8-2.7-.4-1-.7-2.2-.7-3.4s.2-2.4.7-3.4c.4-1,1.1-1.9,1.8-2.7.8-.8,1.7-1.4,2.8-1.8s2.2-.6,3.5-.6,2.4.2,3.5.6c1.1.4,2,1,2.8,1.8.8.8,1.4,1.7,1.8,2.7.4,1,.7,2.2.7,3.4s-.2,2.4-.7,3.4c-.4,1-1.1,1.9-1.8,2.7-.8.8-1.7,1.4-2.8,1.8-1.1.4-2.2.6-3.5.6ZM253.5,47.7c1,0,1.9-.2,2.8-.5.9-.3,1.6-.8,2.2-1.5.6-.6,1.1-1.4,1.5-2.2.4-.8.5-1.8.5-2.8s-.2-1.9-.5-2.8c-.4-.8-.8-1.6-1.5-2.2-.6-.6-1.4-1.1-2.2-1.5-.9-.3-1.8-.5-2.8-.5s-1.9.2-2.8.5c-.9.3-1.6.8-2.3,1.5-.6.6-1.1,1.4-1.5,2.2-.4.8-.5,1.8-.5,2.8s.2,1.9.5,2.8c.4.8.8,1.6,1.5,2.2.6.6,1.4,1.1,2.3,1.5.9.3,1.8.5,2.8.5Z"/>
    <path class="cls-2" d="M266.3,49.1v-16.8h6.3c1.4,0,2.6.2,3.7.7,1,.5,1.8,1.1,2.4,2,.6.9.8,1.9.8,3.1s-.3,2.2-.8,3.1c-.6.9-1.3,1.5-2.4,2-1,.5-2.2.7-3.7.7h-5.3l.8-.8v6.1h-1.8ZM268,43.1l-.8-.9h5.3c1.7,0,3-.4,3.8-1.1.9-.7,1.3-1.8,1.3-3.1s-.4-2.4-1.3-3.1c-.9-.7-2.1-1.1-3.8-1.1h-5.3l.8-.8v10.1Z"/>
    <path class="cls-2" d="M290.8,49.2c-1.3,0-2.4-.2-3.5-.6-1.1-.4-2-1-2.8-1.8-.8-.8-1.4-1.7-1.8-2.7-.4-1-.7-2.2-.7-3.4s.2-2.4.7-3.4c.4-1,1.1-1.9,1.8-2.7.8-.8,1.7-1.4,2.8-1.8s2.2-.6,3.5-.6,2.4.2,3.5.6,2,1,2.8,1.8c.8.8,1.4,1.7,1.8,2.7.4,1,.7,2.2.7,3.4s-.2,2.4-.7,3.4c-.4,1-1.1,1.9-1.8,2.7-.8.8-1.7,1.4-2.8,1.8-1.1.4-2.2.6-3.5.6ZM290.8,47.7c1,0,1.9-.2,2.8-.5.9-.3,1.6-.8,2.2-1.5.6-.6,1.1-1.4,1.5-2.2s.5-1.8.5-2.8-.2-1.9-.5-2.8-.8-1.6-1.5-2.2-1.4-1.1-2.2-1.5c-.9-.3-1.8-.5-2.8-.5s-1.9.2-2.8.5c-.9.3-1.6.8-2.3,1.5-.6.6-1.1,1.4-1.5,2.2-.4.8-.5,1.8-.5,2.8s.2,1.9.5,2.8c.4.8.8,1.6,1.5,2.2.6.6,1.4,1.1,2.3,1.5.9.3,1.8.5,2.8.5ZM296.3,52.4c-.5,0-1,0-1.5-.2-.5-.1-1-.3-1.5-.6-.5-.3-1-.6-1.5-1.1-.5-.4-1.1-1-1.7-1.6l1.9-.5c.5.6,1,1.1,1.5,1.5.5.4.9.7,1.4.9.5.2.9.3,1.4.3,1.2,0,2.3-.5,3.2-1.5l.9,1c-1.1,1.3-2.4,1.9-4.1,1.9Z"/>
    <path class="cls-2" d="M303.6,49.1v-16.8h6.3c1.4,0,2.6.2,3.7.7,1,.5,1.8,1.1,2.4,2,.6.9.8,1.9.8,3.1s-.3,2.2-.8,3.1c-.6.9-1.3,1.5-2.4,2s-2.2.7-3.7.7h-5.3l.8-.8v6.1h-1.8ZM305.4,43.1l-.8-.8h5.3c1.7,0,3-.4,3.8-1.1.9-.7,1.3-1.8,1.3-3.1s-.4-2.4-1.3-3.1c-.9-.7-2.1-1.1-3.8-1.1h-5.3l.8-.8v10.1ZM315.1,49.1l-4.3-6.1h1.9l4.3,6.1h-1.9Z"/>
    <path class="cls-2" d="M325.6,49.2c-1.2,0-2.4-.2-3.6-.6-1.1-.4-2-.9-2.7-1.6l.7-1.4c.6.6,1.4,1.1,2.4,1.5,1,.4,2.1.6,3.2.6s1.9-.1,2.6-.4c.7-.3,1.2-.6,1.5-1.1.3-.4.5-.9.5-1.5s-.2-1.2-.6-1.6c-.4-.4-.9-.7-1.5-.9-.6-.2-1.3-.4-2-.6-.7-.2-1.5-.4-2.2-.6-.7-.2-1.4-.5-2-.8-.6-.3-1.1-.8-1.5-1.3-.4-.6-.6-1.3-.6-2.2s.2-1.6.7-2.3c.4-.7,1.1-1.3,2-1.7s2.1-.6,3.5-.6,1.9.1,2.8.4c.9.3,1.7.6,2.4,1.1l-.6,1.4c-.7-.5-1.5-.8-2.3-1.1-.8-.2-1.6-.3-2.3-.3s-1.8.1-2.5.4c-.7.3-1.1.6-1.5,1.1s-.5,1-.5,1.5.2,1.2.6,1.6c.4.4.9.7,1.5.9.6.2,1.3.4,2,.6.7.2,1.5.4,2.2.6.7.2,1.4.5,2,.8.6.3,1.1.8,1.5,1.3.4.5.6,1.3.6,2.1s-.2,1.6-.7,2.3-1.1,1.3-2.1,1.7c-.9.4-2.1.6-3.5.6Z"/>
    <path class="cls-2" d="M338.8,49.1v-15.3h-5.9v-1.5h13.6v1.5h-5.9v15.3h-1.8Z"/>
    <path class="cls-2" d="M355.7,49.2c-2.1,0-3.8-.6-5.1-1.8-1.2-1.2-1.8-3.1-1.8-5.5v-9.6h1.8v9.6c0,2,.4,3.4,1.3,4.4s2.2,1.4,3.8,1.4,2.9-.5,3.8-1.4c.9-.9,1.3-2.4,1.3-4.4v-9.6h1.7v9.6c0,2.4-.6,4.2-1.8,5.5-1.2,1.2-2.9,1.8-5.1,1.8Z"/>
    <path class="cls-2" d="M372.7,49.1l-7.4-16.8h1.9l7,15.8h-1.1l7-15.8h1.8l-7.4,16.8h-1.8Z"/>
    <path class="cls-2" d="M388.5,49.1l-5.7-16.8h1.8l5.3,15.8h-.9l5.5-15.8h1.6l5.4,15.8h-.9l5.4-15.8h1.7l-5.7,16.8h-1.9l-5.2-15h.5l-5.2,15h-1.8Z"/>
    <path class="cls-2" d="M408.5,49.1l6.9-9.3v1.4l-6.5-8.9h2l5.4,7.4h-.8s5.4-7.4,5.4-7.4h1.9l-6.4,8.7v-1.2l6.9,9.3h-2.1l-5.8-7.9h.7l-5.8,7.9h-2Z"/>
    <path class="cls-2" d="M429.9,49.1v-6.2l.4,1.1-7.1-11.7h1.9l6.3,10.2h-1l6.3-10.2h1.8l-7.1,11.7.4-1.1v6.2h-1.8Z"/>
    <path class="cls-2" d="M439.4,49.1v-1.2l11.7-14.7.2.7h-11.7v-1.5h13.3v1.2l-11.6,14.7-.2-.7h12.1v1.5h-13.8Z"/>
    <path class="cls-2" d="M166.7,78c-1.3,0-2.4-.3-3.5-1-1-.7-1.8-1.7-2.4-2.9-.6-1.3-.9-2.8-.9-4.6s.3-3.3.9-4.6c.6-1.3,1.4-2.2,2.4-2.9,1-.7,2.2-1,3.5-1s2.4.3,3.5,1c1,.7,1.8,1.7,2.4,2.9.6,1.3.9,2.8.9,4.6s-.3,3.3-.9,4.6c-.6,1.3-1.4,2.2-2.4,2.9-1,.7-2.2,1-3.5,1ZM166.7,76.5c1,0,1.9-.3,2.6-.8.7-.5,1.3-1.3,1.7-2.4.4-1,.6-2.3.6-3.8s-.2-2.8-.6-3.8c-.4-1-1-1.8-1.7-2.4-.7-.5-1.6-.8-2.6-.8s-1.8.3-2.6.8c-.8.5-1.3,1.3-1.8,2.4-.4,1-.6,2.3-.6,3.8s.2,2.8.6,3.8c.4,1,1,1.8,1.8,2.4.8.5,1.6.8,2.6.8Z"/>
    <path class="cls-2" d="M178.9,77.9v-16.1l.8.8h-4.7v-1.5h5.7v16.8h-1.7Z"/>
    <path class="cls-2" d="M184.3,77.9v-1.2l7-6.8c.6-.6,1.1-1.2,1.4-1.6.3-.5.5-.9.6-1.3.1-.4.2-.8.2-1.2,0-1-.3-1.7-1-2.3-.7-.6-1.6-.8-2.9-.8s-1.9.2-2.6.5-1.4.8-2,1.4l-1.2-1.1c.7-.8,1.5-1.4,2.5-1.8,1-.4,2.2-.6,3.4-.6s2.1.2,3,.5c.8.4,1.5.9,1.9,1.6.5.7.7,1.5.7,2.4s0,1.1-.2,1.6c-.2.5-.4,1.1-.8,1.7-.4.6-1,1.2-1.7,2l-6.4,6.3-.5-.7h10.4v1.5h-11.8Z"/>
    <path class="cls-2" d="M203.3,78c-1.2,0-2.4-.2-3.4-.6-1.1-.4-1.9-.9-2.6-1.6l.8-1.4c.5.6,1.3,1,2.2,1.4.9.4,1.9.6,3,.6s2.5-.3,3.2-.9c.7-.6,1.1-1.4,1.1-2.4s-.4-1.8-1.1-2.4c-.7-.6-1.9-.9-3.4-.9h-1.2v-1.3l5.2-6.5.2.7h-9.4v-1.5h10.8v1.2l-5.2,6.5-.8-.6h.6c2,0,3.5.4,4.5,1.3,1,.9,1.5,2,1.5,3.5s-.2,1.8-.7,2.5c-.4.8-1.1,1.3-2,1.8-.9.4-2,.6-3.4.6Z"/>
    <path class="cls-2" d="M211.5,73.5v-1.2l8.9-11.1h1.9l-8.8,11.1-.9-.3h13.5v1.5h-14.6ZM221,77.9v-6s0-3.9,0-3.9h1.7v9.8h-1.7Z"/>
    <path class="cls-2" d="M232.9,78c-1.2,0-2.3-.2-3.4-.6-1.1-.4-2-.9-2.6-1.6l.8-1.4c.5.6,1.3,1,2.2,1.4.9.4,1.9.6,3,.6s2.5-.3,3.3-.9c.7-.6,1.1-1.5,1.1-2.5s-.2-1.3-.5-1.9c-.3-.5-.9-.9-1.7-1.2s-1.9-.4-3.4-.4h-3.6l.9-8.4h9.2v1.5h-8.5l.9-.8-.7,7.1-.9-.9h3.1c1.7,0,3.1.2,4.1.6,1,.4,1.8,1,2.2,1.7.5.7.7,1.6.7,2.6s-.2,1.8-.7,2.6c-.4.8-1.1,1.4-2,1.8-.9.4-2,.7-3.4.7Z"/>
    <path class="cls-2" d="M248.1,78c-1.5,0-2.7-.3-3.8-1-1-.7-1.8-1.6-2.3-2.9-.5-1.3-.8-2.8-.8-4.5s.3-3.5,1-4.8c.6-1.3,1.5-2.3,2.7-2.9,1.2-.7,2.5-1,4-1s1.5,0,2.2.2c.7.1,1.3.4,1.8.7l-.7,1.4c-.4-.3-.9-.5-1.5-.6s-1.2-.2-1.8-.2c-1.8,0-3.3.6-4.3,1.7-1.1,1.2-1.6,2.9-1.6,5.2s0,.8,0,1.3c0,.5.1,1,.3,1.5l-.6-.5c.2-.8.5-1.5,1-2.1.5-.6,1.2-1,1.9-1.3s1.6-.5,2.5-.5,2.1.2,3,.6,1.5,1,2,1.8.7,1.6.7,2.7-.2,1.9-.7,2.7c-.5.8-1.2,1.4-2.1,1.8-.9.4-1.9.6-2.9.6ZM248,76.6c.8,0,1.5-.1,2.1-.4s1.1-.7,1.5-1.3c.4-.6.5-1.2.5-1.9,0-1.1-.4-2-1.1-2.6s-1.8-1-3.1-1-1.6.2-2.3.5c-.6.3-1.1.8-1.5,1.3-.4.6-.6,1.2-.6,1.9s.2,1.2.5,1.7.8,1,1.5,1.3c.7.3,1.5.5,2.4.5Z"/>
    <path class="cls-2" d="M258.5,77.9l7.2-16,.5.8h-10.4l.9-.8v4h-1.7v-4.7h12.3v1.2l-7,15.6h-1.9Z"/>
    <path class="cls-2" d="M275.7,78c-1.3,0-2.5-.2-3.5-.6s-1.7-.9-2.2-1.7c-.5-.7-.8-1.6-.8-2.6s.3-1.8.8-2.5c.5-.7,1.2-1.2,2.2-1.6,1-.4,2.1-.6,3.5-.6s2.5.2,3.5.6,1.7.9,2.2,1.6.8,1.5.8,2.5-.3,1.9-.8,2.6c-.5.7-1.3,1.3-2.3,1.7-1,.4-2.1.6-3.5.6ZM275.7,69.6c-1.2,0-2.3-.2-3.2-.5-.9-.3-1.5-.8-2-1.5-.5-.6-.7-1.4-.7-2.3s.2-1.7.7-2.4,1.2-1.2,2.1-1.5c.9-.4,1.9-.5,3.1-.5s2.2.2,3.1.5c.9.4,1.6.9,2.1,1.5s.7,1.5.7,2.4-.2,1.6-.7,2.3c-.5.6-1.1,1.1-2,1.5s-2,.5-3.2.5ZM275.7,76.6c1.5,0,2.7-.3,3.5-.9s1.3-1.4,1.3-2.5-.4-1.9-1.3-2.5c-.8-.6-2-.9-3.5-.9s-2.6.3-3.5.9c-.8.6-1.2,1.4-1.2,2.5s.4,1.9,1.2,2.5,2,.9,3.5.9ZM275.7,68.5c1.3,0,2.3-.3,3.1-.8s1.1-1.3,1.1-2.2-.4-1.7-1.1-2.2c-.8-.5-1.8-.8-3-.8s-2.3.3-3,.8-1.1,1.3-1.1,2.2.4,1.7,1.1,2.2c.7.5,1.7.8,3.1.8Z"/>
    <path class="cls-2" d="M289.8,61c1.5,0,2.7.3,3.8,1,1,.7,1.8,1.6,2.3,2.9.5,1.2.8,2.8.8,4.5s-.3,3.5-1,4.8-1.5,2.3-2.7,2.9c-1.2.7-2.5,1-4,1s-1.5,0-2.1-.2c-.7-.1-1.3-.4-1.8-.7l.7-1.4c.4.3.9.5,1.5.6s1.2.2,1.8.2c1.8,0,3.3-.6,4.3-1.7s1.6-2.9,1.6-5.2,0-.8,0-1.3c0-.5-.1-1-.3-1.5l.6.5c-.2.8-.5,1.5-1,2.1-.5.6-1.2,1-1.9,1.3-.8.3-1.6.5-2.5.5s-2.1-.2-2.9-.6c-.9-.4-1.5-1-2-1.8-.5-.8-.7-1.6-.7-2.7s.2-2,.7-2.7c.5-.8,1.2-1.4,2.1-1.8.9-.4,1.9-.6,2.9-.6ZM289.9,62.4c-.8,0-1.5.1-2.1.4-.6.3-1.1.7-1.5,1.3s-.5,1.2-.5,1.9c0,1.1.4,2,1.1,2.6s1.8,1,3.1,1,1.6-.2,2.3-.5,1.2-.8,1.5-1.3c.4-.6.5-1.2.5-1.9s-.2-1.2-.5-1.8-.8-1-1.5-1.3c-.7-.3-1.5-.5-2.4-.5Z"/>
    <path class="cls-2" d="M301.1,78c-.4,0-.7-.1-.9-.4s-.4-.5-.4-.9.1-.6.4-.9c.2-.2.5-.3.9-.3s.7.1.9.3c.2.2.3.5.3.9s-.1.6-.3.9c-.2.2-.5.4-.9.4ZM300.4,72.9l-.3-11.8h2l-.4,11.8h-1.3Z"/>
  </g>
</svg>