<?xml version="1.0" encoding="UTF-8"?><svg id="Layer_2" xmlns="http://www.w3.org/2000/svg" viewBox="0 0 278.85 240.99"><defs><style>.cls-1{fill:#414d75;stroke-width:0px;}</style></defs><g id="Layer_1-2"><path class="cls-1" d="M10.52,228.58l-.95,2.02c-1.48-.89-2.96-1.26-3.99-1.26-1.34,0-2.22.51-2.22,1.42,0,2.98,7.35,1.38,7.33,6.28,0,2.43-2.14,3.93-5.13,3.93-2.14,0-4.16-.88-5.56-2.16l.99-1.98c1.4,1.28,3.15,1.98,4.61,1.98,1.59,0,2.55-.6,2.55-1.65,0-3.03-7.35-1.34-7.35-6.18,0-2.33,2-3.79,4.96-3.79,1.77,0,3.5.56,4.77,1.4Z"/><path class="cls-1" d="M20.5,229.34v11.55h-2.29v-11.55h-4.3v-2.06h10.91v2.06h-4.32Z"/><path class="cls-1" d="M40.49,235.25c0,3.56-2.24,5.74-5.91,5.74s-5.93-2.18-5.93-5.74v-7.97h2.29v7.97c0,2.3,1.42,3.68,3.66,3.68s3.6-1.36,3.6-3.68v-7.97h2.29v7.97Z"/><path class="cls-1" d="M51.49,227.28c4.08,0,7.04,2.86,7.04,6.81s-2.98,6.81-7.1,6.81h-5.52v-13.61h5.58ZM48.21,238.83h3.35c2.64,0,4.67-1.97,4.67-4.73s-2.08-4.77-4.77-4.77h-3.25v9.49Z"/><path class="cls-1" d="M63.12,240.89v-13.61h2.29v13.61h-2.29Z"/><path class="cls-1" d="M84.44,234.08c0,3.89-3.15,6.9-7.22,6.9s-7.22-3.01-7.22-6.9,3.15-6.87,7.22-6.87,7.22,2.98,7.22,6.87ZM72.34,234.08c0,2.7,2.24,4.84,4.9,4.84s4.84-2.14,4.84-4.84-2.18-4.8-4.84-4.8-4.9,2.1-4.9,4.8Z"/><path class="cls-1" d="M116.72,237.82l-1.3,3.07h-2.39l6.01-13.61h2.35l5.95,13.61h-2.45l-1.3-3.07h-6.87ZM120.14,229.73l-2.57,6.05h5.13l-2.57-6.05Z"/><path class="cls-1" d="M136.46,236.77c-.19.02-.41.02-.62.02h-3.23v4.1h-2.29v-13.61h5.52c3.48,0,5.48,1.69,5.48,4.65,0,2.18-1.01,3.71-2.82,4.42l3.05,4.55h-2.61l-2.49-4.12ZM135.84,234.73c2.1,0,3.31-.89,3.31-2.74s-1.21-2.65-3.31-2.65h-3.23v5.39h3.23Z"/><path class="cls-1" d="M156.74,229.32l-1.34,1.67c-.99-1.07-2.41-1.73-3.79-1.73-2.72,0-4.86,2.1-4.86,4.78s2.14,4.8,4.86,4.8c1.36,0,2.76-.62,3.79-1.61l1.36,1.52c-1.38,1.36-3.35,2.24-5.27,2.24-3.99,0-7.08-3.01-7.08-6.92s3.13-6.85,7.16-6.85c1.93,0,3.85.8,5.17,2.1Z"/><path class="cls-1" d="M169.77,240.89v-5.64h-7.22v5.64h-2.29v-13.61h2.29v5.91h7.22v-5.91h2.3v13.61h-2.3Z"/><path class="cls-1" d="M176.81,240.89v-13.61h2.29v13.61h-2.29Z"/><path class="cls-1" d="M188.83,229.34v11.55h-2.3v-11.55h-4.3v-2.06h10.91v2.06h-4.32Z"/><path class="cls-1" d="M198.57,229.34v3.68h6.65v2.06h-6.65v3.75h7.66v2.06h-9.96v-13.61h9.72v2.06h-7.43Z"/><path class="cls-1" d="M215.18,229.34v11.55h-2.3v-11.55h-4.3v-2.06h10.91v2.06h-4.32Z"/><path class="cls-1" d="M227.6,229.34v11.55h-2.3v-11.55h-4.3v-2.06h10.91v2.06h-4.32Z"/><path class="cls-1" d="M246.62,235.25c0,3.56-2.24,5.74-5.91,5.74s-5.93-2.18-5.93-5.74v-7.97h2.29v7.97c0,2.3,1.42,3.68,3.66,3.68s3.6-1.36,3.6-3.68v-7.97h2.3v7.97Z"/><path class="cls-1" d="M257.22,236.77c-.19.02-.41.02-.62.02h-3.23v4.1h-2.29v-13.61h5.52c3.48,0,5.48,1.69,5.48,4.65,0,2.18-1.01,3.71-2.82,4.42l3.05,4.55h-2.61l-2.49-4.12ZM256.6,234.73c2.1,0,3.31-.89,3.31-2.74s-1.21-2.65-3.31-2.65h-3.23v5.39h3.23Z"/><path class="cls-1" d="M268.23,237.82l-1.3,3.07h-2.39l6.01-13.61h2.35l5.95,13.61h-2.45l-1.3-3.07h-6.87ZM271.65,229.73l-2.57,6.05h5.13l-2.57-6.05Z"/><path class="cls-1" d="M52,205.45c.33,0,4.75-.17,5.25-.25,1.2-.21,1.53-.54,1.9-1.82.12-.41.29-1.24.33-2.03,0-.21.13-.29.29-.29l1.03.04c.21,0,.29.17.25.33-.12.7-.12,4.09-.12,4.71,0,1.45.17,3.43.25,4.3,0,.2-.08.29-.25.33l-.91.13c-.21.04-.29-.08-.33-.37-.08-.54-.33-1.49-.45-1.94-.25-.87-.7-1.49-1.78-1.61-1.94-.21-4.79-.21-5.45-.21v2.56c0,2.23.08,6.24.08,7.07.04,2.15,1.07,2.98,2.36,3.22.83.16,2.02.29,3.06.29.7,0,2.77-.04,3.64-.12.7-.08,2.52-.54,3.59-1.44.5-.41,2.81-3.39,3.39-4.34.12-.2.25-.37.5-.25l.66.37c.21.12.21.25.08.58l-2.19,6.07c-.13.37-.41.62-.91.62-.21,0-1.12-.04-3.6-.08-2.48,0-6.49-.04-12.93-.04-1.53,0-2.69.04-3.51.04-.87.04-1.4.08-1.78.08-.25,0-.37-.08-.37-.29v-1.11c0-.17.12-.21.41-.21h1.65c1.9,0,2.07-.29,2.07-1.82v-13.84c0-3.43-.08-8.6-.12-9.01-.17-1.32-.58-1.61-2.11-1.61h-1.49c-.21,0-.33-.04-.33-.29v-1.12c0-.12.08-.2.29-.2.91,0,2.35.12,5.08.12h1.82c4.09,0,8.18-.04,12.27-.04.66,0,1.45-.08,1.65-.08s.29.08.33.2l2.11,6.65c.04.16.04.29-.12.37l-.62.33c-.12.08-.29-.04-.33-.12-.08-.17-3.14-4.09-4.13-4.71-.87-.58-2.03-1.07-3.14-1.12l-7.36-.16v12.11Z"/><path class="cls-1" d="M115.98,229.88c-.08-.19-.22-.14-.36-.06-.58.25-1.57.58-2.7.33-.77-.19-2.45-.11-12.12-4.74-1.96-.91-4.19-2.01-6.78-3.53l1.21-.33c2.62-.85,4.77-2.01,7.19-4.46,2.48-2.42,4.35-6.45,4.27-10.85.08-3.72-1.16-7.49-3.97-10.41-2.56-2.7-6.28-4.52-11.13-4.44-2.18-.08-6.69,1.07-9.86,3.97-3.03,2.78-4.77,6.83-4.77,10.8,0,4.96,1.79,8.62,4.02,10.91,3.66,3.91,7.25,4.6,8.24,4.93,3.77,2.67,7.47,4.96,10.28,6.39,6.61,3.42,9.09,4.08,10.3,4.35,2.26.52,5.51-1.63,6.14-2.04.19-.08.28-.22.22-.36l-.19-.47ZM88.79,219.72c-.91-.47-1.98-1.24-3.22-2.4-2.01-1.96-4.41-5.95-4.41-11.49,0-3.44.85-7.52,3.58-10.25,2.31-2.31,4.71-2.7,6.61-2.7,3.03,0,5.12,1.13,7.66,3.53,2.18,2.07,3.55,6.14,3.55,11.1,0,3.53-2.23,13.06-10.58,13.06h-.14c-.69-.03-1.71-.14-3.06-.85Z"/><path class="cls-1" d="M125.84,221.03c-2.81-1.12-4.26-2.93-4.92-5.54-.5-1.86-.66-4.63-.66-10.04v-9.84c0-1.45-.29-2.11-1.57-2.11h-1.94c-.25,0-.29-.08-.29-.37v-.91c0-.25.04-.33.37-.33.41,0,2.44.12,5.66.12s5.21-.12,5.66-.12c.33,0,.37.08.37.25v1.07c0,.21-.04.29-.33.29h-2.07c-1.2,0-1.9.79-1.98,1.69-.04.37-.08,3.27-.08,5.37v2.73c0,2.19.17,7.44.21,8.76.04,1.9.37,3.84,1.32,5.25,1.53,2.23,4.17,2.98,6.57,2.98s4.75-.79,6.2-2.28c1.61-1.73,2.15-4.21,2.15-7.27v-8.85c0-3.14-.08-5.54-.21-6.57-.12-1.07-.79-1.82-1.86-1.82h-1.82c-.25,0-.29-.12-.29-.33v-.99c0-.21.04-.29.29-.29.41,0,2.31.12,5.08.12s4.17-.12,4.55-.12.41.16.41.29v.91c0,.25-.04.41-.25.41h-1.69c-1.53,0-1.65,1.16-1.78,1.65-.08.41-.08,6.28-.08,6.86s-.08,7.81-.21,9.42c-.25,3.39-1.16,5.99-3.47,7.98-1.65,1.53-4.17,2.48-7.77,2.48-2.15,0-4.21-.29-5.58-.87Z"/><path class="cls-1" d="M160.05,203.96c0-.99-.12-8.43-.17-9.05-.08-.99-.5-1.4-2.07-1.4h-2.4c-.21,0-.33-.08-.33-.25v-1.11c0-.17.12-.25.29-.25.5,0,2.6.12,6.45.12s5-.12,5.58-.12c.2,0,.29.12.29.29v1.03c0,.21-.12.29-.33.29h-1.94c-.83,0-1.44.33-1.44,1.16,0,.41-.13,9.55-.13,10.04v3.18c0,.41.13,9.96.13,10.41,0,1.28.62,1.49,1.94,1.49h1.69c.21,0,.33.08.33.29v1.08c0,.17-.12.25-.37.25-.5,0-2.15-.12-5.74-.12-3.93,0-5.7.12-6.16.12-.21,0-.33-.08-.33-.25v-1.12c0-.16.13-.25.33-.25h2.31c.83,0,1.69-.12,1.86-1.2.08-.62.21-9.55.21-11.74v-2.89Z"/><path class="cls-1" d="M185.3,210.32c0,1.94.04,7.56.08,8.14.08.91.5,1.32,1.36,1.32h2.64c.29,0,.33.12.33.29v.99c0,.21-.04.33-.37.33-.58,0-1.86-.12-5.74-.12-3.64,0-5.25.12-5.7.12-.29,0-.33-.12-.33-.29v-1.03c0-.2.04-.29.25-.29h1.78c1.4,0,1.69-.21,1.82-1.32.04-.41.16-6.86.16-11.65v-4.75c0-2.73-.04-7.23-.08-7.65-.08-.83-.5-.91-1.61-.91h-2.35c-.21,0-.25-.08-.25-.33v-.99c0-.21.04-.29.25-.29.45,0,1.94.12,5.87.12.74,0,3.18-.12,4.54-.12,4.67,0,6.86.45,9.22,2.07,1.94,1.32,3.14,3.63,3.14,5.99,0,5.21-3.93,8.43-10.5,8.43-1.53,0-3.18-.04-4.51-.21v2.15ZM185.3,206.69c.83.25,2.19.37,3.8.37,2.52,0,4.75-1.36,5.83-2.81.91-1.2,1.08-2.73,1.08-4.18,0-5.41-5.04-6.86-7.48-6.86-.7,0-2.4,0-3.23.29v13.18Z"/><path class="cls-1" d="M217.34,205.45c.33,0,4.75-.17,5.25-.25,1.2-.21,1.53-.54,1.9-1.82.12-.41.29-1.24.33-2.03,0-.21.12-.29.29-.29l1.03.04c.2,0,.29.17.25.33-.12.7-.12,4.09-.12,4.71,0,1.45.16,3.43.25,4.3,0,.2-.08.29-.25.33l-.91.13c-.21.04-.29-.08-.33-.37-.08-.54-.33-1.49-.45-1.94-.25-.87-.7-1.49-1.78-1.61-1.94-.21-4.79-.21-5.46-.21v2.56c0,2.23.08,6.24.08,7.07.04,2.15,1.07,2.98,2.35,3.22.83.16,2.03.29,3.06.29.7,0,2.77-.04,3.64-.12.7-.08,2.52-.54,3.59-1.44.5-.41,2.81-3.39,3.39-4.34.12-.2.25-.37.5-.25l.66.37c.21.12.21.25.08.58l-2.19,6.07c-.12.37-.41.62-.91.62-.21,0-1.12-.04-3.59-.08-2.48,0-6.49-.04-12.93-.04-1.53,0-2.69.04-3.51.04-.87.04-1.4.08-1.78.08-.25,0-.37-.08-.37-.29v-1.11c0-.17.12-.21.41-.21h1.65c1.9,0,2.07-.29,2.07-1.82v-13.84c0-3.43-.08-8.6-.12-9.01-.16-1.32-.58-1.61-2.11-1.61h-1.49c-.21,0-.33-.04-.33-.29v-1.12c0-.12.08-.2.29-.2.91,0,2.35.12,5.08.12h1.82c4.09,0,8.18-.04,12.27-.04.66,0,1.45-.08,1.65-.08s.29.08.33.2l2.11,6.65c.04.16.04.29-.12.37l-.62.33c-.12.08-.29-.04-.33-.12-.08-.17-3.14-4.09-4.13-4.71-.87-.58-2.03-1.07-3.14-1.12l-7.36-.16v12.11Z"/><path class="cls-1" d="M198.56,66.43c-.18-41.19-24.07-66.43-59.14-66.43s-58.96,25.81-59.14,66.43c0,.16,0,.32,0,.49v117.31l3.08-1.77v-115.54c0-19.31,5.26-35.47,15.22-46.75,9.87-11.18,24-17.08,40.85-17.08s30.55,5.83,40.48,16.88c10.19,11.33,15.58,27.56,15.58,46.95v115.54l3.08,1.78v-117.32c0-.16,0-.33,0-.49Z"/><path class="cls-1" d="M139.42,18.86c-30.8,0-51.19,21.69-51.26,58.71v102.09l2.65-1.53v-96.82c0-1.56,0-3.91,0-4,.05-16.93,4.57-31,13.1-40.82,8.52-9.82,20.77-14.99,35.51-14.99s26.49,4.96,35.18,14.82c8.68,9.79,13.36,23.87,13.42,40.99,0,.1,0,2.44,0,4v96.82l2.65,1.53v-102.1c-.07-37.49-21.38-58.71-51.26-58.71Z"/><path class="cls-1" d="M139.42,37.74c-25.48,0-43.37,17.5-43.37,50.88v86.5l2.22-1.28v-81.97c0-1.12,0-3.9.01-4.14.1-14.56,3.88-26.54,10.97-34.88,7.18-8.47,17.54-12.89,30.17-12.89,11.87,0,22.43,4.08,29.89,12.77,7.17,8.24,11.14,20.16,11.25,35.02.01.23.02,3.01.02,4.13v81.97l2.22,1.28v-86.51c0-33.73-18.73-50.88-43.37-50.88Z"/><path class="cls-1" d="M139.42,56.6c-20.11,0-35.49,13.25-35.49,42.87v71.09l1.79-1.03v-67.6c0-.46,0-3.36.02-3.8.15-12.19,3.18-22.07,8.85-28.95,5.83-7.11,14.31-10.81,24.83-10.81,9.53,0,18.37,3.2,24.59,10.71,5.66,6.7,8.92,16.47,9.09,29.05.02.43.02,3.34.02,3.79v67.6l1.79,1.04v-71.1c0-29.86-16.12-42.87-35.49-42.87Z"/><path class="cls-1" d="M139.42,75.47c-14.74,0-27.6,8.99-27.6,34.86v55.68l1.36-.78v-53.67c0-.6,0-2.43.03-3.01.2-9.81,2.48-17.6,6.72-23.02,4.49-5.76,11.09-8.71,19.49-8.71,7.2,0,14.3,2.32,19.3,8.65,4.15,5.16,6.69,12.76,6.92,23.08.02.57.03,2.4.03,3v53.67l1.36.78v-55.69c0-25.99-13.51-34.86-27.6-34.86Z"/><path class="cls-1" d="M139.42,94.34c-9.38,0-19.71,4.73-19.71,26.85v40.27l.92-.53v-39.74c0-17.2,6.32-25.93,18.79-25.93,8.57,0,18.79,4.5,18.79,25.93v39.74l.92.54v-40.28c0-22.12-10.9-26.85-19.71-26.85Z"/></g></svg>