<?xml version="1.0" encoding="UTF-8"?>
<svg xmlns="http://www.w3.org/2000/svg" xmlns:xlink="http://www.w3.org/1999/xlink" viewBox="0 0 1920 972.99"><metadata><c2pa:manifest xmlns:c2pa="http://c2pa.org/manifest">AAAsZ2p1bWIAAAAeanVtZGMycGEAEQAQgAAAqgA4m3EDYzJwYQAAACxBanVtYgAAAEdqdW1kYzJtYQARABCAAACqADibcQN1cm46dXVpZDo2ZDQyZTA4Ny0xMjFlLTQzMDUtYmIxYS02NDZlZDQ3YzBjNTEAAAABp2p1bWIAAAApanVtZGMyYXMAEQAQgAAAqgA4m3EDYzJwYS5hc3NlcnRpb25zAAAAAMpqdW1iAAAAJmp1bWRjYm9yABEAEIAAAKoAOJtxA2MycGEuYWN0aW9ucwAAAACcY2JvcqFnYWN0aW9uc4GjZmFjdGlvbmtjMnBhLmVkaXRlZG1zb2Z0d2FyZUFnZW50bUFkb2JlIEZpcmVmbHlxZGlnaXRhbFNvdXJjZVR5cGV4Rmh0dHA6Ly9jdi5pcHRjLm9yZy9uZXdzY29kZXMvZGlnaXRhbHNvdXJjZXR5cGUvdHJhaW5lZEFsZ29yaXRobWljTWVkaWEAAACsanVtYgAAAChqdW1kY2JvcgARABCAAACqADibcQNjMnBhLmhhc2guZGF0YQAAAAB8Y2JvcqVqZXhjbHVzaW9uc4GiZXN0YXJ0GNNmbGVuZ3RoGTs0ZG5hbWVuanVtYmYgbWFuaWZlc3RjYWxnZnNoYTI1NmRoYXNoWCCN+HTWajV3E7JQvfF8IlIOcQ9kRNSQ6a90ZTm1G0cy52NwYWRJAAAAAAAAAAAAAAACC2p1bWIAAAAkanVtZGMyY2wAEQAQgAAAqgA4m3EDYzJwYS5jbGFpbQAAAAHfY2JvcqhoZGM6dGl0bGVvR2VuZXJhdGVkIEltYWdlaWRjOmZvcm1hdG1pbWFnZS9zdmcreG1samluc3RhbmNlSUR4LHhtcDppaWQ6YTU4MjMyNzMtOGM0NC00ZDBmLWI1MWEtMjBlZGJlMDk3M2M2b2NsYWltX2dlbmVyYXRvcng2QWRvYmVfSWxsdXN0cmF0b3IvMjguMCBhZG9iZV9jMnBhLzAuNy42IGMycGEtcnMvMC4yNS4ydGNsYWltX2dlbmVyYXRvcl9pbmZvgb9kbmFtZXFBZG9iZSBJbGx1c3RyYXRvcmd2ZXJzaW9uZDI4LjD/aXNpZ25hdHVyZXgZc2VsZiNqdW1iZj1jMnBhLnNpZ25hdHVyZWphc3NlcnRpb25zgqJjdXJseCdzZWxmI2p1bWJmPWMycGEuYXNzZXJ0aW9ucy9jMnBhLmFjdGlvbnNkaGFzaFgg66xm4WqDn3xgnOk59f7WI0GCp10rxJISEEb0ImTQK8GiY3VybHgpc2VsZiNqdW1iZj1jMnBhLmFzc2VydGlvbnMvYzJwYS5oYXNoLmRhdGFkaGFzaFggXG/VgT2Pp9SKL9TAnr2Ayff8ifZgUqDl+9BNt9LaLKtjYWxnZnNoYTI1NgAAKEBqdW1iAAAAKGp1bWRjMmNzABEAEIAAAKoAOJtxA2MycGEuc2lnbmF0dXJlAAAAKBBjYm9y0oREoQE4JKNmc2lnVHN0oWl0c3RUb2tlbnOBoWN2YWxZDjcwgg4zMAMCAQAwgg4qBgkqhkiG9w0BBwKggg4bMIIOFwIBAzEPMA0GCWCGSAFlAwQCAQUAMIGDBgsqhkiG9w0BCRABBKB0BHIwcAIBAQYJYIZIAYb9bAcBMDEwDQYJYIZIAWUDBAIBBQAEIKZ/oEHFkJn//fs7XL4OSQb98kglb4T2qYwSidknzMnmAhEAiTvk3IIutOl9pJDYcCE//hgPMjAyMzEyMDUxNTQ3MzNaAgkAxoqvFJKB2TWgggu9MIIFBzCCAu+gAwIBAgIQBR6ekdcekQq75D1c7dDd2TANBgkqhkiG9w0BAQsFADBjMQswCQYDVQQGEwJVUzEXMBUGA1UEChMORGlnaUNlcnQsIEluYy4xOzA5BgNVBAMTMkRpZ2lDZXJ0IFRydXN0ZWQgRzQgUlNBNDA5NiBTSEEyNTYgVGltZVN0YW1waW5nIENBMB4XDTIzMDkwODAwMDAwMFoXDTM0MTIwNzIzNTk1OVowWDELMAkGA1UEBhMCVVMxFzAVBgNVBAoTDkRpZ2lDZXJ0LCBJbmMuMTAwLgYDVQQDEydEaWdpQ2VydCBBZG9iZSBBQVRMIFRpbWVzdGFtcCBSZXNwb25kZXIwWTATBgcqhkjOPQIBBggqhkjOPQMBBwNCAARNLK5R+QP/tefzBZdWrDYfEPE7mzrBFX7tKpSaxdLJo7cC9SHh2fwAeyefbtU66YaNQQzfOZX02N9KzQbH0/pso4IBizCCAYcwDgYDVR0PAQH/BAQDAgeAMAwGA1UdEwEB/wQCMAAwFgYDVR0lAQH/BAwwCgYIKwYBBQUHAwgwIAYDVR0gBBkwFzAIBgZngQwBBAIwCwYJYIZIAYb9bAcBMB8GA1UdIwQYMBaAFLoW2W1NhS9zKXaaL3WMaiCPnshvMB0GA1UdDgQWBBSwNapWwyGpi87TuLyLFiVXne804TBaBgNVHR8EUzBRME+gTaBLhklodHRwOi8vY3JsMy5kaWdpY2VydC5jb20vRGlnaUNlcnRUcnVzdGVkRzRSU0E0MDk2U0hBMjU2VGltZVN0YW1waW5nQ0EuY3JsMIGQBggrBgEFBQcBAQSBgzCBgDAkBggrBgEFBQcwAYYYaHR0cDovL29jc3AuZGlnaWNlcnQuY29tMFgGCCsGAQUFBzAChkxodHRwOi8vY2FjZXJ0cy5kaWdpY2VydC5jb20vRGlnaUNlcnRUcnVzdGVkRzRSU0E0MDk2U0hBMjU2VGltZVN0YW1waW5nQ0EuY3J0MA0GCSqGSIb3DQEBCwUAA4ICAQB4K4xCx4QQhFiUgskV+5bC9AvSyYG19a8lWMkjUcR5DEdi6guz0GUSYAzUfpCaKfD+b9gc6f4zK88OFOKWOq2L9yPB6RZSWuLgcFEyFIB1qYvF8XdSRBF/eDzjg4ux8knpF+tANOeQaMxW+xhlWsW9C63kE0V55K+oIDzVD1/RoftknDsZU3UEC4GW5HWL8aNwKenMva4mYo0cTmaojslksTFIYCsXis8KxVul23tGsDYTlF2cyMXOIsaSs1kiLaTyd9GYgUJ+PVNwA2E57IWzfWZEwNaR3/zaL9mVL73XZGfFGL8KPbwby0w755gAZ0TASml2ALN2Qr8PQpAzzlk3lCTBUQLZlMedqIWgN5w/GwielH6UNqRXznUocKW+hir9IPgYHHSBtixzydFH5q/l5qYGYKvxyIHtIY3AgA6Yw4Kts+AdC+MbQANTPDK1MdNocW+9dOJxSqjLr+cyU0Jd7IMKl1Mj/vcx0D/cv2eRcfwEFqzlwluenVez+HBQSZfMx6op5YZDkrWdZttvvR5avngtISdpZBdS7s0XSSW/+dS16DykZ6KRQ54Ol6aA+3husOGKQMffj9NCblKAbGEq3bLhYslskEBgQJ4yOvYIG0i3FvoScrbop2sWsFZSLSZEtnleWeF7MT4O3/NrkZHbTdIUx3iPdwjdzlnkXm5yuzCCBq4wggSWoAMCAQICEAc2N7ckVHzYR6z9KGYqXlswDQYJKoZIhvcNAQELBQAwYjELMAkGA1UEBhMCVVMxFTATBgNVBAoTDERpZ2lDZXJ0IEluYzEZMBcGA1UECxMQd3d3LmRpZ2ljZXJ0LmNvbTEhMB8GA1UEAxMYRGlnaUNlcnQgVHJ1c3RlZCBSb290IEc0MB4XDTIyMDMyMzAwMDAwMFoXDTM3MDMyMjIzNTk1OVowYzELMAkGA1UEBhMCVVMxFzAVBgNVBAoTDkRpZ2lDZXJ0LCBJbmMuMTswOQYDVQQDEzJEaWdpQ2VydCBUcnVzdGVkIEc0IFJTQTQwOTYgU0hBMjU2IFRpbWVTdGFtcGluZyBDQTCCAiIwDQYJKoZIhvcNAQEBBQADggIPADCCAgoCggIBAMaGNQZJs8E9cklRVcclA8TykTepl1Gh1tKD0Z5Mom2gsMyD+Vr2EaFEFUJfpIjzaPp985yJC3+dH54PMx9QEwsmc5Zt+FeoAn39Q7SE2hHxc7Gz7iuAhIoiGN/r2j3EF3+rGSs+QtxnjupRPfDWVtTnKC3r07G1decfBmWNlCnT2exp39mQh0YAe9tEQYncfGpXevA3eZ9drMvohGS0UvJ2R/dhgxndX7RUCyFobjchu0CsX7LeSn3O9TkSZ+8OpWNs5KbFHc02DVzV5huowWR0QKfAcsW6Th+xtVhNef7Xj3OTrCw54qVI1vCwMROpVymWJy71h6aPTnYVVSZwmCZ/oBpHIEPjQ2OAe3VuJyWQmDo4EbP29p7mO1vsgd4iFNmCKseSv6De4z6ic/rnH1pslPJSlRErWHRAKKtzQ87fSqEcazjFKfPKqpZzQmiftkaznTqj1QPgv/CiPMpC3BhIfxQ0z9JMq++bPf4OuGQq+nUoJEHtQr8FnGZJUlD0UfM2SU2LINIsVzV5K6jzRWC8I41Y99xh3pP+OcD5sjClTNfpmEpYPtMDiP6zj9NeS3YSUZPJjAw7W4oiqMEmCPkUEBIDfV8ju2TjY+Cm4T72wnSyPx4JduyrXUZ14mCjWAkBKAAOhFTuzuldyF4wEr1GnrXTdrnSDmuZDNIztM2xAgMBAAGjggFdMIIBWTASBgNVHRMBAf8ECDAGAQH/AgEAMB0GA1UdDgQWBBS6FtltTYUvcyl2mi91jGogj57IbzAfBgNVHSMEGDAWgBTs1+OC0nFdZEzfLmc/57qYrhwPTzAOBgNVHQ8BAf8EBAMCAYYwEwYDVR0lBAwwCgYIKwYBBQUHAwgwdwYIKwYBBQUHAQEEazBpMCQGCCsGAQUFBzABhhhodHRwOi8vb2NzcC5kaWdpY2VydC5jb20wQQYIKwYBBQUHMAKGNWh0dHA6Ly9jYWNlcnRzLmRpZ2ljZXJ0LmNvbS9EaWdpQ2VydFRydXN0ZWRSb290RzQuY3J0MEMGA1UdHwQ8MDowOKA2oDSGMmh0dHA6Ly9jcmwzLmRpZ2ljZXJ0LmNvbS9EaWdpQ2VydFRydXN0ZWRSb290RzQuY3JsMCAGA1UdIAQZMBcwCAYGZ4EMAQQCMAsGCWCGSAGG/WwHATANBgkqhkiG9w0BAQsFAAOCAgEAfVmOwJO2b5ipRCIBfmbW2CFC4bAYLhBNE88wU86/GPvHUF3iSyn7cIoNqilp/GnBzx0H6T5gyNgL5Vxb122H+oQgJTQxZ822EpZvxFBMYh0MCIKoFr2pVs8Vc40BIiXOlWk/R3f7cnQU1/+rT4osequFzUNf7WC2qk+RZp4snuCKrOX9jLxkJodskr2dfNBwCnzvqLx1T7pa96kQsl3p/yhUifDVinF2ZdrM8HKjI/rAJ4JErpknG6skHibBt94q6/aesXmZgaNWhqsKRcnfxI2g55j7+6adcq/Ex8HBanHZxhOACcS2n82HhyS7T6NJuXdmkfFynOlLAlKnN36TU6w7HQhJD5TNOXrd/yVjmScsPT9rp/Fmw0HNT7ZAmyEhQNC3EyTN3B14OuSereU0cZLXJmvkOHOrpgFPvT87eK1MrfvElXvtCl8zOYdBeHo46Zzh3SP9HSjTx/no8Zhf+yvYfvJGnXUsHicsJttvFXseGYs2uJPU5vIXmVnKcPA3v5gA3yAWTyf7YGcWoWa63VXAOimGsJigK+2VQbc61RWYMbRiCQ8KvYHZE/6/pNHzV9m8BPqC3jLfBInwAM1dwvnQI38AC+R2AibZ8GV2QqYphwlHK+Z/GqSFD/yYlvZVVCsfgPrA8g4r5db7qS9EFUrnEw4d2zc4GqEr9u3WfPwxggG4MIIBtAIBATB3MGMxCzAJBgNVBAYTAlVTMRcwFQYDVQQKEw5EaWdpQ2VydCwgSW5jLjE7MDkGA1UEAxMyRGlnaUNlcnQgVHJ1c3RlZCBHNCBSU0E0MDk2IFNIQTI1NiBUaW1lU3RhbXBpbmcgQ0ECEAUenpHXHpEKu+Q9XO3Q3dkwDQYJYIZIAWUDBAIBBQCggdEwGgYJKoZIhvcNAQkDMQ0GCyqGSIb3DQEJEAEEMBwGCSqGSIb3DQEJBTEPFw0yMzEyMDUxNTQ3MzNaMCsGCyqGSIb3DQEJEAIMMRwwGjAYMBYEFNkauTP+F63pgh6mE/WkOnFOPn59MC8GCSqGSIb3DQEJBDEiBCBbS4RdGym4C+C+sMuuF9UVdGsvz1OUvm2E8JkQLV4zHzA3BgsqhkiG9w0BCRACLzEoMCYwJDAiBCCC2vGUlXs2hAJFj9UnAGn+YscUVvqeC4ar+CfoUyAn2TAKBggqhkjOPQQDAgRHMEUCIQCDd5pus79M9JVXrpehhhcCtIS3UjstWOMehCb1pXviCAIgEcQ42E8/LkQ43wIgqXjbSSBYYn8kfoVcZy1KZyCiyBJneDVjaGFpboJZBjMwggYvMIIEF6ADAgECAhAbWws72rDkXfLzDZ5U0drSMA0GCSqGSIb3DQEBCwUAMHUxCzAJBgNVBAYTAlVTMSMwIQYDVQQKExpBZG9iZSBTeXN0ZW1zIEluY29ycG9yYXRlZDEdMBsGA1UECxMUQWRvYmUgVHJ1c3QgU2VydmljZXMxIjAgBgNVBAMTGUFkb2JlIFByb2R1Y3QgU2VydmljZXMgRzMwHhcNMjMwMjAxMDAwMDAwWhcNMjQwMjAxMjM1OTU5WjCBoTERMA8GA1UEAwwIY2FpLXByb2QxHDAaBgNVBAsME0NvbnRlbnQgQ3JlZGVudGlhbHMxEzARBgNVBAoMCkFkb2JlIEluYy4xETAPBgNVBAcMCFNhbiBKb3NlMRMwEQYDVQQIDApDYWxpZm9ybmlhMQswCQYDVQQGEwJVUzEkMCIGCSqGSIb3DQEJARYVZ3JwLWNhaS1vcHNAYWRvYmUuY29tMIIBIjANBgkqhkiG9w0BAQEFAAOCAQ8AMIIBCgKCAQEA79MAp32GPZZBw7MpK0xuxWJZ2BwXMrmpbg+bvVC487/hbE1ji4PDYa8/UU8SPRHgW7t1pu3+L6j7EGH8ZBKdMCGug1ZhDmYWwHkX24cm1kPw+Fr73JOJhGUfkGZk6SJ+x1+tYG7TBR5SVMZGAXLSKALfUwQBW8/XeSINlhtG7B9/W+v/FEl5yCJOBQenbQUU9cXhMEg7cDndWAaV1zQSZkVh1zSWWfOaH9rQU3rIP5DL06ziScWA2fe1ONesHL21aJpXnrPjV1GN/2QeMR/jbGYpbO5tWy9r9oUpx4i6KmXlCpJWx1Jk+GaY62QnbbiLFpuY9jz1yq+xylLgm2UlwQIDAQAFo4IBjDCCAYgwDAYDVR0TAQH/BAIwADAOBgNVHQ8BAf8EBAMCB4AwHgYDVR0lBBcwFQYJKoZIhvcvAQEMBggrBgEFBQcDBDCBjgYDVR0gBIGGMIGDMIGABgkqhkiG9y8BAgMwczBxBggrBgEFBQcCAjBlDGNZb3UgYXJlIG5vdCBwZXJtaXR0ZWQgdG8gdXNlIHRoaXMgTGljZW5zZSBDZXJ0aWZpY2F0ZSBleGNlcHQgYXMgcGVybWl0dGVkIGJ5IHRoZSBsaWNlbnNlIGFncmVlbWVudC4wXQYDVR0fBFYwVDBSoFCgToZMaHR0cDovL3BraS1jcmwuc3ltYXV0aC5jb20vY2FfN2E1YzNhMGM3MzExNzQwNmFkZDE5MzEyYmMxYmMyM2YvTGF0ZXN0Q1JMLmNybDA3BggrBgEFBQcBAQQrMCkwJwYIKwYBBQUHMAGGG2h0dHA6Ly9wa2ktb2NzcC5zeW1hdXRoLmNvbTAfBgNVHSMEGDAWgBRXKXoyTcz+5DVOwB8kc85zU6vfajANBgkqhkiG9w0BAQsFAAOCAgEAV45Rmt8gCvxoo5+p/yTVPRWZu9jD+r3OXM61nvctE/hGsLkb4aQ+RHYtU515K6XvLDJIEo0xnW2PshoavM5QlkHlzdf2lqNy/V69bjcWP6FaS59Llln53ye8kfYCpf8qDH4Y8nU+LdX1x4vzIX4a1klUR6l9lN9VBRs/3tvfD9pL/r6oc6SFKNW4/o4m7aDyzDEHAjk7SoiTk4eKN1UmacEAxEQs6PdTZBfi52Y8GJenxOVEiJIP6AqKJl8Uj6aMMmw63ESfYpW7SXBEePPyxoMM7/3OzmHa6J+D5xF5tRZDmlY/kEX+zsIjU4s6J4SMy0eVX6dEBzlr/2z87woz0Hfl69EONN9lpUsUMKLLTUwD7aFQFODgsFR9xHId/HpidNP+n5Awna+zDfP+J9i0jazFL2gRGXZi6gwgZztNnWxa5qYN6U3NBakUOBi//PKY0TUjMubVPUqEJ0ghmKiLI3y/AM4DxBol10YAAWHNbl3nH+P3msm9ytjD7O4Z1k21CqRxySMMaXTd70xnWTVqc/TsX7qN3hC0JZE7wAh4KpGl4vxQGpx3uTwoZ+n69f+HDRfIKA9G7jwKYEt888Ko0Ycax/CEsD3yZ/Cas7qzGiwzJ53NfLR81IjLV+943+qF4e76AsV/0+A95xT5cVN6JtnKXC0NVneNNusdfK5UhkdZBqUwggahMIIEiaADAgECAhAMqLZUe4nm0gaJdc2Lm4niMA0GCSqGSIb3DQEBCwUAMGwxCzAJBgNVBAYTAlVTMSMwIQYDVQQKExpBZG9iZSBTeXN0ZW1zIEluY29ycG9yYXRlZDEdMBsGA1UECxMUQWRvYmUgVHJ1c3QgU2VydmljZXMxGTAXBgNVBAMTEEFkb2JlIFJvb3QgQ0EgRzIwHhcNMTYxMTI5MDAwMDAwWhcNNDExMTI4MjM1OTU5WjB1MQswCQYDVQQGEwJVUzEjMCEGA1UEChMaQWRvYmUgU3lzdGVtcyBJbmNvcnBvcmF0ZWQxHTAbBgNVBAsTFEFkb2JlIFRydXN0IFNlcnZpY2VzMSIwIAYDVQQDExlBZG9iZSBQcm9kdWN0IFNlcnZpY2VzIEczMIICIjANBgkqhkiG9w0BAQEFAAOCAg8AMIICCgKCAgEAtx8uvb0Js1xIbP4Mg65sAepReCWkgD6Jp7GyiGTa9ol2gfn5HfOV/HiYjZiOz+TuHFU+DXNad86xEqgVeGVMlvIHGe/EHcKBxvEDXdlTXB5zIEkfl0/SGn7J6vTX8MNybfSi95eQDUOZ9fjCaq+PBFjS5ZfeNmzi/yR+MsA0jKKoWarSRCFFFBpUFQWfAgLyXOyxOnXQOQudjxNj6Wu0X0IB13+IH11WcKcWEWXM4j4jh6hLy29Cd3EoVG3oxcVenMF/EMgD2tXjx4NUbTNB1/g9+MR6Nw5Mhp5k/g3atNExAxhtugC+T3SDShSEJfs2quiiRUHtX3RhOcK1s1OJgT5s2s9xGy5/uxVpcAIaK2KiDJXW3xxN8nXPmk1NSVu/mxtfapr4TvSJbhrU7UA3qhQY9n4On2sbH1X1Tw+7LTek8KCA5ZDghOERPiIp/Jt893qov1bE5rJkagcVg0Wqjh89NhCaBA8VyRt3ovlGyCKdNV2UL3bn5vdFsTk7qqmp9makz1/SuVXYxIf6L6+8RXOatXWaPkmucuLE1TPOeP7S1N5JToFCs80l2D2EtxoQXGCR48K/cTUR5zV/fQ+hdIOzoo0nFn77Y8Ydd2k7/x9BE78pmoeMnw6VXYfXCuWEgj6p7jpbLoxQMoWMCVzlg72WVNhJFlSw4aD8fc6ezeECAwEAAaOCATQwggEwMBIGA1UdEwEB/wQIMAYBAf8CAQAwNQYDVR0fBC4wLDAqoCigJoYkaHR0cDovL2NybC5hZG9iZS5jb20vYWRvYmVyb290ZzIuY3JsMA4GA1UdDwEB/wQEAwIBBjAUBgNVHSUEDTALBgkqhkiG9y8BAQcwVwYDVR0gBFAwTjBMBgkqhkiG9y8BAgMwPzA9BggrBgEFBQcCARYxaHR0cHM6Ly93d3cuYWRvYmUuY29tL21pc2MvcGtpL3Byb2Rfc3ZjZV9jcHMuaHRtbDAkBgNVHREEHTAbpBkwFzEVMBMGA1UEAxMMU1lNQy00MDk2LTMzMB0GA1UdDgQWBBRXKXoyTcz+5DVOwB8kc85zU6vfajAfBgNVHSMEGDAWgBSmHOFtVCRMqI9Icr9uqYzV5Owx1DANBgkqhkiG9w0BAQsFAAOCAgEAcc7lB4ym3C3cyOA7ZV4AkoGV65UgJK+faThdyXzxuNqlTQBlOyXBGFyevlm33BsGO1mDJfozuyLyT2+7IVxWFvW5yYMV+5S1NeChMXIZnCzWNXnuiIQSdmPD82TEVCkneQpFET4NDwSxo8/ykfw6Hx8fhuKz0wjhjkWMXmK3dNZXIuYVcbynHLyJOzA+vWU3sH2T0jPtFp7FN39GZne4YG0aVMlnHhtHhxaXVCiv2RVoR4w1QtvKHQpzfPObR53Cl74iLStGVFKPwCLYRSpYRF7J6vVS/XxW4LzvN2b6VEKOcvJmN3LhpxFRl3YYzW+dwnwtbuHW6WJlmjffbLm1MxLFGlG95aCz31X8wzqYNsvb9+5AXcv8Ll69tLXmO1OtsY/3wILNUEp4VLZTE3wqm3n8hMnClZiiKyZCS7L4E0mClbx+BRSMH3eVo6jgve41/fK3FQM4QCNIkpGs7FjjLy+ptC+JyyWqcfvORrFV/GOgB5hD+G5ghJcIpeigD/lHsCRYsOa5sFdqREhwIWLmSWtNwfLZdJ3dkCc7yRpm3gal6qRfTkYpxTNxxKyvKbkaJDoxR9vtWrC3iNrQd9VvxC3TXtuzoHbqumeqgcAqefWF9u6snQ4Q9FkXzeuJArNuSvPIhgBjVtggH0w0vm/lmCQYiC/Y12GeCxfgYlL33btjcGFkWQu8AAAAAAAAAAAAAAAAAAAAAAAAAAAAAAAAAAAAAAAAAAAAAAAAAAAAAAAAAAAAAAAAAAAAAAAAAAAAAAAAAAAAAAAAAAAAAAAAAAAAAAAAAAAAAAAAAAAAAAAAAAAAAAAAAAAAAAAAAAAAAAAAAAAAAAAAAAAAAAAAAAAAAAAAAAAAAAAAAAAAAAAAAAAAAAAAAAAAAAAAAAAAAAAAAAAAAAAAAAAAAAAAAAAAAAAAAAAAAAAAAAAAAAAAAAAAAAAAAAAAAAAAAAAAAAAAAAAAAAAAAAAAAAAAAAAAAAAAAAAAAAAAAAAAAAAAAAAAAAAAAAAAAAAAAAAAAAAAAAAAAAAAAAAAAAAAAAAAAAAAAAAAAAAAAAAAAAAAAAAAAAAAAAAAAAAAAAAAAAAAAAAAAAAAAAAAAAAAAAAAAAAAAAAAAAAAAAAAAAAAAAAAAAAAAAAAAAAAAAAAAAAAAAAAAAAAAAAAAAAAAAAAAAAAAAAAAAAAAAAAAAAAAAAAAAAAAAAAAAAAAAAAAAAAAAAAAAAAAAAAAAAAAAAAAAAAAAAAAAAAAAAAAAAAAAAAAAAAAAAAAAAAAAAAAAAAAAAAAAAAAAAAAAAAAAAAAAAAAAAAAAAAAAAAAAAAAAAAAAAAAAAAAAAAAAAAAAAAAAAAAAAAAAAAAAAAAAAAAAAAAAAAAAAAAAAAAAAAAAAAAAAAAAAAAAAAAAAAAAAAAAAAAAAAAAAAAAAAAAAAAAAAAAAAAAAAAAAAAAAAAAAAAAAAAAAAAAAAAAAAAAAAAAAAAAAAAAAAAAAAAAAAAAAAAAAAAAAAAAAAAAAAAAAAAAAAAAAAAAAAAAAAAAAAAAAAAAAAAAAAAAAAAAAAAAAAAAAAAAAAAAAAAAAAAAAAAAAAAAAAAAAAAAAAAAAAAAAAAAAAAAAAAAAAAAAAAAAAAAAAAAAAAAAAAAAAAAAAAAAAAAAAAAAAAAAAAAAAAAAAAAAAAAAAAAAAAAAAAAAAAAAAAAAAAAAAAAAAAAAAAAAAAAAAAAAAAAAAAAAAAAAAAAAAAAAAAAAAAAAAAAAAAAAAAAAAAAAAAAAAAAAAAAAAAAAAAAAAAAAAAAAAAAAAAAAAAAAAAAAAAAAAAAAAAAAAAAAAAAAAAAAAAAAAAAAAAAAAAAAAAAAAAAAAAAAAAAAAAAAAAAAAAAAAAAAAAAAAAAAAAAAAAAAAAAAAAAAAAAAAAAAAAAAAAAAAAAAAAAAAAAAAAAAAAAAAAAAAAAAAAAAAAAAAAAAAAAAAAAAAAAAAAAAAAAAAAAAAAAAAAAAAAAAAAAAAAAAAAAAAAAAAAAAAAAAAAAAAAAAAAAAAAAAAAAAAAAAAAAAAAAAAAAAAAAAAAAAAAAAAAAAAAAAAAAAAAAAAAAAAAAAAAAAAAAAAAAAAAAAAAAAAAAAAAAAAAAAAAAAAAAAAAAAAAAAAAAAAAAAAAAAAAAAAAAAAAAAAAAAAAAAAAAAAAAAAAAAAAAAAAAAAAAAAAAAAAAAAAAAAAAAAAAAAAAAAAAAAAAAAAAAAAAAAAAAAAAAAAAAAAAAAAAAAAAAAAAAAAAAAAAAAAAAAAAAAAAAAAAAAAAAAAAAAAAAAAAAAAAAAAAAAAAAAAAAAAAAAAAAAAAAAAAAAAAAAAAAAAAAAAAAAAAAAAAAAAAAAAAAAAAAAAAAAAAAAAAAAAAAAAAAAAAAAAAAAAAAAAAAAAAAAAAAAAAAAAAAAAAAAAAAAAAAAAAAAAAAAAAAAAAAAAAAAAAAAAAAAAAAAAAAAAAAAAAAAAAAAAAAAAAAAAAAAAAAAAAAAAAAAAAAAAAAAAAAAAAAAAAAAAAAAAAAAAAAAAAAAAAAAAAAAAAAAAAAAAAAAAAAAAAAAAAAAAAAAAAAAAAAAAAAAAAAAAAAAAAAAAAAAAAAAAAAAAAAAAAAAAAAAAAAAAAAAAAAAAAAAAAAAAAAAAAAAAAAAAAAAAAAAAAAAAAAAAAAAAAAAAAAAAAAAAAAAAAAAAAAAAAAAAAAAAAAAAAAAAAAAAAAAAAAAAAAAAAAAAAAAAAAAAAAAAAAAAAAAAAAAAAAAAAAAAAAAAAAAAAAAAAAAAAAAAAAAAAAAAAAAAAAAAAAAAAAAAAAAAAAAAAAAAAAAAAAAAAAAAAAAAAAAAAAAAAAAAAAAAAAAAAAAAAAAAAAAAAAAAAAAAAAAAAAAAAAAAAAAAAAAAAAAAAAAAAAAAAAAAAAAAAAAAAAAAAAAAAAAAAAAAAAAAAAAAAAAAAAAAAAAAAAAAAAAAAAAAAAAAAAAAAAAAAAAAAAAAAAAAAAAAAAAAAAAAAAAAAAAAAAAAAAAAAAAAAAAAAAAAAAAAAAAAAAAAAAAAAAAAAAAAAAAAAAAAAAAAAAAAAAAAAAAAAAAAAAAAAAAAAAAAAAAAAAAAAAAAAAAAAAAAAAAAAAAAAAAAAAAAAAAAAAAAAAAAAAAAAAAAAAAAAAAAAAAAAAAAAAAAAAAAAAAAAAAAAAAAAAAAAAAAAAAAAAAAAAAAAAAAAAAAAAAAAAAAAAAAAAAAAAAAAAAAAAAAAAAAAAAAAAAAAAAAAAAAAAAAAAAAAAAAAAAAAAAAAAAAAAAAAAAAAAAAAAAAAAAAAAAAAAAAAAAAAAAAAAAAAAAAAAAAAAAAAAAAAAAAAAAAAAAAAAAAAAAAAAAAAAAAAAAAAAAAAAAAAAAAAAAAAAAAAAAAAAAAAAAAAAAAAAAAAAAAAAAAAAAAAAAAAAAAAAAAAAAAAAAAAAAAAAAAAAAAAAAAAAAAAAAAAAAAAAAAAAAAAAAAAAAAAAAAAAAAAAAAAAAAAAAAAAAAAAAAAAAAAAAAAAAAAAAAAAAAAAAAAAAAAAAAAAAAAAAAAAAAAAAAAAAAAAAAAAAAAAAAAAAAAAAAAAAAAAAAAAAAAAAAAAAAAAAAAAAAAAAAAAAAAAAAAAAAAAAAAAAAAAAAAAAAAAAAAAAAAAAAAAAAAAAAAAAAAAAAAAAAAAAAAAAAAAAAAAAAAAAAAAAAAAAAAAAAAAAAAAAAAAAAAAAAAAAAAAAAAAAAAAAAAAAAAAAAAAAAAAAAAAAAAAAAAAAAAAAAAAAAAAAAAAAAAAAAAAAAAAAAAAAAAAAAAAAAAAAAAAAAAAAAAAAAAAAAAAAAAAAAAAAAAAAAAAAAAAAAAAAAAAAAAAAAAAAAAAAAAAAAAAAAAAAAAAAAAAAAAAAAAAAAAAAAAAAAAAAAAAAAAAAAAAAAAAAAAAAAAAAAAAAAAAAAAAAAAAAAAAAAAAAAAAAAAAAAAAAAAAAAAAAAAAAAAAAAAAAAAAAAAAAAAAAAAAAAAAAAAAAAAAAAAAAAAAAAAAAAAAAAAAAAAAAAAAAAAAAAAAAAAAAAAAAAAAAAAAAAAAAAAAAAAAAAAAAAAAAAAAAAAAAAAAAAAAAAAAAAAAAAAAAAAAAAAAAAAAAAAAAAAAAAAAAAAAAAAAAAAAAAAAAAAAAAAAAAAAAAAAAAAAAAAAAAAAAAAAAAAAAAAAAAAAAAAAAAAAAAAAAAAAAAAAAAAAAAAAAAAAAAAAAAAAAAAAAAAAAAAAAAAAAAAAAAAAAAAAAAAAAAAAAAAAAAAAAAAAAAAAAAAAAAAAAAAAAAAAAAAAAAAAAAAAAAAAAAAAAAAAAAAAAAAAAAAAAAAAAAAAAAAAAAAAAAAAAAAAAAAAAAAAAAAAAAAAAAAAAAAAAAAAAAAAAAAAAAAAAAAAAAAAAAAAAAAAAAAAAAAAAAAAAAAAAAAAAAAAAAAAAAAAAAAAAAAAAAAAAAAAAAAAAAAAAAAAAAAAAAAAAAAAAAAAAAAAAAAAAAAAAAAAAAAAAAAAAAAAAAAAAAAAAAAAAAAAAAAAAAAAAAAAAAAAAAAAAAAAAAAAAAAAAAAAAAAAAAAAAAAAAAAAAAAAAAAAAAAAAAAAAAAAAAAAAAAAAAAAAAAAAAAAAAAAAAAAAAAAAAAAAAAAAAAAAAAAAAAAAAAAAAPZZAQDUhJa5E8SRz5djRUhi17ZdXjiVEFVlwrQOxr8A617+LC1ZN8cdAAbhHWeRAxz87NlFVZh8vtf89ZL54x890KR2r8FpAb5Qc5GJ1ONOcvAflDnnYsE1+aPAQ3LPU4ogys4CDd78IMR8AYQ7+Qa35IhJUrEc8c9ULO2m73xQ22LE/nI14yaeDfbfyTJLvBSHmtc1BaoRctdUD2G18B/hhq36yqYDdKQa0NSsTohGotP/vHwoJjYiFS99a/12nL0GKx+J+y9pu2BiIDSi6w4DUQ3auTeJ/w9rywYNJIrRVnOBjpR3M3vgbpvwq9qX9e/XXwMBrzUFkTIj6na/StXBsStA</c2pa:manifest></metadata>
  <defs>
    <style>
      .cls-1 {
        isolation: isolate;
      }

      .cls-2 {
        fill: none;
      }

      .cls-2, .cls-3, .cls-4 {
        stroke-width: 0px;
      }

      .cls-3 {
        fill: #fff;
      }

      .cls-5 {
        clip-path: url(#clippath);
      }

      .cls-4 {
        fill: #287d78;
        mix-blend-mode: color;
      }
    </style>
    <clipPath id="clippath">
      <rect class="cls-2" x="-61.75" y="-60.7" width="2020.06" height="1033.69"/>
    </clipPath>
  </defs>
  <g class="cls-1">
    <g id="Background">
      <g class="cls-5">
        <image width="4503" height="4599" transform="translate(-90.26 -535.22) scale(.46)" xlink:href="../../../TERRAVIVA/slides/AI_Image.jpg"/>
        <rect class="cls-4" x="-151.35" y="-284.95" width="2263.84" height="1582.4"/>
      </g>
    </g>
    <g id="Images">
      <g>
        <g>
          <path class="cls-3" d="m670.79,469.91c-.89-.89-2.03-1.33-3.41-1.33h-52.86c-1.38,0-2.52.44-3.41,1.33-.89.89-1.33,2.03-1.33,3.41s.44,2.52,1.33,3.41,2.03,1.33,3.41,1.33h52.86c1.38,0,2.52-.44,3.41-1.33.89-.89,1.33-2.03,1.33-3.41s-.44-2.52-1.33-3.41Zm-34.92-1.33v72.05c0,1.45.49,2.67,1.48,3.66.99.99,2.19,1.48,3.66,1.48s2.67-.49,3.66-1.48c.97-.99,1.48-2.21,1.48-3.66v-72.05h-10.28Z"/>
          <path class="cls-3" d="m731.97,536.28h-39.53v-24.71h28.37c1.52,0,2.73-.44,3.66-1.33.92-.89,1.38-2.03,1.38-3.41s-.46-2.52-1.38-3.41c-.92-.89-2.14-1.33-3.66-1.33h-28.37v-24.02h39.53c1.52,0,2.73-.43,3.66-1.28.92-.86,1.38-1.98,1.38-3.36s-.46-2.62-1.38-3.51c-.92-.89-2.14-1.33-3.66-1.33h-44.67c-1.45,0-2.67.48-3.66,1.43-.99.96-1.48,2.19-1.48,3.71v66.91c0,1.45.49,2.67,1.48,3.66.99.99,2.21,1.48,3.66,1.48h44.67c1.52,0,2.73-.44,3.66-1.33.92-.89,1.38-2.06,1.38-3.51s-.46-2.5-1.38-3.36c-.92-.86-2.14-1.28-3.66-1.28Z"/>
          <path class="cls-3" d="m792.52,480.24c-2.14-3.62-5.12-6.47-8.94-8.55-3.82-2.08-8.2-3.11-13.15-3.11h-17.79c-1.45,0-2.67.48-3.66,1.43-.99.96-1.48,2.19-1.48,3.71v66.91c0,1.45.49,2.67,1.48,3.66.99.99,2.21,1.48,3.66,1.48s2.75-.49,3.71-1.48c.96-.99,1.43-2.21,1.43-3.66v-24.61h12.65c.61,0,1.22-.02,1.81-.05h.02c3.76-.2,7.17-.99,10.25-2.42.36-.13.72-.31,1.07-.49,3.82-1.98,6.8-4.71,8.94-8.2,2.14-3.49,3.21-7.48,3.21-11.96,0-4.81-1.07-9.03-3.21-12.65Zm-8.65,19.72c-1.32,2.08-3.13,3.69-5.44,4.84-2.31,1.15-4.97,1.73-8.01,1.73h-12.65v-28.46h12.65c3.03,0,5.7.63,8.01,1.88,2.31,1.25,4.12,3,5.44,5.24,1.32,2.24,1.98,4.81,1.98,7.71,0,2.64-.66,4.99-1.98,7.07Zm13.74,37.9l-15.11-24.31-1.1-1.78-9.98,2.87.82,1.33h.02l16.95,27.33c.53.86,1.17,1.48,1.93,1.88.76.4,1.6.59,2.52.59,2.11,0,3.59-.84,4.45-2.52.86-1.68.69-3.48-.49-5.39Z"/>
          <path class="cls-3" d="m853.98,480.24c-2.14-3.62-5.12-6.47-8.94-8.55-3.82-2.08-8.2-3.11-13.15-3.11h-17.79c-1.45,0-2.67.48-3.66,1.43-.99.96-1.48,2.19-1.48,3.71v66.91c0,1.45.49,2.67,1.48,3.66.99.99,2.21,1.48,3.66,1.48s2.75-.49,3.71-1.48c.96-.99,1.43-2.21,1.43-3.66v-24.61h12.65c.61,0,1.22-.02,1.81-.05h.02c3.76-.2,7.17-.99,10.25-2.42.36-.13.72-.31,1.07-.49,3.82-1.98,6.8-4.71,8.94-8.2,2.14-3.49,3.21-7.48,3.21-11.96,0-4.81-1.07-9.03-3.21-12.65Zm-8.65,19.72c-1.32,2.08-3.13,3.69-5.44,4.84-2.31,1.15-4.97,1.73-8.01,1.73h-12.65v-28.46h12.65c3.03,0,5.7.63,8.01,1.88,2.31,1.25,4.12,3,5.44,5.24,1.32,2.24,1.98,4.81,1.98,7.71,0,2.64-.66,4.99-1.98,7.07Zm13.74,37.9l-15.11-24.31-1.1-1.78-9.98,2.87.82,1.33h.02l16.95,27.33c.53.86,1.17,1.48,1.93,1.88.76.4,1.6.59,2.52.59,2.11,0,3.59-.84,4.45-2.52.86-1.68.69-3.48-.49-5.39Z"/>
          <path class="cls-3" d="m936.02,538.55l-27.85-66.52c-.86-2.31-2.47-3.46-4.84-3.46-2.24,0-3.85,1.15-4.84,3.46l-27.77,66.32c-.79,1.78-.69,3.46.3,5.04.99,1.58,2.4,2.37,4.25,2.37.92,0,1.83-.26,2.72-.79.89-.53,1.56-1.32,2.03-2.37l5.67-13.84,3.48-8.5,14.36-35.14,14.13,35.14,3.43,8.5,5.57,13.84c.4.99,1.04,1.76,1.93,2.32.89.56,1.83.84,2.82.84,1.91,0,3.34-.74,4.3-2.22.96-1.48,1.07-3.15.35-4.99Zm-12.85-18.28h-38.73l-3.95,8.5h46.63l-3.95-8.5Z"/>
          <path class="cls-3" d="m987.51,470.7c-.76-1.42-2.12-2.13-4.1-2.13-1.19,0-2.12.21-2.82.64-.68.43-1.3,1.24-1.81,2.42l-25.35,59.7-24.86-59.7c-.86-2.04-2.44-3.06-4.74-3.06-2.04,0-3.43.72-4.15,2.17s-.63,3.29.3,5.53l28.96,66.22c.99,2.17,2.54,3.26,4.65,3.26,1.12,0,2.04-.28,2.82-.84.74-.56,1.37-1.37,1.83-2.42l29.24-67.11c.79-1.71.81-3.28.05-4.69Z"/>
          <path class="cls-3" d="m1006.95,470.01c-.96-.96-2.19-1.43-3.71-1.43s-2.67.48-3.66,1.43c-.99.96-1.48,2.19-1.48,3.71v66.91c0,1.45.49,2.67,1.48,3.66.99.99,2.21,1.48,3.66,1.48s2.75-.49,3.71-1.48c.96-.99,1.43-2.21,1.43-3.66v-66.91c0-1.52-.48-2.75-1.43-3.71Z"/>
          <path class="cls-3" d="m1086.74,470.7c-.76-1.42-2.12-2.13-4.1-2.13-1.19,0-2.12.21-2.82.64-.69.43-1.3,1.24-1.83,2.42l-25.35,59.7-24.86-59.7c-.86-2.04-2.44-3.06-4.74-3.06-2.04,0-3.43.72-4.15,2.17s-.63,3.29.3,5.53l28.96,66.22c.99,2.17,2.54,3.26,4.65,3.26,1.12,0,2.06-.28,2.82-.84.76-.56,1.37-1.37,1.83-2.42l29.26-67.11c.79-1.71.81-3.28.05-4.69Z"/>
          <path class="cls-3" d="m1135.76,538.55l-27.87-66.52c-.86-2.31-2.47-3.46-4.84-3.46-2.24,0-3.85,1.15-4.84,3.46l-27.77,66.32c-.79,1.78-.69,3.46.3,5.04.99,1.58,2.4,2.37,4.25,2.37.92,0,1.83-.26,2.72-.79.89-.53,1.56-1.32,2.03-2.37l5.67-13.84,3.48-8.5,14.36-35.14,14.15,35.14,3.43,8.5,5.57,13.84c.4.99,1.04,1.76,1.93,2.32.89.56,1.83.84,2.82.84,1.91,0,3.34-.74,4.3-2.22.96-1.48,1.07-3.15.35-4.99Zm-12.85-18.28h-38.74l-3.95,8.5h46.65l-3.95-8.5Z"/>
        </g>
        <g>
          <path class="cls-3" d="m1249.53,502.84c-.35-1.68-1.33-3.21-2.83-4.22-.12-.1-.25-.18-.38-.26l-97.95-57.97-1.38-.81c-5.68-3.36-12.34,2.49-9.75,8.55l2.24,5.27,53.57,125.73c2.17,5.12,9.24,5.62,12.12.86l1.5-2.49,22.47-37.28-10-2.08-11.5,19.06-6.13,10.18-.38.64c-.58.96-1.99.86-2.44-.16l-42.88-100.7-4.74-11.12c-.51-1.22.81-2.37,1.93-1.71l.46.26,14.02,8.3,71.49,42.3-4.07,6.77,10,2.08,2.37-3.94,1.42-2.36c.92-1.53,1.17-3.29.84-4.93Z"/>
          <path class="cls-3" d="m1310.18,538.13l-15.62-142.36c-.72-6.54-9.39-8.37-12.68-2.67l-49.6,85.59,8.29,4.89,43.27-74.67c.66-1.14,2.39-.77,2.54.54l13.61,124.02c.1.92-.72,1.66-1.63,1.48l-76.28-15.88c-.91-.18-1.37-1.2-.91-2.01l4.83-8.33-8.29-4.89-7.76,13.39c-2.34,4.02-.05,9.16,4.51,10.1l87.55,18.22c4.55.94,8.68-2.82,8.17-7.43Z"/>
        </g>
      </g>
    </g>
  </g>
</svg>