<?xml version="1.0" encoding="UTF-8"?>
<svg xmlns="http://www.w3.org/2000/svg" xmlns:xlink="http://www.w3.org/1999/xlink" viewBox="0 0 1920 972.99"><metadata><c2pa:manifest xmlns:c2pa="http://c2pa.org/manifest">AAAsZ2p1bWIAAAAeanVtZGMycGEAEQAQgAAAqgA4m3EDYzJwYQAAACxBanVtYgAAAEdqdW1kYzJtYQARABCAAACqADibcQN1cm46dXVpZDo0ODlmZjIxMS1kZjQ1LTQ5NzctYTUyOS01NWI3MWY2NTNhYWUAAAABp2p1bWIAAAApanVtZGMyYXMAEQAQgAAAqgA4m3EDYzJwYS5hc3NlcnRpb25zAAAAAMpqdW1iAAAAJmp1bWRjYm9yABEAEIAAAKoAOJtxA2MycGEuYWN0aW9ucwAAAACcY2JvcqFnYWN0aW9uc4GjZmFjdGlvbmtjMnBhLmVkaXRlZG1zb2Z0d2FyZUFnZW50bUFkb2JlIEZpcmVmbHlxZGlnaXRhbFNvdXJjZVR5cGV4Rmh0dHA6Ly9jdi5pcHRjLm9yZy9uZXdzY29kZXMvZGlnaXRhbHNvdXJjZXR5cGUvdHJhaW5lZEFsZ29yaXRobWljTWVkaWEAAACsanVtYgAAAChqdW1kY2JvcgARABCAAACqADibcQNjMnBhLmhhc2guZGF0YQAAAAB8Y2JvcqVqZXhjbHVzaW9uc4GiZXN0YXJ0GNNmbGVuZ3RoGTs0ZG5hbWVuanVtYmYgbWFuaWZlc3RjYWxnZnNoYTI1NmRoYXNoWCB014J/pO9dBSqe0pstSWvASebkeJodhwHxHYsvzSpgxWNwYWRJAAAAAAAAAAAAAAACC2p1bWIAAAAkanVtZGMyY2wAEQAQgAAAqgA4m3EDYzJwYS5jbGFpbQAAAAHfY2JvcqhoZGM6dGl0bGVvR2VuZXJhdGVkIEltYWdlaWRjOmZvcm1hdG1pbWFnZS9zdmcreG1samluc3RhbmNlSUR4LHhtcDppaWQ6OGE5NjYyOTMtOGM5Ny00ZmE2LThjZDQtOWIzOTVmOWNhMjlib2NsYWltX2dlbmVyYXRvcng2QWRvYmVfSWxsdXN0cmF0b3IvMjguMCBhZG9iZV9jMnBhLzAuNy42IGMycGEtcnMvMC4yNS4ydGNsYWltX2dlbmVyYXRvcl9pbmZvgb9kbmFtZXFBZG9iZSBJbGx1c3RyYXRvcmd2ZXJzaW9uZDI4LjD/aXNpZ25hdHVyZXgZc2VsZiNqdW1iZj1jMnBhLnNpZ25hdHVyZWphc3NlcnRpb25zgqJjdXJseCdzZWxmI2p1bWJmPWMycGEuYXNzZXJ0aW9ucy9jMnBhLmFjdGlvbnNkaGFzaFgg66xm4WqDn3xgnOk59f7WI0GCp10rxJISEEb0ImTQK8GiY3VybHgpc2VsZiNqdW1iZj1jMnBhLmFzc2VydGlvbnMvYzJwYS5oYXNoLmRhdGFkaGFzaFggjddQKyxGaShqsE69zB8fO/+wOZD3UaV7iqO5jQ7xq0xjYWxnZnNoYTI1NgAAKEBqdW1iAAAAKGp1bWRjMmNzABEAEIAAAKoAOJtxA2MycGEuc2lnbmF0dXJlAAAAKBBjYm9y0oREoQE4JKNmc2lnVHN0oWl0c3RUb2tlbnOBoWN2YWxZDjgwgg40MAMCAQAwgg4rBgkqhkiG9w0BBwKggg4cMIIOGAIBAzEPMA0GCWCGSAFlAwQCAQUAMIGDBgsqhkiG9w0BCRABBKB0BHIwcAIBAQYJYIZIAYb9bAcBMDEwDQYJYIZIAWUDBAIBBQAEIMMgd5Uj0qXI4AsO5RmzE1anDHb0u8zUIsvvYqOlTN+OAhEA2A2A5sRczRtc0QXivGGPvhgPMjAyMzEyMDUxNTQ3NTRaAgkAkxYLTFT53fCgggu9MIIFBzCCAu+gAwIBAgIQBR6ekdcekQq75D1c7dDd2TANBgkqhkiG9w0BAQsFADBjMQswCQYDVQQGEwJVUzEXMBUGA1UEChMORGlnaUNlcnQsIEluYy4xOzA5BgNVBAMTMkRpZ2lDZXJ0IFRydXN0ZWQgRzQgUlNBNDA5NiBTSEEyNTYgVGltZVN0YW1waW5nIENBMB4XDTIzMDkwODAwMDAwMFoXDTM0MTIwNzIzNTk1OVowWDELMAkGA1UEBhMCVVMxFzAVBgNVBAoTDkRpZ2lDZXJ0LCBJbmMuMTAwLgYDVQQDEydEaWdpQ2VydCBBZG9iZSBBQVRMIFRpbWVzdGFtcCBSZXNwb25kZXIwWTATBgcqhkjOPQIBBggqhkjOPQMBBwNCAARNLK5R+QP/tefzBZdWrDYfEPE7mzrBFX7tKpSaxdLJo7cC9SHh2fwAeyefbtU66YaNQQzfOZX02N9KzQbH0/pso4IBizCCAYcwDgYDVR0PAQH/BAQDAgeAMAwGA1UdEwEB/wQCMAAwFgYDVR0lAQH/BAwwCgYIKwYBBQUHAwgwIAYDVR0gBBkwFzAIBgZngQwBBAIwCwYJYIZIAYb9bAcBMB8GA1UdIwQYMBaAFLoW2W1NhS9zKXaaL3WMaiCPnshvMB0GA1UdDgQWBBSwNapWwyGpi87TuLyLFiVXne804TBaBgNVHR8EUzBRME+gTaBLhklodHRwOi8vY3JsMy5kaWdpY2VydC5jb20vRGlnaUNlcnRUcnVzdGVkRzRSU0E0MDk2U0hBMjU2VGltZVN0YW1waW5nQ0EuY3JsMIGQBggrBgEFBQcBAQSBgzCBgDAkBggrBgEFBQcwAYYYaHR0cDovL29jc3AuZGlnaWNlcnQuY29tMFgGCCsGAQUFBzAChkxodHRwOi8vY2FjZXJ0cy5kaWdpY2VydC5jb20vRGlnaUNlcnRUcnVzdGVkRzRSU0E0MDk2U0hBMjU2VGltZVN0YW1waW5nQ0EuY3J0MA0GCSqGSIb3DQEBCwUAA4ICAQB4K4xCx4QQhFiUgskV+5bC9AvSyYG19a8lWMkjUcR5DEdi6guz0GUSYAzUfpCaKfD+b9gc6f4zK88OFOKWOq2L9yPB6RZSWuLgcFEyFIB1qYvF8XdSRBF/eDzjg4ux8knpF+tANOeQaMxW+xhlWsW9C63kE0V55K+oIDzVD1/RoftknDsZU3UEC4GW5HWL8aNwKenMva4mYo0cTmaojslksTFIYCsXis8KxVul23tGsDYTlF2cyMXOIsaSs1kiLaTyd9GYgUJ+PVNwA2E57IWzfWZEwNaR3/zaL9mVL73XZGfFGL8KPbwby0w755gAZ0TASml2ALN2Qr8PQpAzzlk3lCTBUQLZlMedqIWgN5w/GwielH6UNqRXznUocKW+hir9IPgYHHSBtixzydFH5q/l5qYGYKvxyIHtIY3AgA6Yw4Kts+AdC+MbQANTPDK1MdNocW+9dOJxSqjLr+cyU0Jd7IMKl1Mj/vcx0D/cv2eRcfwEFqzlwluenVez+HBQSZfMx6op5YZDkrWdZttvvR5avngtISdpZBdS7s0XSSW/+dS16DykZ6KRQ54Ol6aA+3husOGKQMffj9NCblKAbGEq3bLhYslskEBgQJ4yOvYIG0i3FvoScrbop2sWsFZSLSZEtnleWeF7MT4O3/NrkZHbTdIUx3iPdwjdzlnkXm5yuzCCBq4wggSWoAMCAQICEAc2N7ckVHzYR6z9KGYqXlswDQYJKoZIhvcNAQELBQAwYjELMAkGA1UEBhMCVVMxFTATBgNVBAoTDERpZ2lDZXJ0IEluYzEZMBcGA1UECxMQd3d3LmRpZ2ljZXJ0LmNvbTEhMB8GA1UEAxMYRGlnaUNlcnQgVHJ1c3RlZCBSb290IEc0MB4XDTIyMDMyMzAwMDAwMFoXDTM3MDMyMjIzNTk1OVowYzELMAkGA1UEBhMCVVMxFzAVBgNVBAoTDkRpZ2lDZXJ0LCBJbmMuMTswOQYDVQQDEzJEaWdpQ2VydCBUcnVzdGVkIEc0IFJTQTQwOTYgU0hBMjU2IFRpbWVTdGFtcGluZyBDQTCCAiIwDQYJKoZIhvcNAQEBBQADggIPADCCAgoCggIBAMaGNQZJs8E9cklRVcclA8TykTepl1Gh1tKD0Z5Mom2gsMyD+Vr2EaFEFUJfpIjzaPp985yJC3+dH54PMx9QEwsmc5Zt+FeoAn39Q7SE2hHxc7Gz7iuAhIoiGN/r2j3EF3+rGSs+QtxnjupRPfDWVtTnKC3r07G1decfBmWNlCnT2exp39mQh0YAe9tEQYncfGpXevA3eZ9drMvohGS0UvJ2R/dhgxndX7RUCyFobjchu0CsX7LeSn3O9TkSZ+8OpWNs5KbFHc02DVzV5huowWR0QKfAcsW6Th+xtVhNef7Xj3OTrCw54qVI1vCwMROpVymWJy71h6aPTnYVVSZwmCZ/oBpHIEPjQ2OAe3VuJyWQmDo4EbP29p7mO1vsgd4iFNmCKseSv6De4z6ic/rnH1pslPJSlRErWHRAKKtzQ87fSqEcazjFKfPKqpZzQmiftkaznTqj1QPgv/CiPMpC3BhIfxQ0z9JMq++bPf4OuGQq+nUoJEHtQr8FnGZJUlD0UfM2SU2LINIsVzV5K6jzRWC8I41Y99xh3pP+OcD5sjClTNfpmEpYPtMDiP6zj9NeS3YSUZPJjAw7W4oiqMEmCPkUEBIDfV8ju2TjY+Cm4T72wnSyPx4JduyrXUZ14mCjWAkBKAAOhFTuzuldyF4wEr1GnrXTdrnSDmuZDNIztM2xAgMBAAGjggFdMIIBWTASBgNVHRMBAf8ECDAGAQH/AgEAMB0GA1UdDgQWBBS6FtltTYUvcyl2mi91jGogj57IbzAfBgNVHSMEGDAWgBTs1+OC0nFdZEzfLmc/57qYrhwPTzAOBgNVHQ8BAf8EBAMCAYYwEwYDVR0lBAwwCgYIKwYBBQUHAwgwdwYIKwYBBQUHAQEEazBpMCQGCCsGAQUFBzABhhhodHRwOi8vb2NzcC5kaWdpY2VydC5jb20wQQYIKwYBBQUHMAKGNWh0dHA6Ly9jYWNlcnRzLmRpZ2ljZXJ0LmNvbS9EaWdpQ2VydFRydXN0ZWRSb290RzQuY3J0MEMGA1UdHwQ8MDowOKA2oDSGMmh0dHA6Ly9jcmwzLmRpZ2ljZXJ0LmNvbS9EaWdpQ2VydFRydXN0ZWRSb290RzQuY3JsMCAGA1UdIAQZMBcwCAYGZ4EMAQQCMAsGCWCGSAGG/WwHATANBgkqhkiG9w0BAQsFAAOCAgEAfVmOwJO2b5ipRCIBfmbW2CFC4bAYLhBNE88wU86/GPvHUF3iSyn7cIoNqilp/GnBzx0H6T5gyNgL5Vxb122H+oQgJTQxZ822EpZvxFBMYh0MCIKoFr2pVs8Vc40BIiXOlWk/R3f7cnQU1/+rT4osequFzUNf7WC2qk+RZp4snuCKrOX9jLxkJodskr2dfNBwCnzvqLx1T7pa96kQsl3p/yhUifDVinF2ZdrM8HKjI/rAJ4JErpknG6skHibBt94q6/aesXmZgaNWhqsKRcnfxI2g55j7+6adcq/Ex8HBanHZxhOACcS2n82HhyS7T6NJuXdmkfFynOlLAlKnN36TU6w7HQhJD5TNOXrd/yVjmScsPT9rp/Fmw0HNT7ZAmyEhQNC3EyTN3B14OuSereU0cZLXJmvkOHOrpgFPvT87eK1MrfvElXvtCl8zOYdBeHo46Zzh3SP9HSjTx/no8Zhf+yvYfvJGnXUsHicsJttvFXseGYs2uJPU5vIXmVnKcPA3v5gA3yAWTyf7YGcWoWa63VXAOimGsJigK+2VQbc61RWYMbRiCQ8KvYHZE/6/pNHzV9m8BPqC3jLfBInwAM1dwvnQI38AC+R2AibZ8GV2QqYphwlHK+Z/GqSFD/yYlvZVVCsfgPrA8g4r5db7qS9EFUrnEw4d2zc4GqEr9u3WfPwxggG5MIIBtQIBATB3MGMxCzAJBgNVBAYTAlVTMRcwFQYDVQQKEw5EaWdpQ2VydCwgSW5jLjE7MDkGA1UEAxMyRGlnaUNlcnQgVHJ1c3RlZCBHNCBSU0E0MDk2IFNIQTI1NiBUaW1lU3RhbXBpbmcgQ0ECEAUenpHXHpEKu+Q9XO3Q3dkwDQYJYIZIAWUDBAIBBQCggdEwGgYJKoZIhvcNAQkDMQ0GCyqGSIb3DQEJEAEEMBwGCSqGSIb3DQEJBTEPFw0yMzEyMDUxNTQ3NTRaMCsGCyqGSIb3DQEJEAIMMRwwGjAYMBYEFNkauTP+F63pgh6mE/WkOnFOPn59MC8GCSqGSIb3DQEJBDEiBCCca6oRpfxqEd+/Id0CBB2N/wBe7els+bEG6xpxU1PEyzA3BgsqhkiG9w0BCRACLzEoMCYwJDAiBCCC2vGUlXs2hAJFj9UnAGn+YscUVvqeC4ar+CfoUyAn2TAKBggqhkjOPQQDAgRIMEYCIQCTt+EkNKto7nrlnduko22fCe+PpzbEmzUSMDf+K++kWgIhAMW/VZdiaN/8r0OiuaKK7GD6/XqbXWF+4bFvebtr6FH6Z3g1Y2hhaW6CWQYzMIIGLzCCBBegAwIBAgIQG1sLO9qw5F3y8w2eVNHa0jANBgkqhkiG9w0BAQsFADB1MQswCQYDVQQGEwJVUzEjMCEGA1UEChMaQWRvYmUgU3lzdGVtcyBJbmNvcnBvcmF0ZWQxHTAbBgNVBAsTFEFkb2JlIFRydXN0IFNlcnZpY2VzMSIwIAYDVQQDExlBZG9iZSBQcm9kdWN0IFNlcnZpY2VzIEczMB4XDTIzMDIwMTAwMDAwMFoXDTI0MDIwMTIzNTk1OVowgaExETAPBgNVBAMMCGNhaS1wcm9kMRwwGgYDVQQLDBNDb250ZW50IENyZWRlbnRpYWxzMRMwEQYDVQQKDApBZG9iZSBJbmMuMREwDwYDVQQHDAhTYW4gSm9zZTETMBEGA1UECAwKQ2FsaWZvcm5pYTELMAkGA1UEBhMCVVMxJDAiBgkqhkiG9w0BCQEWFWdycC1jYWktb3BzQGFkb2JlLmNvbTCCASIwDQYJKoZIhvcNAQEBBQADggEPADCCAQoCggEBAO/TAKd9hj2WQcOzKStMbsViWdgcFzK5qW4Pm71QuPO/4WxNY4uDw2GvP1FPEj0R4Fu7dabt/i+o+xBh/GQSnTAhroNWYQ5mFsB5F9uHJtZD8Pha+9yTiYRlH5BmZOkifsdfrWBu0wUeUlTGRgFy0igC31MEAVvP13kiDZYbRuwff1vr/xRJecgiTgUHp20FFPXF4TBIO3A53VgGldc0EmZFYdc0llnzmh/a0FN6yD+Qy9Os4knFgNn3tTjXrBy9tWiaV56z41dRjf9kHjEf42xmKWzubVsva/aFKceIuipl5QqSVsdSZPhmmOtkJ224ixabmPY89cqvscpS4JtlJcECAwEABaOCAYwwggGIMAwGA1UdEwEB/wQCMAAwDgYDVR0PAQH/BAQDAgeAMB4GA1UdJQQXMBUGCSqGSIb3LwEBDAYIKwYBBQUHAwQwgY4GA1UdIASBhjCBgzCBgAYJKoZIhvcvAQIDMHMwcQYIKwYBBQUHAgIwZQxjWW91IGFyZSBub3QgcGVybWl0dGVkIHRvIHVzZSB0aGlzIExpY2Vuc2UgQ2VydGlmaWNhdGUgZXhjZXB0IGFzIHBlcm1pdHRlZCBieSB0aGUgbGljZW5zZSBhZ3JlZW1lbnQuMF0GA1UdHwRWMFQwUqBQoE6GTGh0dHA6Ly9wa2ktY3JsLnN5bWF1dGguY29tL2NhXzdhNWMzYTBjNzMxMTc0MDZhZGQxOTMxMmJjMWJjMjNmL0xhdGVzdENSTC5jcmwwNwYIKwYBBQUHAQEEKzApMCcGCCsGAQUFBzABhhtodHRwOi8vcGtpLW9jc3Auc3ltYXV0aC5jb20wHwYDVR0jBBgwFoAUVyl6Mk3M/uQ1TsAfJHPOc1Or32owDQYJKoZIhvcNAQELBQADggIBAFeOUZrfIAr8aKOfqf8k1T0VmbvYw/q9zlzOtZ73LRP4RrC5G+GkPkR2LVOdeSul7ywySBKNMZ1tj7IaGrzOUJZB5c3X9pajcv1evW43Fj+hWkufS5ZZ+d8nvJH2AqX/Kgx+GPJ1Pi3V9ceL8yF+GtZJVEepfZTfVQUbP97b3w/aS/6+qHOkhSjVuP6OJu2g8swxBwI5O0qIk5OHijdVJmnBAMRELOj3U2QX4udmPBiXp8TlRIiSD+gKiiZfFI+mjDJsOtxEn2KVu0lwRHjz8saDDO/9zs5h2uifg+cRebUWQ5pWP5BF/s7CI1OLOieEjMtHlV+nRAc5a/9s/O8KM9B35evRDjTfZaVLFDCiy01MA+2hUBTg4LBUfcRyHfx6YnTT/p+QMJ2vsw3z/ifYtI2sxS9oERl2YuoMIGc7TZ1sWuamDelNzQWpFDgYv/zymNE1IzLm1T1KhCdIIZioiyN8vwDOA8QaJddGAAFhzW5d5x/j95rJvcrYw+zuGdZNtQqkcckjDGl03e9MZ1k1anP07F+6jd4QtCWRO8AIeCqRpeL8UBqcd7k8KGfp+vX/hw0XyCgPRu48CmBLfPPCqNGHGsfwhLA98mfwmrO6sxosMyedzXy0fNSIy1fveN/qheHu+gLFf9PgPecU+XFTeibZylwtDVZ3jTbrHXyuVIZHWQalMIIGoTCCBImgAwIBAgIQDKi2VHuJ5tIGiXXNi5uJ4jANBgkqhkiG9w0BAQsFADBsMQswCQYDVQQGEwJVUzEjMCEGA1UEChMaQWRvYmUgU3lzdGVtcyBJbmNvcnBvcmF0ZWQxHTAbBgNVBAsTFEFkb2JlIFRydXN0IFNlcnZpY2VzMRkwFwYDVQQDExBBZG9iZSBSb290IENBIEcyMB4XDTE2MTEyOTAwMDAwMFoXDTQxMTEyODIzNTk1OVowdTELMAkGA1UEBhMCVVMxIzAhBgNVBAoTGkFkb2JlIFN5c3RlbXMgSW5jb3Jwb3JhdGVkMR0wGwYDVQQLExRBZG9iZSBUcnVzdCBTZXJ2aWNlczEiMCAGA1UEAxMZQWRvYmUgUHJvZHVjdCBTZXJ2aWNlcyBHMzCCAiIwDQYJKoZIhvcNAQEBBQADggIPADCCAgoCggIBALcfLr29CbNcSGz+DIOubAHqUXglpIA+iaexsohk2vaJdoH5+R3zlfx4mI2Yjs/k7hxVPg1zWnfOsRKoFXhlTJbyBxnvxB3CgcbxA13ZU1wecyBJH5dP0hp+yer01/DDcm30oveXkA1DmfX4wmqvjwRY0uWX3jZs4v8kfjLANIyiqFmq0kQhRRQaVBUFnwIC8lzssTp10DkLnY8TY+lrtF9CAdd/iB9dVnCnFhFlzOI+I4eoS8tvQndxKFRt6MXFXpzBfxDIA9rV48eDVG0zQdf4PfjEejcOTIaeZP4N2rTRMQMYbboAvk90g0oUhCX7NqrookVB7V90YTnCtbNTiYE+bNrPcRsuf7sVaXACGitiogyV1t8cTfJ1z5pNTUlbv5sbX2qa+E70iW4a1O1AN6oUGPZ+Dp9rGx9V9U8Puy03pPCggOWQ4IThET4iKfybfPd6qL9WxOayZGoHFYNFqo4fPTYQmgQPFckbd6L5RsginTVdlC925+b3RbE5O6qpqfZmpM9f0rlV2MSH+i+vvEVzmrV1mj5JrnLixNUzznj+0tTeSU6BQrPNJdg9hLcaEFxgkePCv3E1Eec1f30PoXSDs6KNJxZ++2PGHXdpO/8fQRO/KZqHjJ8OlV2H1wrlhII+qe46Wy6MUDKFjAlc5YO9llTYSRZUsOGg/H3Ons3hAgMBAAGjggE0MIIBMDASBgNVHRMBAf8ECDAGAQH/AgEAMDUGA1UdHwQuMCwwKqAooCaGJGh0dHA6Ly9jcmwuYWRvYmUuY29tL2Fkb2Jlcm9vdGcyLmNybDAOBgNVHQ8BAf8EBAMCAQYwFAYDVR0lBA0wCwYJKoZIhvcvAQEHMFcGA1UdIARQME4wTAYJKoZIhvcvAQIDMD8wPQYIKwYBBQUHAgEWMWh0dHBzOi8vd3d3LmFkb2JlLmNvbS9taXNjL3BraS9wcm9kX3N2Y2VfY3BzLmh0bWwwJAYDVR0RBB0wG6QZMBcxFTATBgNVBAMTDFNZTUMtNDA5Ni0zMzAdBgNVHQ4EFgQUVyl6Mk3M/uQ1TsAfJHPOc1Or32owHwYDVR0jBBgwFoAUphzhbVQkTKiPSHK/bqmM1eTsMdQwDQYJKoZIhvcNAQELBQADggIBAHHO5QeMptwt3MjgO2VeAJKBleuVICSvn2k4Xcl88bjapU0AZTslwRhcnr5Zt9wbBjtZgyX6M7si8k9vuyFcVhb1ucmDFfuUtTXgoTFyGZws1jV57oiEEnZjw/NkxFQpJ3kKRRE+DQ8EsaPP8pH8Oh8fH4bis9MI4Y5FjF5it3TWVyLmFXG8pxy8iTswPr1lN7B9k9Iz7RaexTd/RmZ3uGBtGlTJZx4bR4cWl1Qor9kVaEeMNULbyh0Kc3zzm0edwpe+Ii0rRlRSj8Ai2EUqWEReyer1Uv18VuC87zdm+lRCjnLyZjdy4acRUZd2GM1vncJ8LW7h1uliZZo332y5tTMSxRpRveWgs99V/MM6mDbL2/fuQF3L/C5evbS15jtTrbGP98CCzVBKeFS2UxN8Kpt5/ITJwpWYoismQkuy+BNJgpW8fgUUjB93laOo4L3uNf3ytxUDOEAjSJKRrOxY4y8vqbQvicslqnH7zkaxVfxjoAeYQ/huYISXCKXooA/5R7AkWLDmubBXakRIcCFi5klrTcHy2XSd3ZAnO8kaZt4GpeqkX05GKcUzccSsrym5GiQ6MUfb7Vqwt4ja0HfVb8Qt017bs6B26rpnqoHAKnn1hfburJ0OEPRZF83riQKzbkrzyIYAY1bYIB9MNL5v5ZgkGIgv2NdhngsX4GJS9927Y3BhZFkLuwAAAAAAAAAAAAAAAAAAAAAAAAAAAAAAAAAAAAAAAAAAAAAAAAAAAAAAAAAAAAAAAAAAAAAAAAAAAAAAAAAAAAAAAAAAAAAAAAAAAAAAAAAAAAAAAAAAAAAAAAAAAAAAAAAAAAAAAAAAAAAAAAAAAAAAAAAAAAAAAAAAAAAAAAAAAAAAAAAAAAAAAAAAAAAAAAAAAAAAAAAAAAAAAAAAAAAAAAAAAAAAAAAAAAAAAAAAAAAAAAAAAAAAAAAAAAAAAAAAAAAAAAAAAAAAAAAAAAAAAAAAAAAAAAAAAAAAAAAAAAAAAAAAAAAAAAAAAAAAAAAAAAAAAAAAAAAAAAAAAAAAAAAAAAAAAAAAAAAAAAAAAAAAAAAAAAAAAAAAAAAAAAAAAAAAAAAAAAAAAAAAAAAAAAAAAAAAAAAAAAAAAAAAAAAAAAAAAAAAAAAAAAAAAAAAAAAAAAAAAAAAAAAAAAAAAAAAAAAAAAAAAAAAAAAAAAAAAAAAAAAAAAAAAAAAAAAAAAAAAAAAAAAAAAAAAAAAAAAAAAAAAAAAAAAAAAAAAAAAAAAAAAAAAAAAAAAAAAAAAAAAAAAAAAAAAAAAAAAAAAAAAAAAAAAAAAAAAAAAAAAAAAAAAAAAAAAAAAAAAAAAAAAAAAAAAAAAAAAAAAAAAAAAAAAAAAAAAAAAAAAAAAAAAAAAAAAAAAAAAAAAAAAAAAAAAAAAAAAAAAAAAAAAAAAAAAAAAAAAAAAAAAAAAAAAAAAAAAAAAAAAAAAAAAAAAAAAAAAAAAAAAAAAAAAAAAAAAAAAAAAAAAAAAAAAAAAAAAAAAAAAAAAAAAAAAAAAAAAAAAAAAAAAAAAAAAAAAAAAAAAAAAAAAAAAAAAAAAAAAAAAAAAAAAAAAAAAAAAAAAAAAAAAAAAAAAAAAAAAAAAAAAAAAAAAAAAAAAAAAAAAAAAAAAAAAAAAAAAAAAAAAAAAAAAAAAAAAAAAAAAAAAAAAAAAAAAAAAAAAAAAAAAAAAAAAAAAAAAAAAAAAAAAAAAAAAAAAAAAAAAAAAAAAAAAAAAAAAAAAAAAAAAAAAAAAAAAAAAAAAAAAAAAAAAAAAAAAAAAAAAAAAAAAAAAAAAAAAAAAAAAAAAAAAAAAAAAAAAAAAAAAAAAAAAAAAAAAAAAAAAAAAAAAAAAAAAAAAAAAAAAAAAAAAAAAAAAAAAAAAAAAAAAAAAAAAAAAAAAAAAAAAAAAAAAAAAAAAAAAAAAAAAAAAAAAAAAAAAAAAAAAAAAAAAAAAAAAAAAAAAAAAAAAAAAAAAAAAAAAAAAAAAAAAAAAAAAAAAAAAAAAAAAAAAAAAAAAAAAAAAAAAAAAAAAAAAAAAAAAAAAAAAAAAAAAAAAAAAAAAAAAAAAAAAAAAAAAAAAAAAAAAAAAAAAAAAAAAAAAAAAAAAAAAAAAAAAAAAAAAAAAAAAAAAAAAAAAAAAAAAAAAAAAAAAAAAAAAAAAAAAAAAAAAAAAAAAAAAAAAAAAAAAAAAAAAAAAAAAAAAAAAAAAAAAAAAAAAAAAAAAAAAAAAAAAAAAAAAAAAAAAAAAAAAAAAAAAAAAAAAAAAAAAAAAAAAAAAAAAAAAAAAAAAAAAAAAAAAAAAAAAAAAAAAAAAAAAAAAAAAAAAAAAAAAAAAAAAAAAAAAAAAAAAAAAAAAAAAAAAAAAAAAAAAAAAAAAAAAAAAAAAAAAAAAAAAAAAAAAAAAAAAAAAAAAAAAAAAAAAAAAAAAAAAAAAAAAAAAAAAAAAAAAAAAAAAAAAAAAAAAAAAAAAAAAAAAAAAAAAAAAAAAAAAAAAAAAAAAAAAAAAAAAAAAAAAAAAAAAAAAAAAAAAAAAAAAAAAAAAAAAAAAAAAAAAAAAAAAAAAAAAAAAAAAAAAAAAAAAAAAAAAAAAAAAAAAAAAAAAAAAAAAAAAAAAAAAAAAAAAAAAAAAAAAAAAAAAAAAAAAAAAAAAAAAAAAAAAAAAAAAAAAAAAAAAAAAAAAAAAAAAAAAAAAAAAAAAAAAAAAAAAAAAAAAAAAAAAAAAAAAAAAAAAAAAAAAAAAAAAAAAAAAAAAAAAAAAAAAAAAAAAAAAAAAAAAAAAAAAAAAAAAAAAAAAAAAAAAAAAAAAAAAAAAAAAAAAAAAAAAAAAAAAAAAAAAAAAAAAAAAAAAAAAAAAAAAAAAAAAAAAAAAAAAAAAAAAAAAAAAAAAAAAAAAAAAAAAAAAAAAAAAAAAAAAAAAAAAAAAAAAAAAAAAAAAAAAAAAAAAAAAAAAAAAAAAAAAAAAAAAAAAAAAAAAAAAAAAAAAAAAAAAAAAAAAAAAAAAAAAAAAAAAAAAAAAAAAAAAAAAAAAAAAAAAAAAAAAAAAAAAAAAAAAAAAAAAAAAAAAAAAAAAAAAAAAAAAAAAAAAAAAAAAAAAAAAAAAAAAAAAAAAAAAAAAAAAAAAAAAAAAAAAAAAAAAAAAAAAAAAAAAAAAAAAAAAAAAAAAAAAAAAAAAAAAAAAAAAAAAAAAAAAAAAAAAAAAAAAAAAAAAAAAAAAAAAAAAAAAAAAAAAAAAAAAAAAAAAAAAAAAAAAAAAAAAAAAAAAAAAAAAAAAAAAAAAAAAAAAAAAAAAAAAAAAAAAAAAAAAAAAAAAAAAAAAAAAAAAAAAAAAAAAAAAAAAAAAAAAAAAAAAAAAAAAAAAAAAAAAAAAAAAAAAAAAAAAAAAAAAAAAAAAAAAAAAAAAAAAAAAAAAAAAAAAAAAAAAAAAAAAAAAAAAAAAAAAAAAAAAAAAAAAAAAAAAAAAAAAAAAAAAAAAAAAAAAAAAAAAAAAAAAAAAAAAAAAAAAAAAAAAAAAAAAAAAAAAAAAAAAAAAAAAAAAAAAAAAAAAAAAAAAAAAAAAAAAAAAAAAAAAAAAAAAAAAAAAAAAAAAAAAAAAAAAAAAAAAAAAAAAAAAAAAAAAAAAAAAAAAAAAAAAAAAAAAAAAAAAAAAAAAAAAAAAAAAAAAAAAAAAAAAAAAAAAAAAAAAAAAAAAAAAAAAAAAAAAAAAAAAAAAAAAAAAAAAAAAAAAAAAAAAAAAAAAAAAAAAAAAAAAAAAAAAAAAAAAAAAAAAAAAAAAAAAAAAAAAAAAAAAAAAAAAAAAAAAAAAAAAAAAAAAAAAAAAAAAAAAAAAAAAAAAAAAAAAAAAAAAAAAAAAAAAAAAAAAAAAAAAAAAAAAAAAAAAAAAAAAAAAAAAAAAAAAAAAAAAAAAAAAAAAAAAAAAAAAAAAAAAAAAAAAAAAAAAAAAAAAAAAAAAAAAAAAAAAAAAAAAAAAAAAAAAAAAAAAAAAAAAAAAAAAAAAAAAAAAAAAAAAAAAAAAAAAAAAAAAAAAAAAAAAAAAAAAAAAAAAAAAAAAAAAAAAAAAAAAAAAAAAAAAAAAAAAAAAAAAAAAAAAAAAAAAAAAAAAAAAAAAAAAAAAAAAAAAAAAAAAAAAAAAAAAAAAAAAAAAAAAAAAAAAAAAAAAAAAAAAAAAAAAAAAAAAAAAAAAAAAAAAAAAAAAAAAAAAAAAAAAAAAAAAAAAAAAAAAAAAAAAAAAAAAAAAAAAAAAAAAAAAAAAAAAAAAAAAAAAAAAAAAAAAAAAAAAAAAAAAAAAAAAAAAAAAAAAAAAAAAAAAAAAAAAAAAAAAAAAAAAAAAAAAAAAAAAAAAAAAAAAAAAAAAAAAAAAAAAAAAAAAAAAAAAAAAAAAAAAAAAAAAAAAAAAAAAAAAAAAAAAAAAAAAAAAAAAAAAAAAAAAAAAAAAAAAAAAAAAAAAAAAAAAAAAAAAAAAAAAAAAAAAAAAAAAAAAAAAAAAAAAAAAAAAAAAAAAAAAAAAAAAAAAAAAAAAAAAAAAAAAAAAAAAAAAAAAAAAAAAAAAAAAAAAAAAAAAAAAAAAAAAAAAAAAAAAAAAAAAAAAAAAAAAAAAAAAAAAAAAAAAAAAAAAAAAAAAAAAAAAAAAAAAAAAAAAAAAAAAAAAAAAAAAAAAAAAAAAAAAAAAAAAAAAAAAAAAAAAAAAAPZZAQCDq0V+XtjiMXHpH00coD9uF12KyNpG/vxABzYUmv1oq/QdiFZ2ojPc+pc3Eq5BW6LsKRCdA3qPqdaA7gDTmXTACkILPy1bs2rt+RZcb4OFsTD5hZtcqpcTxkLI38oJO/OtxDT1DT0WiUtQ+H5rl1SSd4jDda67QpUSrS4Kbk3JA5ioyVbJoT/Z3WI/Y4jgtQknhAK8qrjog6Idi176A2dUA/2YuonWYiLnU8j0V91Vg/UtBoSrfKQTGuVQJUIpaVQOBAZ/ZZjPAqNT9dnQqDuwclUplKRJmcPZ2MYV31r+NyiPZzEUXsZTDBJD9FvlP/V2Lv1G2VP8XlpyE7qxwJyQ</c2pa:manifest></metadata>
  <defs>
    <style>
      .cls-1, .cls-2, .cls-3 {
        font-size: 14px;
      }

      .cls-1, .cls-4, .cls-5 {
        font-family: Poppins-ExtraLight, Poppins;
        font-weight: 200;
      }

      .cls-2 {
        font-family: Comfortaa-Regular, Comfortaa;
        font-variation-settings: 'wght' 400;
      }

      .cls-6 {
        fill: #93bebb;
      }

      .cls-6, .cls-7, .cls-8, .cls-9, .cls-10, .cls-11, .cls-12, .cls-13, .cls-14 {
        stroke-width: 0px;
      }

      .cls-7 {
        fill: #277c77;
      }

      .cls-15 {
        isolation: isolate;
      }

      .cls-9 {
        fill: none;
      }

      .cls-16 {
        clip-path: url(#clippath-1);
      }

      .cls-10 {
        fill: #fff;
      }

      .cls-11 {
        fill: #f84e58;
      }

      .cls-12 {
        fill: #5d9d99;
      }

      .cls-13 {
        fill: #c9dedd;
      }

      .cls-17 {
        clip-path: url(#clippath);
      }

      .cls-3 {
        font-family: Comfortaa-Bold, Comfortaa;
        font-variation-settings: 'wght' 700;
        font-weight: 700;
      }

      .cls-4 {
        font-size: 11px;
      }

      .cls-14 {
        fill: #287d78;
        mix-blend-mode: color;
      }

      .cls-5 {
        font-size: 72px;
      }
    </style>
    <clipPath id="clippath">
      <rect class="cls-9" x="-73.74" y="972.04" width="2020.06" height="974.3"/>
    </clipPath>
    <clipPath id="clippath-1">
      <rect class="cls-9" x="-61.75" y="-1033.69" width="2020.06" height="1033.69"/>
    </clipPath>
    <image id="image" width="4503" height="4599" xlink:href="../../../TERRAVIVA/slides/AI_Image.jpg"/>
  </defs>
  <g class="cls-15">
    <g id="Background">
      <g class="cls-17">
        <use transform="translate(1953.75 272.3) rotate(90) scale(.43)" xlink:href="#image"/>
        <rect class="cls-14" x="-21.81" y="821.94" width="1954.72" height="1366.33"/>
      </g>
      <g class="cls-16">
        <use transform="translate(-90.26 -1508.21) scale(.46)" xlink:href="#image"/>
        <rect class="cls-14" x="-151.35" y="-1257.94" width="2263.84" height="1582.4"/>
      </g>
      <rect class="cls-10" x="1254.93" y="944.97" width="746.41" height="372.85"/>
    </g>
    <g id="Images">
      <g>
        <path class="cls-7" d="m496.28,676.79c-1.06-1.06-2.41-1.59-4.06-1.59h-62.93c-1.65,0-3,.53-4.06,1.59-1.06,1.06-1.59,2.41-1.59,4.06s.53,3,1.59,4.06c1.06,1.06,2.41,1.59,4.06,1.59h62.93c1.65,0,3-.53,4.06-1.59,1.06-1.06,1.59-2.41,1.59-4.06s-.53-3-1.59-4.06Zm-41.57-1.59v85.77c0,1.73.59,3.18,1.76,4.35,1.18,1.18,2.61,1.76,4.35,1.76s3.18-.59,4.35-1.76c1.16-1.18,1.76-2.63,1.76-4.35v-85.77h-12.24Z"/>
        <path class="cls-7" d="m569.11,755.8h-47.06v-29.42h33.77c1.8,0,3.26-.53,4.35-1.59,1.1-1.06,1.65-2.41,1.65-4.06s-.55-3-1.65-4.06c-1.1-1.06-2.55-1.59-4.35-1.59h-33.77v-28.59h47.06c1.8,0,3.26-.51,4.35-1.53s1.65-2.35,1.65-4-.55-3.12-1.65-4.18c-1.1-1.06-2.55-1.59-4.35-1.59h-53.18c-1.73,0-3.18.57-4.35,1.71-1.18,1.14-1.76,2.61-1.76,4.41v79.66c0,1.73.59,3.18,1.76,4.35,1.18,1.18,2.63,1.76,4.35,1.76h53.18c1.8,0,3.26-.53,4.35-1.59,1.1-1.06,1.65-2.45,1.65-4.18s-.55-2.98-1.65-4c-1.1-1.02-2.55-1.53-4.35-1.53Z"/>
        <path class="cls-7" d="m641.2,689.08c-2.55-4.31-6.1-7.71-10.65-10.18-4.55-2.47-9.77-3.71-15.65-3.71h-21.18c-1.73,0-3.18.57-4.35,1.71-1.18,1.14-1.76,2.61-1.76,4.41v79.66c0,1.73.59,3.18,1.76,4.35,1.18,1.18,2.63,1.76,4.35,1.76s3.27-.59,4.41-1.76c1.14-1.18,1.71-2.63,1.71-4.35v-29.3h15.06c.73,0,1.45-.02,2.16-.06h.02c4.47-.24,8.53-1.18,12.2-2.88.43-.16.86-.37,1.27-.59,4.55-2.35,8.1-5.61,10.65-9.77,2.55-4.16,3.82-8.9,3.82-14.24,0-5.73-1.27-10.75-3.82-15.06Zm-10.3,23.47c-1.57,2.47-3.73,4.39-6.47,5.77-2.75,1.37-5.92,2.06-9.53,2.06h-15.06v-33.89h15.06c3.61,0,6.79.74,9.53,2.24,2.75,1.49,4.9,3.57,6.47,6.24,1.57,2.67,2.35,5.73,2.35,9.18,0,3.14-.78,5.94-2.35,8.41Zm16.35,45.12l-17.98-28.94-1.31-2.12-11.88,3.41.98,1.59h.02l20.18,32.53c.63,1.02,1.39,1.76,2.29,2.24.9.47,1.9.71,3,.71,2.51,0,4.27-1,5.29-3,1.02-2,.82-4.14-.59-6.41Z"/>
        <path class="cls-7" d="m714.37,689.08c-2.55-4.31-6.1-7.71-10.65-10.18-4.55-2.47-9.77-3.71-15.65-3.71h-21.18c-1.73,0-3.18.57-4.35,1.71-1.18,1.14-1.76,2.61-1.76,4.41v79.66c0,1.73.59,3.18,1.76,4.35,1.18,1.18,2.63,1.76,4.35,1.76s3.27-.59,4.41-1.76c1.14-1.18,1.71-2.63,1.71-4.35v-29.3h15.06c.73,0,1.45-.02,2.16-.06h.02c4.47-.24,8.53-1.18,12.2-2.88.43-.16.86-.37,1.27-.59,4.55-2.35,8.1-5.61,10.65-9.77,2.55-4.16,3.82-8.9,3.82-14.24,0-5.73-1.27-10.75-3.82-15.06Zm-10.3,23.47c-1.57,2.47-3.73,4.39-6.47,5.77-2.75,1.37-5.92,2.06-9.53,2.06h-15.06v-33.89h15.06c3.61,0,6.79.74,9.53,2.24,2.75,1.49,4.9,3.57,6.47,6.24,1.57,2.67,2.35,5.73,2.35,9.18,0,3.14-.78,5.94-2.35,8.41Zm16.35,45.12l-17.98-28.94-1.31-2.12-11.88,3.41.98,1.59h.02l20.18,32.53c.63,1.02,1.39,1.76,2.29,2.24.9.47,1.9.71,3,.71,2.51,0,4.27-1,5.29-3,1.02-2,.82-4.14-.59-6.41Z"/>
        <path class="cls-7" d="m812.03,758.5l-33.16-79.19c-1.02-2.75-2.94-4.12-5.77-4.12-2.67,0-4.59,1.37-5.77,4.12l-33.06,78.95c-.94,2.12-.82,4.12.35,6,1.18,1.88,2.86,2.82,5.06,2.82,1.1,0,2.18-.31,3.24-.94,1.06-.63,1.86-1.57,2.41-2.82l6.75-16.47,4.14-10.12,17.1-41.83,16.83,41.83,4.08,10.12,6.63,16.47c.47,1.18,1.24,2.1,2.29,2.77,1.06.67,2.18,1,3.35,1,2.27,0,3.98-.88,5.12-2.65,1.14-1.76,1.27-3.75.41-5.94Zm-15.3-21.77h-46.1l-4.71,10.12h55.52l-4.71-10.12Z"/>
        <path class="cls-7" d="m873.33,677.73c-.9-1.69-2.53-2.53-4.88-2.53-1.41,0-2.53.25-3.35.76-.8.51-1.55,1.47-2.16,2.88l-30.18,71.07-29.59-71.07c-1.02-2.43-2.9-3.65-5.65-3.65-2.43,0-4.08.86-4.94,2.59-.86,1.73-.75,3.92.35,6.59l34.47,78.83c1.18,2.59,3.02,3.88,5.53,3.88,1.33,0,2.43-.33,3.35-1,.88-.67,1.63-1.63,2.18-2.88l34.81-79.89c.94-2.04.96-3.9.06-5.59Z"/>
        <path class="cls-7" d="m896.47,676.91c-1.14-1.14-2.61-1.71-4.41-1.71s-3.18.57-4.35,1.71c-1.18,1.14-1.76,2.61-1.76,4.41v79.66c0,1.73.59,3.18,1.76,4.35,1.18,1.18,2.63,1.76,4.35,1.76s3.27-.59,4.41-1.76c1.14-1.18,1.71-2.63,1.71-4.35v-79.66c0-1.8-.57-3.27-1.71-4.41Z"/>
        <path class="cls-7" d="m991.46,677.73c-.9-1.69-2.53-2.53-4.88-2.53-1.41,0-2.53.25-3.35.76-.82.51-1.55,1.47-2.18,2.88l-30.18,71.07-29.59-71.07c-1.02-2.43-2.9-3.65-5.65-3.65-2.43,0-4.08.86-4.94,2.59-.86,1.73-.75,3.92.35,6.59l34.47,78.83c1.18,2.59,3.02,3.88,5.53,3.88,1.33,0,2.45-.33,3.35-1,.9-.67,1.63-1.63,2.18-2.88l34.83-79.89c.94-2.04.96-3.9.06-5.59Z"/>
        <path class="cls-7" d="m1049.82,758.5l-33.18-79.19c-1.02-2.75-2.94-4.12-5.77-4.12-2.67,0-4.59,1.37-5.77,4.12l-33.06,78.95c-.94,2.12-.82,4.12.35,6,1.18,1.88,2.86,2.82,5.06,2.82,1.1,0,2.18-.31,3.24-.94,1.06-.63,1.86-1.57,2.41-2.82l6.75-16.47,4.14-10.12,17.1-41.83,16.85,41.83,4.08,10.12,6.63,16.47c.47,1.18,1.24,2.1,2.29,2.77,1.06.67,2.18,1,3.35,1,2.27,0,3.98-.88,5.12-2.65,1.14-1.76,1.27-3.75.41-5.94Zm-15.3-21.77h-46.12l-4.71,10.12h55.54l-4.71-10.12Z"/>
      </g>
    </g>
    <g id="Texts">
      <g>
        <g>
          <text class="cls-1" transform="translate(1342.31 853.88)"><tspan x="0" y="0">Poppins Extralight</tspan></text>
          <text class="cls-1" transform="translate(1440.49 813.23)"><tspan x="0" y="0">abcdefghijklmnopqrstuvwxyz</tspan></text>
          <text class="cls-1" transform="translate(1440.49 831.62)"><tspan x="0" y="0">1234567890!</tspan></text>
          <text class="cls-1" transform="translate(1440.49 795.31)"><tspan x="0" y="0">ABCDEFGHIJKLMNOPQRSTUVWXYZ</tspan></text>
        </g>
        <text class="cls-5" transform="translate(1342.31 834.07)"><tspan x="0" y="0">Aa</tspan></text>
        <text class="cls-1" transform="translate(1342.31 878.76)"><tspan x="0" y="0">Geometric sans serif typefaces have been a popular design tool </tspan><tspan x="0" y="16.8">ever since these actors took to the world’s stage. Poppins is one of </tspan><tspan x="0" y="33.6">the new comers to this long tradition. </tspan></text>
      </g>
      <g>
        <g>
          <text class="cls-3" transform="translate(1345.41 677.91)"><tspan x="0" y="0">Comfortaa Bold</tspan></text>
          <text class="cls-3" transform="translate(1440.49 638.65)"><tspan x="0" y="0">abcdefghijklmnopqrstuvwxyz</tspan></text>
          <text class="cls-3" transform="translate(1440.49 657.03)"><tspan x="0" y="0">1234567890!</tspan></text>
          <text class="cls-3" transform="translate(1440.49 620.72)"><tspan x="0" y="0">ABCDEFGHIJKLMNOPQRSTUVWXYZ</tspan></text>
        </g>
        <g>
          <path class="cls-8" d="m1346.46,656.05c-1.07,0-1.84-.44-2.3-1.32-.46-.88-.51-1.74-.14-2.58l20.47-48.6c.51-1.26,1.39-1.88,2.65-1.88s2.06.63,2.58,1.88l20.54,48.67c.42.88.36,1.74-.18,2.58-.53.84-1.29,1.25-2.26,1.25-.56,0-1.06-.14-1.5-.42-.44-.28-.8-.7-1.08-1.26l-19.15-46.44h2.16l-19.29,46.44c-.23.56-.57.97-1.01,1.26-.44.28-.94.42-1.5.42Zm4.6-12.95l2.09-4.67h28.27l2.09,4.67h-32.45Z"/>
          <path class="cls-8" d="m1414.49,656.39c-3.58,0-6.78-.85-9.61-2.54-2.83-1.69-5.07-4-6.72-6.93-1.65-2.93-2.47-6.22-2.47-9.89s.85-7.03,2.54-9.96c1.69-2.92,4.01-5.23,6.93-6.93,2.92-1.69,6.22-2.54,9.89-2.54s6.95.85,9.85,2.54c2.9,1.69,5.2,4,6.89,6.93,1.69,2.93,2.56,6.24,2.61,9.96l-2.16,1.67c0,3.34-.78,6.35-2.33,9.02-1.56,2.67-3.67,4.78-6.33,6.34-2.67,1.56-5.7,2.33-9.09,2.33Zm.56-4.87c2.69,0,5.09-.63,7.2-1.88,2.11-1.25,3.78-2.98,5.01-5.19,1.23-2.2,1.84-4.67,1.84-7.41s-.61-5.27-1.84-7.45c-1.23-2.18-2.9-3.91-5.01-5.19-2.11-1.27-4.51-1.92-7.2-1.92s-5.04.64-7.17,1.92c-2.14,1.28-3.83,3.01-5.08,5.19-1.25,2.18-1.88,4.67-1.88,7.45s.63,5.21,1.88,7.41c1.26,2.2,2.95,3.94,5.08,5.19,2.14,1.25,4.53,1.88,7.17,1.88Zm16.64,4.52c-.79,0-1.44-.24-1.95-.73s-.76-1.12-.76-1.92v-11.91l1.32-5.5,4.11,1.05v16.36c0,.79-.26,1.43-.77,1.92s-1.16.73-1.95.73Z"/>
        </g>
        <text class="cls-1" transform="translate(1344.54 701.33)"><tspan x="0" y="0">Rounded geometric sans-serif type design intended for large sizes.</tspan></text>
      </g>
      <rect class="cls-7" x="107.01" y="52.86" width="596.33" height="123.65" rx="15" ry="15"/>
      <text class="cls-2" transform="translate(107 200.11)"><tspan x="0" y="0">PRIMARY COLOR</tspan></text>
      <text class="cls-2" transform="translate(732.94 200.11)"><tspan x="0" y="0">SECONDARY COLORS</tspan></text>
      <text class="cls-2" transform="translate(1713.15 200.11)"><tspan x="0" y="0">HIGHLIGHTS</tspan></text>
      <text transform="translate(108.4 259.57)"><tspan class="cls-2"><tspan x="0" y="0">TERRAVIVA GREEN #277C77</tspan></tspan><tspan class="cls-4"><tspan x="0" y="13.2">The primary color is strategically designed to </tspan></tspan><tspan class="cls-4"><tspan x="0" y="26.4">capture the essence of nature&apos;s beauty and </tspan></tspan><tspan class="cls-4"><tspan x="0" y="39.6">sustainability principles while breaking away from </tspan></tspan><tspan class="cls-4"><tspan x="0" y="52.8">traditional color schemes. With this unique brand </tspan></tspan><tspan class="cls-4"><tspan x="0" y="66">color, the brand can establish a powerful and </tspan></tspan><tspan class="cls-4"><tspan x="0" y="79.2">memorable identity that will resonate with customers </tspan></tspan><tspan class="cls-4"><tspan x="0" y="92.4">and set it apart from the competition.</tspan></tspan></text>
      <text transform="translate(732.95 259.57) scale(1.09 1)"><tspan class="cls-2"><tspan x="0" y="0">GREEN HUES</tspan></tspan><tspan class="cls-4"><tspan x="0" y="13.2">These secondary colors are used for elements or </tspan></tspan><tspan class="cls-4"><tspan x="0" y="26.4">components that are not as visually prominent </tspan></tspan><tspan class="cls-4"><tspan x="0" y="39.6">as others. These could include secondary </tspan></tspan><tspan class="cls-4"><tspan x="0" y="52.8">buttons, less important icons, or other design </tspan></tspan><tspan class="cls-4"><tspan x="0" y="66">elements that serve a supporting role rather </tspan></tspan><tspan class="cls-4"><tspan x="0" y="79.2">than being the main focus.</tspan></tspan></text>
      <text transform="translate(1524.33 259.57)"><tspan class="cls-2"><tspan x="0" y="0">CORAL RED #F84E58</tspan></tspan><tspan class="cls-4"><tspan x="0" y="13.2">The accent color is a contrasting color used </tspan></tspan><tspan class="cls-4"><tspan x="0" y="26.4">sparingly to draw attention to specific elements or to </tspan></tspan><tspan class="cls-4"><tspan x="0" y="39.6">add visual interest, creating emphasis and hierarchy </tspan></tspan><tspan class="cls-4"><tspan x="0" y="52.8">in a design.</tspan></tspan></text>
      <rect class="cls-12" x="732.95" y="52.86" width="238.96" height="123.65" rx="15" ry="15"/>
      <rect class="cls-6" x="995.38" y="52.86" width="238.96" height="123.65" rx="15" ry="15"/>
      <rect class="cls-13" x="1256.95" y="52.86" width="238.96" height="123.65" rx="15" ry="15"/>
      <rect class="cls-11" x="1524.54" y="52.86" width="288.45" height="123.65" rx="15" ry="15"/>
    </g>
  </g>
</svg>