<?xml version="1.0" encoding="UTF-8"?><svg id="Layer_2" xmlns="http://www.w3.org/2000/svg" viewBox="0 0 1376.43 786.1"><defs><style>.cls-1{fill:#112113;stroke-width:0px;}</style></defs><g id="Layer_1-2"><path class="cls-1" d="M62.46,430.91c-3.39-6.1-8.19-10.72-14.4-13.87-6.22-3.15-13.58-4.72-22.08-4.72H0v84.3h23.5c13.85,0,24.66-3.6,32.41-10.8,7.75-7.2,11.63-17.93,11.63-32.17,0-9.05-1.69-16.63-5.08-22.73ZM22.08,487.52h-11.45v-66.12h13.81c10.15,0,18.01,2.62,23.55,7.85,5.55,5.24,8.32,13.48,8.32,24.73,0,22.36-11.41,33.53-34.24,33.53h0Z"/><path class="cls-1" d="M133.53,490.47l-9.92-2.24v-67.42l9.92-2.36v-6.14h-30.46v6.14l9.92,2.36v67.42l-9.92,2.24v6.14h30.46v-6.14Z"/><path class="cls-1" d="M218.6,463.08c-1.77-2.91-4.37-5.41-7.79-7.5-3.42-2.08-7.62-4.03-12.57-5.84-4.57-1.73-8.19-3.34-10.86-4.84-2.68-1.49-4.6-3.19-5.79-5.08-1.18-1.89-1.77-4.25-1.77-7.08,0-3.7,1.34-6.67,4.01-8.91,2.68-2.24,6.65-3.36,11.92-3.36,3.7,0,7.26.43,10.68,1.3,3.42.87,6.59,1.93,9.5,3.19l3.31-9.09c-3.15-1.42-6.65-2.56-10.51-3.42-3.86-.87-8.11-1.3-12.75-1.3-5.27,0-9.94.87-13.99,2.6-4.05,1.73-7.22,4.19-9.5,7.38-2.28,3.19-3.42,7.02-3.42,11.51,0,6.53,1.83,11.69,5.49,15.47,3.66,3.78,9.07,6.97,16.23,9.56,5.12,1.81,9.11,3.52,11.98,5.14,2.87,1.61,4.9,3.36,6.08,5.25,1.18,1.89,1.77,4.21,1.77,6.97,0,4.17-1.59,7.48-4.78,9.92-3.19,2.44-7.93,3.66-14.23,3.66-4.49,0-8.84-.51-13.05-1.53-4.21-1.02-7.73-2.16-10.57-3.42v10.15c2.67,1.26,6.02,2.24,10.04,2.95,4.01.71,8.38,1.06,13.11,1.06,9.21,0,16.53-2.08,21.96-6.26,5.43-4.17,8.15-9.99,8.15-17.47,0-4.41-.89-8.07-2.66-10.98Z"/><path class="cls-1" d="M308.45,421.87c3.19.94,6.08,2.01,8.68,3.19l4.25-8.97c-6.61-3.31-14.37-4.96-23.26-4.96s-16.02,1.83-22.08,5.49c-6.06,3.66-10.65,8.74-13.75,15.23-3.11,6.49-4.66,13.99-4.66,22.49s1.44,16.49,4.31,23.02c2.87,6.53,7.18,11.57,12.93,15.11,5.74,3.54,12.91,5.31,21.49,5.31,4.64,0,8.64-.28,11.98-.83,3.34-.55,6.59-1.42,9.74-2.6v-9.21c-3.15.94-6.38,1.73-9.68,2.36-3.31.63-6.81.94-10.51.94-9.68,0-16.94-3.05-21.78-9.15-4.84-6.1-7.26-14.38-7.26-24.85s2.6-18.85,7.79-24.91c5.19-6.06,12.32-9.09,21.37-9.09,3.78,0,7.26.47,10.45,1.42Z"/><path class="cls-1" d="M426.87,431.5c-2.95-6.49-7.3-11.53-13.05-15.11-5.75-3.58-12.83-5.37-21.25-5.37s-16.12,1.81-21.9,5.43c-5.79,3.62-10.09,8.66-12.93,15.11-2.83,6.45-4.25,14.01-4.25,22.67s1.42,16.37,4.25,22.9c2.83,6.53,7.14,11.61,12.93,15.23,5.79,3.62,13.05,5.43,21.78,5.43s15.62-1.81,21.37-5.43c5.74-3.62,10.09-8.68,13.05-15.17,2.95-6.49,4.43-14.11,4.43-22.85s-1.48-16.35-4.43-22.85ZM371.49,429.37c4.53-6.02,11.55-9.03,21.07-9.03s16.49,3.01,20.9,9.03c4.41,6.02,6.61,14.34,6.61,24.97s-2.2,18.99-6.61,25.09c-4.41,6.1-11.41,9.15-21.02,9.15s-16.53-3.05-21.02-9.15c-4.49-6.1-6.73-14.46-6.73-25.09s2.26-18.95,6.79-24.97Z"/><path class="cls-1" d="M520.55,412.31l-18.89,53.84c-1.26,3.54-2.32,6.85-3.19,9.92-.87,3.07-1.58,5.98-2.13,8.74-.55-2.75-1.26-5.65-2.13-8.68-.87-3.03-1.93-6.28-3.19-9.74l-19.01-54.07h-11.1l30.11,84.3h10.63l30.11-84.3h-11.22Z"/><path class="cls-1" d="M613.94,487.28h-36.48v-30.11h34.36v-9.21h-34.36v-26.33h36.48v-9.33h-47.11v84.3h47.11v-9.33Z"/><path class="cls-1" d="M656.09,412.31v84.3h10.63v-34.83h16.77l20.43,34.83h12.4l-23.14-37.78c2.83-1.02,5.53-2.42,8.09-4.19,2.56-1.77,4.66-4.15,6.32-7.14,1.65-2.99,2.48-6.73,2.48-11.22,0-8.03-2.5-14.03-7.5-18.01-5-3.97-12.73-5.96-23.2-5.96h-23.26ZM694.11,425c3.31,2.32,4.96,6.24,4.96,11.75s-1.58,9.27-4.72,11.98c-3.15,2.72-8.15,4.07-14.99,4.07h-12.63v-31.29h12.04c6.93,0,12.04,1.16,15.35,3.48Z"/><path class="cls-1" d="M242.97,563.18c3.19.94,6.08,2.01,8.68,3.19l4.25-8.97c-6.61-3.31-14.37-4.96-23.26-4.96s-16.02,1.83-22.08,5.49c-6.06,3.66-10.65,8.74-13.75,15.23-3.11,6.49-4.66,13.99-4.66,22.49s1.44,16.49,4.31,23.02c2.87,6.53,7.18,11.57,12.93,15.11,5.74,3.54,12.91,5.31,21.49,5.31,4.64,0,8.64-.28,11.98-.83,3.34-.55,6.59-1.42,9.74-2.6v-9.21c-3.15.94-6.38,1.73-9.68,2.36-3.31.63-6.81.94-10.51.94-9.68,0-16.94-3.05-21.78-9.15-4.84-6.1-7.26-14.38-7.26-24.85s2.6-18.85,7.79-24.91c5.19-6.06,12.32-9.09,21.37-9.09,3.78,0,7.26.47,10.45,1.42Z"/><path class="cls-1" d="M294.63,553.62v84.3h10.63v-34.83h16.77l20.43,34.83h12.4l-23.14-37.78c2.83-1.02,5.53-2.42,8.09-4.19,2.56-1.77,4.66-4.15,6.32-7.14,1.65-2.99,2.48-6.73,2.48-11.22,0-8.03-2.5-14.03-7.5-18.01-5-3.97-12.73-5.96-23.2-5.96h-23.26ZM332.64,566.31c3.31,2.32,4.96,6.24,4.96,11.75s-1.58,9.27-4.72,11.98c-3.15,2.72-8.15,4.07-14.99,4.07h-12.63v-31.29h12.04c6.93,0,12.04,1.16,15.35,3.48Z"/><path class="cls-1" d="M438.78,628.59h-36.48v-30.11h34.36v-9.21h-34.36v-26.33h36.48v-9.33h-47.11v84.3h47.11v-9.33Z"/><path class="cls-1" d="M544.81,637.91l-32.82-84.65h-9.56l-32.94,84.65h10.74l10.04-26.09h33.41l10.15,26.09h10.98ZM520.48,602.38h-26.68l9.56-25.5c.47-1.34,1.06-3.17,1.77-5.49.71-2.32,1.34-4.7,1.89-7.14.31.94.73,2.3,1.24,4.07.51,1.77,1.04,3.48,1.59,5.14.55,1.65.94,2.79,1.18,3.42l9.45,25.5Z"/><path class="cls-1" d="M598.41,562.94h26.21v-9.33h-63.17v9.33h26.33v74.97h10.63v-74.97Z"/><path class="cls-1" d="M708.09,628.59h-36.48v-30.11h34.36v-9.21h-34.36v-26.33h36.48v-9.33h-47.11v84.3h47.11v-9.33Z"/><path class="cls-1" d="M310.51,743.42c-1.77-2.91-4.37-5.41-7.79-7.5-3.42-2.08-7.62-4.03-12.57-5.84-4.57-1.73-8.19-3.34-10.86-4.84-2.68-1.49-4.6-3.19-5.79-5.08-1.18-1.89-1.77-4.25-1.77-7.08,0-3.7,1.34-6.67,4.01-8.91,2.67-2.24,6.65-3.36,11.92-3.36,3.7,0,7.26.43,10.68,1.3,3.42.87,6.59,1.93,9.5,3.19l3.31-9.09c-3.15-1.42-6.65-2.56-10.51-3.42-3.86-.87-8.11-1.3-12.75-1.3-5.27,0-9.94.87-13.99,2.6-4.05,1.73-7.22,4.19-9.5,7.38-2.28,3.19-3.42,7.02-3.42,11.51,0,6.53,1.83,11.69,5.49,15.47,3.66,3.78,9.07,6.97,16.23,9.56,5.12,1.81,9.11,3.52,11.98,5.14,2.87,1.61,4.9,3.36,6.08,5.25,1.18,1.89,1.77,4.21,1.77,6.97,0,4.17-1.59,7.48-4.78,9.92-3.19,2.44-7.93,3.66-14.23,3.66-4.49,0-8.84-.51-13.05-1.53-4.21-1.02-7.73-2.16-10.57-3.42v10.15c2.67,1.26,6.02,2.24,10.04,2.95,4.01.71,8.38,1.06,13.11,1.06,9.21,0,16.53-2.08,21.96-6.26,5.43-4.17,8.15-9.99,8.15-17.47,0-4.41-.89-8.07-2.66-10.98Z"/><path class="cls-1" d="M418.24,692.66h-10.63v35.66h-43.21v-35.66h-10.63v84.3h10.63v-39.32h43.21v39.32h10.63v-84.3Z"/><path class="cls-1" d="M528.75,776.95l-32.82-84.65h-9.56l-32.94,84.65h10.74l10.04-26.09h33.41l10.15,26.09h10.98ZM504.43,741.42h-26.68l9.56-25.5c.47-1.34,1.06-3.17,1.77-5.49.71-2.32,1.34-4.7,1.89-7.14.31.94.73,2.3,1.24,4.07.51,1.77,1.04,3.48,1.59,5.14.55,1.65.94,2.79,1.18,3.42l9.45,25.5Z"/><path class="cls-1" d="M563.93,692.66v84.3h10.63v-34.83h16.77l20.43,34.83h12.4l-23.14-37.78c2.83-1.02,5.53-2.42,8.09-4.19,2.56-1.77,4.66-4.15,6.32-7.14,1.65-2.99,2.48-6.73,2.48-11.22,0-8.03-2.5-14.03-7.5-18.01-5-3.97-12.73-5.96-23.2-5.96h-23.26ZM601.95,705.35c3.31,2.32,4.96,6.24,4.96,11.75s-1.58,9.27-4.72,11.98c-3.15,2.72-8.15,4.07-14.99,4.07h-12.63v-31.29h12.04c6.93,0,12.04,1.16,15.35,3.48Z"/><path class="cls-1" d="M708.09,767.63h-36.48v-30.11h34.36v-9.21h-34.36v-26.33h36.48v-9.33h-47.11v84.3h47.11v-9.33Z"/><path class="cls-1" d="M358.27,354.99c-2.71-1.18-4.07-2.96-4.07-5.34,0-4.75,5.09-8.66,15.26-11.71,9.83-2.71,18.39-6.95,25.69-12.72,7.28-5.77,13.14-13.92,17.54-24.44,17.63-40.37,33.31-77.95,47.04-112.73,13.73-34.77,28.9-75.24,45.52-121.39,4.74-12.21,7.8-23.41,9.16-33.59,9.83-2.37,17.97-5.25,24.41-8.65,4.07-2.04,7.38-5.17,9.92-9.42,2.55-4.23,4.15-6.87,4.83-7.88,2.03-1.36,3.56-1.02,4.58,1.01,1.02,1.7,1.86,3.74,2.55,6.11.67,2.37,1.18,4.41,1.52,6.11,20.35,64.81,46.96,145.89,79.85,243.27l10.17,30.03c5.42,15.61,11.86,26.47,19.33,32.58,7.45,6.11,17.11,10.35,28.99,12.73,5.09,1.01,8.9,2.54,11.44,4.58,2.54,2.04,3.81,4.41,3.81,7.12,0,3.73-4.41,5.6-13.22,5.6l-31.53-1.01c-14.58-1.03-28.99-1.53-43.22-1.53l-34.58.51c-6.79.34-15.76.51-26.95.51-4.07,0-7.38-.58-9.92-1.78-2.55-1.18-3.81-2.8-3.81-4.84,0-2.36,1.44-4.48,4.32-6.36,2.88-1.86,6.52-3.14,10.94-3.82,11.86-2.03,20.34-5.08,25.43-9.15,5.09-4.08,7.12-9.5,6.1-16.29-.34-6.11-2.12-15.35-5.34-27.74-3.22-12.38-6.35-24.51-9.41-36.39-.68-1.7-1.87-5.6-3.56-11.71-.68-2.37-1.87-3.99-3.56-4.84-1.7-.84-4.58-1.27-8.65-1.27h-94.08c-3.39,0-6.28,2.89-8.64,8.66-3.39,10.18-7.29,22.82-11.7,37.92-4.41,15.1-6.95,25.03-7.63,29.77-2.03,15.61,7.96,26.13,30.01,31.56,10.17,2.37,15.26,5.77,15.26,10.18,0,4.07-4.57,6.1-13.73,6.1-8.48,0-15.26-.17-20.34-.51l-28.99-.51c-5.09,0-11.02.18-17.8.51-6.79.34-11.87.68-15.26,1.03-9.5,1.01-18.65,1.52-27.46,1.52-4.07,0-7.47-.6-10.17-1.78ZM563.22,209.69c2.03,0,3.73-.17,5.09-.51,1.35-.33,2.03-1.01,2.03-2.04,0-.33-.34-2.19-1.01-5.59l-37.64-120.62c-1.7-5.43-3.05-8.15-4.07-8.15-.68,0-1.87,2.55-3.56,7.63l-44.25,121.14-1.01,4.07c0,1.7.84,2.8,2.54,3.3,1.69.52,4.24.77,7.63.77h74.25Z"/><path class="cls-1" d="M989.66,356.77c-12.72-5.43-23.65-14.07-32.8-25.96-13.91-17.3-25.93-33.25-36.11-47.84-10.18-14.59-22.38-33.92-36.62-58.02-4.41-8.15-10.68-14.42-18.82-18.83-8.47-4.07-19.16-6.95-32.04-8.66-4.75,0-7.12,3.4-7.12,10.18v92.12c0,11.19,2.8,20.19,8.39,26.97,5.59,6.79,14.83,11.37,27.72,13.74,5.09,1.01,8.81,2.29,11.18,3.82,2.37,1.52,3.56,3.48,3.56,5.85,0,4.07-4.41,6.11-13.22,6.11-3.39,0-14.75-.51-34.08-1.53-8.48-1.01-17.12-1.52-25.93-1.52-11.53,0-22.72.51-33.57,1.52-3.39,0-8.65.26-15.77.77-7.12.51-13.73.77-19.83.77-8.82,0-13.22-2.04-13.22-6.11,0-2.37,1.18-4.33,3.56-5.85,2.36-1.53,6.1-2.81,11.18-3.82,13.22-2.37,22.55-6.18,27.97-11.45,5.42-5.25,8.14-13.65,8.14-25.19V82.96c0-12.21-.68-21.12-2.03-26.71-1.36-5.6-4.07-9.67-8.14-12.22-4.07-2.55-10.85-4.49-20.34-5.85-5.09-.33-8.9-1.53-11.44-3.56-2.55-2.04-3.82-4.25-3.82-6.62,0-2.04,1.27-3.64,3.82-4.84,2.54-1.19,5.67-1.78,9.41-1.78,10.85,0,21.7.34,32.55,1.01l24.41.51c5.76,0,13.74-.33,23.91-1.01,12.88-1.36,25.76-2.04,38.65-2.04,38.31,0,67.46,6.96,87.47,20.87,20,13.92,30.01,34.6,30.01,62.09,0,20.7-5.93,37.75-17.8,51.15-11.87,13.41-26.44,24.01-43.74,31.81-1.01.34-1.53,1.19-1.53,2.55l1.02,4.07c20.34,30.88,37.2,55.05,50.6,72.52,13.39,17.48,29.58,34.86,48.57,52.17,8.82,8.15,17.8,13.23,26.95,15.27,9.16,2.03,21.19,3.05,36.11,3.05,5.09,0,7.63,2.37,7.63,7.12,0,7.81-4.91,13.48-14.74,17.04-9.84,3.56-21.03,5.34-33.57,5.34-18.31,0-33.82-2.71-46.54-8.14ZM901.17,163.37c12.71-13.91,19.07-31.04,19.07-51.4,0-24.08-4.92-42.49-14.75-55.22-9.83-12.73-27.64-19.08-53.4-19.08-9.5,0-15.86,3.23-19.07,9.67-3.23,6.44-5.17,19-5.85,37.66-.68,21.71-1.02,48.69-1.02,80.92,0,7.47,1.95,12.39,5.85,14.76,3.89,2.38,10.08,3.56,18.56,3.56,21.01,0,37.89-6.95,50.6-20.86Z"/><path class="cls-1" d="M1124.69,350.16c0-2.37,1.18-4.33,3.56-5.85,2.37-1.53,6.27-2.81,11.7-3.82,13.55-2.37,23.39-6.44,29.5-12.22,6.1-5.76,9.15-14.25,9.15-25.44V101.29c0-21.38-.68-35.63-2.03-42.75-1.36-7.12-3.9-11.19-7.63-12.22-5.43-1.35-15.94-2.03-31.53-2.03h-19.84c-9.16,0-18.06,2.03-26.7,6.11-8.64,4.07-15,9.49-19.07,16.28-9.49,14.26-17.29,21.38-23.39,21.38-3.39,0-5.09-2.37-5.09-7.12,0-2.71,1.02-6.44,3.05-11.2,5.42-10.51,9.32-19.92,11.7-28.25,2.37-8.3,4.24-18.07,5.59-29.26,1.02-8.14,4.4-12.22,10.18-12.22,1.69,0,4.14,2.38,7.37,7.13,3.22,4.75,5.34,7.97,6.36,9.66,2.36,3.05,7.2,5.44,14.49,7.13,7.29,1.7,14.5,2.54,21.61,2.54l183.6-.51c19.33,0,33.73-2.37,43.23-7.12,4.07-2.71,6.78-4.74,8.14-6.11.67-.33,2.29-1.44,4.83-3.3,2.54-1.86,5.5-2.81,8.9-2.81,1.35,0,2.37,1.11,3.05,3.31.67,2.21,1.01,4.67,1.01,7.38,0,2.37-.51,6.62-1.52,12.72l-3.56,15.27c-1.01,3.74-1.87,7.38-2.54,10.94-.68,3.56-1.02,7.55-1.02,11.96v7.12c0,4.41-.76,8.4-2.29,11.96-1.53,3.56-3.48,5.34-5.85,5.34-2.72,0-4.83-1.61-6.35-4.84-1.53-3.22-3.31-8.56-5.34-16.03-2.03-9.16-6.69-16.03-13.98-20.62-7.29-4.58-18.56-6.87-33.82-6.87h-42.72c-7.46,0-12.89,1.1-16.27,3.3-3.39,2.22-5.69,7.22-6.87,15.01-1.19,7.81-1.78,20.7-1.78,38.68v201.54c0,10.86,3.14,19.08,9.41,24.69,6.27,5.59,16.19,9.92,29.75,12.97,5.09,1.01,8.81,2.29,11.18,3.82,2.37,1.52,3.56,3.48,3.56,5.85,0,4.07-4.41,6.11-13.22,6.11-12.55,0-24.25-.51-35.09-1.53-13.56-.67-23.74-1.01-30.52-1.01-7.8,0-18.82.34-33.05,1.01-11.19,1.03-23.23,1.53-36.11,1.53-9.15,0-13.73-2.04-13.73-6.11Z"/><path class="cls-1" d="M757.01,778.22c-5.43-5.26-8.14-10.77-8.14-16.55,0-3.05.51-5.6,1.53-7.63l92.56-268.21c2.71-8.15,4.07-14.26,4.07-18.33s-1.01-7.8-3.05-11.19c-3.39-5.43-8.31-9.67-14.74-12.73-5.43-2.71-7.12-5.08-5.09-7.12,4.4-2.04,9.58-3.99,15.51-5.85,5.93-1.86,9.74-2.97,11.44-3.31,8.81-2.03,18.56-3.99,29.24-5.85,10.68-1.86,17.55-2.8,20.6-2.8,1.69,0,3.13.85,4.32,2.54,1.18,1.71,1.78,3.74,1.78,6.11-.34,3.4-1.87,9-4.58,16.8l-99.17,283.48c-1.36,4.07-2.03,8.14-2.03,12.22,0,5.08,1.86,7.63,5.59,7.63,5.42,0,13.14-4.49,23.14-13.49,10-8.99,18.9-18.4,26.7-28.25,4.4-5.76,7.8-8.65,10.17-8.65,1.69,0,2.71.59,3.05,1.78.34,1.19.51,2.97.51,5.34,0,9.85-5.85,21.3-17.54,34.36-11.7,13.06-25.35,24.26-40.94,33.59-15.6,9.33-28.31,13.99-38.14,13.99-5.77,0-11.37-2.63-16.78-7.88Z"/><path class="cls-1" d="M913.64,779.48c-4.75-4.4-7.12-9.15-7.12-14.25,0-3.05.67-6.11,2.03-9.16,10.51-22.04,20.25-44.28,29.25-66.67,8.98-22.39,14.31-35.62,16.02-39.69,4.4-12.55,8.47-23.07,12.2-31.56l.51-2.03c0-2.04-1.02-3.05-3.05-3.05-3.05,0-8.39,1.86-16.02,5.59-7.63,3.74-14.49,7.82-20.6,12.22-2.03,1.01-3.74,1.52-5.09,1.52-3.74,0-5.59-1.18-5.59-3.56,0-3.73,4.32-9.58,12.96-17.55,8.65-7.97,19.41-16.2,32.3-24.68,12.88-8.48,25.43-15.44,37.63-20.86,2.03-.68,3.56-1.03,4.58-1.03,5.09,0,9.66,2.38,13.73,7.12,4.07,4.76,5.42,8.83,4.07,12.22l-60.01,145.05c-2.03,4.42-3.05,8.49-3.05,12.22,0,3.4,2.2,5.09,6.61,5.09,9.49,0,27.63-13.41,54.41-40.21,1.02-1.03,1.7-1.53,2.04-1.53,1.35,0,2.45.43,3.31,1.27.84.85,1.27,1.96,1.27,3.3,0,7.48-5.77,17.4-17.29,29.78-11.53,12.38-24.84,23.33-39.92,32.82-15.09,9.5-27.89,14.25-38.4,14.25-6.45,0-12.04-2.21-16.78-6.62ZM1014.85,512.55c-4.07-4.58-6.1-9.92-6.1-16.03,0-9.49,3.22-17.81,9.66-24.94,6.44-7.12,14.41-10.69,23.9-10.69,6.1,0,11.01,2.63,14.75,7.89,3.72,5.27,5.59,11.12,5.59,17.56,0,8.82-3.31,16.54-9.92,23.15-6.61,6.62-14.33,9.93-23.14,9.93-5.77,0-10.68-2.29-14.74-6.88Z"/><path class="cls-1" d="M1045.35,778.73c-6.44-4.92-9.66-11.45-9.66-19.6s1.78-14.07,5.34-18.82c3.56-4.75,7.37-7.12,11.44-7.12,2.03,0,4.66,1.19,7.88,3.56,3.22,2.37,6.35,5.08,9.41,8.14,6.1,5.44,11.44,9.51,16.02,12.22,4.57,2.71,10.08,4.07,16.53,4.07,7.45,0,13.48-2.63,18.05-7.89,4.58-5.26,7.04-11.45,7.38-18.58,0-12.22-5.94-28.33-17.8-48.34-11.87-19.67-17.8-35.29-17.8-46.82s4.49-23.59,13.48-35.12c8.98-11.52,19.41-21.03,31.27-28.5,11.87-7.47,21.36-11.2,28.48-11.2,5.76,0,11.53,1.45,17.29,4.33,5.76,2.89,10.5,6.29,14.24,10.18,3.73,3.9,5.6,7.38,5.6,10.44,0,4.07-2.63,9.08-7.88,15.01-5.26,5.93-9.92,8.9-13.99,8.9-2.03,0-4.07-.85-6.1-2.55-2.03-1.69-3.65-3.3-4.83-4.84-1.2-1.52-2.12-2.62-2.8-3.3-6.44-7.12-13.56-10.7-21.36-10.7-5.43,0-9.83,2.04-13.22,6.11-3.39,4.08-5.09,9.16-5.09,15.27,0,7.12,6.78,22.22,20.34,45.29,6.1,9.16,10.93,18.58,14.49,28.25,3.56,9.67,5.34,18.41,5.34,26.22,0,11.53-5.01,22.99-15,34.35-10.01,11.38-22.56,20.62-37.64,27.74-15.09,7.12-29.93,10.69-44.5,10.69-10.17,0-18.48-2.46-24.92-7.37Z"/><path class="cls-1" d="M1219.03,777.96c-5.59-5.43-8.39-10.34-8.39-14.76,0-4.08.59-8.23,1.78-12.48,1.18-4.23,2.8-8.73,4.83-13.48l48.31-133.34c.33-1.01.51-2.21.51-3.56,0-3.39-2.03-5.09-6.1-5.09l-21.36-1.01c-7.12-.33-10.68-3.05-10.68-8.14,0-1.7,2.2-4.49,6.61-8.4,4.4-3.9,8.82-5.86,13.22-5.86h20.85c4.07,0,6.78-.58,8.13-1.78,1.36-1.18,3.22-3.98,5.6-8.4l12.71-26.47c2.71-5.42,7.71-11.1,15-17.04,7.29-5.93,12.79-8.9,16.53-8.9,2.71,0,4.66,1.1,5.85,3.3,1.18,2.22,1.78,4.84,1.78,7.89,0,1.7-.34,4.25-1.02,7.63l-12.71,35.63c-.34,1.01-.51,2.21-.51,3.56,0,1.7.59,2.8,1.78,3.31,1.18.51,2.96.76,5.34.76,6.78,0,14.06.6,21.87,1.78,7.79,1.19,12.54,1.96,14.24,2.29,5.76,1.03,9.41,2.13,10.94,3.31,1.53,1.19,2.29,2.97,2.29,5.34,0,1.01-.94,2.38-2.8,4.07-1.87,1.71-4.66,2.72-8.39,3.05-17.63,1.36-30.35,2.22-38.14,2.55-5.77.34-9.92,1.11-12.46,2.29-2.54,1.19-4.33,3.31-5.34,6.37l-42.72,118.07c-1.7,4.07-2.54,8.31-2.54,12.73,0,5.77,3.22,8.65,9.66,8.65,9.15,0,24.74-10.51,46.79-31.55,2.36-2.37,4.66-3.64,6.87-3.82,2.2-.17,3.31.6,3.31,2.29.33.34.51,1.19.51,2.55,0,3.05-1.53,6.96-4.58,11.71-6.1,9.15-15,18.66-26.7,28.5-11.7,9.85-23.57,18.07-35.6,24.69-12.04,6.62-21.79,9.92-29.25,9.92-5.09,0-10.42-2.71-16.02-8.14Z"/></g></svg>