<?xml version="1.0" encoding="UTF-8"?><svg id="Layer_2" xmlns="http://www.w3.org/2000/svg" viewBox="0 0 1744.64 469.94"><defs><style>.cls-1{fill:#112113;stroke-width:0px;}</style></defs><g id="Layer_1-2"><path class="cls-1" d="M313.02,435.98c-1.72-3.1-4.16-5.45-7.31-7.04-3.16-1.6-6.89-2.4-11.21-2.4h-13.19v42.81h11.93c7.03,0,12.52-1.83,16.46-5.49,3.94-3.66,5.91-9.1,5.91-16.34,0-4.6-.86-8.44-2.58-11.54ZM292.51,464.73h-5.82v-33.57h7.01c5.16,0,9.14,1.33,11.96,3.99,2.82,2.66,4.23,6.84,4.23,12.56,0,11.35-5.8,17.03-17.39,17.03h0Z"/><path class="cls-1" d="M349.11,466.23l-5.04-1.14v-34.23l5.04-1.2v-3.12h-15.47v3.12l5.04,1.2v34.23l-5.04,1.14v3.12h15.47v-3.12Z"/><path class="cls-1" d="M392.31,452.32c-.9-1.48-2.22-2.75-3.96-3.81-1.74-1.06-3.87-2.05-6.39-2.97-2.32-.88-4.16-1.7-5.52-2.46-1.36-.76-2.34-1.62-2.94-2.58-.6-.96-.9-2.16-.9-3.6,0-1.88.68-3.39,2.04-4.53,1.36-1.14,3.38-1.71,6.06-1.71,1.88,0,3.69.22,5.43.66,1.74.44,3.35.98,4.83,1.62l1.68-4.62c-1.6-.72-3.38-1.3-5.34-1.74-1.96-.44-4.12-.66-6.47-.66-2.68,0-5.05.44-7.1,1.32-2.06.88-3.67,2.13-4.83,3.75-1.16,1.62-1.74,3.57-1.74,5.85,0,3.32.93,5.94,2.79,7.85,1.86,1.92,4.61,3.54,8.24,4.86,2.6.92,4.63,1.79,6.09,2.61,1.46.82,2.49,1.71,3.09,2.67.6.96.9,2.14.9,3.54,0,2.12-.81,3.8-2.43,5.04-1.62,1.24-4.03,1.86-7.22,1.86-2.28,0-4.49-.26-6.62-.78-2.14-.52-3.93-1.1-5.37-1.74v5.16c1.36.64,3.06,1.14,5.1,1.5,2.04.36,4.26.54,6.65.54,4.68,0,8.39-1.06,11.15-3.18,2.76-2.12,4.14-5.08,4.14-8.87,0-2.24-.45-4.1-1.35-5.58Z"/><path class="cls-1" d="M437.93,431.39c1.62.48,3.09,1.02,4.41,1.62l2.16-4.56c-3.36-1.68-7.29-2.52-11.81-2.52s-8.13.93-11.21,2.79c-3.08,1.86-5.41,4.44-6.98,7.73-1.58,3.3-2.37,7.1-2.37,11.42s.73,8.37,2.19,11.69c1.46,3.32,3.65,5.88,6.56,7.67,2.92,1.8,6.55,2.7,10.91,2.7,2.36,0,4.39-.14,6.09-.42,1.7-.28,3.35-.72,4.95-1.32v-4.68c-1.6.48-3.24.88-4.92,1.2-1.68.32-3.46.48-5.34.48-4.92,0-8.6-1.55-11.06-4.65-2.46-3.1-3.69-7.3-3.69-12.62s1.32-9.57,3.96-12.65c2.64-3.08,6.25-4.62,10.85-4.62,1.92,0,3.69.24,5.31.72Z"/><path class="cls-1" d="M498.06,436.28c-1.5-3.3-3.71-5.85-6.62-7.67-2.92-1.82-6.52-2.73-10.79-2.73s-8.18.92-11.12,2.76c-2.94,1.84-5.13,4.4-6.56,7.67-1.44,3.28-2.16,7.11-2.16,11.51s.72,8.31,2.16,11.63c1.44,3.32,3.63,5.9,6.56,7.73,2.94,1.84,6.62,2.76,11.06,2.76s7.93-.92,10.85-2.76c2.92-1.84,5.13-4.41,6.62-7.7,1.5-3.3,2.25-7.16,2.25-11.6s-.75-8.3-2.25-11.6ZM469.95,435.2c2.3-3.06,5.87-4.59,10.7-4.59s8.37,1.53,10.61,4.59c2.24,3.06,3.36,7.28,3.36,12.68s-1.12,9.64-3.36,12.74c-2.24,3.1-5.8,4.65-10.67,4.65s-8.39-1.55-10.67-4.65c-2.28-3.1-3.42-7.34-3.42-12.74s1.15-9.62,3.45-12.68Z"/><path class="cls-1" d="M545.64,426.54l-9.59,27.34c-.64,1.8-1.18,3.48-1.62,5.04-.44,1.56-.8,3.04-1.08,4.44-.28-1.4-.64-2.87-1.08-4.41-.44-1.54-.98-3.19-1.62-4.95l-9.65-27.46h-5.64l15.29,42.81h5.4l15.29-42.81h-5.7Z"/><path class="cls-1" d="M593.06,464.61h-18.53v-15.29h17.45v-4.68h-17.45v-13.37h18.53v-4.74h-23.92v42.81h23.92v-4.74Z"/><path class="cls-1" d="M614.46,426.54v42.81h5.4v-17.69h8.51l10.37,17.69h6.3l-11.75-19.19c1.44-.52,2.81-1.23,4.11-2.13,1.3-.9,2.37-2.11,3.21-3.63.84-1.52,1.26-3.42,1.26-5.7,0-4.08-1.27-7.12-3.81-9.14-2.54-2.02-6.47-3.03-11.78-3.03h-11.81ZM633.77,432.98c1.68,1.18,2.52,3.17,2.52,5.97s-.8,4.71-2.4,6.09c-1.6,1.38-4.14,2.07-7.61,2.07h-6.41v-15.89h6.12c3.52,0,6.12.59,7.79,1.77Z"/><path class="cls-1" d="M788.35,431.39c1.62.48,3.09,1.02,4.41,1.62l2.16-4.56c-3.36-1.68-7.29-2.52-11.81-2.52s-8.13.93-11.21,2.79c-3.08,1.86-5.41,4.44-6.98,7.73-1.58,3.3-2.37,7.1-2.37,11.42s.73,8.37,2.19,11.69c1.46,3.32,3.65,5.88,6.56,7.67,2.92,1.8,6.55,2.7,10.91,2.7,2.36,0,4.39-.14,6.09-.42,1.7-.28,3.35-.72,4.95-1.32v-4.68c-1.6.48-3.24.88-4.92,1.2-1.68.32-3.46.48-5.34.48-4.92,0-8.6-1.55-11.06-4.65-2.46-3.1-3.69-7.3-3.69-12.62s1.32-9.57,3.96-12.65c2.64-3.08,6.25-4.62,10.85-4.62,1.92,0,3.69.24,5.31.72Z"/><path class="cls-1" d="M814.58,426.54v42.81h5.4v-17.69h8.51l10.37,17.69h6.3l-11.75-19.19c1.44-.52,2.81-1.23,4.11-2.13,1.3-.9,2.37-2.11,3.21-3.63.84-1.52,1.26-3.42,1.26-5.7,0-4.08-1.27-7.12-3.81-9.14-2.54-2.02-6.47-3.03-11.78-3.03h-11.81ZM833.89,432.98c1.68,1.18,2.52,3.17,2.52,5.97s-.8,4.71-2.4,6.09c-1.6,1.38-4.14,2.07-7.61,2.07h-6.41v-15.89h6.12c3.52,0,6.12.59,7.79,1.77Z"/><path class="cls-1" d="M887.78,464.61h-18.53v-15.29h17.45v-4.68h-17.45v-13.37h18.53v-4.74h-23.92v42.81h23.92v-4.74Z"/><path class="cls-1" d="M941.62,469.34l-16.67-42.99h-4.86l-16.73,42.99h5.46l5.1-13.25h16.97l5.16,13.25h5.58ZM929.27,451.3h-13.55l4.86-12.95c.24-.68.54-1.61.9-2.79.36-1.18.68-2.39.96-3.63.16.48.37,1.17.63,2.07.26.9.53,1.77.81,2.61.28.84.48,1.42.6,1.74l4.8,12.95Z"/><path class="cls-1" d="M968.84,431.27h13.31v-4.74h-32.07v4.74h13.37v38.07h5.4v-38.07Z"/><path class="cls-1" d="M1024.54,464.61h-18.53v-15.29h17.45v-4.68h-17.45v-13.37h18.53v-4.74h-23.92v42.81h23.92v-4.74Z"/><path class="cls-1" d="M1169.83,452.32c-.9-1.48-2.22-2.75-3.96-3.81-1.74-1.06-3.87-2.05-6.39-2.97-2.32-.88-4.16-1.7-5.52-2.46-1.36-.76-2.34-1.62-2.94-2.58-.6-.96-.9-2.16-.9-3.6,0-1.88.68-3.39,2.04-4.53,1.36-1.14,3.38-1.71,6.06-1.71,1.88,0,3.69.22,5.43.66,1.74.44,3.35.98,4.83,1.62l1.68-4.62c-1.6-.72-3.38-1.3-5.34-1.74-1.96-.44-4.12-.66-6.47-.66-2.68,0-5.05.44-7.1,1.32-2.06.88-3.67,2.13-4.83,3.75-1.16,1.62-1.74,3.57-1.74,5.85,0,3.32.93,5.94,2.79,7.85,1.86,1.92,4.61,3.54,8.24,4.86,2.6.92,4.63,1.79,6.09,2.61,1.46.82,2.49,1.71,3.09,2.67.6.96.9,2.14.9,3.54,0,2.12-.81,3.8-2.43,5.04-1.62,1.24-4.03,1.86-7.22,1.86-2.28,0-4.49-.26-6.62-.78-2.14-.52-3.93-1.1-5.37-1.74v5.16c1.36.64,3.06,1.14,5.1,1.5,2.04.36,4.26.54,6.65.54,4.68,0,8.39-1.06,11.15-3.18,2.76-2.12,4.14-5.08,4.14-8.87,0-2.24-.45-4.1-1.35-5.58Z"/><path class="cls-1" d="M1224.54,426.54h-5.4v18.11h-21.94v-18.11h-5.4v42.81h5.4v-19.96h21.94v19.96h5.4v-42.81Z"/><path class="cls-1" d="M1280.65,469.34l-16.67-42.99h-4.86l-16.73,42.99h5.46l5.1-13.25h16.97l5.16,13.25h5.58ZM1268.3,451.3h-13.55l4.86-12.95c.24-.68.54-1.61.9-2.79.36-1.18.68-2.39.96-3.63.16.48.37,1.17.63,2.07.26.9.53,1.77.81,2.61.28.84.48,1.42.6,1.74l4.8,12.95Z"/><path class="cls-1" d="M1298.52,426.54v42.81h5.4v-17.69h8.51l10.37,17.69h6.3l-11.75-19.19c1.44-.52,2.81-1.23,4.11-2.13,1.3-.9,2.37-2.11,3.21-3.63.84-1.52,1.26-3.42,1.26-5.7,0-4.08-1.27-7.12-3.81-9.14-2.54-2.02-6.47-3.03-11.78-3.03h-11.81ZM1317.82,432.98c1.68,1.18,2.52,3.17,2.52,5.97s-.8,4.71-2.4,6.09c-1.6,1.38-4.14,2.07-7.61,2.07h-6.42v-15.89h6.12c3.52,0,6.12.59,7.79,1.77Z"/><path class="cls-1" d="M1371.72,464.61h-18.53v-15.29h17.45v-4.68h-17.45v-13.37h18.53v-4.74h-23.92v42.81h23.92v-4.74Z"/><path class="cls-1" d="M4.29,380.44c-2.86-1.24-4.29-3.12-4.29-5.63,0-5.01,5.36-9.12,16.07-12.34,10.36-2.86,19.38-7.32,27.06-13.4,7.67-6.08,13.84-14.66,18.48-25.75,18.57-42.54,35.1-82.13,49.56-118.77,14.47-36.63,30.45-79.27,47.96-127.89,5-12.86,8.21-24.67,9.65-35.39,10.36-2.5,18.93-5.53,25.72-9.11,4.29-2.15,7.77-5.44,10.45-9.93,2.68-4.46,4.37-7.23,5.09-8.3,2.14-1.43,3.75-1.08,4.82,1.07,1.07,1.79,1.96,3.94,2.68,6.44.71,2.5,1.24,4.65,1.6,6.44,21.44,68.28,49.48,153.71,84.13,256.31l10.72,31.64c5.71,16.45,12.5,27.88,20.36,34.32,7.85,6.44,18.03,10.91,30.54,13.41,5.36,1.07,9.38,2.67,12.06,4.82,2.68,2.15,4.02,4.65,4.02,7.51,0,3.93-4.64,5.9-13.93,5.9l-33.22-1.07c-15.36-1.08-30.54-1.61-45.54-1.61l-36.44.53c-7.15.36-16.61.53-28.4.53-4.29,0-7.77-.61-10.45-1.88-2.68-1.24-4.02-2.95-4.02-5.09,0-2.49,1.52-4.72,4.55-6.7,3.03-1.96,6.87-3.31,11.52-4.03,12.5-2.14,21.43-5.36,26.79-9.64,5.36-4.3,7.5-10,6.43-17.16-.36-6.44-2.23-16.17-5.63-29.23-3.4-13.05-6.69-25.82-9.91-38.34-.72-1.79-1.97-5.9-3.75-12.34-.72-2.5-1.97-4.2-3.75-5.09-1.79-.88-4.82-1.34-9.11-1.34h-99.13c-3.58,0-6.61,3.04-9.11,9.12-3.58,10.72-7.69,24.04-12.32,39.95-4.65,15.91-7.33,26.37-8.04,31.36-2.14,16.45,8.39,27.54,31.61,33.25,10.72,2.5,16.07,6.08,16.07,10.72,0,4.29-4.82,6.43-14.47,6.43-8.93,0-16.07-.17-21.43-.53l-30.54-.53c-5.36,0-11.62.19-18.76.53-7.15.36-12.51.72-16.07,1.08-10.01,1.07-19.65,1.6-28.93,1.6-4.29,0-7.87-.63-10.72-1.88ZM220.23,227.35c2.14,0,3.92-.17,5.36-.53,1.42-.35,2.14-1.07,2.14-2.15,0-.35-.36-2.31-1.07-5.89l-39.65-127.08c-1.79-5.72-3.22-8.59-4.28-8.59-.72,0-1.97,2.68-3.75,8.04l-46.62,127.63-1.07,4.29c0,1.79.88,2.95,2.68,3.48,1.78.55,4.46.81,8.04.81h78.23Z"/><path class="cls-1" d="M669.52,382.32c-13.4-5.72-24.92-14.83-34.56-27.35-14.65-18.23-27.32-35.03-38.04-50.4-10.72-15.37-23.58-35.74-38.58-61.13-4.65-8.59-11.26-15.2-19.83-19.84-8.93-4.29-20.18-7.32-33.76-9.12-5,0-7.5,3.58-7.5,10.72v97.06c0,11.79,2.95,21.27,8.84,28.42,5.89,7.16,15.62,11.98,29.21,14.48,5.36,1.07,9.28,2.41,11.78,4.03,2.5,1.6,3.75,3.67,3.75,6.16,0,4.29-4.64,6.44-13.93,6.44-3.58,0-15.54-.53-35.9-1.61-8.93-1.07-18.04-1.6-27.32-1.6-12.15,0-23.94.53-35.36,1.6-3.58,0-9.11.27-16.61.81-7.5.53-14.47.81-20.9.81-9.29,0-13.93-2.15-13.93-6.44,0-2.5,1.25-4.56,3.76-6.16,2.49-1.61,6.43-2.96,11.78-4.03,13.93-2.5,23.75-6.51,29.47-12.07,5.71-5.53,8.57-14.38,8.57-26.54V93.83c0-12.86-.72-22.26-2.14-28.15-1.43-5.9-4.29-10.19-8.57-12.87-4.29-2.68-11.44-4.73-21.43-6.16-5.36-.35-9.38-1.61-12.06-3.75-2.68-2.15-4.02-4.47-4.02-6.97,0-2.15,1.34-3.84,4.02-5.09,2.68-1.25,5.97-1.88,9.91-1.88,11.43,0,22.86.36,34.3,1.07l25.72.53c6.07,0,14.47-.35,25.19-1.07,13.57-1.43,27.14-2.15,40.72-2.15,40.36,0,71.08,7.33,92.16,21.99,21.07,14.66,31.61,36.46,31.61,65.41,0,21.81-6.25,39.78-18.76,53.89-12.5,14.13-27.86,25.3-46.08,33.51-1.07.36-1.61,1.25-1.61,2.68l1.07,4.29c21.43,32.53,39.2,58.01,53.31,76.41,14.11,18.41,31.16,36.73,51.17,54.96,9.29,8.59,18.76,13.94,28.4,16.09,9.65,2.14,22.32,3.22,38.05,3.22,5.36,0,8.03,2.5,8.03,7.51,0,8.23-5.18,14.2-15.53,17.96-10.37,3.75-22.16,5.63-35.36,5.63-19.29,0-35.64-2.86-49.03-8.57ZM576.28,178.55c13.39-14.65,20.09-32.71,20.09-54.15,0-25.38-5.18-44.77-15.54-58.18-10.36-13.41-29.12-20.11-56.26-20.11-10.01,0-16.71,3.4-20.1,10.19-3.4,6.79-5.45,20.02-6.16,39.68-.72,22.88-1.07,51.3-1.07,85.26,0,7.87,2.05,13.06,6.16,15.55,4.1,2.51,10.62,3.75,19.56,3.75,22.14,0,39.92-7.32,53.31-21.98Z"/><path class="cls-1" d="M811.78,375.35c0-2.5,1.25-4.56,3.75-6.16,2.5-1.61,6.61-2.96,12.32-4.03,14.28-2.5,24.65-6.79,31.08-12.87,6.43-6.07,9.64-15.01,9.64-26.8V113.14c0-22.53-.72-37.54-2.14-45.04-1.43-7.51-4.11-11.79-8.04-12.87-5.72-1.42-16.79-2.14-33.22-2.14h-20.9c-9.65,0-19.02,2.14-28.13,6.44-9.11,4.29-15.81,10-20.1,17.15-10,15.02-18.22,22.53-24.65,22.53-3.58,0-5.36-2.5-5.36-7.51,0-2.86,1.07-6.79,3.22-11.8,5.71-11.07,9.82-20.99,12.32-29.76,2.5-8.75,4.46-19.04,5.89-30.83,1.07-8.57,4.64-12.87,10.72-12.87,1.78,0,4.37,2.51,7.77,7.52,3.39,5.01,5.63,8.4,6.7,10.18,2.49,3.22,7.58,5.73,15.27,7.52,7.68,1.79,15.27,2.67,22.77,2.67l193.44-.53c20.36,0,35.54-2.5,45.55-7.51,4.28-2.86,7.14-5,8.57-6.44.71-.35,2.41-1.52,5.09-3.48,2.68-1.96,5.8-2.96,9.38-2.96,1.42,0,2.5,1.17,3.22,3.49.71,2.32,1.07,4.92,1.07,7.78,0,2.5-.53,6.97-1.6,13.4l-3.76,16.09c-1.07,3.94-1.97,7.78-2.68,11.53-.72,3.75-1.07,7.95-1.07,12.6v7.51c0,4.65-.8,8.85-2.41,12.6-1.61,3.75-3.67,5.63-6.16,5.63-2.86,0-5.09-1.69-6.69-5.09-1.61-3.39-3.48-9.02-5.63-16.89-2.14-9.65-7.05-16.89-14.73-21.72-7.69-4.82-19.56-7.23-35.63-7.23h-45.01c-7.86,0-13.58,1.16-17.14,3.48-3.58,2.33-5.99,7.6-7.24,15.82-1.25,8.23-1.88,21.81-1.88,40.76v212.34c0,11.44,3.3,20.11,9.91,26.01,6.61,5.89,17.06,10.45,31.35,13.67,5.36,1.07,9.28,2.41,11.78,4.03,2.5,1.6,3.76,3.67,3.76,6.16,0,4.29-4.65,6.44-13.93,6.44-13.22,0-25.55-.53-36.97-1.61-14.29-.71-25.01-1.07-32.15-1.07-8.22,0-19.82.36-34.82,1.07-11.79,1.08-24.47,1.61-38.05,1.61-9.64,0-14.47-2.15-14.47-6.44Z"/><path class="cls-1" d="M1092.02,378.84c-5.72-5.54-8.57-11.35-8.57-17.43,0-3.22.53-5.9,1.61-8.04l97.52-282.59c2.86-8.59,4.28-15.02,4.28-19.31s-1.07-8.21-3.22-11.79c-3.57-5.72-8.75-10.19-15.53-13.41-5.72-2.86-7.51-5.36-5.36-7.51,4.64-2.15,10.09-4.2,16.34-6.16,6.25-1.96,10.26-3.13,12.06-3.49,9.28-2.14,19.56-4.2,30.81-6.16,11.26-1.96,18.49-2.95,21.7-2.95,1.78,0,3.3.89,4.55,2.67,1.25,1.8,1.88,3.94,1.88,6.44-.36,3.58-1.97,9.48-4.82,17.7l-104.49,298.68c-1.43,4.29-2.14,8.57-2.14,12.87,0,5.36,1.96,8.04,5.89,8.04,5.71,0,13.84-4.73,24.38-14.21,10.53-9.47,19.91-19.39,28.13-29.76,4.64-6.07,8.21-9.11,10.72-9.11,1.78,0,2.86.62,3.22,1.88.35,1.25.53,3.13.53,5.63,0,10.37-6.16,22.44-18.48,36.2-12.32,13.76-26.71,25.56-43.14,35.39-16.43,9.83-29.83,14.74-40.18,14.74-6.08,0-11.98-2.77-17.68-8.3Z"/><path class="cls-1" d="M1257.04,380.17c-5-4.64-7.5-9.64-7.5-15.01,0-3.22.71-6.44,2.14-9.65,11.07-23.23,21.34-46.65,30.81-70.25,9.46-23.59,15.08-37.53,16.88-41.82,4.64-13.22,8.93-24.31,12.86-33.25l.54-2.14c0-2.15-1.07-3.22-3.22-3.22-3.22,0-8.84,1.96-16.88,5.89-8.03,3.94-15.27,8.24-21.7,12.87-2.14,1.07-3.94,1.6-5.36,1.6-3.94,0-5.89-1.24-5.89-3.75,0-3.93,4.55-10.09,13.66-18.49,9.11-8.4,20.45-17.07,34.03-26.01,13.57-8.93,26.79-16.27,39.65-21.98,2.14-.72,3.75-1.08,4.82-1.08,5.36,0,10.18,2.51,14.47,7.51,4.29,5.02,5.71,9.31,4.29,12.87l-63.23,152.82c-2.14,4.66-3.22,8.95-3.22,12.87,0,3.58,2.32,5.37,6.97,5.37,10,0,29.11-14.13,57.33-42.36,1.07-1.08,1.79-1.61,2.15-1.61,1.42,0,2.58.46,3.48,1.34.88.89,1.34,2.06,1.34,3.48,0,7.88-6.08,18.33-18.22,31.38-12.15,13.05-26.17,24.58-42.06,34.58-15.9,10-29.39,15.01-40.46,15.01-6.79,0-12.68-2.32-17.68-6.97ZM1363.68,98.93c-4.29-4.82-6.43-10.45-6.43-16.89,0-10,3.39-18.76,10.18-26.28,6.78-7.51,15.18-11.26,25.18-11.26,6.43,0,11.6,2.77,15.54,8.31,3.92,5.55,5.89,11.72,5.89,18.5,0,9.29-3.48,17.42-10.45,24.39-6.97,6.97-15.09,10.46-24.38,10.46-6.08,0-11.25-2.41-15.53-7.24Z"/><path class="cls-1" d="M1395.82,379.37c-6.79-5.18-10.18-12.07-10.18-20.65s1.88-14.83,5.62-19.83c3.75-5.01,7.77-7.51,12.06-7.51,2.14,0,4.91,1.25,8.31,3.75,3.39,2.5,6.69,5.36,9.91,8.57,6.43,5.73,12.06,10.01,16.88,12.87,4.82,2.86,10.62,4.29,17.42,4.29,7.85,0,14.2-2.77,19.02-8.31,4.82-5.54,7.41-12.07,7.77-19.57,0-12.87-6.26-29.85-18.76-50.94-12.51-20.73-18.75-37.18-18.75-49.33s4.73-24.85,14.2-37c9.46-12.14,20.45-22.16,32.95-30.02,12.5-7.87,22.51-11.8,30.01-11.8,6.07,0,12.14,1.53,18.22,4.56,6.07,3.04,11.07,6.62,15,10.72,3.93,4.11,5.9,7.78,5.9,11,0,4.29-2.77,9.57-8.31,15.82-5.54,6.25-10.45,9.38-14.74,9.38-2.14,0-4.28-.89-6.43-2.68-2.14-1.78-3.84-3.48-5.09-5.09-1.26-1.6-2.23-2.76-2.95-3.48-6.79-7.51-14.29-11.27-22.51-11.27-5.72,0-10.36,2.15-13.93,6.44-3.58,4.3-5.36,9.65-5.36,16.09,0,7.51,7.14,23.41,21.43,47.72,6.43,9.65,11.52,19.57,15.27,29.76,3.75,10.19,5.63,19.4,5.63,27.62,0,12.15-5.28,24.22-15.81,36.19-10.54,11.99-23.77,21.72-39.65,29.23-15.9,7.51-31.53,11.26-46.89,11.26-10.72,0-19.47-2.6-26.25-7.77Z"/><path class="cls-1" d="M1578.8,378.57c-5.89-5.72-8.84-10.9-8.84-15.55,0-4.3.62-8.67,1.88-13.15,1.25-4.46,2.95-9.2,5.09-14.2l50.9-140.49c.35-1.07.53-2.32.53-3.75,0-3.57-2.14-5.37-6.43-5.37l-22.5-1.07c-7.51-.35-11.26-3.22-11.26-8.57,0-1.79,2.32-4.73,6.97-8.85,4.64-4.11,9.29-6.17,13.93-6.17h21.97c4.28,0,7.14-.61,8.57-1.88,1.43-1.24,3.4-4.19,5.9-8.85l13.39-27.88c2.86-5.71,8.12-11.69,15.81-17.96,7.68-6.25,13.48-9.38,17.42-9.38,2.86,0,4.91,1.16,6.16,3.48,1.25,2.33,1.87,5.09,1.87,8.31,0,1.79-.36,4.47-1.07,8.04l-13.39,37.54c-.36,1.07-.54,2.32-.54,3.75,0,1.79.62,2.95,1.88,3.49,1.25.53,3.12.8,5.63.8,7.14,0,14.82.63,23.04,1.88,8.21,1.25,13.21,2.06,15,2.41,6.07,1.08,9.91,2.25,11.52,3.49,1.61,1.25,2.41,3.13,2.41,5.63,0,1.07-.99,2.51-2.95,4.29-1.97,1.8-4.91,2.87-8.84,3.22-18.58,1.43-31.97,2.33-40.18,2.68-6.08.36-10.45,1.17-13.13,2.41-2.68,1.25-4.56,3.49-5.62,6.71l-45.01,124.4c-1.79,4.29-2.68,8.76-2.68,13.41,0,6.08,3.39,9.11,10.18,9.11,9.64,0,26.07-11.07,49.3-33.24,2.49-2.5,4.91-3.84,7.23-4.03,2.32-.17,3.48.63,3.48,2.41.35.36.53,1.25.53,2.68,0,3.22-1.61,7.33-4.82,12.34-6.43,9.64-15.81,19.66-28.13,30.02-12.32,10.37-24.83,19.04-37.51,26.01-12.68,6.97-22.96,10.45-30.81,10.45-5.36,0-10.98-2.86-16.88-8.57Z"/></g></svg>