<?xml version="1.0" encoding="UTF-8"?>
<svg id="Layer_2" xmlns="http://www.w3.org/2000/svg" version="1.1" viewBox="0 0 1336 751.5">
  <!-- Generator: Adobe Illustrator 29.1.0, SVG Export Plug-In . SVG Version: 2.1.0 Build 142)  -->
  <defs>
    <style>
      .st0 {
        fill: #dfebf4;
      }

      .st1 {
        fill: #02011c;
      }
    </style>
  </defs>
  <rect class="st1" x="-71.2" y="-363.4" width="1478.3" height="1478.3"/>
  <g id="Texts">
    <g>
      <path class="st0" d="M312,465.3l48.3-242.4h40.8l-48.3,242.4h-40.8Z"/>
      <path class="st0" d="M572.6,309l34.3-40.4h-24.2l-25.5,30c-.3,0-.5-.3-.8-.4-12.7-6.4-27.7-9.6-44.9-9.6s-37.5,4.4-53.2,13.3c-15.7,8.8-28,20.9-36.9,36.3-8.9,15.3-13.4,32.8-13.4,52.4s3.6,29.3,10.6,40.7c3.6,5.8,7.9,10.9,13,15.5l-35.3,41.6h23.8l26.4-31.1c.5.3,1.1.6,1.6.8,12.7,6.4,27.4,9.6,44.5,9.6s38.1-4.5,53.8-13.4c15.6-8.9,27.8-21.1,36.6-36.4,8.9-15.3,13.3-32.8,13.3-52.4s-3.4-29.2-10.3-40.5c-3.6-6-8-11.2-13.3-15.9h0ZM449.2,388.8c0-12.8,2.5-24.2,7.7-34,5.1-9.8,12.2-17.5,21.4-23,9.2-5.6,19.4-8.3,30.7-8.3s16.9,1.5,23.4,4.5l-75.1,88.4c-5.4-7.3-8-16.5-8-27.6h-.1ZM547.3,401.2c-5.1,9.8-12.2,17.6-21.2,23.2-9,5.7-19.4,8.5-30.8,8.5s-17.4-1.6-24-4.8l75.4-88.7c5.5,7.3,8.3,16.6,8.3,27.8s-2.5,24.2-7.7,34h0Z"/>
      <path class="st0" d="M810.5,324.1c-6.8-11.5-15.9-20.3-27.6-26.4-11.7-6.1-24.6-9.2-39-9.2s-34.8,4.5-48,13.4c-3.1,2.1-6,4.3-8.7,6.8l3.5-17.9h-38.9l-47.4,237.8h40.8l17.9-88.7c5.4,8.5,12.6,15,21.7,19.6,10.6,5.4,23.2,8,37.8,8s26.8-2.5,38.7-7.7c11.8-5.1,22.3-12.2,31.2-21.4s15.9-20,20.7-32.3c4.9-12.4,7.4-26,7.4-40.8s-3.4-29.6-10.1-41.2h0ZM771.5,401.2c-5.1,9.8-12.1,17.5-21.1,23-8.9,5.6-19.3,8.3-31.1,8.3s-25.9-3.9-34-11.8c-8-7.8-12.1-18.5-12.1-32s2.6-24.2,7.8-34,12.4-17.5,21.4-23c9-5.6,19.4-8.3,30.9-8.3s26.1,3.9,34,11.8,11.8,18.5,11.8,32-2.5,24.2-7.7,34h0Z"/>
      <path class="st0" d="M986.1,363c0,2.9-.4,6-.9,9.2l16.7-9.2h-15.8,0Z"/>
      <path class="st0" d="M1013.8,324.4c-6.6-11.3-16-20.2-28.1-26.4-12.1-6.3-26.3-9.5-42.6-9.5s-36.6,4.4-51.6,13.3c-15,8.8-26.9,20.8-35.6,36.1-8.7,15.3-13,32.9-13,52.9s3.6,28.9,10.6,40.4,17.1,20.3,29.9,26.8c12.8,6.4,28.1,9.6,45.7,9.6s25.9-2,38.6-6c12.7-4,23.5-10.1,32.7-18.2l-17-28.4c-5.9,5.7-13.3,10.1-22.2,13.4-8.9,3.3-18.3,4.9-28.1,4.9-17.2,0-29.9-3.9-38.1-11.6-7.9-7.4-12-18-12.2-31.5h138.5c.7-3.9,1.3-8,1.8-12.1.5-4.2.8-8.5.8-13.1,0-15.7-3.4-29.2-10-40.5h-.1ZM985.2,372.2c.5-3.2.8-6.3.9-9.2h-99.9c1-3.4,2.2-6.5,3.6-9.5,4.8-10,11.6-17.9,20.4-23.5,8.8-5.7,19.2-8.5,31.2-8.5s18.6,1.9,25.8,5.9c7.2,3.9,12.4,9.6,15.7,17,2.3,5.3,3.4,11.5,3.1,18.6h15.8l-16.7,9.2h0Z"/>
    </g>
  </g>
</svg>