<?xml version="1.0" encoding="UTF-8"?>
<svg id="Layer_2" xmlns="http://www.w3.org/2000/svg" version="1.1" viewBox="0 0 955.8 410.6">
  <!-- Generator: Adobe Illustrator 29.0.1, SVG Export Plug-In . SVG Version: 2.1.0 Build 192)  -->
  <defs>
    <style>
      .st0 {
        fill: #dfebf4;
      }
    </style>
  </defs>
  <g id="Texts">
    <g>
      <path class="st0" d="M0,325.5L64.9,0h54.8L54.8,325.5H0Z"/>
      <path class="st0" d="M350,115.6l46.1-54.2h-32.5l-34.2,40.3c-.4-.2-.7-.4-1.1-.6-17.1-8.6-37.2-12.9-60.3-12.9s-50.4,5.9-71.5,17.8c-21.1,11.8-37.6,28.1-49.6,48.7-12,20.6-18,44.1-18,70.4s4.8,39.3,14.2,54.6c4.8,7.8,10.6,14.7,17.4,20.8l-47.4,55.8h32l35.5-41.7c.7.4,1.5.8,2.2,1.1,17,8.6,36.8,12.9,59.7,12.9s51.2-6,72.2-18c20.9-12,37.3-28.3,49.1-48.9,11.9-20.6,17.8-44.1,17.8-70.4s-4.6-39.2-13.8-54.4c-4.9-8-10.8-15.1-17.8-21.3h0ZM184.2,222.8c0-17.2,3.4-32.5,10.3-45.6,6.9-13.2,16.4-23.5,28.7-30.9,12.3-7.5,26-11.2,41.2-11.2s22.7,2,31.4,6l-100.9,118.7c-7.2-9.8-10.8-22.1-10.8-37h.1ZM316,239.5c-6.9,13.2-16.4,23.6-28.5,31.1-12.1,7.6-26,11.4-41.4,11.4s-23.3-2.2-32.2-6.5l101.3-119.1c7.4,9.8,11.1,22.3,11.1,37.4s-3.4,32.5-10.3,45.6h0Z"/>
      <path class="st0" d="M669.4,136c-9.1-15.5-21.4-27.3-37.1-35.5-15.7-8.2-33.1-12.3-52.4-12.3s-46.7,6-64.5,18c-4.1,2.8-8,5.8-11.7,9.1l4.7-24h-52.2l-63.6,319.3h54.8l24.1-119.1c7.2,11.4,16.9,20.2,29.2,26.3,14.2,7.2,31.1,10.7,50.7,10.7s36-3.4,52-10.3c15.9-6.9,29.9-16.4,41.9-28.7,12-12.3,21.3-26.8,27.8-43.4,6.6-16.7,9.9-34.9,9.9-54.8s-4.5-39.8-13.6-55.3h0ZM617,239.5c-6.9,13.2-16.3,23.5-28.3,30.9-12,7.5-25.9,11.2-41.7,11.2s-34.8-5.3-45.6-15.8c-10.8-10.5-16.2-24.9-16.2-43s3.5-32.5,10.5-45.6c7-13.2,16.6-23.5,28.7-30.9,12.1-7.5,26-11.2,41.5-11.2s35.1,5.3,45.6,15.8,15.8,24.9,15.8,43-3.4,32.5-10.3,45.6h0Z"/>
      <path class="st0" d="M905.2,188.2c0,3.9-.5,8-1.2,12.3l22.4-12.3h-21.2Z"/>
      <path class="st0" d="M942.4,136.4c-8.9-15.2-21.5-27.1-37.7-35.5-16.2-8.5-35.3-12.7-57.2-12.7s-49.1,5.9-69.3,17.8c-20.2,11.8-36.1,28-47.8,48.5s-17.5,44.2-17.5,71.1,4.8,38.8,14.2,54.2,22.9,27.3,40.1,36c17.2,8.6,37.7,12.9,61.4,12.9s34.8-2.7,51.8-8.1,31.6-13.5,43.9-24.4l-22.8-38.2c-7.9,7.6-17.8,13.6-29.8,18s-24.6,6.6-37.7,6.6c-23.1,0-40.1-5.2-51.1-15.6-10.6-10-16.1-24.2-16.4-42.3h186c.9-5.3,1.7-10.7,2.4-16.2.7-5.6,1.1-11.4,1.1-17.6,0-21.1-4.5-39.2-13.4-54.4h-.2ZM904,200.5c.7-4.3,1.1-8.4,1.2-12.3h-134.2c1.3-4.5,3-8.7,4.9-12.7,6.4-13.4,15.6-24,27.4-31.6,11.8-7.6,25.8-11.4,41.9-11.4s25,2.6,34.7,7.9c9.7,5.3,16.7,12.9,21.1,22.8,3.1,7.1,4.5,15.4,4.2,25h21.2l-22.4,12.3h0Z"/>
    </g>
  </g>
</svg>