<?xml version="1.0" encoding="UTF-8"?>
<svg id="Layer_2" xmlns="http://www.w3.org/2000/svg" version="1.1" viewBox="0 0 955.8 410.6">
  <!-- Generator: Adobe Illustrator 29.0.1, SVG Export Plug-In . SVG Version: 2.1.0 Build 192)  -->
  <defs>
    <style>
      .st0 {
        fill: #dfebf4;
      }
    </style>
  </defs>
  <g id="Texts">
    <g>
      <path class="st0" d="M239,265.4l32.5-162.8h27.4l-32.4,162.8h-27.4Z"/>
      <path class="st0" d="M414,160.5l23.1-27.1h-16.2l-17.1,20.1c-.2,0-.4-.2-.6-.3-8.6-4.3-18.6-6.5-30.1-6.5s-25.2,3-35.8,8.9c-10.6,5.9-18.8,14.1-24.8,24.3-6,10.3-9,22-9,35.2s2.4,19.6,7.1,27.3c2.4,3.9,5.3,7.4,8.7,10.4l-23.7,27.9h16l17.8-20.9c.3.2.8.4,1.1.6,8.5,4.3,18.4,6.4,29.8,6.4s25.6-3,36.1-9c10.4-6,18.6-14.1,24.6-24.4,5.9-10.3,8.9-22.1,8.9-35.2s-2.3-19.6-6.9-27.2c-2.4-4-5.4-7.5-8.9-10.7h0ZM331.1,214.1c0-8.6,1.7-16.2,5.2-22.8,3.4-6.6,8.2-11.8,14.3-15.4,6.2-3.8,13-5.6,20.6-5.6s11.4,1,15.7,3l-50.4,59.3c-3.6-4.9-5.4-11.1-5.4-18.5h0ZM397,222.4c-3.4,6.6-8.2,11.8-14.2,15.6-6.1,3.8-13,5.7-20.7,5.7s-11.7-1.1-16.1-3.2l50.7-59.6c3.7,4.9,5.6,11.2,5.6,18.7s-1.7,16.2-5.1,22.8h0Z"/>
      <path class="st0" d="M573.7,170.7c-4.5-7.8-10.7-13.7-18.5-17.8-7.9-4.1-16.5-6.2-26.2-6.2s-23.4,3-32.2,9c-2.1,1.4-4,2.9-5.9,4.5l2.4-12h-26.1l-31.8,159.6h27.4l12.1-59.6c3.6,5.7,8.4,10.1,14.6,13.1,7.1,3.6,15.5,5.4,25.4,5.4s18-1.7,26-5.1c8-3.4,15-8.2,21-14.4,6-6.1,10.6-13.4,13.9-21.7,3.3-8.3,5-17.4,5-27.4s-2.2-19.9-6.8-27.7h0ZM547.5,222.4c-3.5,6.6-8.1,11.8-14.1,15.4-6,3.8-13,5.6-20.9,5.6s-17.4-2.6-22.8-7.9c-5.4-5.2-8.1-12.4-8.1-21.5s1.8-16.2,5.2-22.8c3.5-6.6,8.3-11.8,14.3-15.4,6-3.8,13-5.6,20.8-5.6s17.5,2.7,22.8,7.9,7.9,12.4,7.9,21.5-1.7,16.2-5.1,22.8h0Z"/>
      <path class="st0" d="M691.6,196.8c0,1.9-.2,4-.6,6.2l11.2-6.2h-10.6Z"/>
      <path class="st0" d="M710.2,170.8c-4.5-7.6-10.8-13.5-18.9-17.8-8.1-4.2-17.6-6.3-28.6-6.3s-24.5,3-34.6,8.9c-10.1,5.9-18,14-23.9,24.2s-8.8,22.1-8.8,35.6,2.4,19.4,7.1,27.1,11.5,13.6,20,18c8.6,4.3,18.9,6.4,30.7,6.4s17.4-1.4,25.9-4.1,15.8-6.8,22-12.2l-11.4-19.1c-4,3.8-8.9,6.8-14.9,9s-12.3,3.3-18.9,3.3c-11.5,0-20-2.6-25.5-7.8-5.3-5-8-12.1-8.2-21.2h93c.5-2.7.9-5.3,1.2-8.1.4-2.8.5-5.7.5-8.8,0-10.6-2.2-19.6-6.7-27.2h-.1ZM691,202.9c.4-2.2.5-4.2.6-6.2h-67.1c.6-2.2,1.5-4.3,2.5-6.3,3.2-6.7,7.8-12,13.7-15.8,5.9-3.8,12.9-5.7,21-5.7s12.5,1.3,17.4,3.9c4.9,2.7,8.4,6.4,10.5,11.4,1.5,3.6,2.2,7.7,2.1,12.5h10.6l-11.2,6.2h0Z"/>
    </g>
  </g>
</svg>