<?xml version="1.0" encoding="utf-8"?>
<!-- Generator: Adobe Illustrator 28.3.0, SVG Export Plug-In . SVG Version: 6.00 Build 0)  -->
<svg version="1.1" id="Layer_1" xmlns="http://www.w3.org/2000/svg" xmlns:xlink="http://www.w3.org/1999/xlink" x="0px" y="0px"
	 viewBox="0 0 1366 768" style="enable-background:new 0 0 1366 768;" xml:space="preserve">
<g>
	<path d="M451.1,484.1l136.8-210h38.4l52.2,210h-38.7l-44.1-189.9h15.6L492.8,484.1H451.1z M504.2,435.5l16.8-30.6h113.1l5.1,30.6
		H504.2z"/>
	<path d="M772.4,486.2c-13,0-24.9-2.8-35.5-8.4c-10.7-5.6-19.2-13.7-25.5-24.2c-6.3-10.5-9.5-23.2-9.5-38.2
		c0-13.4,2.2-25.8,6.8-37.2c4.5-11.4,10.8-21.3,19-29.8c8.2-8.5,17.8-15,28.8-19.6c11-4.6,22.8-6.9,35.4-6.9
		c13.6,0,25.2,2.5,34.8,7.3c9.6,4.9,17,12.2,22,21.9c5.1,9.7,7.4,21.8,7,36.1c-0.4,19.8-4,37.2-10.6,52.1
		c-6.7,14.9-16.3,26.5-28.7,34.6C804.1,482.1,789.4,486.2,772.4,486.2z M782,454.1c10.6,0,20-2.5,28.4-7.7
		c8.3-5.1,14.8-12.1,19.6-21.1s7.2-19.4,7.2-31.2c0-12.4-3.7-22.2-11.1-29.4c-7.4-7.2-17.9-10.8-31.5-10.8
		c-10.4,0-19.8,2.6-28.2,7.7c-8.4,5.1-15,12.1-19.7,21.1c-4.7,9-7,19.4-7,31.2c0,12.4,3.7,22.2,11.1,29.4
		C758.2,450.5,768.6,454.1,782,454.1z M821.3,484.1l7.2-36.6l10.2-42.3l5.1-43.2l7.5-38.1h37.8L857,484.1H821.3z"/>
</g>
</svg>
