<?xml version="1.0" encoding="UTF-8"?>
<svg id="Layer_2" data-name="Layer 2" xmlns="http://www.w3.org/2000/svg" version="1.1" viewBox="0 0 463 83">
  <defs>
    <style>
      .cls-1 {
        fill: #000;
        stroke-width: 0px;
      }
    </style>
  </defs>
  <path class="cls-1" d="M53.3,23.1c-1,0-2-.2-2.8-.7s-1.5-1.1-2-1.9c-.5-.8-.8-1.9-.8-3.1s.2-2.1.5-3,.9-1.7,1.5-2.4c.7-.7,1.4-1.2,2.3-1.6.9-.4,1.8-.6,2.8-.6s2,.2,2.8.6c.8.4,1.4,1,1.8,1.8.4.8.6,1.7.6,2.9,0,1.6-.3,3-.9,4.2-.5,1.2-1.3,2.1-2.3,2.8-1,.7-2.2,1-3.5,1ZM54.1,20.5c.8,0,1.6-.2,2.3-.6.7-.4,1.2-1,1.6-1.7.4-.7.6-1.6.6-2.5s-.3-1.8-.9-2.4c-.6-.6-1.4-.9-2.5-.9s-1.6.2-2.3.6c-.7.4-1.2,1-1.6,1.7-.4.7-.6,1.6-.6,2.5s.3,1.8.9,2.4c.6.6,1.4.9,2.5.9ZM57.2,22.9l.6-2.9.8-3.4.4-3.5.6-3h3l-2.6,12.8h-2.9Z"/>
  <path class="cls-1" d="M64,22.9l3.6-17.8h3l-1.6,8-.9,3.3-.5,3-.7,3.5h-2.9ZM71.8,23.1c-1,0-1.9-.2-2.7-.6-.8-.4-1.4-.9-1.8-1.7-.4-.7-.6-1.7-.6-2.7s.1-2.3.4-3.3.7-1.9,1.3-2.6c.6-.7,1.3-1.3,2.1-1.7.8-.4,1.8-.6,2.8-.6s2,.2,2.9.7c.9.4,1.5,1.1,2,1.9.5.8.7,1.9.7,3s-.2,2.1-.5,3-.9,1.7-1.5,2.4c-.7.7-1.4,1.2-2.3,1.6-.9.4-1.8.6-2.8.6ZM71.5,20.5c.9,0,1.6-.2,2.3-.6s1.2-1,1.5-1.7c.4-.7.6-1.6.6-2.5s-.3-1.8-.9-2.4c-.6-.6-1.4-.9-2.5-.9s-1.6.2-2.3.6c-.7.4-1.2,1-1.6,1.7-.4.7-.6,1.6-.6,2.5s.3,1.8.9,2.4c.6.6,1.4.9,2.5.9Z"/>
  <path class="cls-1" d="M86.9,23.1c-1.3,0-2.4-.2-3.3-.7-.9-.5-1.7-1.1-2.2-2-.5-.8-.8-1.8-.8-3s.3-2.7,1-3.9,1.6-2,2.7-2.7c1.2-.6,2.5-1,4-1s2.4.3,3.3.8c.9.5,1.7,1.3,2.2,2.3l-2.6,1.3c-.3-.6-.7-1-1.2-1.3s-1.2-.4-1.9-.4-1.6.2-2.3.6c-.7.4-1.2,1-1.6,1.7-.4.7-.6,1.6-.6,2.5s.3,1.8.9,2.4c.6.6,1.4.9,2.5.9s1.4-.1,2-.4,1.1-.7,1.5-1.3l2.2,1.5c-.6.9-1.4,1.6-2.4,2.1-1,.5-2.2.8-3.4.8Z"/>
  <path class="cls-1" d="M100,23.1c-1.1,0-2-.2-2.9-.7-.8-.4-1.5-1.1-2-1.9-.5-.8-.8-1.9-.8-3.1s.2-2.1.5-3c.4-.9.9-1.7,1.5-2.4.7-.7,1.4-1.2,2.3-1.6s1.8-.6,2.8-.6,2,.2,2.7.6c.8.4,1.3.9,1.8,1.7.4.7.6,1.6.6,2.7s-.1,2.3-.4,3.3c-.3,1-.7,1.9-1.3,2.6-.6.7-1.3,1.3-2.1,1.7-.8.4-1.8.6-2.8.6ZM100.8,20.5c.8,0,1.6-.2,2.3-.6.7-.4,1.2-1,1.6-1.7.4-.7.6-1.6.6-2.5s-.3-1.8-.9-2.4c-.6-.6-1.4-.9-2.5-.9s-1.6.2-2.3.6c-.7.4-1.2,1-1.6,1.7-.4.7-.6,1.6-.6,2.5s.3,1.8.9,2.4c.6.6,1.4.9,2.5.9ZM103.9,22.9l.6-2.9.8-3.4.4-3.5,1.6-8h3l-3.6,17.8h-2.9Z"/>
  <path class="cls-1" d="M117.2,23.1c-1.3,0-2.4-.2-3.4-.7-.9-.5-1.7-1.1-2.2-2-.5-.8-.8-1.8-.8-3s.3-2.8,1-3.9c.6-1.1,1.5-2,2.6-2.7,1.1-.6,2.4-1,3.8-1s2.2.2,3.1.7c.9.5,1.6,1.1,2.1,1.9.5.8.7,1.8.7,3s0,.7,0,1c0,.3,0,.6-.1.9h-10.9l.3-2h9.1l-1.2.7c.1-.8,0-1.5-.2-2-.2-.5-.6-1-1.2-1.2s-1.2-.4-1.9-.4-1.6.2-2.3.6-1.1,1-1.5,1.7c-.4.7-.5,1.6-.5,2.6s.3,1.8.9,2.4c.6.6,1.5.9,2.8.9s1.4-.1,2.1-.4c.7-.2,1.2-.6,1.6-1l1.2,2.1c-.7.6-1.5,1-2.4,1.3-.9.3-1.9.4-2.8.4Z"/>
  <path class="cls-1" d="M125.9,12.6l.5-2.4h8.5l-.5,2.4h-8.5ZM125.9,22.9l2.7-13.6c.3-1.3.8-2.4,1.7-3.2.9-.8,2-1.2,3.5-1.2s1.1,0,1.6.2c.5.1.9.3,1.2.6l-1.2,2.2c-.4-.3-1-.5-1.6-.5s-1.1.2-1.5.5c-.4.4-.6.9-.8,1.6l-.3,1.4v1.3c-.1,0-2.3,10.7-2.3,10.7h-3Z"/>
  <path class="cls-1" d="M139.4,27.7c-1.2,0-2.3-.2-3.4-.5-1-.3-1.9-.7-2.6-1.3l1.6-2.3c.5.4,1.2.8,2,1.1.8.3,1.7.4,2.7.4,1.4,0,2.5-.3,3.2-.9.7-.6,1.2-1.6,1.4-2.8l.5-2.6.8-2.7.5-2.9.6-3.1h2.9l-2.2,10.9c-.5,2.4-1.4,4.1-2.7,5.2-1.3,1.1-3.1,1.6-5.3,1.6ZM140.1,22.3c-1.1,0-2.1-.2-2.9-.6-.9-.4-1.5-1-2-1.8-.5-.8-.7-1.7-.7-2.8s.2-1.9.5-2.8c.4-.9.9-1.6,1.5-2.3.6-.6,1.4-1.2,2.3-1.5.9-.4,1.9-.5,2.9-.5s1.8.2,2.6.5c.8.3,1.4.9,1.9,1.6s.7,1.7.6,2.9c0,1.4-.3,2.7-.8,3.8s-1.3,2-2.3,2.7-2.2,1-3.6,1ZM140.8,19.8c.9,0,1.6-.2,2.3-.6.7-.4,1.2-.9,1.6-1.5.4-.7.6-1.4.6-2.3s-.3-1.6-.9-2.1-1.4-.8-2.5-.8-1.6.2-2.3.6c-.7.4-1.2.9-1.6,1.5-.4.7-.6,1.4-.6,2.3s.3,1.6.9,2.1,1.4.8,2.5.8Z"/>
  <path class="cls-1" d="M160.4,9.9c1.1,0,2,.2,2.8.7.8.4,1.3,1.1,1.6,2,.3.9.3,2,0,3.2l-1.4,7.1h-3l1.4-7c.2-1,.1-1.9-.3-2.4s-1.1-.9-2.2-.9-2,.3-2.7.9c-.7.6-1.2,1.5-1.5,2.8l-1.3,6.6h-3l3.6-17.8h3l-1.7,8.6-.6-1.2c.6-.9,1.3-1.6,2.3-2,.9-.4,1.9-.6,3-.6Z"/>
  <path class="cls-1" d="M167.3,22.9l2.5-12.8h3l-2.5,12.8h-3ZM172,8c-.5,0-1-.2-1.3-.5-.3-.3-.5-.7-.5-1.2s.2-1,.6-1.4.9-.6,1.5-.6,1,.2,1.3.5c.3.3.5.7.5,1.1s-.2,1.1-.6,1.4c-.4.4-.9.6-1.5.6Z"/>
  <path class="cls-1" d="M172.2,27.7c-.6,0-1.1,0-1.6-.2-.5-.1-.9-.3-1.3-.6l1.2-2.2c.5.3,1,.5,1.7.5s1-.2,1.3-.5c.3-.3.6-.9.7-1.6l2.6-13.1h3l-2.6,13.1c-.6,3.1-2.3,4.6-5.1,4.6ZM179.1,8c-.5,0-1-.2-1.3-.5-.3-.3-.5-.7-.5-1.2s.2-1,.6-1.4c.4-.4.9-.6,1.5-.6s1,.2,1.3.5c.3.3.5.7.5,1.1s-.2,1.1-.6,1.4c-.4.4-.9.6-1.5.6Z"/>
  <path class="cls-1" d="M181.3,22.9l3.6-17.8h3l-3.6,17.8h-3ZM184.5,19.9l.6-3.7,7.7-6.2h4.1l-7.2,5.8-1.6,1.2-3.6,2.9ZM191.1,22.9l-3.5-5.8,2-2.3,5,8.1h-3.5Z"/>
  <path class="cls-1" d="M196.3,22.9l3.6-17.8h3l-3.6,17.8h-3Z"/>
  <path class="cls-1" d="M221.7,9.9c1.1,0,2.1.2,2.8.7.8.4,1.3,1.1,1.6,2,.3.9.3,2,0,3.2l-1.4,7.1h-3l1.4-7c.2-1,.1-1.9-.2-2.4s-1.1-.9-2.1-.9-1.9.3-2.5.9c-.7.6-1.1,1.5-1.4,2.8l-1.3,6.7h-3l1.4-7c.2-1,.1-1.9-.2-2.4-.4-.6-1.1-.9-2.1-.9s-1.9.3-2.6.9c-.7.6-1.1,1.5-1.4,2.8l-1.3,6.6h-3l2.5-12.8h2.9l-.7,3.6-.5-1.1c.6-.9,1.3-1.6,2.2-2s1.8-.6,2.9-.6,1.6.1,2.2.4c.6.3,1.2.7,1.5,1.3.4.6.6,1.3.7,2.1l-1.4-.3c.7-1.2,1.5-2,2.5-2.6,1-.6,2.2-.9,3.5-.9Z"/>
  <path class="cls-1" d="M238.1,9.9c1.1,0,2,.2,2.8.7.8.4,1.3,1.1,1.6,2,.3.9.3,2,0,3.2l-1.4,7.1h-3l1.4-7c.2-1,.1-1.9-.3-2.4s-1.1-.9-2.2-.9-2,.3-2.7.9c-.7.6-1.2,1.5-1.5,2.8l-1.3,6.6h-3l2.5-12.8h2.9l-.7,3.7-.5-1.2c.6-.9,1.3-1.6,2.3-2,.9-.4,1.9-.6,3-.6Z"/>
  <path class="cls-1" d="M251.3,23.1c-1.2,0-2.3-.2-3.3-.7s-1.7-1.1-2.2-2c-.5-.8-.8-1.8-.8-3s.3-2.7,1-3.9,1.6-2,2.7-2.7c1.2-.6,2.5-1,3.9-1s2.4.2,3.3.7c.9.5,1.7,1.1,2.2,2,.5.8.8,1.8.8,3s-.3,2.7-1,3.9-1.5,2-2.7,2.7c-1.1.7-2.5,1-3.9,1ZM251.5,20.5c.8,0,1.6-.2,2.3-.6.7-.4,1.2-1,1.6-1.7s.6-1.6.6-2.5-.3-1.8-.9-2.4c-.6-.6-1.4-.9-2.5-.9s-1.6.2-2.3.6c-.7.4-1.2,1-1.6,1.7-.4.7-.6,1.6-.6,2.5s.3,1.8.9,2.4,1.4.9,2.5.9Z"/>
  <path class="cls-1" d="M259.6,27.6l3.5-17.5h2.9l-.6,2.9-.8,3.4-.4,3.5-1.6,7.7h-3ZM268.2,23.1c-1.1,0-2-.2-2.8-.6-.8-.4-1.4-1-1.8-1.8-.4-.8-.6-1.7-.6-2.9,0-1.6.3-3,.9-4.2.5-1.2,1.3-2.1,2.3-2.8,1-.7,2.2-1,3.5-1s2,.2,2.9.7c.9.4,1.5,1.1,2,1.9.5.8.7,1.9.7,3s-.2,2.1-.5,3c-.4.9-.9,1.7-1.5,2.4s-1.4,1.2-2.3,1.6c-.9.4-1.8.6-2.8.6ZM268,20.5c.9,0,1.6-.2,2.3-.6.7-.4,1.2-1,1.5-1.7s.6-1.6.6-2.5-.3-1.8-.9-2.4c-.6-.6-1.4-.9-2.5-.9s-1.6.2-2.3.6c-.7.4-1.2,1-1.6,1.7-.4.7-.6,1.6-.6,2.5s.3,1.8.9,2.4c.6.6,1.4.9,2.5.9Z"/>
  <path class="cls-1" d="M282.7,23.1c-1,0-2-.2-2.8-.7-.9-.4-1.5-1.1-2-1.9-.5-.8-.8-1.9-.8-3.1s.2-2.1.5-3c.4-.9.9-1.7,1.5-2.4.7-.7,1.4-1.2,2.3-1.6s1.8-.6,2.8-.6,2,.2,2.8.6c.8.4,1.4,1,1.8,1.8.4.8.6,1.7.6,2.9,0,1.6-.3,3-.9,4.2-.5,1.2-1.3,2.1-2.3,2.8-1,.7-2.2,1-3.5,1ZM283.5,20.5c.8,0,1.6-.2,2.3-.6.7-.4,1.2-1,1.6-1.7.4-.7.6-1.6.6-2.5s-.3-1.8-.9-2.4-1.4-.9-2.5-.9-1.6.2-2.3.6c-.7.4-1.2,1-1.6,1.7-.4.7-.6,1.6-.6,2.5s.3,1.8.9,2.4c.6.6,1.4.9,2.5.9ZM285.5,27.6l1.5-7.6.9-3.4.5-3.1.7-3.4h2.9l-3.5,17.5h-3Z"/>
  <path class="cls-1" d="M293.4,22.9l2.5-12.8h2.9l-.7,3.6-.3-1.1c.6-1,1.3-1.7,2.3-2.1s2-.6,3.3-.6l-.6,2.9c-.1,0-.2,0-.3,0-.1,0-.3,0-.4,0-1.2,0-2.1.3-2.9.9-.8.6-1.3,1.6-1.6,2.9l-1.2,6.3h-3Z"/>
  <path class="cls-1" d="M307.8,23.1c-1.1,0-2.1-.1-3.1-.4-1-.3-1.7-.6-2.3-1l1.3-2.3c.5.4,1.2.7,2,.9s1.6.3,2.5.3,1.7-.1,2.2-.4c.5-.3.7-.6.7-1.1s-.2-.6-.5-.8c-.3-.2-.8-.3-1.3-.4-.5-.1-1.1-.2-1.7-.4-.6-.1-1.2-.3-1.7-.5-.5-.2-1-.6-1.3-1s-.5-1-.5-1.7.3-1.7.8-2.3c.5-.6,1.2-1.1,2.1-1.5.9-.4,2-.5,3.2-.5s1.7.1,2.5.3c.8.2,1.5.5,2.1.8l-1.1,2.3c-.5-.4-1.2-.6-1.8-.8-.7-.1-1.3-.2-1.9-.2-1,0-1.7.1-2.2.4-.5.3-.7.7-.7,1.1s.2.6.5.8c.3.2.8.3,1.3.5.5.1,1.1.2,1.7.4.6.1,1.2.3,1.7.5.5.2,1,.5,1.3,1,.3.4.5,1,.5,1.7s-.3,1.7-.8,2.4c-.5.6-1.3,1.1-2.2,1.5-.9.3-2,.5-3.2.5Z"/>
  <path class="cls-1" d="M316.2,12.6l.5-2.4h8.5l-.5,2.4h-8.5ZM320.7,23.1c-.8,0-1.5-.2-2.1-.5-.6-.4-1-.9-1.3-1.5-.3-.7-.3-1.5-.1-2.4l2.3-11.4h3l-2.3,11.4c0,.6,0,1.1.2,1.4.2.4.6.6,1.3.6s.6,0,.9-.1.6-.2.8-.4l.5,2.2c-.4.3-.9.5-1.5.6s-1.1.2-1.6.2Z"/>
  <path class="cls-1" d="M331.5,23.1c-1.1,0-2-.2-2.7-.7-.8-.4-1.3-1.1-1.6-2-.3-.9-.4-2,0-3.2l1.4-7.1h3l-1.4,7c-.2,1,0,1.9.3,2.4.4.6,1.1.9,2.1.9s2-.3,2.7-.9c.7-.6,1.2-1.5,1.5-2.8l1.3-6.6h3l-2.5,12.8h-2.9l.7-3.6.5,1.2c-.6.9-1.4,1.6-2.3,2-.9.4-1.9.6-3,.6Z"/>
  <path class="cls-1" d="M345.8,22.9l-3-12.8h3l2.5,11.3h-1.5l7.1-11.3h3l-8.1,12.8h-3.1Z"/>
  <path class="cls-1" d="M359,22.9l-2.4-12.8h2.7l2,11.3h-1.4l6.4-11.3h2.6l2,11.3h-1.4l6.3-11.3h2.8l-7.1,12.8h-3l-1.9-10h.9l-5.7,10h-2.9Z"/>
  <path class="cls-1" d="M375.6,22.9l7.2-7.4-.3,1.6-3.9-7h3.1l2.8,5.1h-1.4l4.9-5.1h3.4l-6.9,7.2.2-1.7,4.1,7.3h-3.1l-3-5.4h1.4s-5.1,5.4-5.1,5.4h-3.5Z"/>
  <path class="cls-1" d="M390.8,27.7c-.6,0-1.2-.1-1.9-.3-.6-.2-1.1-.5-1.5-.8l1.5-2.2c.3.3.6.5.9.6s.7.2,1.2.2,1-.1,1.3-.4c.4-.3.8-.7,1.2-1.4l1.1-1.7.3-.3,7.1-11.3h3l-8.8,13.9c-.6.9-1.2,1.7-1.7,2.2-.5.5-1.1.9-1.7,1.2-.6.2-1.3.3-2,.3ZM394.1,23.4l-3.1-13.3h3l2.5,11.1-2.4,2.2Z"/>
  <path class="cls-1" d="M403,22.9l.4-1.9,9.6-9.6.6,1h-8.3l.5-2.4h10.7l-.4,1.9-9.6,9.6-.6-1h8.7l-.5,2.4h-11.1Z"/>
  <path class="cls-1" d="M3.8,51.7l10.9-16.8h3.1l4.2,16.8h-3.1l-3.5-15.2h1.2l-9.5,15.2h-3.3ZM8.1,47.8l1.3-2.4h9l.4,2.4h-10.8Z"/>
  <path class="cls-1" d="M24.2,51.7l3.4-16.8h7.8c1.8,0,3.1.3,4.1,1,.9.6,1.4,1.6,1.4,2.8s-.3,1.9-.8,2.7c-.5.7-1.2,1.3-2.1,1.6-.8.4-1.7.6-2.7.6l.6-.8c1.3,0,2.3.3,3.1,1,.8.6,1.2,1.6,1.2,2.8s-.3,2.1-.9,2.9c-.6.8-1.5,1.4-2.6,1.8-1.1.4-2.4.6-3.9.6h-8.4ZM27.8,49.2h5c1.3,0,2.3-.2,3-.7.7-.5,1.1-1.2,1.1-2.1s-.3-1.3-.8-1.6-1.3-.4-2.2-.4h-5.6l.5-2.4h4.9c.8,0,1.4,0,2-.3.6-.2,1-.5,1.3-.9.3-.4.5-.9.5-1.6s-.3-1.1-.8-1.4c-.5-.3-1.2-.4-2.1-.4h-4.5l-2.4,11.9Z"/>
  <path class="cls-1" d="M51,51.9c-1.7,0-3.2-.3-4.4-.9-1.2-.6-2.1-1.4-2.8-2.5s-1-2.3-1-3.8.2-2.7.7-3.9c.5-1.2,1.2-2.3,2.1-3.2.9-.9,2-1.6,3.3-2.2,1.3-.5,2.7-.8,4.3-.8s2.7.2,3.8.7c1.1.5,2,1.2,2.5,2.1l-2.3,1.9c-.5-.6-1.1-1.1-1.8-1.5s-1.6-.5-2.6-.5-2,.2-2.9.6c-.9.4-1.6.9-2.2,1.5s-1.1,1.4-1.4,2.3c-.3.9-.5,1.8-.5,2.8s.2,1.7.6,2.4,1,1.2,1.8,1.6,1.8.6,2.9.6,1.8-.2,2.6-.5c.8-.3,1.5-.8,2.2-1.5l1.8,2c-.8.9-1.8,1.6-3,2.1-1.2.4-2.5.7-3.9.7Z"/>
  <path class="cls-1" d="M59.9,51.7l3.4-16.8h6.8c1.7,0,3.2.3,4.4.9,1.2.6,2.1,1.4,2.8,2.4.6,1,1,2.3,1,3.7s-.3,2.8-.8,4.1-1.2,2.3-2.1,3.1c-.9.9-2,1.5-3.3,2-1.3.5-2.7.7-4.2.7h-7.9ZM63.5,49.1h4.3c1.5,0,2.8-.3,3.9-.9,1.1-.6,1.9-1.5,2.5-2.5.6-1.1.9-2.3.9-3.6s-.2-1.7-.6-2.4-1-1.2-1.8-1.6c-.8-.4-1.8-.6-3-.6h-3.9l-2.3,11.5Z"/>
  <path class="cls-1" d="M83.3,49.1h9.5l-.5,2.6h-12.6l3.4-16.8h12.3l-.5,2.6h-9.2l-2.3,11.5ZM84.6,41.9h8.4l-.5,2.6h-8.4l.5-2.6Z"/>
  <path class="cls-1" d="M98.9,51.7h-3.1l3.4-16.8h12.3l-.5,2.6h-9.1l-2.8,14.2ZM100.5,42.6h8.4l-.5,2.6h-8.4l.5-2.6Z"/>
  <path class="cls-1" d="M119.4,51.9c-1.7,0-3.1-.3-4.3-.9-1.2-.6-2.2-1.4-2.8-2.5s-1-2.3-1-3.8.2-2.7.7-3.9c.5-1.2,1.2-2.3,2.1-3.2.9-.9,2-1.6,3.3-2.2,1.3-.5,2.7-.8,4.3-.8s2.9.2,4,.7c1.1.5,2,1.2,2.7,2.1l-2.3,1.8c-.6-.7-1.2-1.2-2-1.5-.8-.3-1.6-.4-2.6-.4s-2.1.2-3,.5c-.9.4-1.6.9-2.3,1.5-.6.7-1.1,1.4-1.5,2.3-.3.9-.5,1.8-.5,2.8s.2,1.7.6,2.4,1,1.2,1.8,1.6c.8.4,1.8.6,3,.6s1.7-.1,2.5-.4c.8-.3,1.5-.7,2.2-1.3l1.2,2.5c-.8.7-1.8,1.2-2.9,1.5-1.1.4-2.2.5-3.4.5ZM122.9,49.4l1.2-6.3h2.9l-1.3,6.8-2.8-.5Z"/>
  <path class="cls-1" d="M132.5,51.7h-3.1l3.4-16.8h3.1l-3.4,16.8ZM142.9,44.5h-9.1l.5-2.7h9.2l-.6,2.7ZM144.6,34.9h3.1l-3.4,16.8h-3.1l3.4-16.8Z"/>
  <path class="cls-1" d="M148.9,51.7l3.4-16.8h3.1l-3.4,16.8h-3.1Z"/>
  <path class="cls-1" d="M159.6,51.9c-1.2,0-2.3-.2-3.1-.6-.9-.4-1.6-1-2-1.8l2.1-2c.3.6.7,1.1,1.3,1.4.5.3,1.1.5,1.8.5s1.5-.2,2-.7.9-1.2,1.1-2.2l1.7-8.8h-6l.6-2.6h9l-2.3,11.3c-.3,1.4-.7,2.5-1.2,3.4-.6.8-1.2,1.4-2.1,1.8-.8.4-1.8.6-2.9.6Z"/>
  <path class="cls-1" d="M169.2,51.7l3.4-16.8h3.1l-3.4,16.8h-3.1ZM172.8,47.7l.4-3.7,10.4-9.1h3.9l-9,7.8-2,1.7-3.8,3.3ZM181.1,51.7l-5.1-7.7,2.1-2.1,6.5,9.8h-3.5Z"/>
  <path class="cls-1" d="M186.7,51.7l3.4-16.8h3.1l-2.8,14.2h8.8l-.5,2.6h-11.9Z"/>
  <path class="cls-1" d="M201,51.7l3.4-16.8h2.5l4.9,12.3h-1.3s9.6-12.3,9.6-12.3h2.7l-3.4,16.8h-3l2.4-12.2h.7s-8.1,10.3-8.1,10.3h-1.4l-4.3-10.3h.6c0,0-2.4,12.2-2.4,12.2h-3Z"/>
  <path class="cls-1" d="M224,51.7l3.4-16.8h2.6l7.7,13h-1c0,0,2.6-13,2.6-13h3.1l-3.4,16.8h-2.6l-7.6-13h1c0,0-2.6,13-2.6,13h-3.1Z"/>
  <path class="cls-1" d="M251.8,51.9c-1.7,0-3.1-.3-4.3-.9-1.2-.6-2.1-1.4-2.7-2.5s-.9-2.3-.9-3.8.2-2.7.7-3.9c.5-1.2,1.2-2.3,2.1-3.2.9-.9,2-1.6,3.3-2.2,1.3-.5,2.7-.8,4.2-.8s3.1.3,4.4.9c1.2.6,2.1,1.4,2.8,2.5.6,1.1.9,2.3.9,3.8s-.2,2.7-.7,3.9-1.2,2.3-2.1,3.2c-.9.9-2,1.6-3.3,2.2-1.3.5-2.7.8-4.2.8ZM252.1,49.2c1.1,0,2-.2,2.9-.6.8-.4,1.6-.9,2.2-1.6.6-.7,1.1-1.4,1.4-2.3.3-.9.5-1.8.5-2.8s-.2-1.7-.6-2.4-1-1.2-1.7-1.6c-.8-.4-1.7-.6-2.8-.6s-2,.2-2.8.6-1.6.9-2.2,1.6c-.6.7-1.1,1.4-1.4,2.3-.3.9-.5,1.8-.5,2.8s.2,1.7.6,2.4c.4.7,1,1.2,1.8,1.6.8.4,1.7.6,2.8.6Z"/>
  <path class="cls-1" d="M263.6,51.7l3.4-16.8h6.5c2,0,3.6.4,4.7,1.3,1.1.9,1.7,2.1,1.7,3.7s-.3,2.7-1,3.7c-.6,1-1.6,1.8-2.8,2.4s-2.6.8-4.2.8h-5.5l1.7-1.5-1.3,6.3h-3.1ZM267.9,45.7l-1.1-1.5h5.1c1.5,0,2.7-.3,3.5-1,.8-.7,1.2-1.6,1.2-2.9s-.3-1.6-.9-2.1c-.6-.4-1.5-.7-2.7-.7h-4.9l1.7-1.6-1.9,9.8Z"/>
  <path class="cls-1" d="M289.4,51.9c-1.7,0-3.1-.3-4.3-.9-1.2-.6-2.1-1.4-2.7-2.5s-.9-2.3-.9-3.8.2-2.7.7-3.9c.5-1.2,1.2-2.3,2.1-3.2.9-.9,2-1.6,3.3-2.2,1.3-.5,2.7-.8,4.2-.8s3.1.3,4.4.9c1.2.6,2.1,1.4,2.8,2.5.6,1.1.9,2.3.9,3.8s-.2,2.7-.7,3.9-1.2,2.3-2.1,3.2c-.9.9-2,1.6-3.3,2.2-1.3.5-2.7.8-4.2.8ZM289.7,49.2c1.1,0,2-.2,2.9-.6.8-.4,1.6-.9,2.2-1.6.6-.7,1.1-1.4,1.4-2.3.3-.9.5-1.8.5-2.8s-.2-1.7-.6-2.4-1-1.2-1.7-1.6c-.8-.4-1.7-.6-2.8-.6s-2,.2-2.8.6-1.6.9-2.2,1.6c-.6.7-1.1,1.4-1.4,2.3-.3.9-.5,1.8-.5,2.8s.2,1.7.6,2.4c.4.7,1,1.2,1.8,1.6.8.4,1.7.6,2.8.6ZM294.2,55.4c-1.4,0-2.7-.4-3.8-1.1s-2-1.7-2.8-3l3.5-.7c.4.9.9,1.5,1.4,1.9.5.4,1.1.6,1.9.6s1.1-.1,1.6-.3c.5-.2,1-.5,1.4-.9l1.2,1.9c-.5.6-1.1,1-1.9,1.3s-1.6.4-2.4.4Z"/>
  <path class="cls-1" d="M301.2,51.7l3.4-16.8h6.5c2,0,3.6.4,4.7,1.3,1.1.9,1.7,2.1,1.7,3.7s-.3,2.6-1,3.6c-.6,1-1.6,1.8-2.8,2.4-1.2.5-2.6.8-4.2.8h-5.5l1.6-1.4-1.2,6.3h-3.1ZM305.6,45.7l-1.1-1.5h5.1c1.5,0,2.7-.3,3.5-1,.8-.7,1.3-1.6,1.3-2.9s-.3-1.6-.9-2.1c-.6-.4-1.5-.7-2.6-.7h-4.9l1.6-1.6-2,9.8ZM312.3,51.7l-3.4-6.1h3.3l3.4,6.1h-3.3Z"/>
  <path class="cls-1" d="M324.3,51.9c-.9,0-1.7,0-2.5-.3s-1.6-.4-2.3-.7c-.7-.3-1.2-.6-1.7-1l1.3-2.5c.5.4,1,.7,1.6,1,.6.3,1.2.5,1.9.6.7.1,1.3.2,2,.2s1.5,0,2.1-.3c.6-.2,1.1-.5,1.4-.8.3-.4.5-.8.5-1.3s-.2-.8-.5-1.1c-.3-.3-.7-.5-1.2-.7-.5-.2-1-.4-1.6-.5-.6-.2-1.2-.4-1.8-.6-.6-.2-1.2-.5-1.7-.8-.5-.3-.9-.7-1.2-1.2-.3-.5-.5-1.2-.5-2s.3-2,.9-2.8c.6-.8,1.5-1.4,2.6-1.9,1.1-.4,2.4-.7,3.8-.7s2.1.1,3.1.4c1,.2,1.8.6,2.5,1.1l-1.2,2.5c-.6-.4-1.3-.8-2.1-1s-1.6-.3-2.4-.3-1.6.1-2.2.3c-.6.2-1.1.5-1.4.9-.3.4-.5.8-.5,1.3s.2.8.5,1.1.7.5,1.2.7,1.1.4,1.7.5,1.2.4,1.8.6c.6.2,1.2.5,1.7.8s.9.7,1.2,1.2c.3.5.5,1.1.5,1.8,0,1.1-.3,2.1-.9,2.9-.6.8-1.5,1.5-2.6,1.9-1.1.4-2.4.7-3.9.7Z"/>
  <path class="cls-1" d="M337.1,51.7l2.8-14.2h-5.6l.6-2.6h14.2l-.5,2.6h-5.6l-2.8,14.2h-3.1Z"/>
  <path class="cls-1" d="M355.5,51.9c-1.6,0-2.9-.3-4-.9s-1.8-1.5-2.2-2.6c-.4-1.1-.5-2.5-.2-4l1.9-9.5h3.1l-1.9,9.4c-.1.8-.2,1.5-.1,2.1,0,.6.3,1.1.6,1.5.3.4.7.7,1.2.9s1.1.3,1.8.3,1.7-.2,2.3-.5c.6-.3,1.2-.9,1.6-1.6.4-.7.8-1.6,1-2.8l1.9-9.4h3.1l-1.9,9.6c-.5,2.5-1.4,4.3-2.8,5.6-1.4,1.2-3.2,1.8-5.5,1.8Z"/>
  <path class="cls-1" d="M371.7,51.7l-4-16.8h3.2l3.6,15.2h-2l9.7-15.2h3.2l-10.7,16.8h-3.1Z"/>
  <path class="cls-1" d="M388.1,51.7l-2.2-16.8h3.1l2,15.2h-1.6l8.2-15.2h2.9l1.9,15.2h-1.5l8.1-15.2h3.1l-8.9,16.8h-3.3l-1.8-13.7h.9l-7.5,13.7h-3.3Z"/>
  <path class="cls-1" d="M409,51.7l8.9-9.5-.2,1.8-4.9-9h3.3l3.7,6.9h-1.4c0,0,6.3-6.9,6.3-6.9h3.6l-8.3,9v-1.8c0,0,5.3,9.6,5.3,9.6h-3.4l-3.9-7.3h1.4s-6.6,7.3-6.6,7.3h-3.7Z"/>
  <path class="cls-1" d="M431.1,51.7l1.4-6.7.3,2-4.9-12.1h3.1l3.9,9.7h-1.8s7.8-9.7,7.8-9.7h3.2l-9.7,12.1,1.1-2-1.4,6.7h-3.1Z"/>
  <path class="cls-1" d="M441.5,51.7l.5-2.1,13.4-13.2.3,1.2h-11l.5-2.6h13.8l-.4,2.1-13.4,13.2-.3-1.2h11.5l-.6,2.6h-14.4Z"/>
  <path class="cls-1" d="M163.6,80.7c-1.2,0-2.3-.2-3.1-.7s-1.6-1.2-2-2.2c-.5-.9-.7-2.1-.7-3.4s.2-2.9.6-4.2c.4-1.3,1-2.5,1.7-3.5.8-1,1.7-1.8,2.7-2.4s2.2-.9,3.5-.9,2.3.2,3.1.7c.9.5,1.5,1.2,2,2.1.5.9.7,2.1.7,3.4s-.2,2.9-.6,4.2-1,2.5-1.7,3.5c-.8,1-1.7,1.8-2.7,2.4-1,.6-2.2.9-3.5.9ZM163.9,78c.9,0,1.6-.3,2.3-.8.6-.5,1.2-1.2,1.6-2,.4-.8.8-1.7,1-2.7s.3-1.9.3-2.7c0-1.2-.3-2.1-.8-2.7-.5-.6-1.3-.9-2.2-.9s-1.6.3-2.3.8c-.7.5-1.2,1.2-1.6,2s-.8,1.7-1,2.7c-.2,1-.3,1.9-.3,2.7s.3,2.1.8,2.7c.5.6,1.3.9,2.2.9Z"/>
  <path class="cls-1" d="M175.1,80.5l3.1-15.5,1.1,1.3h-4.9l.5-2.6h6.7l-3.4,16.8h-3.1Z"/>
  <path class="cls-1" d="M181.3,80.5l.4-2.1,7.9-6.3c.7-.5,1.3-1,1.6-1.5.4-.4.7-.9.8-1.2.2-.4.2-.8.2-1.2,0-.7-.2-1.2-.7-1.6s-1.2-.6-2.2-.6-1.5.2-2.2.5c-.7.3-1.3.8-1.8,1.3l-2.1-1.7c.7-.8,1.6-1.5,2.8-2s2.4-.8,3.8-.8,2.2.2,3,.6,1.5.9,1.9,1.5c.4.6.7,1.4.7,2.3s-.1,1.3-.3,1.9c-.2.6-.6,1.3-1.2,1.9-.5.6-1.3,1.4-2.3,2.1l-6.8,5.3-.6-1.2h9.9l-.5,2.6h-12.4Z"/>
  <path class="cls-1" d="M201,80.7c-1.2,0-2.4-.2-3.4-.5-1-.4-1.9-.9-2.6-1.5l1.6-2.4c.5.5,1.2.9,2,1.2.8.3,1.7.5,2.7.5s1.6-.1,2.2-.3c.6-.2,1.1-.6,1.4-1,.3-.4.5-.9.5-1.5s-.3-1.3-.8-1.6c-.5-.4-1.4-.5-2.4-.5h-1.5l.4-2.1,5.9-5.7.3,1.2h-9.1l.5-2.6h11.4l-.4,2.1-5.9,5.7-1.5-.9h.7c1.2,0,2.2.2,3,.5.8.4,1.4.9,1.9,1.5.4.7.6,1.4.6,2.4s-.3,2.1-.9,3c-.6.9-1.5,1.6-2.6,2.1s-2.4.7-3.9.7Z"/>
  <path class="cls-1" d="M210,76.7l.4-2.1,10.3-10.8h3.5l-10.2,10.8-1.6-.5h13.4l-.5,2.6h-15.2ZM218.4,80.5l.8-3.8.6-2.6.7-3.4h2.9l-2,9.8h-3Z"/>
  <path class="cls-1" d="M231.6,80.7c-1.2,0-2.4-.2-3.4-.5-1-.4-1.9-.9-2.6-1.5l1.5-2.4c.5.5,1.2.9,2,1.2.8.3,1.7.5,2.7.5s2.3-.3,3-.8c.7-.5,1.1-1.2,1.1-2.1s-.3-1.3-.9-1.7-1.5-.6-2.9-.6h-4.3l2.7-9.1h9.9l-.5,2.6h-8.7l2-1.5-2,6.8-1.4-1.5h3.1c2.1,0,3.7.4,4.8,1.2,1,.8,1.5,1.9,1.5,3.3s-.3,2.2-.9,3.1c-.6.9-1.5,1.6-2.6,2.1s-2.4.8-3.9.8Z"/>
  <path class="cls-1" d="M247.8,80.7c-1.3,0-2.4-.3-3.4-.8-1-.5-1.8-1.3-2.3-2.3-.6-1-.8-2.3-.8-3.8s.1-1.9.3-2.8c.2-1,.6-1.9,1.1-2.8s1.1-1.7,1.9-2.4c.8-.7,1.7-1.3,2.8-1.7,1.1-.4,2.3-.6,3.7-.6s1.7,0,2.5.3c.8.2,1.4.4,2,.8l-1.4,2.4c-.4-.3-.9-.5-1.5-.6s-1.1-.2-1.7-.2-1.6.1-2.2.3c-.7.2-1.2.6-1.7,1s-.9.9-1.2,1.4-.6,1.1-.8,1.8-.3,1.3-.3,1.9c0,.5,0,.8,0,1,0,.2,0,.4,0,.6l-1.1-.5c.4-.9.8-1.6,1.3-2.1.5-.5,1.2-.9,1.9-1.1.7-.2,1.5-.3,2.3-.3s1.9.2,2.7.6c.8.4,1.5.9,2,1.6.5.7.8,1.6.8,2.6s-.3,2.2-.8,3c-.6.9-1.3,1.5-2.3,2-1,.5-2.1.7-3.3.7ZM247.8,78.3c1,0,1.8-.3,2.4-.8.6-.6,1-1.3,1-2.3s-.3-1.5-.9-1.9c-.6-.4-1.3-.7-2.3-.7s-1.3.1-1.9.4-.9.6-1.2,1.1c-.3.4-.4,1-.4,1.5s.1.9.4,1.3.6.8,1.1,1c.5.3,1.1.4,1.8.4Z"/>
  <path class="cls-1" d="M257.5,80.5l9.9-15.6.6,1.4h-9.5l1.8-1.5-.9,4.4h-2.9l1.1-5.5h13.1l-.4,2.1-9.4,14.7h-3.4Z"/>
  <path class="cls-1" d="M276.3,80.7c-1.3,0-2.5-.2-3.5-.6s-1.7-.9-2.3-1.6c-.5-.7-.8-1.5-.8-2.5s.3-2,.9-2.8c.6-.8,1.4-1.4,2.4-1.8s2.3-.6,3.8-.6,2.6.2,3.6.5c1,.4,1.7.9,2.3,1.5.5.7.8,1.5.8,2.4s-.3,2.1-.9,2.9c-.6.8-1.4,1.4-2.5,1.9-1.1.4-2.3.6-3.7.6ZM277.9,72.6c-1.3,0-2.4-.2-3.3-.5-.9-.3-1.6-.8-2.1-1.4-.5-.6-.7-1.3-.7-2.2s.3-2,.8-2.7c.6-.7,1.3-1.3,2.3-1.7,1-.4,2.1-.6,3.4-.6s2.3.2,3.2.5c.9.3,1.6.8,2.1,1.5s.8,1.4.8,2.3-.3,1.9-.8,2.6c-.5.7-1.2,1.3-2.2,1.6s-2.1.6-3.5.6ZM276.4,78.3c1.2,0,2.2-.3,2.9-.8.7-.5,1.1-1.2,1.1-2.2s-.3-1.4-.9-1.8c-.6-.4-1.5-.7-2.6-.7s-2.2.3-2.9.8c-.7.5-1.1,1.2-1.1,2.1s.3,1.4,1,1.8c.6.4,1.5.7,2.6.7ZM277.9,70.6c1,0,1.8-.2,2.4-.7.6-.5.9-1.1.9-1.8s-.3-1.2-.8-1.6c-.6-.4-1.3-.6-2.2-.6s-1.8.2-2.4.7c-.6.5-.9,1.1-.9,1.9s.3,1.2.8,1.5c.5.4,1.3.6,2.2.6Z"/>
  <path class="cls-1" d="M292.8,63.5c1.3,0,2.4.3,3.4.8,1,.5,1.8,1.3,2.3,2.3.6,1,.9,2.3.9,3.8s-.1,1.9-.4,2.8c-.2,1-.6,1.9-1.1,2.8s-1.1,1.7-1.9,2.4-1.7,1.3-2.7,1.7-2.3.6-3.7.6-1.7,0-2.5-.3c-.8-.2-1.4-.4-2-.8l1.4-2.4c.4.3.9.5,1.5.6s1.1.2,1.7.2,1.6-.1,2.2-.3c.6-.2,1.2-.6,1.7-1s.9-.9,1.2-1.4.6-1.1.8-1.8.3-1.3.3-1.9c0-.5,0-.8,0-1,0-.2,0-.4,0-.6l1.1.5c-.3.9-.8,1.6-1.3,2.1-.6.5-1.2.9-1.9,1.1-.7.2-1.5.3-2.3.3s-1.9-.2-2.7-.6c-.8-.4-1.5-.9-2-1.6-.5-.7-.8-1.6-.8-2.6s.3-2.2.8-3.1c.6-.9,1.3-1.5,2.3-2s2.1-.7,3.3-.7ZM292.8,65.9c-1,0-1.8.3-2.4.8-.6.6-1,1.3-1,2.3s.3,1.5.9,1.9c.6.5,1.3.7,2.3.7s1.3-.1,1.8-.4.9-.6,1.2-1.1c.3-.4.4-1,.4-1.5s-.1-.9-.4-1.3c-.2-.4-.6-.8-1.1-1-.5-.3-1.1-.4-1.8-.4Z"/>
  <path class="cls-1" d="M302.1,80.7c-.5,0-1-.2-1.3-.5-.3-.3-.5-.7-.5-1.2s.2-1.1.6-1.4c.4-.4.9-.6,1.4-.6s1,.2,1.3.5c.3.3.5.7.5,1.2s0,.7-.3,1c-.2.3-.4.5-.7.7-.3.2-.6.3-1,.3ZM301.8,74.9l1.6-11.2h3.6l-2.8,11.2h-2.4Z"/>
</svg>